<svg width="265" height="51" viewBox="0 0 265 51" fill="none" xmlns="http://www.w3.org/2000/svg">
<path d="M49.8089 50.175H43.8429C34.5471 50.175 35.5183 50.036 30.9398 34.6082C28.7199 27.1028 19.2853 27.1028 15.8168 27.1028H11.6544V43.3646C11.6544 48.3682 13.3194 49.4801 16.9267 49.4801V50.175H0V49.3411C3.88482 49.3411 4.99476 48.5071 4.99476 41.8357V5.83747C4.99476 1.52881 3.88482 0.972851 0 0.972851V0.138916H14.4293C32.0497 0.138916 40.6518 1.80679 40.6518 13.7599C40.6518 23.9061 33.5759 26.6859 24.5576 26.8248C30.5236 27.3808 36.0733 26.5469 40.7906 43.5035C42.3167 48.9241 47.589 49.3411 49.9476 49.4801V50.175H49.8089ZM14.4293 0.972851H11.6544V26.4079H14.4293C25.2513 26.4079 33.0209 26.5469 33.0209 13.7599C33.0209 0.416894 24.2801 0.972851 14.4293 0.972851Z" fill="#0C4E58"/>
<path d="M79.9162 0.138916V0.833862C76.0314 0.833862 74.3664 1.6678 74.3664 6.11545V43.0866C74.3664 47.9512 76.1701 49.4801 79.9162 49.4801V50.175H61.6021V49.3411C65.4869 49.3411 67.1518 47.8122 67.1518 42.9476V6.11545C67.1518 1.6678 65.4869 0.833862 61.6021 0.833862V0.138916H79.9162Z" fill="#0C4E58"/>
<path d="M108.775 50.175H91.8481V49.3411C95.733 49.3411 97.5366 47.1173 97.5366 42.2526V7.78332C97.5366 3.33567 95.733 0.833862 91.8481 0.833862V0.138916H108.775C126.395 0.138916 143.044 4.44758 143.044 25.296C143.044 47.1173 126.395 50.175 108.775 50.175ZM108.775 0.972851H104.89V49.4801H108.775C118.764 49.4801 134.72 49.6191 134.72 25.296C134.72 1.80679 119.042 0.972851 108.775 0.972851Z" fill="#0C4E58"/>
<path d="M265 35.7201V50.175H223.1V49.3411C226.846 49.3411 227.678 47.3952 227.678 42.5306V6.67141C227.678 2.22375 227.123 0.972851 223.1 0.972851V0.138916H263.89V12.6479H262.919C262.503 1.11184 251.403 0.972851 240.581 0.972851H234.893V24.601H241.969C245.576 24.601 252.929 24.462 253.207 17.5126H254.178V32.3844H253.207C252.929 25.296 245.299 25.296 241.969 25.296H234.893V49.3411H239.471C251.403 49.3411 263.196 49.897 264.029 35.7201H265Z" fill="#0C4E58"/>
<path d="M183.28 10.8411C164.133 10.8411 154.838 22.3772 154.838 36.5541C154.838 41.5577 155.948 46.2833 158.445 50.314H166.076C164.688 46.8393 163.856 42.2526 163.856 36.5541C163.856 16.9566 173.152 11.675 183.28 11.675C193.686 11.675 202.704 14.0378 203.398 26.2689H204.785L205.618 15.1497C200.068 12.092 194.657 10.8411 183.28 10.8411ZM192.437 41.5577V42.3916C197.987 42.3916 199.097 42.5306 199.374 50.175H205.618C205.895 42.5306 207.144 42.3916 211.306 42.3916V41.5577H192.437Z" fill="#0C4E58"/>
<path d="M205.479 0.138989C205.479 1.94585 205.479 4.03069 205.479 6.53249C199.929 8.20036 192.854 9.45126 183.28 9.45126C172.458 9.45126 164.827 5.83754 160.249 0H167.325C170.932 6.53249 177.037 8.61733 183.28 8.61733C193.686 8.61733 199.374 6.53249 199.374 0.972924V0.138989H205.479Z" fill="#0C4E58"/>
</svg>
