<svg width="35" height="35" viewBox="0 0 35 35" fill="none" xmlns="http://www.w3.org/2000/svg">
<rect width="35" height="35" rx="17.5" fill="#217BEE"/>
<path d="M19.56 8.021C18.2382 8.021 16.9706 8.54608 16.0359 9.48073C15.1013 10.4154 14.5762 11.683 14.5762 13.0048V15.7796H11.9091C11.7752 15.7796 11.6667 15.8882 11.6667 16.0221V19.6859C11.6667 19.8198 11.7752 19.9283 11.9091 19.9283H14.5762V27.4445C14.5762 27.5784 14.6847 27.6869 14.8186 27.6869H18.4824C18.6163 27.6869 18.7249 27.5784 18.7249 27.4445V19.9283H21.4155C21.5268 19.9283 21.6238 19.8526 21.6507 19.7447L22.5667 16.0809C22.6049 15.9279 22.4892 15.7796 22.3315 15.7796H18.7249V13.0048C18.7249 12.7833 18.8129 12.5709 18.9695 12.4143C19.1261 12.2577 19.3385 12.1697 19.56 12.1697H22.3617C22.4956 12.1697 22.6042 12.0612 22.6042 11.9272V8.26345C22.6042 8.12955 22.4956 8.021 22.3617 8.021H19.56Z" fill="white"/>
</svg>
