<svg width="35" height="35" viewBox="0 0 35 35" fill="none" xmlns="http://www.w3.org/2000/svg">
<rect x="-1.52588e-05" width="35" height="35" rx="17.5" fill="#0183FF"/>
<path d="M9 17.4875C9 12.6105 12.8205 9 17.75 9C22.6795 9 26.5 12.6105 26.5 17.4875C26.5 22.3645 22.6795 25.975 17.75 25.975C16.8641 25.975 16.0153 25.858 15.2169 25.6392C15.0621 25.5961 14.8971 25.6077 14.7498 25.672L13.013 26.4398C12.9081 26.4861 12.7934 26.5059 12.6791 26.4975C12.5647 26.4891 12.4542 26.4527 12.3572 26.3916C12.2602 26.3304 12.1797 26.2464 12.1228 26.1469C12.0659 26.0474 12.0343 25.9354 12.0308 25.8208L11.9827 24.2644C11.9793 24.1696 11.9568 24.0766 11.9163 23.9908C11.8759 23.9051 11.8185 23.8285 11.7475 23.7656C10.0456 22.2431 9 20.0381 9 17.4875ZM15.0659 15.8917L12.4956 19.9692C12.2495 20.3608 12.7297 20.8016 13.0983 20.5227L15.86 18.427C15.9508 18.358 16.0617 18.3205 16.1757 18.3201C16.2898 18.3197 16.4009 18.3565 16.4922 18.4248L18.5364 19.9583C18.6814 20.067 18.8475 20.1446 19.0239 20.186C19.2004 20.2274 19.3836 20.2318 19.5619 20.199C19.7402 20.1661 19.9097 20.0966 20.0598 19.995C20.2099 19.8933 20.3374 19.7616 20.4341 19.6083L23.0044 15.5308C23.2516 15.1392 22.7703 14.6984 22.4017 14.9773L19.64 17.073C19.5492 17.142 19.4383 17.1795 19.3243 17.1799C19.2102 17.1803 19.0991 17.1435 19.0078 17.0752L16.9636 15.5406C16.8186 15.4319 16.6525 15.3543 16.4761 15.3129C16.2996 15.2715 16.1164 15.2671 15.9381 15.2999C15.7598 15.3328 15.5903 15.4023 15.4402 15.504C15.2901 15.6056 15.1626 15.7373 15.0659 15.8906V15.8917Z" fill="white"/>
</svg>
