<?xml version="1.0" encoding="UTF-8" standalone="no"?>
<svg
   xmlns:dc="http://purl.org/dc/elements/1.1/"
   xmlns:cc="http://creativecommons.org/ns#"
   xmlns:rdf="http://www.w3.org/1999/02/22-rdf-syntax-ns#"
   xmlns:svg="http://www.w3.org/2000/svg"
   xmlns="http://www.w3.org/2000/svg"
   xmlns:sodipodi="http://sodipodi.sourceforge.net/DTD/sodipodi-0.dtd"
   xmlns:inkscape="http://www.inkscape.org/namespaces/inkscape"
   width="123"
   height="202"
   viewBox="0 0 123 202"
   fill="none"
   version="1.1"
   id="svg13"
   sodipodi:docname="flower.svg"
   inkscape:version="1.0.1 (3bc2e813f5, 2020-09-07)">
  <metadata
     id="metadata17">
    <rdf:RDF>
      <cc:Work
         rdf:about="">
        <dc:format>image/svg+xml</dc:format>
        <dc:type
           rdf:resource="http://purl.org/dc/dcmitype/StillImage" />
        <dc:title></dc:title>
      </cc:Work>
    </rdf:RDF>
  </metadata>
  <sodipodi:namedview
     pagecolor="#ffffff"
     bordercolor="#666666"
     borderopacity="1"
     objecttolerance="10"
     gridtolerance="10"
     guidetolerance="10"
     inkscape:pageopacity="0"
     inkscape:pageshadow="2"
     inkscape:window-width="1920"
     inkscape:window-height="1017"
     id="namedview15"
     showgrid="false"
     inkscape:zoom="3.1954887"
     inkscape:cx="61.5"
     inkscape:cy="158.03529"
     inkscape:window-x="1672"
     inkscape:window-y="-8"
     inkscape:window-maximized="1"
     inkscape:current-layer="svg13" />
  <g
     clip-path="url(#clip0)"
     id="g6">
    <path
       d="m 15.3289,23.897 c 0.9657,-1.0862 2.0521,-1.8104 3.5005,-2.0517 0,-0.3621 0.1207,-0.4828 0.1207,-0.7242 0.3622,-3.0172 1.2071,-5.7931 2.6556,-8.4483 1.2071,-2.1724 2.8969,-3.86202 5.0697,-5.06892 2.4141,-1.44827 4.8282,-1.56896 7.4838,-0.60345 0.6035,0.24138 1.0863,0.60345 1.5692,0.84483 0.3621,0.24138 0.8449,0.36207 1.207,0.36207 1.5692,0 3.0177,0.24138 4.104,1.56897 C 41.2809,9.53492 41.4016,9.29354 41.5223,9.17285 42.85,7.24181 44.2985,5.55216 46.1091,4.10388 48.0404,2.53492 50.2131,1.44871 52.6273,0.845262 55.0414,0.241814 57.5762,-0.120255 60.1111,4.34523e-4 62.0424,0.121124 63.9737,0.483193 65.7843,1.32802 c 2.5348,1.2069 4.3454,3.13793 5.5525,5.55172 0.8449,1.68966 0.6035,1.44828 2.4141,2.17242 1.5692,0.60345 3.0177,1.20694 4.5869,1.93104 0.7242,0.3621 1.3278,0.8448 1.9313,1.2069 0.3621,0.2414 0.7242,0.3621 1.2071,0.2414 1.9313,-0.2414 3.9833,-0.2414 5.9146,0 2.2934,0.362 4.2247,1.5689 6.0353,2.8965 2.6555,2.0517 4.2247,4.7069 4.8283,7.9655 0.1207,0.4828 0.2414,0.7242 0.7242,0.9656 1.6894,0.9655 2.7764,2.2931 3.5004,3.9827 0.845,1.931 1.207,4.1035 1.328,6.1552 0.121,3.6207 -0.362,7.1207 -1.086,10.6207 -0.845,4.1034 -2.173,7.9655 -3.8631,11.8276 -0.7242,1.8103 -1.5692,3.5 -2.2934,5.1896 0,0.1207 -0.1207,0.2414 -0.1207,0.4828 0.2414,-0.1207 0.4828,-0.2414 0.6035,-0.3621 2.2934,-1.2069 4.7077,-1.931 7.2427,-1.8103 3.017,0.1206 5.673,1.0862 7.966,3.0172 0.483,0.4828 1.087,0.8448 1.449,1.3276 0.483,0.4827 1.086,0.7241 1.81,0.8448 0.966,0.2414 1.932,0.4828 2.777,0.8448 1.327,0.4828 2.414,1.2069 3.259,2.2931 0.12,0.1207 0.241,0.2414 0.362,0.4828 0.966,1.3276 1.207,2.7759 0.483,4.2241 -0.725,1.4483 -2.052,2.2931 -3.622,2.4138 -0.724,0 -1.569,-0.1207 -2.414,-0.2414 -1.327,-0.362 -2.534,-0.7241 -3.862,-1.0862 -4.587,-1.3275 -9.295,-1.4482 -14.0022,-0.7241 -3.1384,0.4828 -6.0354,1.3276 -8.9323,2.5345 -2.7763,1.0862 -5.5525,2.2931 -8.0873,3.9827 -0.6036,0.3621 -1.2071,0.7242 -1.8106,0.9656 -3.742,1.931 -7.7253,2.2931 -11.8293,1.4482 0,0 0,0 -0.1207,0 -2.5348,-0.6034 -2.5348,-0.4827 -5.0697,0.1207 -0.8449,0.2414 -1.5692,0.3621 -2.4141,0.4828 -0.9657,0.2414 -1.9313,0.4827 -2.897,0.7241 -2.1727,0.6035 -3.6212,2.0517 -4.5868,3.9828 -0.7243,1.5689 -1.0864,3.1379 -1.2071,4.9483 -0.6035,11.3445 -0.3621,22.8105 0.7243,34.1555 0.2414,2.655 0.7242,5.31 1.207,7.965 0.2414,1.328 0.3621,2.776 0.6036,4.104 0.6035,3.862 0.3621,7.724 -0.4829,11.465 -1.3277,5.552 -2.1727,11.104 -2.8969,16.655 -0.4828,3.621 -0.6036,7.362 -0.4829,10.983 l 1.0864,24.5 h -1.0864 c -0.3621,-5.31 -1.4484,-26.069 -1.0863,-31.379 0.2414,-3.983 0.8449,-7.845 1.5692,-11.828 0.4828,-3.017 1.0863,-6.034 1.8106,-9.052 0.8449,-3.862 1.207,-7.724 0.4828,-11.706 -0.2414,-1.328 -0.3621,-2.776 -0.6035,-4.104 -1.0864,-6.155 -1.5692,-12.31 -1.9313,-18.465 -0.4829,-8.449 -0.3622,-16.7763 0.1207,-25.2246 0.1207,-1.8103 0,-3.6207 -0.6036,-5.431 -0.6035,-1.8104 -1.6899,-3.2586 -3.5005,-4.1035 -0.6035,-0.362 -1.3277,-0.6034 -2.052,-0.8448 C 42.6086,80.1384 40.798,79.6556 38.8667,79.4142 32.9521,78.9315 27.2789,77.8453 21.6057,76.0349 17.7431,74.7073 14.0012,73.1384 10.5007,70.8453 7.1209,68.7935 4.10324,66.1384 1.93052,62.759 0.964867,61.3108 0.361334,59.7418 0.119921,58.0522 -7.85355e-4,57.328 -7.85332e-4,56.6039 0.361334,55.8797 0.844161,54.9142 1.68911,54.3108 2.77547,54.0694 c 1.08635,-0.1207 2.17271,-0.1207 3.13837,0.1207 0.60353,0.1207 1.32777,0.1207 2.05201,0.2414 0.60353,0.1207 1.08636,-0.1207 1.44848,-0.6035 0.84497,-1.0862 1.93127,-1.931 3.25907,-2.4138 0.7242,-0.2414 1.3278,-0.4827 2.052,-0.4827 0.2414,0 0.3621,0 0.6035,0 0,-0.2414 0,-0.3621 -0.1207,-0.6035 C 13.3976,44.1728 11.587,38.1384 9.65574,31.9832 8.9315,29.6901 8.32797,27.2763 8.08655,24.8625 7.96585,23.6556 7.96585,22.4487 8.44867,21.2418 9.05221,19.9142 10.2593,19.4315 11.587,20.0349 c 1.4485,0.7242 2.5349,1.8104 3.2591,3.2586 0.2414,0.2414 0.3621,0.3621 0.4828,0.6035 z m 38.264,56.2414 c 0,-0.1207 0.1207,-0.1207 0.1207,-0.2414 1.2071,-3.138 1.8106,-6.5173 2.2935,-9.8966 0.8449,-6.3965 1.3277,-12.9138 1.6899,-19.3103 0.4828,-8.569 0.8449,-17.1379 0.9656,-25.5862 0.1207,-5.6724 0.4828,-11.4655 0.7242,-17.13795 0,-0.12069 0,-0.24138 0.1208,-0.36207 0.1207,1.2069 0.1207,2.29311 0.1207,3.50002 -0.1207,3.8621 -0.2415,7.6034 -0.3622,11.4655 -0.2414,6.8793 -0.3621,13.8793 -0.6035,20.7586 -0.2414,7.8448 -0.7242,15.6897 -1.5692,23.5345 -0.4828,4.5862 -1.207,9.1724 -2.8969,13.5172 -0.1207,0.4828 -0.3622,0.9656 -0.6036,1.569 0.6036,0.2414 1.2071,0.2414 1.6899,0.1207 1.5692,-0.3621 2.897,-1.2069 3.9833,-2.2931 1.9313,-1.8104 3.3798,-4.1035 4.4662,-6.5173 1.207,-2.5344 2.1727,-5.0689 3.0176,-7.7241 C 68.4398,59.8625 69.5262,54.1901 70.3711,48.397 72.061,35.2418 72.061,22.0866 70.854,8.93147 70.854,8.5694 70.7333,8.32802 70.6126,7.96595 69.2848,5.0694 67.2328,3.01768 64.2151,1.93147 61.1974,0.845262 58.0591,0.965952 54.9207,1.5694 c 0,0 -0.1207,0 -0.1207,0.12069 0,0.24138 0,0.36207 0,0.60345 0,2.17241 -0.1207,4.22414 -0.1207,6.39655 -0.1207,1.44831 -0.2414,3.01721 -0.3621,4.58621 0,0.2414 -0.1207,0.4828 -0.1207,0.7241 0,0 0,0 -0.1207,0 0.1207,-4.10341 0.2414,-8.20686 0.2414,-12.31031 -0.1207,0 -0.2414,0 -0.3621,0 -1.5692,0.24138 -3.1384,0.72414 -4.4662,1.56897 -0.3621,0.12068 -0.6035,0.48275 -0.7242,0.84482 -0.3621,0.84483 -0.7243,1.68966 -1.0864,2.53448 -1.2071,2.77587 -2.1727,5.55174 -3.0177,8.44824 -2.6555,9.1725 -3.8626,18.7069 -3.8626,28.3621 0,7.3621 0.7243,14.7241 2.5349,21.8448 0.9656,3.8621 2.4141,7.6035 4.4661,10.9828 1.0864,1.931 2.4142,3.6207 4.104,5.069 0.2415,0.2413 0.4829,0.4827 0.9657,0.362 0,-0.2414 0.1207,-0.4827 0.1207,-0.7241 0.1207,-1.2069 0.2414,-2.4138 0.3621,-3.6207 0.6036,-8.3276 0.845,-16.6552 0.845,-25.1035 0,-5.7931 -0.2414,-11.7068 -0.2414,-17.5 0,-0.2413 0,-0.362 0,-0.6034 0.1207,0 0.1207,0 0.2414,0 0.2414,7.7241 0.6035,15.3276 0.4828,23.0517 -0.3621,7.6035 -0.4828,15.3276 -1.0864,22.9311 z M 77.1307,18.466 c 0.1207,0.1206 0.2414,0.2413 0.2414,0.362 0.1207,0.7242 0.3621,1.4483 0.4828,2.1724 1.5692,8.6897 1.6899,17.3793 0.3622,26.069 -1.0864,7.2414 -3.1384,14.1207 -6.6389,20.5172 -1.3278,2.5345 -2.8969,4.8276 -4.8283,7.1207 -2.5348,3.0173 -5.4317,5.5517 -8.9322,7.3621 -0.1207,0.1207 -0.2415,0.1207 -0.4829,0.3621 0.3622,0 0.4829,0 0.6036,0 1.3277,-0.3621 2.6555,-0.7242 3.8626,-1.2069 6.0353,-2.4138 10.6222,-6.3966 14.2434,-11.5862 1.8105,-2.4138 3.259,-5.069 4.4661,-7.8449 1.4485,-3.3793 2.6555,-6.8793 3.5005,-10.3793 2.2934,-9.7758 2.4141,-19.6724 1.2071,-29.6896 0,-0.3621 -0.1207,-0.7242 -0.2415,-1.0862 -0.6035,-1.569 -1.4484,-3.138 -2.4141,-4.5862 -1.5692,-2.2931 -3.6212,-3.8621 -6.156,-4.9483 -1.6899,-0.7242 -3.5005,-1.3276 -5.3111,-2.05174 0,0.12069 0,0.36207 0,0.48276 0.6035,6.03448 0.9656,12.18968 0.8449,18.22418 0,9.1724 -0.7242,18.3448 -2.4141,27.5172 -1.2071,6.3965 -2.7763,12.6724 -5.7939,18.4655 -1.2071,2.4138 -2.6556,4.7069 -4.7076,6.6379 -0.1207,0.1207 -0.2414,0.2414 -0.3621,0.3621 0.2414,0 0.3621,-0.1207 0.6035,-0.2414 3.5005,-2.1724 6.3975,-5.0689 8.8116,-8.4482 1.0864,-1.569 2.1727,-3.138 3.0177,-4.8276 1.0863,-2.0518 2.052,-4.1035 2.8969,-6.1552 1.6899,-4.2241 2.7763,-8.569 3.6212,-13.1552 1.6899,-9.6551 1.4485,-19.3103 -0.3621,-28.9655 0,0 -0.1207,-0.2414 -0.1207,-0.4827 z m -62.1639,6.7586 c 0.1207,0.7241 0.1207,1.3276 0.2414,1.931 0.9657,7.8448 2.2935,15.4483 4.4662,23.0517 1.4485,5.3104 3.2591,10.5 5.9146,15.3276 1.8106,3.3793 3.8626,6.6379 6.6389,9.1724 1.207,1.0862 2.4141,1.9311 4.104,2.5345 -0.1207,-0.1207 -0.2414,-0.2414 -0.2414,-0.2414 -1.5692,-1.2069 -2.897,-2.5344 -4.104,-4.1034 -2.6556,-3.5 -4.4662,-7.4828 -5.9147,-11.5862 C 24.3819,56.4832 23.4163,51.5349 22.692,46.466 21.9678,40.4315 21.7264,34.2763 22.2092,28.1211 c 0,-0.2414 0,-0.362 0.1207,-0.6034 0,3.0172 0,6.0345 0.1207,9.0517 0.2415,8.569 1.4485,16.8965 4.2248,24.9828 1.207,3.6206 2.8969,7.1206 5.0696,10.2586 1.5692,2.2931 3.5005,4.3448 5.9147,5.7931 0.9656,0.6034 2.052,0.9655 3.1383,1.0862 0.3622,0 0.7243,0.1207 1.2071,-0.2414 -0.2414,-0.2414 -0.4828,-0.4828 -0.7242,-0.6034 -0.9657,-0.8449 -2.052,-1.569 -3.0177,-2.5345 -2.052,-1.8104 -3.8626,-3.9828 -5.5525,-6.1552 -2.4141,-3.1379 -4.3454,-6.5172 -5.4318,-10.3793 -1.0864,-3.5 -1.3278,-7.2414 -1.3278,-10.8621 0.1207,-5.1896 0.9657,-10.1379 3.2591,-14.9655 0.2414,-0.4828 0.3621,-0.8448 0.6035,-1.3276 -0.4828,-0.362 -0.8449,-0.7241 -1.207,-1.0862 -0.3621,-0.3621 -0.7243,-0.8448 -1.0864,-1.3276 -0.2414,2.2931 -0.4828,4.4655 -0.7242,6.638 h -0.1207 c 0,-0.3621 0,-0.6035 0,-0.9656 0.1207,-1.6896 0.1207,-3.2586 0.4828,-4.9482 0.2414,-1.3276 -0.1207,-2.1724 -0.845,-3.138 -1.0863,-1.3276 -2.1727,-2.5344 -3.7419,-3.2586 -1.207,-0.6034 -2.5348,-0.7241 -3.8626,-0.2414 0,4.8276 0,9.6552 0.6036,14.4828 -0.9657,-4.7069 -0.9657,-9.5345 -0.9657,-14.3621 -1.5692,0.3621 -2.1727,1.4483 -3.3798,1.8104 z M 44.5399,78.5694 C 44.2985,78.328 44.1778,78.0866 43.9364,77.9659 43.0915,77.0004 42.1258,76.0349 41.2809,74.9487 37.1768,69.8797 34.5213,64.2073 32.7107,58.0522 31.1415,52.6211 30.4173,46.9487 30.7794,41.2763 c 0,-0.2414 0,-0.4828 0.1207,-0.8448 0.1207,0.1207 0.1207,0.2413 0.1207,0.2413 -0.3621,7.2414 0.845,14.2414 3.5005,21 2.5348,6.5173 6.0353,12.4311 11.2257,17.138 1.0864,1.0862 2.4141,1.5689 3.8626,2.0517 -0.1207,-0.1207 -0.2414,-0.2414 -0.3621,-0.2414 -1.5692,-1.2069 -3.0177,-2.5345 -4.2247,-4.1034 -2.2935,-2.8966 -3.8626,-6.1552 -5.1904,-9.5345 -1.9313,-5.1897 -3.0177,-10.5 -3.5005,-16.0517 -0.9657,-9.0518 -0.6035,-17.9828 0.7242,-26.9138 0,-0.2414 0.1207,-0.6035 0.1207,-0.9655 -1.207,1.4482 -2.1727,2.8965 -3.259,4.2241 -1.9313,2.4138 -3.3798,5.069 -4.5869,7.9655 -1.6899,4.3448 -2.1727,8.8104 -2.2934,13.3966 -0.2414,7.7241 2.4141,14.6034 7.1217,20.6379 2.2934,2.8965 4.8282,5.431 7.8459,7.6034 0.6035,0.6035 1.5692,1.0862 2.5348,1.6897 z m 25.3484,2.1724 v 0.1207 c 0.2414,0 0.4828,-0.1207 0.7243,-0.1207 2.1727,-0.6034 3.9833,-1.6897 5.7939,-2.8965 3.6212,-2.6552 6.3974,-6.0345 8.8116,-9.7759 1.4484,-2.1724 2.5348,-4.4655 3.7419,-6.7586 1.207,-2.5345 2.2934,-5.1897 3.1383,-7.8449 3.1384,-9.4137 4.8283,-19.0689 5.0697,-28.9655 0,-0.6034 -0.1207,-1.2069 -0.2414,-1.8103 -1.2071,-4.1035 -3.9833,-6.7586 -7.7252,-8.3276 -2.1727,-0.9655 -4.5869,-0.9655 -7.001,-0.7241 -0.1207,0 -0.1207,0.1207 -0.2414,0.1207 4.2247,5.0689 5.7939,11.2241 6.7595,17.5 0.2415,-1.3276 0.2415,-2.6552 0.3622,-4.1035 0.1207,-1.4483 0.2414,-2.7759 0.2414,-4.2241 0.1207,-1.3276 0.1207,-2.6552 0.3621,-3.9828 0.1207,0.3621 0.1207,0.7241 0.1207,1.0862 -0.1207,4.3448 -0.3621,8.6897 -0.7242,13.0345 -0.1207,1.2069 -0.1207,2.5345 -0.1207,3.7414 0,5.6724 -0.2415,11.3448 -1.2071,16.8965 -0.845,5.1897 -2.2934,10.138 -4.7076,14.7242 -2.8969,5.1896 -6.8802,9.2931 -12.312,11.8275 -0.3622,0.1207 -0.6036,0.2414 -0.845,0.4828 z M 50.0924,80.6211 c 0.1208,-0.1207 0.1208,-0.1207 0,0 0,-0.1207 0,-0.2414 0,-0.3621 -1.8106,-2.0517 -3.1383,-4.2241 -4.3454,-6.6379 -2.1727,-4.5862 -3.5005,-9.5345 -4.2247,-14.6034 -1.2071,-7.6035 -1.4485,-15.3276 -0.845,-23.0518 0.845,-10.9827 3.0177,-21.7241 7.846,-31.62064 0.1207,-0.12069 0,-0.24138 0.1207,-0.48276 -0.3622,0.24138 -0.6036,0.36207 -0.7243,0.48276 -1.8106,1.08621 -3.2591,2.41379 -4.4661,4.10345 -3.0177,3.98279 -4.8283,8.44829 -5.6732,13.27589 -0.3621,1.6896 -0.4829,3.5 -0.7243,5.1896 -1.0863,8.8104 -1.207,17.5 0,26.3104 0.7243,5.431 1.9313,10.7413 4.1041,15.6896 1.4484,3.5 3.3797,6.638 6.0353,9.2931 0.8449,0.9655 1.9313,1.6897 2.8969,2.4138 z m 23.4171,-0.4827 c 0.3621,0 0.6036,0 0.9657,-0.1207 1.207,-0.6035 2.4141,-1.0862 3.6212,-1.6897 5.0696,-2.7759 8.9323,-6.8793 12.1913,-11.5862 1.3278,-1.931 2.4142,-3.9827 3.5005,-5.9138 1.3278,-2.2931 2.2934,-4.8276 3.2591,-7.2414 2.7762,-7.4827 4.2247,-15.2069 4.9487,-23.0517 0,-0.3621 0,-0.6034 -0.12,-0.9655 -0.483,-1.2069 -1.087,-2.2931 -1.9317,-3.2586 -0.6036,-0.6035 -1.3278,-1.0862 -2.1728,-1.4483 0,0.1207 0,0.1207 -0.1207,0.2414 0,0.1207 0,0.362 0,0.4827 -0.1207,7.7242 -1.3277,15.3276 -3.3798,22.8104 -1.5691,5.6724 -3.6211,11.1034 -6.3974,16.2931 -1.8106,3.3793 -3.9833,6.6379 -6.6389,9.5345 -2.052,2.2931 -4.4661,4.2241 -7.2424,5.6724 -0.2414,0 -0.3621,0.1207 -0.4828,0.2414 z M 30.1759,30.2935 c -0.3622,-4.7069 0,-9.1724 0.9656,-13.7586 -0.1207,2.1724 -0.3621,4.3448 -0.6035,6.5173 -0.1207,2.1724 -0.1207,4.3448 0,6.5172 0.1207,-0.1207 0.2414,-0.2414 0.3621,-0.3621 0.6035,-0.8448 1.2071,-1.6896 1.8106,-2.6551 0.2414,-0.3621 0.3621,-0.7242 0.3621,-1.0863 0.3621,-1.5689 0.6035,-3.2586 0.9657,-4.8275 0,-0.1207 0.1207,-0.1207 0.1207,-0.2414 0,1.5689 -0.6036,3.1379 -0.6036,4.8276 0.3622,-0.2414 0.6036,-0.6035 0.845,-0.9655 1.0863,-1.2069 1.8106,-2.5345 2.1727,-4.1035 0.3621,-1.4483 0.845,-2.7759 1.3278,-4.2241 0.1207,-0.2414 0.1207,-0.3621 0.2414,-0.6035 -0.845,-0.8448 -1.0864,-0.9655 -2.1727,-0.9655 -1.3278,0 -2.5349,-0.1207 -3.6212,-0.7241 -0.6036,-0.2414 -1.2071,-0.6035 -1.8106,-0.8449 -2.4142,-1.2069 -5.1904,-0.9655 -7.1217,0.8449 -2.2934,2.0517 -3.2591,4.5862 -3.5005,7.6034 0,0 0,0.1207 0.1207,0.1207 1.5692,0 2.897,0.6034 4.2247,1.4483 0.1207,-1.2069 0,-2.2931 0.4829,-3.2586 0,1.2069 0,2.4138 0,3.6206 0.6035,0.6035 1.207,1.0863 1.6899,1.8104 0.8449,1.0862 1.5691,2.2931 2.2934,3.5 0.2414,0.9655 0.7242,1.3276 1.4485,1.8103 z m 1.3277,44.6552 C 31.3829,74.828 31.2622,74.7073 31.1415,74.5866 29.3309,72.7763 27.8824,70.7246 26.5547,68.5522 23.8991,64.2073 21.9678,59.6211 20.5193,54.7935 17.5017,45.3797 15.6911,35.7246 14.7254,25.828 14.6047,25.1039 14.484,24.6211 14.1219,24.0177 13.3976,22.9315 12.6734,21.9659 11.587,21.2418 10.5007,20.5177 9.77645,20.8797 9.41433,22.0866 9.29362,22.328 9.29362,22.6901 9.29362,23.0522 c 0,0.8448 0,1.6896 0.12071,2.5344 0.36212,2.1725 0.84497,4.2242 1.56917,6.2759 0.9657,2.8965 1.8106,5.9138 2.6556,8.8103 1.5691,5.1897 3.1383,10.5 4.8282,15.6897 1.0864,3.3793 2.4142,6.6379 4.2247,9.7759 1.3278,2.4138 3.0177,4.5862 5.1904,6.3965 1.0864,0.9655 2.2935,1.6897 3.6212,2.4138 z m 29.8146,6.8793 v 0.1207 c 0.1207,0 0.3621,0 0.4828,0 2.052,-0.3621 4.104,-0.9655 6.0353,-1.6897 6.6389,-2.2931 11.3464,-6.7586 14.4848,-12.793 1.6899,-3.3794 2.897,-6.8794 3.7419,-10.5001 1.8106,-8.4482 2.1727,-16.8965 1.5692,-25.4655 -0.2414,-2.5345 -0.7242,-4.9482 -1.4485,-7.362 -0.1207,-0.2414 -0.1207,-0.3621 -0.2414,-0.6035 -0.1207,0.2414 -0.1207,0.4828 -0.1207,0.7242 0.1207,1.931 0.3621,3.7413 0.3621,5.6724 0.3621,7.4827 -0.1207,14.8448 -1.9313,22.0862 -1.2071,4.8276 -2.897,9.5345 -5.3111,13.8793 -1.5692,2.8965 -3.3798,5.431 -5.6732,7.8448 -3.2591,3.5 -7.001,6.1552 -11.3464,7.8448 -0.1207,0.1207 -0.3621,0.2414 -0.6035,0.2414 z M 99.8235,66.8625 c -1.9313,1.2069 -3.8626,2.2931 -5.7939,3.5 -2.8969,1.8103 -4.9489,3.5 -5.3111,4.1034 0.2415,-0.1206 0.4829,-0.2413 0.7243,-0.362 1.9313,-0.8449 3.7419,-1.8104 5.6732,-2.6552 3.2591,-1.3276 6.639,-2.1724 10.26,-1.931 0.241,0 0.483,0 0.845,0 v 0.1207 c -3.38,-0.1207 -6.7596,0.6034 -9.8979,1.8103 -3.5005,1.3276 -8.4495,3.8621 -9.053,4.5862 0.2414,-0.1207 0.4828,-0.2414 0.8449,-0.3621 1.5692,-0.6034 3.1384,-1.3275 4.7076,-1.8103 7.1217,-2.1724 14.2434,-2.5345 21.3654,-0.2414 0.965,0.3621 1.931,0.6035 2.897,0.8448 0.603,0.1207 1.207,0.2414 1.81,0.1207 0.966,0 1.811,-0.6034 2.535,-1.4482 -2.776,-1.569 -5.794,-2.1724 -8.691,-2.8966 3.139,0.3621 6.035,1.0862 8.812,2.5345 0.362,-0.6035 0.362,-1.0862 0.241,-1.569 -0.121,-0.7241 -0.362,-1.3276 -1.086,-1.6896 -2.052,-0.8449 -4.225,-1.3276 -6.518,-0.8449 -0.604,0.1207 -1.328,0.2414 -1.932,0.3621 -1.327,0.2414 -2.655,0 -3.862,-0.6034 -0.966,-0.3621 -2.173,-0.8449 -3.259,-1.569 -2.294,-1.4483 -4.829,-1.8103 -7.4842,-1.3276 -1.8106,0.3621 -3.6212,1.0862 -4.5868,2.8966 -0.1207,0.2413 -0.2414,0.362 -0.3621,0.6034 -0.7243,1.0862 -1.4485,2.0517 -2.2935,3.1379 3.0177,-2.0517 6.0354,-3.9827 9.4151,-5.3103 z m 2.5345,-35.8448 c -0.12,0 -0.241,0 -0.241,0 0,0.2414 0,0.4827 -0.121,0.7241 -0.362,4.8276 -1.207,9.6552 -2.4139,14.3621 -1.3277,5.1896 -3.1383,10.2586 -5.6732,15.0862 -0.9656,2.0517 -2.052,3.9827 -3.3798,5.7931 -1.5691,2.1724 -3.1383,4.2241 -4.9489,6.0345 -4.104,4.2241 -8.9323,7.2413 -14.8469,8.4482 -0.1207,0 -0.2414,0.1207 -0.3622,0.1207 0.4829,0.2414 0.9657,0.2414 1.3278,0.3621 1.8106,0.1207 3.6212,-0.2414 5.3111,-0.8448 2.2934,-0.8449 4.3454,-2.0518 6.2768,-3.5 4.4661,-3.5 7.8459,-7.8449 10.5014,-12.6724 2.052,-3.7414 3.7419,-7.6035 5.1904,-11.5862 1.9314,-5.069 3.1384,-10.2587 3.5004,-15.6897 0.121,-1.931 0.121,-3.8621 -0.241,-5.7931 0.12,-0.3621 0.12,-0.6034 0.12,-0.8448 z M 2.17193,55.1556 C 8.9315,65.2935 18.1052,72.0522 29.5723,75.9142 29.4516,75.7935 29.3309,75.6728 29.2102,75.6728 26.9168,74.3453 24.7441,72.7763 22.5713,71.0866 21.0022,69.759 19.433,68.5522 17.8638,67.1039 14.484,63.9659 11.587,60.2246 9.17291,56.2418 9.05221,56.0004 8.81079,55.759 8.81079,55.6384 7.60373,55.5177 6.63808,55.2763 5.55172,55.1556 4.70677,55.0349 3.86182,55.0349 3.01688,55.0349 c -0.12071,0 -0.36212,0.1207 -0.84495,0.1207 z M 34.642,78.4487 c 0,-0.1207 0,-0.1207 0,0 -0.1207,-0.1207 -0.2414,-0.2414 -0.3621,-0.2414 -2.4142,-0.8448 -4.949,-1.8103 -7.3631,-2.6552 -2.897,-1.0862 -5.7939,-2.4137 -8.4495,-4.1034 -1.6899,-1.0862 -3.3798,-2.2931 -4.949,-3.5 -1.4484,-1.0862 -2.7762,-2.2931 -4.10397,-3.5 C 6.63808,62.0349 4.46536,59.1384 2.41335,56.1211 2.29264,55.8797 2.17193,55.7591 1.93052,55.5177 c -0.12071,0 -0.24141,0 -0.24141,0.1207 -0.60354,0.4827 -0.724243,1.2069 -0.60354,1.931 0.12071,1.4483 0.48283,2.7759 1.20707,3.9828 1.68989,2.8965 3.98332,5.3103 6.63886,7.2413 2.4141,1.8104 4.949,3.2587 7.6045,4.5862 0.4828,0.2414 0.845,0.3621 1.3278,0.6035 0.3621,0.1207 0.8449,0.3621 1.2071,0.4827 -3.9834,-2.4137 -7.846,-4.8275 -11.10505,-8.2069 0.1207,0 0.24141,0 0.24141,0.1207 2.53484,2.2931 5.19034,4.2242 8.08734,5.9138 0.9657,0.6035 2.052,1.2069 3.0177,1.6897 1.4484,0.7241 2.7762,1.4483 4.2247,1.931 3.3798,1.2069 6.8803,1.9311 10.3808,2.4138 0.4828,0.1207 0.6035,0.1207 0.7242,0.1207 z M 20.64,64.8108 c -1.9313,-4.1035 -3.3797,-8.4483 -4.8282,-12.7931 -2.1727,-0.2414 -3.8626,0.6034 -5.1904,2.0517 -0.4828,0.4828 -0.84495,0.9655 -1.32778,1.3276 1.08638,2.4138 5.91458,8.4483 9.17368,11.4655 3.6212,3.3793 9.7773,7.8448 11.8293,8.6896 -0.1207,-0.1206 -0.2414,-0.1206 -0.2414,-0.2413 -3.2591,-2.0518 -5.9147,-4.7069 -7.846,-7.9655 -0.2414,-0.4828 -0.6035,-0.8449 -0.9656,-1.3276 -2.7763,-3.138 -5.0697,-6.7587 -7.1217,-10.5 -0.1207,-0.1207 -0.1207,-0.3621 -0.2414,-0.4828 2.1727,3.5 4.104,6.8793 6.7595,9.7759 z m 98.617,3.3793 c -0.241,-0.2414 -0.603,-0.4828 -0.965,-0.7241 -0.966,-0.3621 -1.811,-0.6035 -2.777,-0.8449 -0.965,-0.2414 -1.931,-0.7241 -2.655,-1.4483 -1.569,-1.5689 -3.501,-2.7758 -5.673,-3.3793 -3.501,-0.9655 -6.881,-0.2413 -10.019,1.569 -0.6035,0.3621 -1.2071,0.8448 -1.8106,1.3276 -0.1207,0.1207 -0.1207,0.2414 -0.3621,0.4827 0.2414,-0.1206 0.3621,-0.1206 0.4828,-0.1206 2.6556,-0.9656 5.3109,-1.0863 7.9669,-0.1207 1.328,0.4827 2.535,1.2069 3.742,1.8103 3.138,1.6897 3.259,1.6897 6.759,1.0862 1.207,-0.2414 2.294,-0.3621 3.501,-0.1207 0.603,0.2414 1.207,0.3621 1.81,0.4828 z M 22.5713,13.2763 c 0.3622,-0.2414 0.4829,-0.3621 0.6036,-0.4828 2.2934,-1.5689 4.7075,-2.1724 7.4838,-0.8448 0.3621,0.1207 0.7242,0.3621 1.0863,0.4828 1.2071,0.6034 2.4142,1.0862 3.7419,1.0862 1.0864,0 2.1728,0.1207 3.1384,0.8448 0,0 0,0 0.1207,0 0.4828,-1.0862 1.0864,-2.2931 1.6899,-3.5 -0.8449,-1.0862 -1.8106,-1.44827 -3.0176,-1.44827 -1.0864,0 -1.9314,-0.24138 -2.897,-0.84483 -2.052,-1.32759 -4.3454,-1.44828 -6.6389,-0.36207 -1.5692,0.72414 -2.7762,1.81037 -3.8626,3.01727 -0.6035,0.6034 -1.0863,1.2069 -1.4485,2.0517 z"
       fill="#fdc5bc"
       id="path2" />
    <path
       d="m 49.0069,62.7586 c -0.1207,-0.2414 -0.1207,-0.4827 -0.2414,-0.7241 -0.7243,-3.6207 -0.9657,-7.2414 -1.3278,-10.9828 -0.6035,-7.362 -0.845,-14.8448 -0.3621,-22.2069 0.2414,-3.6207 0.6035,-7.362 1.207,-10.9827 0,-0.1207 0.1207,-0.2414 0.1207,-0.3621 -0.3621,3.7414 -0.7242,7.4828 -0.9656,11.2241 -0.2414,3.7414 -0.2414,7.4828 -0.1207,11.3449 0.1207,3.7413 0.3621,7.6034 0.7242,11.3448 0.3621,3.7414 0.7243,7.4828 1.0864,11.2241 0,0.1207 -0.1207,0.1207 -0.1207,0.1207 z"
       fill="#fdc5bc"
       id="path4" />
  </g>
  <defs
     id="defs11">
    <clipPath
       id="clip0">
      <rect
         width="123"
         height="266"
         fill="#ffffff"
         id="rect8"
         x="0"
         y="0" />
    </clipPath>
  </defs>
</svg>
