<svg width="40" height="40" viewBox="0 0 40 40" fill="none" xmlns="http://www.w3.org/2000/svg">
<path d="M20.3945 40C20.262 40 20.1296 40 19.9962 39.9994C16.8607 40.007 13.9635 39.9274 11.1461 39.7559C8.56295 39.5987 6.20507 38.7061 4.32695 37.1747C2.51474 35.697 1.27721 33.699 0.648829 31.2369C0.101933 29.0933 0.0729398 26.9891 0.0451677 24.9539C0.0250253 23.4936 0.00427262 21.7633 0 20.0036C0.00427262 18.2366 0.0250253 16.5063 0.0451677 15.046C0.0729398 13.0111 0.101933 10.9069 0.648829 8.76303C1.27721 6.30087 2.51474 4.30288 4.32695 2.82521C6.20507 1.29384 8.56295 0.401195 11.1464 0.244029C13.9639 0.072825 16.8616 -0.00713128 20.0038 0.000498136C23.1402 -0.00621575 26.0365 0.072825 28.8539 0.244029C31.4371 0.401195 33.7949 1.29384 35.6731 2.82521C37.4856 4.30288 38.7228 6.30087 39.3512 8.76303C39.8981 10.9066 39.9271 13.0111 39.9548 15.046C39.975 16.5063 39.996 18.2366 40 19.9963C39.996 21.7633 39.975 23.4936 39.9548 24.9539C39.9432 25.8169 39.2303 26.5066 38.3712 26.495C37.5081 26.4831 36.8184 25.7739 36.83 24.9111C36.8499 23.4594 36.8709 21.7404 36.8749 19.9963C36.8709 18.2595 36.8499 16.5405 36.83 15.0887C36.8047 13.236 36.7784 11.3201 36.3231 9.53574C35.8638 7.73581 34.9806 6.29293 33.6982 5.24709C32.3111 4.11581 30.6173 3.48195 28.6641 3.36324C25.9129 3.196 23.0807 3.11879 20.0038 3.1252C16.9196 3.11788 14.0871 3.196 11.3359 3.36324C9.38268 3.48195 7.6892 4.11581 6.30182 5.24679C5.01942 6.29263 4.13621 7.73551 3.6769 9.53574C3.22156 11.3201 3.19531 13.236 3.16998 15.0887C3.15014 16.5405 3.12939 18.2595 3.12512 20.0036C3.12939 21.7404 3.15014 23.4594 3.16998 24.9111C3.19531 26.7639 3.22156 28.6798 3.6769 30.4641C4.13621 32.2641 5.01942 33.707 6.30182 34.7528C7.6892 35.8841 9.38268 36.5179 11.3359 36.6366C14.0871 36.8039 16.9202 36.882 19.9965 36.8744C23.081 36.8817 25.9129 36.8039 28.6641 36.6366C30.6173 36.5179 32.3108 35.8841 33.6982 34.7528C34.622 33.9993 35.3438 33.0325 35.8433 31.8789C36.1864 31.0873 37.1062 30.7232 37.8982 31.0663C38.6901 31.4093 39.0539 32.3291 38.7112 33.121C38.0108 34.7381 36.9887 36.102 35.6731 37.1747C33.7949 38.7064 31.4371 39.5987 28.8539 39.7559C26.1558 39.92 23.3841 40 20.3945 40ZM29.6877 19.9999C29.6877 14.6151 25.3068 10.2343 19.9217 10.2343C14.537 10.2343 10.1557 14.6151 10.1557 19.9999C10.1557 25.3848 14.537 29.7656 19.9217 29.7656C25.3068 29.7656 29.6877 25.3848 29.6877 19.9999ZM26.5626 19.9999C26.5626 23.6615 23.5837 26.6406 19.9217 26.6406C16.2601 26.6406 13.2808 23.6615 13.2808 19.9999C13.2808 16.3384 16.2601 13.3593 19.9217 13.3593C23.5837 13.3593 26.5626 16.3384 26.5626 19.9999ZM30.7815 7.10928C29.4872 7.10928 28.4377 8.15848 28.4377 9.45304C28.4377 10.7476 29.4872 11.7968 30.7815 11.7968C32.0761 11.7968 33.1253 10.7476 33.1253 9.45304C33.1253 8.15848 32.0761 7.10928 30.7815 7.10928Z" fill="#4E3C43"/>
</svg>
