<svg width="25" height="25" viewBox="0 0 25 25" fill="none" xmlns="http://www.w3.org/2000/svg">
<circle cx="12.5" cy="12.5" r="12.5" fill="#FDC5BC"/>
<path d="M12.5 14C12.0055 14 11.5222 13.8534 11.1111 13.5787C10.7 13.304 10.3795 12.9135 10.1903 12.4567C10.0011 11.9999 9.95157 11.4972 10.048 11.0123C10.1445 10.5273 10.3826 10.0819 10.7322 9.73223C11.0819 9.3826 11.5273 9.1445 12.0123 9.04804C12.4972 8.95157 12.9999 9.00108 13.4567 9.1903C13.9135 9.37952 14.304 9.69995 14.5787 10.1111C14.8534 10.5222 15 11.0055 15 11.5C14.9992 12.1628 14.7356 12.7982 14.2669 13.2669C13.7982 13.7356 13.1628 13.9992 12.5 14ZM12.5 10C12.2033 10 11.9133 10.088 11.6666 10.2528C11.42 10.4176 11.2277 10.6519 11.1142 10.926C11.0007 11.2001 10.9709 11.5017 11.0288 11.7926C11.0867 12.0836 11.2296 12.3509 11.4393 12.5607C11.6491 12.7704 11.9164 12.9133 12.2074 12.9712C12.4983 13.0291 12.7999 12.9994 13.074 12.8858C13.3481 12.7723 13.5824 12.58 13.7472 12.3334C13.912 12.0867 14 11.7967 14 11.5C13.9996 11.1023 13.8414 10.721 13.5602 10.4398C13.279 10.1586 12.8977 10.0004 12.5 10Z" fill="#F3F5F5"/>
<path d="M12.5 20L8.28201 15.0255C8.2234 14.9508 8.16539 14.8756 8.10801 14.8C7.3875 13.8509 6.99826 12.6916 7.00001 11.5C7.00001 10.0413 7.57947 8.64236 8.61092 7.61091C9.64237 6.57946 11.0413 6 12.5 6C13.9587 6 15.3576 6.57946 16.3891 7.61091C17.4205 8.64236 18 10.0413 18 11.5C18.0018 12.6911 17.6127 13.8498 16.8925 14.7985L16.892 14.8C16.892 14.8 16.742 14.997 16.7195 15.0235L12.5 20ZM8.90601 14.1975C8.90701 14.1975 9.02301 14.3515 9.04951 14.3845L12.5 18.454L15.955 14.379C15.977 14.3515 16.094 14.1965 16.0945 14.196C16.6831 13.4206 17.0012 12.4735 17 11.5C17 10.3065 16.5259 9.16193 15.682 8.31802C14.8381 7.47411 13.6935 7 12.5 7C11.3065 7 10.1619 7.47411 9.31803 8.31802C8.47411 9.16193 8.00001 10.3065 8.00001 11.5C7.99896 12.4741 8.31739 13.4217 8.90651 14.1975H8.90601Z" fill="#F3F5F5"/>
</svg>
