<svg width="16" height="16" viewBox="0 0 16 16" fill="none" xmlns="http://www.w3.org/2000/svg">
<path d="M11.8294 10.2714C11.3619 9.80985 10.7783 9.80985 10.3138 10.2714C9.95947 10.6227 9.60514 10.9741 9.25676 11.3314C9.16148 11.4297 9.08108 11.4505 8.96495 11.385C8.73568 11.2599 8.49152 11.1587 8.27117 11.0217C7.2439 10.3756 6.38338 9.54485 5.62111 8.60988C5.24296 8.14538 4.90649 7.64812 4.67126 7.08833C4.62362 6.97518 4.63255 6.90074 4.72485 6.80843C5.07919 6.46601 5.42459 6.11465 5.77297 5.7633C6.25832 5.27497 6.25832 4.70327 5.76999 4.21197C5.49307 3.93207 5.21616 3.65813 4.93924 3.37824C4.65339 3.09239 4.37052 2.80356 4.08169 2.52069C3.61421 2.06512 3.0306 2.06512 2.56609 2.52367C2.20878 2.87502 1.86636 3.23531 1.50309 3.58072C1.16662 3.89932 0.996899 4.28938 0.961168 4.74496C0.904594 5.48638 1.08623 6.18612 1.3423 6.86799C1.86636 8.27937 2.66435 9.53294 3.63207 10.6823C4.93924 12.2366 6.4995 13.4663 8.32477 14.3537C9.14659 14.7527 9.99818 15.0594 10.9242 15.11C11.5614 15.1457 12.1153 14.9849 12.5589 14.4877C12.8626 14.1482 13.2051 13.8385 13.5266 13.514C14.0031 13.0316 14.006 12.448 13.5326 11.9716C12.9668 11.4029 12.3981 10.8371 11.8294 10.2714Z" fill="white"/>
<path d="M11.2606 7.89821L12.3594 7.71062C12.1867 6.70121 11.7103 5.78709 10.9867 5.06056C10.2215 4.29531 9.25374 3.81294 8.18776 3.66406L8.03293 4.76875C8.85772 4.88488 9.60808 5.25708 10.2006 5.84962C10.7604 6.40941 11.1267 7.11808 11.2606 7.89821Z" fill="white"/>
<path d="M12.9787 3.12221C11.7103 1.85375 10.1054 1.05277 8.33368 0.805634L8.17884 1.91032C9.70933 2.12471 11.0969 2.81849 12.1926 3.91127C13.2318 4.95045 13.9137 6.26357 14.1608 7.70771L15.2596 7.52012C14.9707 5.84671 14.1817 4.32813 12.9787 3.12221Z" fill="white"/>
</svg>
