<svg width="14" height="15" viewBox="0 0 14 15" fill="none" xmlns="http://www.w3.org/2000/svg">
<path fill-rule="evenodd" clip-rule="evenodd" d="M0.107727 5.98903C0.107727 9.29668 2.77707 11.9781 6.06987 11.9781C9.36267 11.9781 12.032 9.29668 12.032 5.98903C12.032 2.68138 9.36267 0 6.06987 0C2.77707 0 0.107727 2.68138 0.107727 5.98903ZM1.30096 5.989C1.30096 3.34288 3.43644 1.19778 6.07068 1.19778C7.33569 1.19778 8.54888 1.70257 9.44338 2.6011C10.3379 3.49962 10.8404 4.71829 10.8404 5.989C10.8404 8.63512 8.70492 10.7802 6.07068 10.7802C3.43644 10.7802 1.30096 8.63512 1.30096 5.989Z" fill="white"/>
<path d="M13.3941 14.3736C13.234 14.3746 13.0801 14.3117 12.9664 14.1988L9.17717 10.407C8.94094 10.1706 8.94094 9.78733 9.17717 9.55095C9.41339 9.31456 9.79638 9.31456 10.0326 9.55095L13.8218 13.3368C13.9359 13.45 14 13.604 14 13.7648C14 13.9255 13.9359 14.0796 13.8218 14.1928C13.7091 14.3079 13.5551 14.373 13.3941 14.3736Z" fill="white"/>
</svg>
