<svg width="141" height="18" viewBox="0 0 141 18" fill="none" xmlns="http://www.w3.org/2000/svg">
<path d="M138.078 10.2821C135.762 8.80784 132.903 8.29635 130.195 8.50696C130.135 8.50696 130.075 8.53705 130.015 8.53705C128.781 8.05566 127.458 7.69461 126.043 7.51409C123.667 7.2433 121.23 7.33356 118.823 7.63444C122.162 5.67877 126.284 2.51961 123.366 0.563943C121.591 -0.639545 119.184 0.263071 117.769 1.58691C115.964 3.2417 114.55 5.67877 114.129 8.11583C114.099 8.23618 114.099 8.35653 114.129 8.47688C112.564 8.80784 111 9.1388 109.465 9.46976C104.08 10.6432 98.8145 12.298 93.4891 13.6218C94.9935 12.1776 96.2872 9.59011 94.9032 7.69461C93.4891 5.73894 91.3529 6.76191 90.0291 8.20609C89.0663 9.25914 88.1336 10.4325 87.3814 11.6661C86.3885 13.3209 85.1249 14.1934 83.2294 14.5846C83.109 14.6147 82.9887 14.6748 82.8984 14.735C80.4914 14.4642 77.9039 13.7121 76.5199 11.6661C75.9182 10.8237 74.5342 11.636 75.1058 12.4785C77.8438 16.4801 83.6807 16.811 88.0734 16.2996C91.7741 15.8783 95.4147 14.8554 98.9951 13.8023H99.0251C100.53 13.8926 102.004 14.1634 103.328 14.8253C104.471 15.427 105.554 16.1491 106.758 16.6606C108.172 17.2623 111.18 17.4429 112.023 15.758C113.046 13.7121 110.639 11.9369 109.074 11.3051C108.984 11.275 108.894 11.2449 108.773 11.1847C113.106 10.1618 117.529 9.22906 121.891 8.98836C124.69 8.83792 127.488 9.07862 130.075 10.2219V10.252C131.068 12.5988 132.783 14.5846 135.04 15.8482C136.604 16.7509 139.793 17.8641 140.756 15.5474C141.689 13.4112 139.763 11.3652 138.078 10.2821ZM91.5334 8.92819C91.9246 8.56714 92.436 7.99548 93.0077 8.17601C94.0006 8.47688 93.9705 9.68037 93.7298 10.4025C93.3387 11.5458 92.436 12.5988 91.3529 13.1404C91.1724 13.2307 90.9618 13.3209 90.7813 13.3811C91.3228 12.8696 91.744 12.328 92.1653 11.6962C92.7369 10.8237 91.3228 10.0113 90.7512 10.8839C90.2999 11.5759 89.8185 12.1776 89.1265 12.659C88.9158 12.8094 88.6451 12.99 88.4044 13.1705C89.4273 11.7564 90.1795 10.1618 91.5334 8.92819ZM110.278 14.5545C110.338 15.4571 110.007 15.3969 109.165 15.427C108.593 15.4571 108.081 15.3969 107.54 15.1863C106.457 14.7952 105.524 14.1333 104.531 13.5917C105.795 13.8324 107.089 14.2235 108.142 14.7651C109.074 15.2164 109.887 13.8324 108.954 13.351C108.111 12.9298 107.239 12.6289 106.306 12.3882C106.938 12.4183 107.51 12.4785 107.991 12.5988C108.984 12.8997 110.187 13.5014 110.278 14.5545ZM117.469 4.41511C118.221 3.36205 120.116 0.92499 121.711 1.67717C123.516 2.51961 120.327 4.71598 119.484 5.31772C119.123 5.58851 118.762 5.8292 118.371 6.0699C118.883 5.40798 119.394 4.71598 120.116 4.26467C121.019 3.7231 120.176 2.309 119.304 2.85057C118.431 3.39214 117.8 4.17441 117.168 4.98676C117.017 5.16729 116.867 5.3779 116.716 5.55842C116.957 5.19737 117.198 4.80624 117.469 4.41511ZM134.468 13.5315C133.836 13.02 133.294 12.4183 132.813 11.7865C134.257 12.7493 135.581 13.8625 136.905 14.9757C135.912 14.5244 134.859 13.8324 134.468 13.5315ZM138.53 15.3368C138.861 15.066 138.981 14.5846 138.56 14.2235C136.875 12.7793 135.16 11.3652 133.325 10.2219C133.956 10.3122 134.588 10.4927 135.19 10.7033C136.574 11.1847 139.462 12.5086 139.372 14.374C139.342 15.0359 139.011 15.3067 138.53 15.3368Z" fill="#FDC5BC"/>
<path d="M64.8761 11.6661C63.4921 13.682 60.9046 14.4341 58.4977 14.735C58.4074 14.6748 58.3171 14.6147 58.1667 14.5846C56.3916 14.2235 55.0677 13.4413 54.135 11.8466C53.4129 10.6131 52.5404 9.43967 51.5776 8.38662C50.2237 6.88226 48.0273 5.58851 46.523 7.66452C45.169 9.52993 46.3424 11.9971 47.7866 13.4714C47.8468 13.5315 47.907 13.5616 47.9671 13.6218C42.6116 12.298 37.3464 10.6432 31.9607 9.46976C30.4263 9.1388 28.8618 8.77775 27.2972 8.47688C27.3273 8.35653 27.3273 8.23618 27.2972 8.11583C26.876 5.70886 25.4619 3.27179 23.6567 1.58691C22.2125 0.263071 19.8356 -0.639545 18.0605 0.563943C15.142 2.5497 19.2639 5.67877 22.6036 7.63444C20.2869 7.33356 17.9401 7.21322 15.6535 7.45391C14.119 7.60435 12.735 7.99548 11.4112 8.50696C11.351 8.47688 11.2908 8.47688 11.2006 8.47688C8.58298 8.26627 5.81496 8.77775 3.52833 10.1317C1.75319 11.2148 -0.322828 13.3209 0.609876 15.5775C1.54258 17.8039 4.5513 16.811 6.11583 15.9686C8.46264 14.735 10.2378 12.6891 11.2908 10.252V10.2219C13.8482 9.07862 16.6764 8.83792 19.4746 8.98836C23.8673 9.22906 28.2901 10.1317 32.5926 11.1847C32.5023 11.2148 32.4121 11.2449 32.2917 11.3051C30.7272 11.967 28.3202 13.7421 29.3432 15.758C30.1856 17.4429 33.1943 17.2623 34.6084 16.6606C35.8119 16.1491 36.895 15.3969 38.0384 14.8253C39.3923 14.1333 40.8666 13.8926 42.3408 13.8023H42.3709C45.9814 14.8554 49.5918 15.8783 53.2926 16.2996C57.6853 16.811 63.5222 16.4801 66.2602 12.4785C66.8619 11.6059 65.4478 10.7936 64.8761 11.6661ZM1.99389 14.374C1.93371 12.6289 4.61147 11.275 5.93531 10.7936C6.62732 10.5529 7.34941 10.3724 8.04142 10.252C6.2061 11.3953 4.49113 12.7793 2.80624 14.2536C2.38502 14.6147 2.50537 15.0961 2.83633 15.3969C2.38502 15.3368 2.02397 15.0359 1.99389 14.374ZM7.07862 13.351C6.68749 13.682 5.54418 14.4642 4.46104 14.9456C5.78488 13.8324 7.10871 12.7192 8.5529 11.7564C8.13168 12.3581 7.65028 12.8997 7.07862 13.351ZM19.6551 1.67717C21.7311 1.07543 23.5965 3.42223 24.7097 5.67877C24.5292 5.46816 24.3788 5.22746 24.1982 5.01685C23.5363 4.20449 22.9346 3.42223 22.032 2.88066C21.1293 2.33909 20.317 3.7231 21.2196 4.29476C21.9417 4.74607 22.4532 5.43807 22.9647 6.09999C22.6638 5.91947 22.3629 5.70886 22.0921 5.49824C21.4603 5.04694 17.6091 2.27891 19.6551 1.67717ZM47.6663 10.4025C47.4256 9.71045 47.4256 9.1388 47.9972 8.59723C48.7494 7.90522 49.0804 8.20609 49.8626 8.92819C51.1865 10.1618 51.9687 11.7564 53.0218 13.1705C52.751 12.99 52.5103 12.7793 52.2696 12.6289C51.5776 12.1475 51.0962 11.5458 50.6449 10.8538C50.0732 9.98124 48.6591 10.7936 49.2308 11.6661C49.652 12.298 50.0732 12.8395 50.5847 13.351C50.4945 13.3209 50.4042 13.2908 50.344 13.2607C49.1405 12.7793 48.0875 11.6661 47.6663 10.4025ZM33.8562 15.2164C33.2244 15.427 31.6298 15.758 31.0581 15.2164C29.8546 14.1333 32.8333 12.7493 33.4049 12.6289C33.8562 12.5086 34.458 12.4484 35.0597 12.4183C34.1571 12.659 33.2545 12.9599 32.4421 13.3811C31.5094 13.8625 32.3218 15.2465 33.2545 14.7952C34.3376 14.2536 35.6314 13.8625 36.865 13.6218C35.8721 14.1934 34.9394 14.8253 33.8562 15.2164Z" fill="#FDC5BC"/>
</svg>
