<svg width="13" height="12" viewBox="0 0 13 12" fill="none" xmlns="http://www.w3.org/2000/svg">
<path d="M1.7139 11.712C1.7139 11.712 0.704926 11.712 0.704926 10.7947C0.704926 9.87745 1.7139 7.12569 6.75879 7.12569C11.8037 7.12569 12.8127 9.87745 12.8127 10.7947C12.8127 11.712 11.8037 11.712 11.8037 11.712H1.7139ZM6.75879 6.20844C7.56158 6.20844 8.33149 5.91852 8.89915 5.40247C9.46681 4.88641 9.78572 4.18649 9.78572 3.45668C9.78572 2.72687 9.46681 2.02695 8.89915 1.5109C8.33149 0.994842 7.56158 0.704926 6.75879 0.704926C5.956 0.704926 5.18609 0.994842 4.61843 1.5109C4.05077 2.02695 3.73186 2.72687 3.73186 3.45668C3.73186 4.18649 4.05077 4.88641 4.61843 5.40247C5.18609 5.91852 5.956 6.20844 6.75879 6.20844Z" fill="#FDC5BC"/>
</svg>
