<svg width="35" height="35" viewBox="0 0 35 35" fill="none" xmlns="http://www.w3.org/2000/svg">
<rect width="35" height="35" rx="17.5" fill="#4DC55C"/>
<path fill-rule="evenodd" clip-rule="evenodd" d="M8.83793 25.8031C8.76604 26.065 9.00372 26.3069 9.26561 26.2382L13.3141 25.1766C14.592 25.8715 16.0308 26.2407 17.4957 26.2407H17.5C22.3205 26.2407 26.25 22.3186 26.25 17.4975C26.25 15.1608 25.3414 12.9631 23.6897 11.3125C22.038 9.6621 19.8429 8.75 17.4999 8.75C12.6795 8.75 8.75 12.672 8.75 17.4932C8.74945 19.0269 9.1527 20.5338 9.91926 21.8626L8.83793 25.8031ZM14.7268 13.3105C14.8875 13.3149 15.0658 13.3236 15.2353 13.7015C15.3478 13.9531 15.5372 14.4162 15.6915 14.7934C15.8116 15.087 15.9104 15.3286 15.9351 15.378C15.9916 15.4909 16.0264 15.6212 15.9525 15.7732C15.9438 15.7912 15.9356 15.8083 15.9277 15.8248C15.8684 15.9483 15.8262 16.0362 15.7265 16.1511C15.6855 16.1983 15.6428 16.2501 15.6003 16.3017C15.5255 16.3925 15.4512 16.4827 15.3874 16.5464C15.2744 16.6592 15.157 16.7809 15.2874 17.0068C15.4179 17.2326 15.8743 17.9753 16.5481 18.5747C17.2724 19.2221 17.9022 19.4949 18.2206 19.6328C18.2824 19.6596 18.3325 19.6813 18.3693 19.6997C18.5953 19.8126 18.7301 19.7952 18.8605 19.6432C18.9909 19.4911 19.4255 18.983 19.5777 18.7571C19.7255 18.5313 19.8776 18.5661 20.0863 18.6442C20.2949 18.7224 21.4077 19.2696 21.6337 19.3826C21.6783 19.4049 21.7201 19.425 21.7589 19.4437C21.9161 19.5194 22.023 19.5708 22.0684 19.6475C22.1249 19.7431 22.1249 20.1948 21.938 20.7247C21.7467 21.2546 20.8252 21.7628 20.4079 21.8018C20.3684 21.8056 20.3291 21.8103 20.2886 21.8153C19.9062 21.8617 19.4207 21.9207 17.6912 21.2372C15.56 20.3958 14.1532 18.3084 13.8688 17.8863C13.8463 17.853 13.8309 17.8301 13.8226 17.8189L13.8178 17.8125C13.6884 17.6386 12.8967 16.5752 12.8967 15.478C12.8967 14.4282 13.4118 13.8816 13.6468 13.6324C13.6617 13.6166 13.6754 13.602 13.6879 13.5885C13.8965 13.3627 14.14 13.3062 14.2921 13.3062C14.4443 13.3062 14.5964 13.3062 14.7268 13.3105Z" fill="white"/>
</svg>
