<svg width="25" height="25" viewBox="0 0 25 25" fill="none" xmlns="http://www.w3.org/2000/svg">
<circle cx="12.5" cy="12.5" r="12.5" fill="#FDC5BC"/>
<path d="M12.5 5C8.3645 5 5 8.3645 5 12.5C5 16.6355 8.3645 20 12.5 20C16.6355 20 20 16.6355 20 12.5C20 8.3645 16.6355 5 12.5 5ZM12.5 18.5C9.19175 18.5 6.5 15.8082 6.5 12.5C6.5 9.19175 9.19175 6.5 12.5 6.5C15.8082 6.5 18.5 9.19175 18.5 12.5C18.5 15.8082 15.8082 18.5 12.5 18.5Z" fill="#F3F5F5"/>
<path d="M12.647 9.41162H11.1765V13.8234H15.5882V12.3528H12.647V9.41162Z" fill="#F3F5F5"/>
</svg>
