<svg width="27" height="26" fill="none" xmlns="http://www.w3.org/2000/svg"><path d="M11.172 2.25a2.457 2.457 0 014.281 0L26.29 21.249c.952 1.667-.238 3.752-2.14 3.752H2.474C.573 25-.617 22.915.335 21.248L11.172 2.25z" fill="#E85657"/><path d="M12.208 7h2.607l-.438 10.177h-1.754L12.208 7zm1.315 15c-.43 0-.792-.128-1.085-.382A1.28 1.28 0 0112 20.64c0-.382.146-.7.438-.956.293-.269.654-.404 1.085-.404.43 0 .785.135 1.062.404.276.255.415.574.415.956 0 .383-.146.708-.438.978-.277.255-.623.382-1.039.382z" fill="#fff"/></svg>