<svg width="470" height="358" fill="none" xmlns="http://www.w3.org/2000/svg"><path d="M255.512 82.27s-49.695-44.598-80.073-33.81c0 0 49.445 16.478 62.569 28.313 13.125 11.835 17.504 5.498 17.504 5.498z" fill="#009BA6"/><path d="M239.512 74.282c-.766-.766-51.14-13.28-64.928-7.752 0 0 55.948 11.982 61.434 15.991 5.471 3.994 15.749.855 15.749.855l-12.255-9.094zm.546-28.961S230.665 17.745 248.7 0c0 0-10.338 33.383-4.085 54.076l-4.557-8.755zm11.591 20.251c-.56-3.007-13.788-18.438-23.963-19.337l-10.175-.914s13.906 7.016 18.226 11.408c4.321 4.392 15.912 8.843 15.912 8.843z" fill="#009BA6"/><path d="M223.395 13.427c-.458-.383 5.249 28.062 15.734 38.232l10.485 10.17-2.507-4.82c0 .014-8.081-30.48-23.712-43.582zm38.045 29.3c-6.842 14.179-4.114 30.848-4.114 30.848l4.114 5.822v-36.67z" fill="#009BA6"/><path d="M261.441 71.379c-3.54-4.215-6.99-8.519-10.102-12.72l-11.192-6.322s8.243 15.018 21.294 30.14V71.38z" fill="#009BA6"/><path d="M261.44 23.243v-1.621c-20.291 16.61-15.41 35.873-15.41 35.873l6.002 7.296c-3.406-9.787 6.12-33.766 9.408-41.548zm.001 63.877c-3.672-3.14-5.929-4.85-5.929-4.85l-6.503-.928s5.147 4.717 12.432 11.747v-5.97zm0 13.353c-14.378-7.93-44.476-19.72-71.521-3.98 0 0 26.971 1.71 30.702-.235 2.301-1.209 24.317 7.015 40.819 13.485v-9.27z" fill="#009BA6"/><path d="M261.44 109.39c-16.132-2.653-33.931-10.185-50.86 7.045 0 0 35.672-6.824 48.191.633.797.472 1.681.944 2.669 1.43v-9.108zm.001 28.298v-9.89c-17.239.236-28.048-4.112-38.99 4.201 8.14-.752 22.562 1.754 38.99 5.689z" fill="#009BA6"/><path opacity=".43" d="M436.835 40.752c-5.603-3.095-11.001-3.375-15.38-1.385l-7.152 4.038.309 2.226c-1.799 2.947-3.023 6.676-3.465 11.098-1.563 15.77 7.403 34.164 20.025 41.106 2.67 1.474 5.294 2.299 7.787 2.564l3.848.914c.635-.206 3.54-1.99 4.129-2.285l.104-.044c5.235-2.638 9.305-8.578 9.821-17.126.958-15.77-7.491-34.164-20.026-41.106z" fill="#88BDEB"/><path d="M441.118 102.213c10.777-4.643 13.685-21.92 6.495-38.59-7.19-16.669-21.756-26.417-32.533-21.773-10.777 4.643-13.685 21.92-6.494 38.59 7.19 16.669 21.755 26.417 32.532 21.773z" fill="#EFF5FE"/><path d="M438.555 96.272c8.654-3.729 10.987-17.604 5.212-30.991-5.775-13.388-17.471-21.218-26.124-17.49-8.653 3.729-10.986 17.604-5.211 30.992 5.774 13.387 17.47 21.217 26.123 17.489z" fill="#fff"/><path opacity=".43" d="M429.624 94.622c-10.322-5.955-17.637-20.944-16.324-33.516.826-8.018 4.984-13.088 10.558-14.164-7.476-.913-13.434 4.496-14.451 14.282-1.298 12.557 6.002 27.561 16.324 33.516 3.731 2.151 7.344 2.815 10.5 2.21-2.109-.25-4.336-1.017-6.607-2.328z" fill="#88BDEB"/><path d="M430.14 52.66c-.015 1.062-.663 1.946-1.474 1.961-.797.03-1.446-.81-1.446-1.872.015-1.06.664-1.945 1.475-1.96.811-.03 1.46.81 1.445 1.872zm-1.283 39.28c-.014 1.06-.663 1.945-1.474 1.96-.797.029-1.445-.811-1.445-1.872.014-1.062.663-1.946 1.474-1.96.811-.03 1.46.81 1.445 1.871zm13.847-9.153c-.884-.487-1.268-1.489-.87-2.24.398-.752 1.431-.959 2.315-.472.885.486 1.269 1.488.87 2.24-.412.737-1.445.958-2.315.472zm-29.333-17.894c.453-.716.128-1.733-.726-2.272-.853-.54-1.912-.397-2.365.319-.452.715-.127 1.733.726 2.272.854.54 1.913.397 2.365-.319zm22.402 22.787l-8.494-14.842c-.059-.103-.029-.25.059-.31.104-.059.222-.014.295.089l8.494 14.842c.059.103.03.25-.059.31-.103.058-.236.014-.295-.09z" fill="#97CBFF"/><path d="M428.061 73.088l-11.635 7.458a.935.935 0 01-1.327-.324c-.266-.472-.103-1.105.354-1.4l11.635-7.458a.935.935 0 011.327.324 1.06 1.06 0 01-.354 1.4z" fill="#97CBFF"/><path d="M428.843 62.197l-.369 9.698c-.015.56-.472 1.017-1.003 1.017-.531 0-.958-.457-.929-1.017l.369-9.698c.014-.56.472-1.017 1.003-1.017.53-.015.958.457.929 1.017z" fill="#FF57B3"/><path d="M429.211 72.661c-.014 1.061-.796 1.636-1.784 1.282-.973-.353-1.755-1.488-1.755-2.55.015-1.06.796-1.635 1.784-1.282.974.354 1.755 1.489 1.755 2.55z" fill="#FF57B3"/><path d="M428.238 72.204c0 .472-.369.737-.796.575-.443-.162-.797-.678-.797-1.15 0-.471.369-.737.797-.574.442.147.796.663.796 1.15z" fill="#fff"/><path opacity=".39" d="M354.225 245.501L232.95 173.96c-6.503-3.744 24.922-21.209 31.867-25.174l3.746-19.131c6.946-3.979-10.101-19.366-3.598-15.623l158.79 91.63c6.503 3.744 6.135 10.008-.796 13.987l-44.402 25.439c-6.931 3.979-17.828 4.171-24.332.413z" fill="#A7BCF5"/><path d="M417.768 129.184c0-.015 0-.015 0 0v-.177c0-.059 0-.103-.015-.162v-.045c0-.044 0-.073-.014-.117 0-.059-.015-.104-.015-.163 0-.029 0-.044-.015-.073v-.074c-.015-.059-.015-.103-.029-.162-.015-.044-.015-.103-.03-.147l-.044-.163c-.015-.059-.03-.103-.044-.162 0-.014-.015-.029-.015-.044 0-.015 0-.015-.015-.029-.015-.03-.015-.059-.029-.089-.015-.044-.03-.103-.045-.147-.014-.044-.029-.074-.044-.118v-.03c-.015-.044-.029-.088-.059-.147-.015-.044-.029-.088-.059-.133-.015-.014-.015-.044-.029-.059 0-.014 0-.014-.015-.029-.015-.015-.015-.03-.03-.059-.014-.044-.044-.088-.059-.133-.014-.044-.044-.088-.073-.132v-.015s0-.015-.015-.015c-.03-.044-.044-.103-.074-.147-.029-.044-.044-.089-.074-.133a3.608 3.608 0 00-.044-.088c-.015-.015-.015-.03-.029-.044a2.487 2.487 0 00-.133-.207c-.015-.029-.029-.044-.044-.074v-.014l-.177-.266c-.015-.014-.015-.029-.03-.029l-.029-.029c-.015-.03-.044-.059-.059-.089-.044-.044-.074-.088-.118-.147a.196.196 0 01-.044-.059l-.03-.03-.044-.044c-.044-.044-.074-.088-.118-.133l-.089-.088-.014-.015-.015-.015a.93.93 0 00-.133-.117.876.876 0 00-.132-.118c-.045-.045-.089-.074-.133-.118-.044-.044-.089-.074-.148-.118l-.014-.015-.015-.015a.456.456 0 00-.103-.073c-.045-.03-.089-.074-.148-.103-.015-.015-.029-.015-.044-.03 0 0-.015 0-.015-.015-.029-.014-.059-.044-.088-.059-.045-.029-.104-.059-.148-.088-.015 0-.781-.442-.781-.457l-4.321 2.329s1.032.604 1.076.633c.045.03.104.059.148.089.044.029.103.074.147.103.045.03.089.074.148.103.015.015.044.03.059.044.074.059.147.118.221.192.074.059.147.133.221.206l.03.03c.073.074.132.133.191.206l.03.03c.059.073.118.147.177.206.015.015.015.03.029.044l.177.221c.03.045.059.074.089.118.029.044.074.089.103.148.044.059.074.118.103.176.03.045.044.074.074.118.015.03.044.074.059.104.029.059.074.117.103.176.015.015.015.03.03.045.044.088.088.162.118.25 0 0 0 .015.014.015.045.088.074.177.118.265 0 .015.015.015.015.03.03.088.074.177.103.265 0 .015.015.029.015.029l.089.266c0 .015.014.029.014.044.03.088.045.177.074.265 0 .015 0 .03.015.044.015.089.044.177.059.266v.044l.044.265v.03c.015.088.015.177.03.265v.457c0 .059 0 .103-.015.162 0 .059-.015.118-.015.177 0 .044-.015.088-.015.133 0 0-.014.088-.044.25l-14.909 92.116c-.073.442-1.769 3.243-1.386 3.022l4.085-3.449a4.771 4.771 0 001.622-2.859l14.629-90.392c.073-.442.177-1.091.177-1.091 0-.044.014-.088.014-.132 0-.045.015-.074.015-.118v-.059c0-.059.015-.103.015-.162v-.133l-.015.015z" fill="#96BEFF"/><path d="M410.69 126.472c1.946 1.12 3.244 3.699 2.919 5.763l-15.129 93.457c-.325 2.063-2.183 2.815-4.115 1.695l-143.218-82.639c-1.946-1.121-3.244-3.7-2.919-5.763l15.13-93.458c.339-2.063 2.182-2.815 4.114-1.694l143.218 82.639z" fill="#F5F9FF"/><path d="M419.361 118.395v-.177c0-.059 0-.103-.015-.162v-.044c0-.044 0-.074-.015-.118 0-.059-.014-.103-.014-.162a.141.141 0 00-.015-.074v-.074c-.015-.059-.015-.103-.03-.162-.014-.044-.014-.103-.029-.147-.015-.059-.03-.103-.044-.162-.015-.059-.03-.103-.045-.162 0-.015-.014-.03-.014-.045 0-.014 0-.014-.015-.029-.015-.03-.015-.059-.03-.088-.014-.045-.029-.104-.044-.148-.015-.044-.029-.074-.044-.118v-.029c-.015-.044-.03-.089-.059-.148-.015-.044-.03-.088-.059-.132-.015-.015-.015-.044-.03-.059 0-.015 0-.015-.014-.03-.015-.014-.015-.029-.03-.059-.015-.044-.044-.088-.059-.132a.57.57 0 00-.074-.133v-.015s0-.014-.014-.014c-.03-.045-.045-.104-.074-.148-.03-.044-.044-.088-.074-.132l-.044-.089c-.015-.015-.015-.029-.03-.044a2.463 2.463 0 00-.132-.206c-.015-.03-.03-.045-.045-.074v-.015l-.176-.265c-.015-.015-.015-.03-.03-.03l-.029-.029c-.015-.03-.045-.059-.059-.089-.045-.044-.074-.088-.118-.147-.015-.015-.03-.029-.045-.059l-.029-.029a1.847 1.847 0 01-.044-.045c-.045-.044-.074-.088-.118-.132l-.089-.089-.015-.014-.014-.015c-.045-.044-.089-.089-.133-.118a1.007 1.007 0 00-.133-.118c-.044-.044-.088-.074-.132-.118-.045-.044-.089-.074-.148-.118l-.015-.015-.014-.014a.445.445 0 00-.104-.074c-.044-.029-.088-.074-.147-.103-.015-.015-.03-.015-.044-.03 0 0-.015 0-.015-.014-.03-.015-.059-.045-.089-.059-.044-.03-.103-.059-.147-.089-.015 0-3.451-1.989-3.465-2.004l-4.262 2.564s3.657 1.916 3.701 1.946c.044.029.103.059.148.088.044.03.103.074.147.103.044.03.089.074.148.104.014.014.044.029.059.044.073.059.147.118.221.191.073.059.147.133.221.207l.029.029c.074.074.133.133.192.207a.807.807 0 01.03.029c.059.074.118.147.177.206.014.015.014.03.029.045l.177.221c.03.044.059.073.089.118.029.044.073.088.103.147.044.059.073.118.103.177.029.044.044.074.074.118.014.029.044.073.059.103.029.059.073.118.103.177.015.015.015.029.029.044.045.088.089.162.118.251 0 0 0 .014.015.014.044.089.074.177.118.266 0 .014.015.014.015.029.029.089.074.177.103.265 0 .015.015.03.015.03l.088.265c0 .015.015.03.015.044.03.089.044.177.074.266 0 .014 0 .029.014.044.015.088.045.177.059.265v.044l.045.266v.029c.014.089.014.177.029.265v.457c0 .059 0 .104-.015.162 0 .059-.014.118-.014.177 0 .045-.015.089-.015.133l-.044.251-14.909 92.116c-.074.442-1.77 3.242-1.386 3.021l4.085-3.449a4.771 4.771 0 001.622-2.859l14.628-90.392c.074-.442.177-1.09.177-1.09 0-.045.015-.089.015-.133 0-.044.015-.074.015-.118v-.059c0-.059.014-.103.014-.162v-.133c-.014.03-.014.03-.014.015z" fill="#96BEFF"/><path d="M396.091 234.049l-.045-6.898-5.574 4.716-1.194-2.756-140.092-80.841c-1.681-.973-5.043-.855-6.99.28l-60.726 34.798v-.973l-9.216 4.481-1.298-.531.177 4.245c.147.928.501 1.311 1.077 1.636l145.783 84.349c1.681.972 4.66.958 6.607-.163l69.854-40.251c1.062-.619 1.607-1.37 1.607-2.122l.03.03z" fill="#8CADED"/><path d="M317.92 270.91l-145.784-84.128c-1.681-.973-1.475-2.697.472-3.817l69.854-40.31c1.946-1.12 4.925-1.253 6.606-.28l145.784 84.128c1.681.972 1.475 2.697-.472 3.817l-69.854 40.31c-1.947 1.135-4.925 1.253-6.606.28z" fill="#F5F9FF"/><g opacity=".32" fill="#6B87DB"><path opacity=".32" d="M251.207 157.968c-.207.118-.649.074-.959-.118l-8.848-5.099c-.324-.177-.413-.428-.192-.561l5.87-3.389c.206-.118.648-.074.958.118l8.848 5.099c.324.177.413.427.192.56l-5.869 3.39zm10.263 15.24c-.221.118-.649.073-.958-.118l-8.848-5.1c-.325-.177-.399-.427-.192-.56l5.869-3.39c.206-.118.634-.073.959.118l8.847 5.1c.325.191.413.427.192.56l-5.869 3.39zm-5.191 6.337c-.206.118-.648.074-.958-.118l-8.848-5.099c-.31-.177-.413-.428-.192-.56l5.869-3.39c.207-.118.649-.074.959.118l8.848 5.099c.324.177.398.428.192.56l-5.87 3.39zm-14.038 1.224c-.207.118-.649.073-.959-.118l-8.848-5.1c-.309-.177-.398-.427-.191-.56l5.869-3.39c.206-.118.648-.073.958.103l8.848 5.1c.31.177.398.427.192.56l-5.869 3.405zm-24.362-3.552c-.206.118-.648.073-.958-.118l-8.848-5.1c-.324-.191-.413-.427-.192-.56l6.887-3.979c.206-.118.649-.074.959.118l8.847 5.099c.325.177.399.442.192.56l-6.887 3.98zm15.263 8.799c-.206.117-.722.029-1.15-.222l-11.591-6.691c-.413-.236-.59-.53-.369-.663l6.887-3.979c.207-.118.723-.03 1.136.221l11.59 6.691c.428.236.59.545.384.663l-6.887 3.98zm76.18 43.994c-.177.103-.575.03-.899-.147l-8.848-5.1c-.324-.191-.442-.412-.266-.516l2.552-1.473c.177-.104.575-.03.899.147l8.848 5.099c.325.177.428.413.266.516l-2.552 1.474zm11.827 7.001c-.177.103-.575.029-.899-.147l-8.848-5.1c-.325-.192-.443-.413-.266-.516l2.551-1.474c.177-.103.576-.029.9.148l8.848 5.099c.324.177.427.413.265.516l-2.551 1.474zm12.535 7.074c-.177.104-.575.03-.885-.162l-8.848-5.099c-.325-.177-.442-.413-.28-.516l2.448-1.415c.162-.103.575-.029.884.162l8.848 5.1c.325.177.443.412.266.516l-2.433 1.414zm-7.713-9.771c-.177.103-.575.029-.885-.162l-8.848-5.1c-.324-.177-.442-.412-.28-.516l2.448-1.415c.162-.103.575-.029.885.163l8.848 5.099c.324.177.442.413.265.516l-2.433 1.415zm-31.955-13.191c-.207.118-.649.074-.974-.118l-57.599-33.221c-.31-.177-.413-.427-.192-.56l6.886-3.979c.207-.118.649-.074.959.118l57.6 33.22c.324.192.413.443.206.56l-6.886 3.98z"/><path opacity=".32" d="M231.564 183.819c-.014.015-.059 0-.088-.029l-6.769-3.906c-.044-.014-.059-.044-.044-.059l.428-.25c.014-.015.059 0 .088.029l6.769 3.906c.044.015.059.044.044.059l-.428.25zm-17.356-10.759c-.015.015-.045 0-.059 0l-2.876-1.65c-.015-.015-.015-.03 0-.03l.428-.25c.014-.015.044 0 .059 0l2.875 1.65c.015.015.015.03 0 .03l-.427.25zm40.154 14.695c-.206.118-.649.073-.958-.118l-8.848-5.1c-.31-.177-.413-.427-.192-.56l5.869-3.39c.207-.118.649-.073.959.118l8.848 5.1c.324.191.398.442.191.56l-5.869 3.39zm12.196 7.03c-.207.118-.649.074-.959-.118l-8.848-5.099c-.324-.177-.413-.443-.192-.56l5.87-3.39c.206-.118.648-.074.958.118l8.848 5.099c.31.177.398.428.192.56l-5.869 3.39zm12.18 7.03c-.206.118-.649.074-.958-.118l-8.848-5.099c-.31-.177-.398-.428-.192-.56l5.869-3.39c.207-.118.649-.074.959.103l8.848 5.1c.309.177.398.427.191.56l-5.869 3.404zm12.196 7.031c-.207.118-.635.073-.959-.118l-8.848-5.1c-.324-.191-.413-.427-.192-.56l5.87-3.39c.206-.118.648-.074.958.118l8.848 5.1c.324.177.398.427.192.56l-5.869 3.39zm12.18 7.03c-.206.118-.649.074-.973-.118l-8.848-5.1c-.31-.177-.398-.427-.192-.56l5.869-3.39c.207-.118.649-.073.959.104l8.848 5.099c.324.192.413.442.192.56l-5.855 3.405zm12.195 7.015c-.206.118-.648.074-.958-.117l-8.848-5.1c-.324-.177-.413-.427-.192-.56l5.869-3.39c.207-.118.649-.074.959.118l8.848 5.1c.324.176.398.427.192.56l-5.87 3.389zm27.444 15.844c-.207.118-.649.074-.959-.117l-24.11-13.914c-.325-.177-.398-.427-.192-.56l5.869-3.39c.207-.118.649-.073.959.118l24.11 13.913c.325.177.398.428.192.561l-5.869 3.389zm-74.352-52.204c-.207.118-.634.074-.959-.117l-8.847-5.1c-.325-.177-.413-.427-.192-.56l5.869-3.39c.206-.118.634-.074.958.118l8.848 5.1c.325.191.398.427.192.545l-5.869 3.404zm12.195 7.031c-.206.118-.649.073-.958-.118l-8.848-5.115c-.31-.176-.398-.427-.192-.545l5.869-3.39c.207-.118.634-.073.959.118l8.848 5.114c.309.177.398.428.191.546l-5.869 3.39zm12.181 7.03c-.207.118-.649.074-.959-.118l-8.847-5.099c-.31-.177-.413-.428-.192-.561l5.869-3.389c.206-.118.649-.059.958.118l8.848 5.099c.31.177.398.427.192.56l-5.869 3.39zm12.195 7.03c-.206.118-.649.074-.958-.118l-8.848-5.099c-.325-.177-.413-.428-.192-.56l5.869-3.39c.207-.118.634-.074.959.118l8.848 5.099c.324.177.398.428.191.546l-5.869 3.404zm12.196 7.031c-.207.118-.649.073-.959-.118l-8.848-5.1c-.324-.177-.413-.427-.192-.545l5.87-3.39c.206-.118.634-.074.958.118l8.848 5.099c.31.177.398.428.192.546l-5.869 3.39zm12.18 7.015c-.206.118-.634.074-.958-.118l-8.848-5.099c-.325-.192-.413-.428-.207-.56l5.869-3.39c.207-.118.635-.074.959.118l8.848 5.099c.324.177.398.428.192.546l-5.855 3.404zm12.181 7.03c-.207.118-.649.074-.959-.117l-8.848-5.1c-.309-.177-.398-.427-.191-.545l5.869-3.39c.206-.118.634-.074.958.118l8.848 5.099c.31.177.398.428.192.546l-5.869 3.389zm-67.923-48.49c-.221.118-.648.074-.958-.117l-8.848-5.1c-.31-.177-.398-.427-.192-.56l5.869-3.39c.207-.118.635-.074.959.118l8.848 5.1c.324.191.398.427.192.56l-5.87 3.389zm12.181 7.031c-.221.118-.649.073-.959-.103l-8.847-5.1c-.325-.177-.413-.427-.192-.56l5.869-3.39c.206-.118.634-.074.958.118l8.848 5.1c.31.176.399.427.192.545l-5.869 3.39zm12.181 7.015c-.221.118-.649.074-.959-.118l-8.848-5.099c-.309-.177-.398-.427-.191-.56l5.869-3.39c.206-.118.634-.074.958.118l8.848 5.099c.325.192.413.428.192.561l-5.869 3.389zm12.195 7.031c-.221.118-.649.073-.958-.103l-8.848-5.1c-.325-.177-.413-.427-.192-.56l5.869-3.39c.206-.118.634-.074.959.118l8.847 5.1c.325.191.399.427.192.545l-5.869 3.39zm12.181 7.03c-.222.118-.649.074-.959-.103l-8.848-5.1c-.324-.191-.398-.427-.191-.56l5.869-3.39c.206-.118.634-.073.958.118l8.848 5.1c.31.177.398.427.192.545l-5.869 3.39zm12.195 7.03c-.221.118-.649.074-.973-.118l-8.848-5.099c-.31-.177-.398-.428-.192-.56l5.869-3.39c.207-.118.649-.074.959.118l8.848 5.099c.324.192.412.442.206.56l-5.869 3.39zm12.181 7.031c-.222.118-.649.073-.959-.104l-8.848-5.099c-.324-.177-.398-.427-.192-.56l5.87-3.39c.206-.118.634-.074.958.118l8.848 5.099c.31.177.398.428.192.546l-5.869 3.39zm-97.43-56.199c-.222.118-.649.074-.959-.118l-15.012-8.651c-.324-.177-.413-.428-.192-.56l5.869-3.39c.207-.118.635-.074.959.118l15.012 8.651c.324.192.413.428.192.56l-5.869 3.39zm117.691 58.557c-.206.118-.649.073-.958-.118l-15.012-8.652c-.31-.177-.398-.427-.192-.56l5.869-3.39c.207-.118.649-.073.959.118l15.012 8.652c.324.177.412.427.191.56l-5.869 3.39zm-122.897-52.219c-.206.118-.634.074-.958-.118l-17.888-10.317c-.324-.177-.413-.427-.192-.56l5.869-3.39c.207-.118.635-.073.959.118l17.887 10.317c.325.192.399.428.192.56l-5.869 3.39zm-14.039 1.223c-.206.118-.648.074-.958-.118l-11.93-6.882c-.324-.192-.413-.428-.192-.561l5.869-3.389c.207-.118.649-.074.959.117l11.93 6.883c.324.177.398.428.192.56l-5.87 3.39zm33.342-8.74c-.206.118-.649.074-.958-.118l-8.848-5.099c-.325-.177-.413-.427-.192-.56l5.869-3.39c.207-.118.649-.074.959.118l8.848 5.099c.324.192.412.428.191.56l-5.869 3.39zm12.137 6.986c-.207.118-.649.074-.959-.118l-8.848-5.099c-.31-.177-.413-.427-.192-.56l5.869-3.39c.207-.118.649-.074.959.118l8.848 5.099c.324.177.413.428.192.561l-5.869 3.389zm12.18 7.031c-.206.118-.634.073-.958-.103l-8.848-5.1c-.31-.177-.398-.427-.192-.56l5.869-3.39c.207-.118.649-.074.959.118l8.848 5.099c.324.192.398.428.191.561l-5.869 3.375zm12.181 7.03c-.207.118-.649.074-.959-.118l-8.848-5.099c-.324-.192-.413-.428-.191-.56l5.869-3.39c.206-.118.649-.074.958.118l8.848 5.099c.325.177.413.428.192.56l-5.869 3.39zm12.195 7.03c-.206.118-.634.074-.959-.103l-8.847-5.099c-.325-.192-.413-.428-.192-.561l5.869-3.389c.206-.118.649-.074.958.117l8.848 5.1c.325.192.399.427.192.56l-5.869 3.375zm12.181 7.031c-.207.118-.649.073-.959-.103l-8.848-5.1c-.309-.177-.398-.427-.191-.56l5.869-3.39c.206-.118.648-.074.958.103l8.848 5.1c.31.177.398.427.192.56l-5.869 3.39zm12.195 7.03c-.206.118-.649.074-.959-.118l-8.847-5.1c-.325-.191-.413-.427-.192-.56l5.869-3.39c.206-.117.649-.073.959.118l8.847 5.1c.325.177.413.427.192.56l-5.869 3.39zm12.181 7.015c-.207.118-.635.074-.959-.103l-8.863-5.114c-.309-.177-.398-.427-.191-.545l5.869-3.39c.206-.118.649-.074.958.103l8.863 5.114c.31.177.398.428.192.546l-5.869 3.389zm7.093 6.205a1.196 1.196 0 00-.517-.162.679.679 0 00-.442.059l-5.869 3.39c-.103.059-.147.147-.103.251a.623.623 0 00.295.294l2.315 1.327-7.698 4.436c-.103.059-.132.148-.103.251.044.103.147.206.295.295l5.958 3.434c.147.088.339.147.516.176a.68.68 0 00.442-.058l13.935-8.048c.104-.059.133-.147.104-.25a.639.639 0 00-.295-.295l-8.833-5.1z"/><path opacity=".32" d="M228.467 170.879c-.014.015-.059 0-.088-.029l-6.769-3.906c-.044-.015-.059-.044-.044-.059l.428-.251c.014-.014.059 0 .088.03l6.769 3.905c.044.015.059.045.044.059l-.428.251z"/></g><path opacity=".32" d="M263.874 228.153l-32.398-18.158c-.369-.206-.369-.56.014-.781l13.774-7.914c.383-.221 1.002-.236 1.386-.015l32.398 18.158c.368.206.368.56-.015.781l-13.773 7.915c-.384.221-1.003.221-1.386.014z" fill="#6B87DB"/><path d="M392.286 235.549c.309-.901.005-1.822-.681-2.057-.685-.235-1.492.304-1.802 1.204-.31.901-.005 1.822.681 2.058.685.235 1.492-.304 1.802-1.205z" fill="#342B8C"/><path d="M415.659 112.853l-141.95-81.902h-.014l-.207-.118a4.35 4.35 0 01-.368-.22.713.713 0 00-.148-.075c-.044-.03-.103-.044-.147-.073-.045-.03-.104-.044-.148-.06-.059-.014-.103-.044-.147-.058-.059-.015-.103-.03-.148-.044-.059-.015-.103-.03-.162-.045h-.029c-.045-.014-.089-.03-.148-.03-.029 0-.044-.014-.074-.014-.014 0-.044 0-.059-.015-.014 0-.029 0-.044-.014-.059-.015-.118-.015-.177-.015h-.472c-.044 0-.103.015-.147.015-.03 0-.059 0-.074.014h-.015c-.103.015-.191.045-.28.074h-.015c-.014 0-.014.015-.029.015a1.43 1.43 0 00-.339.162l-4.173 2.417c.103-.059.221-.118.339-.147l.132-.044c.059-.015.104-.03.163-.045.073-.014.132-.03.206-.03.03 0 .044-.014.074-.014.088-.015.192-.015.295-.015h.059c.103 0 .206.015.309.03h.03c.103.015.221.044.324.074.015 0 .015 0 .03.014.103.03.221.06.324.103.015 0 .015.015.03.015.118.044.236.103.354.162.044.03.103.044.147.074.044.015.074.044.118.059l.782.457 142.156 82.035a.567.567 0 00.531 0l3.126-1.813c.324-.221.324-.722-.015-.929z" fill="#E6F0FF"/><path d="M412.268 115.58c1.946 1.12 3.244 3.699 2.919 5.763l-15.13 93.457c-.324 2.064-2.182 2.815-4.114 1.695l-143.218-82.639c-1.946-1.12-3.244-3.7-2.919-5.763l15.129-93.457c.34-2.064 2.183-2.815 4.115-1.695l143.218 82.639z" fill="#173891"/><path d="M407.165 121.593c1.844 1.047 3.097 3.287 2.787 5.011l-13.684 78.41c-.295 1.724-2.035 2.284-3.879 1.238l-135.83-76.906c-1.843-1.047-3.096-3.287-2.787-5.011l13.685-78.41c.295-1.724 2.035-2.284 3.878-1.238l135.83 76.906z" fill="#3072FF"/><path opacity=".28" d="M253.758 124.32l13.684-78.41c.295-1.724 2.035-2.284 3.879-1.237l105.127 59.529-122.69 20.118z" fill="#DBE3FF"/><path d="M273.12 30.612l140.327 80.517s6.71 3.154 5.56 9.506l-13.39 82.919" stroke="#342B8C" stroke-width="2.556" stroke-miterlimit="10" stroke-linecap="round" stroke-linejoin="round"/><path d="M346.646 260.342l-6.386 3.744m-1.607 1.061l-6.385 3.744" stroke="#342B8C" stroke-width="2.32" stroke-miterlimit="10" stroke-linecap="round" stroke-linejoin="round"/><path d="M247.8 141.431l146.964 84.777" stroke="#342B8C" stroke-width="2.556" stroke-miterlimit="10" stroke-linecap="round" stroke-linejoin="round"/><path opacity=".39" d="M464.957 214.608a5.033 5.033 0 01-5.029-5.025 5.033 5.033 0 015.029-5.026 5.033 5.033 0 015.028 5.026c.015 2.77-2.241 5.025-5.028 5.025zm0-7.973a2.933 2.933 0 100 5.866 2.932 2.932 0 002.934-2.933c.015-1.607-1.312-2.933-2.934-2.933z" fill="#A7BCF5"/><path d="M5.029 283.585A5.033 5.033 0 010 278.559a5.033 5.033 0 015.029-5.026 5.033 5.033 0 015.028 5.026 5.033 5.033 0 01-5.028 5.026zm0-7.974a2.932 2.932 0 100 5.866 2.932 2.932 0 002.934-2.933c.015-1.606-1.312-2.933-2.934-2.933z" fill="#A7BCF5"/><path opacity=".39" d="M380.754 34.002a5.033 5.033 0 01-5.028-5.026 5.033 5.033 0 015.028-5.026 5.033 5.033 0 015.029 5.026 5.033 5.033 0 01-5.029 5.026zm0-7.974a2.932 2.932 0 00-2.934 2.933 2.932 2.932 0 002.934 2.933 2.932 2.932 0 002.935-2.933 2.942 2.942 0 00-2.935-2.933zM28.888 251.101c-5.707 0-10.367-4.643-10.367-10.361 0-5.704 4.646-10.361 10.367-10.361 5.707 0 10.367 4.642 10.367 10.361 0 5.718-4.645 10.361-10.367 10.361zm0-16.404a6.06 6.06 0 00-6.06 6.058 6.059 6.059 0 006.06 6.057 6.059 6.059 0 006.061-6.057 6.06 6.06 0 00-6.06-6.058zM336.426 36.89l-9.349-4.274a1.219 1.219 0 01-.605-1.62l4.277-9.345a1.22 1.22 0 011.622-.604l9.349 4.274c.62.28.885 1.002.605 1.621l-4.277 9.344a1.229 1.229 0 01-1.622.605zm-7.225-5.983l7.137 3.272 3.259-7.119-7.137-3.272-3.259 7.119zm106.528 170.024l-17.681-9.639c-1.74-.943-2.905-3.228-2.595-5.1l3.111-18.998c.31-1.871 1.962-2.608 3.702-1.665l17.681 9.639c1.74.943 2.905 3.228 2.595 5.099l-3.112 18.999c-.309 1.871-1.961 2.623-3.701 1.665z" fill="#A7BCF5"/><path d="M434.638 179.708c-1.549-2.742-4.38-4.098-6.326-3.007-1.947 1.076-2.271 4.186-.723 6.927 1.548 2.741 4.38 4.097 6.326 3.007 1.932-1.076 2.256-4.186.723-6.927zm-1.49 5.63c-1.43.796-3.494-.192-4.63-2.211-1.135-2.005-.899-4.289.531-5.07 1.43-.796 3.495.191 4.63 2.211 1.136 2.004.9 4.289-.531 5.07zm-10.691 1.414c-.236-.427-.177-.913.133-1.075l3.466-1.828c.309-.162.752.059.988.486.236.428.177.914-.133 1.076l-3.466 1.828c-.309.177-.752-.044-.988-.487z" fill="#3072FF"/><path opacity=".39" d="M440.905 169.272l-17.681-9.639c-1.74-.943-2.905-3.227-2.595-5.099l3.111-18.998c.31-1.872 1.962-2.609 3.702-1.666l17.681 9.639c1.74.944 2.905 3.228 2.595 5.1l-3.111 18.998c-.295 1.872-1.962 2.609-3.702 1.665z" fill="#A7BCF5"/><path d="M437.027 151.807l-2.507-8.327-4.586 5.144c-.649.457-1.15 1.164-1.386 2.093l-.03.044.015.015c-.03.132-.059.265-.089.412-.457 2.815 1.283 6.249 3.908 7.679 2.625 1.43 5.117.31 5.574-2.505.251-1.489-.118-3.125-.899-4.555z" fill="#3072FF"/><path opacity=".39" d="M193.459 156.877c0-2.299-1.592-4.406-4.247-6.072.015.236.03.486.03.722 0 7.974-8.45 14.503-19.141 15.063 1.121.103 2.286.147 3.465.147 10.986-.014 19.893-4.421 19.893-9.86z" fill="#A7BCF5"/><path d="M189.242 151.512c0-.235-.015-.486-.03-.722a14.966 14.966 0 00-.132-1.149s.162-36.11.162-36.744c0-5.143-3.525-9.698-8.892-12.424-.856 2.785-5.575 4.922-11.267 4.922-.781 0-1.533-.044-2.271-.117-4.881-.502-8.641-2.609-9.084-5.188-5.81 2.667-9.688 7.398-9.688 12.807v37.304h.074c-.044.427-.074.869-.074 1.297 0 8.342 9.231 15.107 20.601 15.107.487 0 .973-.015 1.46-.044 10.691-.531 19.141-7.06 19.141-15.049z" fill="#F5F9FF"/><path d="M168.641 147.003c-1.976 0-3.864.176-5.619.471-.044 2.373-1.843 3.876-4.055 3.331l-3.023-.737-.133-.044c-1.99 1.253-3.17 2.815-3.17 4.495 0 4.157 7.167 7.532 16 7.532s16-3.375 16-7.532c0-4.156-7.167-7.516-16-7.516z" fill="#4285FF"/><path d="M184.641 154.534h-32V118.97l32-.266v35.83z" fill="#4285FF"/><path d="M168.641 111.88c-1.976 0-3.864.177-5.619.472-4.055.781-7.078 2.594-7.078 2.594l-.133-.044c-1.99 1.253-3.17 2.815-3.17 4.495 0 4.156 7.167 7.532 16 7.532s16-3.376 16-7.532c0-4.156-7.167-7.517-16-7.517z" fill="#80ADFF"/><path d="M179.421 97.113l-.015-.015.015.015c-.015-.015-.015-.015 0 0zm.324.383c.044.044.074.103.118.162-.044-.06-.088-.103-.118-.162zm-.221-.266c.044.045.088.103.133.148-.059-.06-.089-.103-.133-.148zm.575.84c.029.06.059.104.074.163-.015-.06-.045-.103-.074-.163zm.251.59zm-.118-.295zm-.295-.589c.029.059.059.103.089.162a1.424 1.424 0 01-.089-.162zm.486 1.179c.015.073.03.132.03.206 0-.059-.015-.133-.03-.206zm.045.309c.014.104.014.207.014.31.015-.103 0-.206-.014-.31zm-11.385 6.146l-2.271-.118c.738.089 1.49.118 2.271.118z" fill="#fff"/><path d="M166.812 105.292c1.696-.353 3.186-.84 4.454-1.444a21.11 21.11 0 01-2.183.118c-5.692 0-10.322-2.358-10.322-5.247v-1.636c-.693.752-1.092 1.606-1.092 2.49 0 .178.015.354.045.531.457 2.594 4.217 4.687 9.098 5.188z" fill="#85B0FF"/><path d="M179.421 97.112c.029.045.074.074.103.119-.044-.045-.074-.089-.103-.119zm.767 1.121c.014.044.044.088.059.133a.485.485 0 01-.059-.133zm.117.294l.045.133-.045-.133zm.089.31c.015.044.015.074.03.118 0-.03-.015-.074-.03-.118zm-.752-1.459a.752.752 0 00.089.118c-.015-.044-.06-.074-.089-.118zm.206.28l.089.133c-.03-.06-.059-.089-.089-.133zm.605 1.503c0 .03.015.074.015.104 0-.03 0-.06-.015-.104zm-.428-1.223c.03.044.045.088.074.133a.591.591 0 00-.074-.133z" fill="#E6E6ED"/><path d="M179.406 98.719c0 2.52-3.48 4.628-8.125 5.129-1.269.604-2.758 1.091-4.454 1.444l2.271.118c5.692 0 10.411-2.137 11.266-4.922.089-.295.133-.605.133-.914 0-.103 0-.206-.015-.31 0-.03-.014-.073-.014-.103-.015-.074-.015-.133-.03-.206-.015-.044-.015-.074-.029-.118l-.045-.177a6.855 6.855 0 00-.044-.133c-.015-.059-.044-.118-.059-.177-.015-.044-.044-.088-.059-.132-.029-.06-.044-.103-.074-.162-.029-.044-.044-.089-.073-.133-.03-.059-.059-.103-.089-.162l-.088-.133c-.03-.059-.074-.103-.118-.162-.03-.044-.059-.088-.089-.118-.044-.044-.088-.103-.132-.147-.03-.044-.074-.074-.104-.118l-.014-.015v1.651h-.015z" fill="#fff"/><path d="M179.406 98.719c0 2.52-3.48 4.628-8.125 5.129-1.269.604-2.758 1.091-4.454 1.444l2.271.118c5.692 0 10.411-2.137 11.266-4.922.089-.295.133-.605.133-.914 0-.103 0-.206-.015-.31 0-.03-.014-.073-.014-.103-.015-.074-.015-.133-.03-.206-.015-.044-.015-.074-.029-.118l-.045-.177a6.855 6.855 0 00-.044-.133c-.015-.059-.044-.118-.059-.177-.015-.044-.044-.088-.059-.132-.029-.06-.044-.103-.074-.162-.029-.044-.044-.089-.073-.133-.03-.059-.059-.103-.089-.162l-.088-.133c-.03-.059-.074-.103-.118-.162-.03-.044-.059-.088-.089-.118-.044-.044-.088-.103-.132-.147-.03-.044-.074-.074-.104-.118l-.014-.015v1.651h-.015z" fill="#73A4FF"/><path d="M178.447 94.238c-1.637 1.799-5.22 3.051-9.364 3.051-5.692 0-10.322-2.358-10.322-5.247v6.692c0 2.903 4.615 5.247 10.322 5.247a14.755 14.755 0 002.256-1.15.458.458 0 01-.265-.398V98.66c0-.236.192-.442.442-.442.251 0 .443.191.443.442v3.773c.56-.398 1.106-.825 1.607-1.282v-3.11a.443.443 0 01.885 0v2.255c.457-.486.9-1.002 1.312-1.548l.015-.014v-1.518a.443.443 0 01.885 0v.25a30.647 30.647 0 001.784-3.228zm-18.02 5.365a.443.443 0 01-.885 0V95.83a.443.443 0 01.885 0v3.774zm2.124 1.356a.444.444 0 01-.443.442.434.434 0 01-.442-.442v-3.773c0-.236.192-.442.442-.442.251 0 .443.192.443.442v3.773zm2.212.84a.444.444 0 01-.885 0v-3.773a.443.443 0 01.885 0v3.774zm2.492.634a.444.444 0 01-.885 0V98.66a.443.443 0 01.885 0v3.773zm2.433-3.464v3.774a.444.444 0 01-.443.442.435.435 0 01-.442-.442V98.97a.5.5 0 01.074-.251.44.44 0 01.368-.192c.148 0 .295.074.369.192a.5.5 0 01.074.25z" fill="#6094F5"/><path d="M176.663 97.437v3.522a.443.443 0 01-.885 0v-2.255l-.015.015a18.853 18.853 0 01-1.312 1.547v1.533a.443.443 0 01-.885 0v-.663c-.516.472-1.047.899-1.607 1.282v.015a.444.444 0 01-.443.442.357.357 0 01-.177-.044c-.707.442-1.459.825-2.256 1.15.752 0 1.49-.045 2.183-.118 4.645-.516 8.125-2.609 8.125-5.13v-6.691c0 .781-.339 1.533-.958 2.196a25.534 25.534 0 01-1.77 3.199zm2.123 2.166a.443.443 0 01-.442.442.434.434 0 01-.442-.442V95.83c0-.236.191-.442.442-.442s.442.192.442.442v3.773z" fill="#E6E6ED"/><path d="M176.663 97.437v3.522a.443.443 0 01-.885 0v-2.255l-.015.015a18.853 18.853 0 01-1.312 1.547v1.533a.443.443 0 01-.885 0v-.663c-.516.472-1.047.899-1.607 1.282v.015a.444.444 0 01-.443.442.357.357 0 01-.177-.044c-.707.442-1.459.825-2.256 1.15.752 0 1.49-.045 2.183-.118 4.645-.516 8.125-2.609 8.125-5.13v-6.691c0 .781-.339 1.533-.958 2.196a25.534 25.534 0 01-1.77 3.199zm2.123 2.166a.443.443 0 01-.442.442.434.434 0 01-.442-.442V95.83c0-.236.191-.442.442-.442s.442.192.442.442v3.773z" fill="#4C87F5"/><path d="M169.083 97.29c4.159 0 7.727-1.254 9.364-3.052.605-.663.959-1.415.959-2.196 0-2.903-4.616-5.247-10.323-5.247-5.707 0-10.322 2.359-10.322 5.247 0 2.89 4.615 5.247 10.322 5.247zm-6.134-5.675c0-1.769 2.816-3.198 6.296-3.198 3.481 0 6.297 1.43 6.297 3.198 0 1.769-2.816 3.198-6.297 3.198-3.48 0-6.296-1.43-6.296-3.198z" fill="#85B0FF"/><path d="M169.245 94.813c3.478 0 6.297-1.432 6.297-3.198s-2.819-3.198-6.297-3.198c-3.477 0-6.296 1.431-6.296 3.198 0 1.766 2.819 3.198 6.296 3.198z" fill="#B8D1FF"/><path d="M159.542 99.603a.443.443 0 00.885 0V95.83a.444.444 0 00-.885 0v3.774zm2.566 1.798a.444.444 0 00.443-.442v-3.773a.443.443 0 00-.885 0v3.773c0 .251.191.442.442.442zm2.212.84a.443.443 0 00.442-.442v-3.773a.443.443 0 00-.884 0v3.774c0 .236.191.442.442.442zm2.492.634a.444.444 0 00.443-.442V98.66a.443.443 0 00-.885 0v3.773c0 .236.192.442.442.442zm11.532-7.502a.443.443 0 00-.442.442v3.773c0 .236.191.443.442.443a.434.434 0 00.442-.443v-3.773a.443.443 0 00-.442-.442zm-2.566 5.586a.443.443 0 00.885 0v-3.772a.444.444 0 00-.443-.443.444.444 0 00-.442.442v3.774zm-2.212.84a.444.444 0 00.885 0v-3.787a.444.444 0 00-.442-.443.444.444 0 00-.443.442v3.789zm-2.227 1.032a.399.399 0 00.177.044.444.444 0 00.443-.442v-3.788a.444.444 0 00-.443-.442.434.434 0 00-.442.442v3.788c0 .177.103.324.265.398zm-2.536-.088a.443.443 0 00.885 0v-3.774a.49.49 0 00-.074-.25.44.44 0 00-.368-.192.441.441 0 00-.369.192.459.459 0 00-.074.25v3.774z" fill="#99BDFF"/><path opacity=".36" d="M157.611 152.294c2.197.545 4.011-.958 4.055-3.331v-28.932c0-2.432-1.829-4.864-4.055-5.409l-3.023-.737c-2.227-.545-4.056.987-4.056 3.419v28.829c0 2.388 1.755 4.761 3.923 5.365l.133.044 3.023.752z" fill="#EEF1F5"/><path opacity=".4" d="M162.875 176.2c-2.876-1.798-7.521-2.742-10.234-1.415-.089.044-4.011 1.96-4.085 2.004l-20.601 11.113c-.943.516-.707-.206-.943.516-.929 0-1.49.84-1.49.84-1.091 1.548 1.947 4.289 4.704 5.439.782.486 1.711.854 2.684 1.105 2.758.693 6.046.427 8.332-.84l21.574-11.865c1.416-.781 2.212-1.798 2.374-2.859.369-1.326-.413-2.859-2.315-4.038z" fill="#89A8CC"/><path d="M163.996 179.088c0 .045-.015.104-.015.148.398-1.43-.428-3.066-2.463-4.333-3.082-1.931-7.786-2.285-10.706-.87-.088.044-.191.089-.28.133l-24.715 13.603c-1.018.561-1.637 1.268-1.888 2.064-.132 1.312 1.106 2.977 2.773 4.024 3.185 1.989 8.626 1.901 11.944.073l23.093-12.704c1.121-.605 1.858-1.342 2.257-2.138zm-9.32.325c-.575.309-1.49.294-2.035-.045-.546-.338-.531-.884.044-1.193.575-.31 1.489-.295 2.035.044.546.354.531.884-.044 1.194zm-2.065 3.183c-.545-.339-.531-.884.045-1.194.575-.309 1.489-.294 2.035.045.545.339.53.884-.045 1.193-.575.325-1.489.295-2.035-.044zm-15.233 8.386c-.545-.339-.531-.884.044-1.193.576-.31 1.49-.295 2.035.044.546.339.531.884-.044 1.194-.575.309-1.489.294-2.035-.045zm-5.544 3.037c-.546-.339-.531-.885.044-1.194.575-.31 1.489-.295 2.035.044.545.339.531.884-.044 1.194-.561.324-1.475.295-2.035-.044zm-3.318-3.287c-.576.309-1.49.295-2.035-.044-.546-.339-.531-.885.044-1.194.575-.31 1.489-.295 2.035.044.545.339.531.87-.044 1.194zm3.391-1.135c.575-.309 1.49-.295 2.035.044.546.339.531.885-.044 1.194-.575.31-1.489.295-2.035-.044-.546-.339-.531-.87.044-1.194zm2.139-1.916c-.576.31-1.49.295-2.036-.044-.545-.339-.53-.884.045-1.194.575-.31 1.489-.295 2.035.044.545.339.531.885-.044 1.194zm15.233-8.386c-.575.309-1.49.295-2.035-.044-.546-.339-.531-.885.044-1.194.575-.31 1.489-.295 2.035.044.56.339.531.884-.044 1.194zm2.521 4.598a.609.609 0 01-.044 1.047l-8.287 4.569a.594.594 0 01-.605-.015l-7.521-4.687a.608.608 0 01.044-1.046l8.288-4.569a.592.592 0 01.605.014l7.52 4.687zm3.023-7.634c-.575.309-1.489.294-2.035-.045-.545-.339-.531-.884.045-1.193.575-.31 1.489-.295 2.035.044.545.339.53.869-.045 1.194zm5.25 3.286c-.575.31-1.489.295-2.035-.044-.546-.339-.531-.884.044-1.194.575-.309 1.49-.294 2.035.045.546.339.531.884-.044 1.193z" fill="#fff"/><path d="M126.554 194.711c-2.138-1.326-3.421-3.272-2.61-4.878-.133 1.312 1.106 2.977 2.773 4.024 3.185 1.989 8.626 1.901 11.944.073l23.093-12.704c1.091-.605 1.844-1.342 2.242-2.137 0 .044-.015.103-.015.147-.177 1.135-1.018 2.225-2.536 3.051l-23.093 12.704c-2.448 1.356-5.958 1.636-8.922.9-1.062-.266-2.035-.649-2.876-1.18z" fill="#2964D6"/><path d="M144.294 179.206a.589.589 0 00-.604-.014l-8.288 4.569c-.413.221-.427.81-.044 1.046l7.521 4.687a.591.591 0 00.604.015l8.288-4.569c.413-.221.427-.811.044-1.047l-7.521-4.687zm-1.74 7.753c.575-.31 1.49-.295 2.035.044.546.339.531.884-.044 1.194-.575.309-1.489.295-2.035-.044-.546-.339-.531-.885.044-1.194zm-3.377-2.108c-.575.31-1.489.295-2.035-.044-.545-.339-.531-.884.045-1.194.575-.309 1.489-.295 2.035.044.545.354.53.885-.045 1.194zm3.407-1.12c.575-.309 1.489-.295 2.035.044.545.339.531.885-.044 1.194-.576.31-1.49.295-2.036-.044-.56-.339-.53-.884.045-1.194zm2.123-1.916c-.575.31-1.489.295-2.035-.044-.545-.339-.531-.884.044-1.194.576-.309 1.49-.295 2.035.044.561.339.531.87-.044 1.194zm5.368 3.346c-.575.309-1.489.295-2.035-.044-.546-.339-.531-.885.044-1.194.575-.31 1.49-.295 2.035.044.561.339.531.87-.044 1.194z" fill="#009BA6"/><path opacity=".36" d="M154.823 176.259c-.575.309-1.489.294-2.035-.045-.545-.339-.531-.884.045-1.193.575-.31 1.489-.295 2.035.044.545.339.53.869-.045 1.194zm-5.544 3.036c-.575.309-1.49.295-2.035-.044-.546-.339-.531-.885.044-1.194.575-.31 1.489-.295 2.035.044.56.339.531.884-.044 1.194zm5.397.118c-.575.309-1.489.294-2.035-.045-.546-.339-.531-.884.044-1.193.575-.31 1.49-.295 2.035.044.546.354.531.884-.044 1.194zm.428 2.622c.008-.464-.633-.851-1.431-.864-.798-.013-1.451.352-1.459.816-.008.464.633.851 1.431.864.798.013 1.451-.352 1.459-.816zm4.969-2.49c-.575.31-1.489.295-2.035-.044-.546-.339-.531-.884.044-1.194.575-.309 1.49-.295 2.035.044.546.339.531.885-.044 1.194zm-26.027 8.136c-.576.31-1.49.295-2.035-.044-.546-.339-.531-.884.044-1.194.575-.309 1.489-.295 2.035.044.545.339.531.885-.044 1.194zm3.332 3.301c-.545-.339-.531-.884.044-1.193.576-.31 1.49-.295 2.035.044.546.339.531.884-.044 1.194-.575.309-1.489.294-2.035-.045zm-8.862-.25c-.575.309-1.49.295-2.035-.044-.546-.339-.531-.885.044-1.194.575-.31 1.489-.295 2.035.044.546.339.531.87-.044 1.194zm3.391-1.135c.575-.309 1.49-.295 2.035.044.546.339.531.885-.044 1.194-.575.31-1.489.295-2.035-.044-.546-.339-.531-.87.044-1.194zm-.014 3.228c.575-.31 1.489-.295 2.035.044.545.339.531.884-.045 1.194-.575.309-1.489.295-2.035-.044-.56-.339-.53-.87.045-1.194z" fill="#EEF1F5"/><path d="M144.707 181.815c-.575.31-1.489.295-2.035-.044-.545-.339-.531-.884.045-1.194.575-.309 1.489-.295 2.035.044.56.339.53.87-.045 1.194zm5.368 3.346c-.575.309-1.489.295-2.035-.044-.546-.339-.531-.885.044-1.194.575-.31 1.49-.295 2.035.044.561.339.531.87-.044 1.194zm-10.898-.31c-.575.31-1.489.295-2.035-.044-.545-.339-.531-.884.045-1.194.575-.309 1.489-.295 2.035.044.545.354.53.885-.045 1.194zm3.407-1.12c.575-.309 1.489-.295 2.035.044.545.339.531.885-.044 1.194-.575.31-1.49.295-2.035-.044-.561-.339-.531-.884.044-1.194zm-.03 3.228c.575-.31 1.49-.295 2.035.044.546.339.531.884-.044 1.194-.575.309-1.489.295-2.035-.044-.546-.339-.531-.885.044-1.194z" fill="#fff"/><path opacity=".39" d="M91.615 184.319c2.442-.048 4.398-1.321 4.368-2.843-.03-1.522-2.034-2.716-4.477-2.668-2.443.048-4.399 1.321-4.369 2.843.03 1.522 2.035 2.716 4.478 2.668z" fill="#A7BCF5"/><path opacity=".31" d="M107.841 178.676l-.088-.103-.959-1.076-.118-.148-.015.015c-.471-.442-1.209-.619-2.123-.472-2.006.339-4.1 2.182-4.69 4.127-.265.885-.162 1.636.207 2.167l-.015.015 1.165 1.326c.472.457 1.224.663 2.168.516 2.005-.339 4.099-2.181 4.689-4.127.295-.928.177-1.71-.221-2.24z" fill="#2E4787"/><path opacity=".39" d="M138.13 164.158l-22.813 14.017a4.099 4.099 0 00-.427-.236l-9.32-1.179v4.2s3.923 2.609 8.155 1.253c1.961.25 3.642-.31 4.851-1.562l20.557-12.882a4.697 4.697 0 001.062-.589c1.887-1.371-.074-4.23-2.065-3.022z" fill="#A7BCF5"/><path d="M139.708 159.177c0-6.574-4.615-14.562-10.308-17.849-2.713-1.562-5.176-1.783-7.019-.869a5.75 5.75 0 00-.575.339l-22.783 13.043 16.398 25.233 20.615-12.926c2.242-.884 3.672-3.331 3.672-6.971z" fill="#3072FF"/><path d="M114.317 179.955c4.175-2.41 4.176-10.22.002-17.446-4.174-7.225-10.942-11.129-15.118-8.72-4.175 2.41-4.176 10.22-.002 17.446 4.174 7.225 10.942 11.129 15.118 8.72z" fill="#3072FF"/><path d="M111.072 178.853c3.448-1.975 3.472-8.409.054-14.369-3.418-5.961-8.985-9.191-12.433-7.216-3.448 1.976-3.472 8.409-.054 14.369 3.418 5.961 8.985 9.191 12.433 7.216z" fill="#3072FF"/><path d="M135.401 163.864c3.448-1.976 3.472-8.409.054-14.369-3.419-5.961-8.985-9.191-12.433-7.216-3.448 1.975-3.473 8.409-.054 14.369 3.418 5.961 8.984 9.191 12.433 7.216z" fill="#275DD1"/><path d="M106.012 157.32c-2.772-1.592-5.235-1.592-6.9-.31 1.194.015 2.55.413 3.966 1.238 5.014 2.889 9.084 9.934 9.084 15.711 0 2.594-.811 4.496-2.168 5.542 3.023.044 5.102-2.329 5.102-6.47 0-5.792-4.07-12.823-9.084-15.711z" fill="#739FFF"/><path d="M106.013 178.263c-5.014-2.889-9.084-9.934-9.084-15.711 0-2.594.81-4.495 2.167-5.542-3.023-.044-5.102 2.329-5.102 6.47 0 5.793 4.07 12.823 9.084 15.712 2.772 1.591 5.235 1.591 6.901.309-1.194-.015-2.536-.412-3.966-1.238z" fill="#275DD1"/><path opacity=".18" d="M122.101 146.723l-12.033 7.221c-.9.546-2.079.251-2.625-.648a1.915 1.915 0 01.649-2.624l12.033-7.221a1.917 1.917 0 012.625.648c.545.899.251 2.093-.649 2.624z" fill="#FFE0C9"/><path d="M111.544 177.082c.112-1.518-1.772-2.894-4.209-3.074-2.436-.18-4.503.905-4.615 2.423-.112 1.518 1.772 2.894 4.209 3.074 2.437.18 4.503-.905 4.615-2.423z" fill="#CFDEFF"/><path d="M102.837 174.797l-.13 1.764 8.809.65.13-1.764-8.809-.65z" fill="#CFDEFF"/><path d="M111.647 175.63c.112-1.518-1.772-2.894-4.209-3.074-2.437-.18-4.503.905-4.615 2.423-.112 1.518 1.772 2.894 4.209 3.074 2.437.18 4.503-.905 4.615-2.423z" fill="#fff"/><path d="M110.465 175.368c.082-1.113-1.293-2.121-3.072-2.252-1.778-.131-3.287.664-3.369 1.776-.082 1.112 1.293 2.12 3.072 2.252 1.779.131 3.287-.664 3.369-1.776zm-6.383 8.221c1.832-1.616 2.501-3.851 1.493-4.993-1.008-1.141-3.31-.756-5.142.86-1.832 1.615-2.5 3.851-1.492 4.992 1.007 1.141 3.309.757 5.141-.859z" fill="#CFDEFF"/><path d="M104.489 177.382l-6.623 5.841 1.17 1.326 6.624-5.841-1.171-1.326z" fill="#CFDEFF"/><path d="M103.119 182.501c1.832-1.615 2.5-3.851 1.493-4.992-1.008-1.141-3.31-.757-5.142.859-1.832 1.616-2.5 3.851-1.492 4.993 1.007 1.141 3.309.756 5.141-.86z" fill="#fff"/><path d="M102.518 181.809c1.337-1.18 1.823-2.814 1.084-3.65-.738-.836-2.421-.558-3.758.622-1.337 1.179-1.823 2.813-1.085 3.65.739.836 2.421.557 3.759-.622zm3.624-9.011c1.026-1.126.392-3.371-1.414-5.015-1.807-1.644-4.102-2.065-5.128-.939-1.025 1.125-.392 3.37 1.414 5.015 1.807 1.644 4.103 2.064 5.128.939z" fill="#CFDEFF"/><path d="M100.704 165.65l-1.191 1.307 6.531 5.945 1.192-1.308-6.532-5.944z" fill="#CFDEFF"/><path d="M107.12 171.734c1.025-1.125.392-3.371-1.414-5.015-1.807-1.644-4.103-2.064-5.128-.939-1.026 1.125-.392 3.371 1.414 5.015 1.807 1.644 4.103 2.065 5.128.939z" fill="#fff"/><path d="M106.352 170.792c.751-.824.291-2.466-1.028-3.666-1.318-1.2-2.996-1.505-3.748-.68-.751.824-.291 2.466 1.028 3.666 1.319 1.2 2.997 1.505 3.748.68zm-16.625 13.144c2.443-.048 4.399-1.321 4.369-2.843-.03-1.522-2.035-2.716-4.478-2.668-2.442.048-4.398 1.321-4.368 2.843.03 1.521 2.034 2.716 4.477 2.668z" fill="#CFDEFF"/><path d="M94.049 179.458l-8.832.174.035 1.768 8.832-.174-.035-1.768z" fill="#CFDEFF"/><path d="M89.698 182.493c2.443-.049 4.398-1.321 4.368-2.843-.03-1.522-2.034-2.717-4.477-2.669-2.443.049-4.399 1.321-4.369 2.843.03 1.522 2.035 2.717 4.478 2.669z" fill="#fff"/><path d="M89.683 181.578c1.783-.035 3.211-.968 3.19-2.083-.023-1.114-1.486-1.99-3.27-1.955-1.783.036-3.21.968-3.188 2.083.022 1.115 1.485 1.99 3.268 1.955z" fill="#CFDEFF"/><path opacity=".39" d="M421.686 262.521c3.859-.076 6.95-2.09 6.902-4.499-.047-2.409-3.215-4.3-7.074-4.224-3.86.076-6.95 2.09-6.903 4.499.048 2.409 3.215 4.3 7.075 4.224z" fill="#A7BCF5"/><path d="M418.707 261.917c3.86-.076 6.95-2.091 6.902-4.5-.047-2.409-3.215-4.3-7.074-4.224-3.86.076-6.95 2.091-6.903 4.5.048 2.409 3.215 4.3 7.075 4.224z" fill="#CFDEFF"/><path d="M425.553 254.838l-13.963.276.056 2.785 13.962-.276-.055-2.785z" fill="#CFDEFF"/><path d="M418.663 259.632c3.859-.076 6.95-2.09 6.902-4.499-.047-2.409-3.215-4.3-7.074-4.224-3.86.076-6.95 2.09-6.903 4.499.048 2.409 3.215 4.3 7.075 4.224z" fill="#fff"/><path d="M418.625 258.174c2.817-.056 5.073-1.532 5.038-3.298-.035-1.766-2.347-3.153-5.164-3.098-2.817.056-5.073 1.533-5.038 3.299.035 1.766 2.347 3.152 5.164 3.097z" fill="#CFDEFF"/><path opacity=".39" d="M439.529 271.998c3.86-.076 6.95-2.091 6.902-4.499-.047-2.409-3.215-4.3-7.074-4.224-3.86.076-6.95 2.09-6.903 4.499.048 2.409 3.215 4.3 7.075 4.224z" fill="#A7BCF5"/><path d="M436.55 271.394c3.86-.076 6.95-2.091 6.903-4.5-.048-2.409-3.215-4.3-7.075-4.224-3.859.076-6.95 2.091-6.902 4.5.047 2.409 3.215 4.3 7.074 4.224z" fill="#CFDEFF"/><path d="M443.396 264.3l-13.962.276.055 2.785 13.962-.275-.055-2.786z" fill="#CFDEFF"/><path d="M436.506 269.109c3.86-.076 6.95-2.09 6.902-4.499-.047-2.409-3.215-4.3-7.074-4.224-3.86.076-6.95 2.09-6.902 4.499.047 2.409 3.214 4.3 7.074 4.224z" fill="#fff"/><path d="M436.468 267.636c2.817-.056 5.073-1.532 5.038-3.298-.035-1.766-2.347-3.153-5.164-3.097-2.818.055-5.073 1.532-5.038 3.298.035 1.766 2.347 3.152 5.164 3.097z" fill="#CFDEFF"/><path opacity=".39" d="M449.532 246.812l-.207-.103-1.46-.781-2.315-1.223-5.412-2.889c-2.182-1.165-4.955-.369-6.149 1.783s-.369 4.864 1.814 6.028l5.294 2.815 1.356.723.207.103.487.265 2.049 1.091c2.183 1.164 4.955.368 6.15-1.784 1.194-2.152.368-4.863-1.814-6.028z" fill="#A7BCF5"/><path d="M434.078 247.21l9.585 5.203c2.285 1.238 5.176.383 6.415-1.901 1.238-2.285.383-5.174-1.903-6.412l-9.585-5.202c-2.286-1.238-5.176-.384-6.415 1.901-1.238 2.284-.383 5.173 1.903 6.411z" fill="#CFDEFF"/><path d="M448.396 244.218l-2.639-1.429c-2.286-1.238-5.176-.384-6.415 1.901-1.239 2.284-.383 5.173 1.902 6.411l.517.28 2.138 1.164c2.285 1.239 5.176.384 6.414-1.901 1.224-2.299.369-5.188-1.917-6.426z" fill="#57E0D8"/><path d="M447.674 243.835l-3.421-1.857c-2.286-1.238-4.395.044-5.634 2.329-1.238 2.284-1.297 4.672.989 5.925l1.415.766 2.138 1.164c2.286 1.238 5.176.383 6.415-1.901 1.239-2.314.384-5.188-1.902-6.426z" fill="#009BA6"/><path d="M445.049 245.913a.957.957 0 01.428 1.282.97.97 0 01-1.298.428l-10.219-5.144a.956.956 0 01-.428-1.282.97.97 0 011.298-.428" fill="#fff"/><path opacity=".4" d="M342.679 324.352c-6.371 4.937-12.948 9.609-20.748 12.012-3.363 1.031-6.946 1.621-10.485 1.533-2.979-.074-5.928-.428-8.907-.325-5.383.192-10.16 3.213-13.965 6.839-4.306 4.112-8.361 9.3-14.511 10.612-6.09 1.282-12.165-1.194-17.312-4.481.162.133.339.266.501.398 5.368 4.053 12.255 7.826 19.2 6.927 6.327-.81 10.574-5.63 14.85-9.875 3.864-3.832 8.715-7.428 14.334-7.767 2.875-.177 5.751.133 8.612.266 3.657.162 7.358-.325 10.868-1.356 7.889-2.314 14.569-7.001 20.999-11.968 1.651-1.268 3.259-2.55 4.896-3.788l-4.159-2.299c-1.371 1.076-2.758 2.181-4.173 3.272zM298.823 290.6c-.015.015-.015.045-.03.059l-19.775 4.982c-3.185 1.872-11.974 7.856-15.1 9.801-6.208 3.862-12.24 8.519-15.219 15.417-2.418 5.615-2.108 11.673 1.298 16.772 2.271 3.42 5.648 6.353 9.305 8.608-2.138-1.74-4.055-3.715-5.515-5.881-3.583-5.306-3.79-11.629-1.135-17.392 3.067-6.661 8.995-11.186 15.085-14.959a393.205 393.205 0 018.671-5.232c.103-.059 1.814-1.106 3.466-2.123.398.324.84.649 1.327.929 4.881 2.903 12.682 2.726 17.415-.384 4.601-3.006 4.645-7.664.207-10.597zm108.888-14.974l-8.067-4.112a3.253 3.253 0 01-.973-.752c-4.247-.515-8.7-.235-12.667.84-1.843.826-3.731 1.872-5.795 3.051l-7.536 4.54-.015.015-24.258 14.753c-7.019 4.009-10.057 6.558-6.93 9.801 1.179-1.607 3.76-3.287 7.417-5.38l24.258-14.753c.015 0 .015-.015.015-.015l7.535-4.539c6.503-3.729 11.267-6.058 18.006-4.525a3.262 3.262 0 001.415 1.371l8.067 4.112a3.376 3.376 0 004.527-1.474c.708-1.371.354-3.021-.737-4.009a3.342 3.342 0 01-4.262 1.076z" fill="#A8B2E5"/><path opacity=".4" d="M422.089 310.556c.295-.117.457-.191.457-.191l10.986-6.559c5.117-3.006 6.783-7.222 5.073-11.024-.531 2.402-2.389 4.731-5.56 6.603l-10.986 6.558s-.162.074-.457.192a1.558 1.558 0 01-.324.28l-30.26 17.907c-7.536 4.422-17.003 5.763-28.21-1.989-2.33.692-5.265.501-7.255-.605l-5.412-2.992a82.53 82.53 0 00-3.259 2.359l4.158 2.299 4.999 2.771c1.991 1.09 4.911 1.282 7.255.604 11.208 7.752 20.675 6.411 28.21 1.99l30.26-17.908c.133-.103.236-.191.325-.295zm-80.723 3.317c-1.931-1.076-2.418-2.697-1.43-4.053-3.17-1.71-5.088-3.435-6.046-5.144-.973 3.036.546 6.337 6.518 9.565-.988 1.356-.501 2.977 1.43 4.053l.148.074a126.58 126.58 0 013.2-2.388l-3.82-2.107zm88.17-27.267a3.407 3.407 0 01-2.655-.162l-8.066-4.112a3.266 3.266 0 01-.737-.516 3.88 3.88 0 00-.251.413 3.372 3.372 0 001.475 4.525l8.066 4.112a3.349 3.349 0 002.654.162c.87.693 1.519 1.341 2.006 1.96 1.12-1.945.59-3.935-2.492-6.382z" fill="#A8B2E5"/><path d="M421.617 306.135c.295-.118.457-.192.457-.192l10.986-6.558c3.185-1.857 5.029-4.186 5.559-6.603.782-3.493-1.194-7.148-5.869-9.801l-1.135-.649c.28.84.251 1.769-.177 2.609a3.363 3.363 0 01-1.888 1.636c3.068 2.432 3.613 4.436 2.493 6.382-1.121 1.96-3.938 3.876-7.536 6.146l-5.884 3.537c1.711-.988 4.159 2.152 2.994 3.493z" fill="#ECF2FF"/><path d="M366.701 320.284l-2.197 1.326a7.361 7.361 0 01-1.696.723c11.207 7.752 20.674 6.411 28.21 1.989l30.26-17.907c.132-.074.236-.177.324-.28 1.165-1.341-1.283-4.481-3.008-3.449l-26.559 15.431c-9.157 5.807-13.832 7.149-24.022.973-.28.428-.722.84-1.312 1.194z" fill="#06199C"/><path d="M343.814 311.632c-1.46-.604-2.757-1.208-3.878-1.827-.988 1.356-.501 2.977 1.43 4.053l3.82 2.108c2.256-1.622 4.571-3.14 7.063-4.422 2.891-1.489 5.457 2.874 2.552 4.363a44.048 44.048 0 00-4.646 2.785l5.412 2.992c1.991 1.091 4.911 1.283 7.256.605a6.74 6.74 0 001.695-.723l2.198-1.326c.59-.354 1.032-.767 1.327-1.209.899-1.326.383-2.903-1.504-3.95l-14.201-7.855c-1.902-1.047-4.675-1.268-6.96-.678a70.472 70.472 0 004.792 2.446l-6.356 2.638z" fill="#06199C"/><path d="M372.673 279.208l7.536-4.54c2.064-1.194 3.952-2.225 5.795-3.051 3.937-1.768 7.609-2.52 12.21-1.459a3.36 3.36 0 01-.059-3.154c.118-.221.236-.413.398-.604-6.739-.885-14.083.236-19.141 3.36l-9.836 5.969c2.05-1.326 4.159 2.771 3.097 3.479z" fill="#ECF2FF"/><path d="M339.936 309.82a44.27 44.27 0 003.878 1.827l6.327-2.609c-1.888-.884-3.466-1.68-4.793-2.446-1.77-1.017-3.053-1.931-3.893-2.801-3.126-3.242-.089-5.792 6.931-9.801l24.258-14.753c.015 0 .015-.015.015-.015 1.061-.707-1.062-4.805-3.097-3.493l-29.803 17.863c-4.866 3.007-8.199 6.957-5.869 11.084.959 1.695 2.876 3.434 6.046 5.144zm58.293-39.677c.118.221.28.428.442.619.266.295.59.56.974.752l8.066 4.112a3.376 3.376 0 004.527-1.474 3.372 3.372 0 00-1.475-4.525l-8.066-4.112c-1.43-.737-3.156-.324-4.144.87-.147.177-.28.383-.398.604a3.36 3.36 0 00.074 3.154zm28.652 16.301a3.342 3.342 0 002.655.162 3.413 3.413 0 001.887-1.636c.428-.84.472-1.783.177-2.608a3.39 3.39 0 00-1.652-1.916l-8.066-4.113a3.376 3.376 0 00-4.527 1.474c-.708 1.371-.354 3.022.737 4.009.222.207.457.369.738.516l8.051 4.112zm-148.556 12.44c.177.103.354.206.531.294 4.896 2.58 12.313 2.314 16.9-.678 3.185-2.092 4.188-4.981 3.008-7.531-.325.781-.841 1.548-1.563 2.27l-.915.796a11.6 11.6 0 01-.619.442c-4.483 2.933-11.694 3.257-16.59.84-1.002.589-1.99 1.164-2.993 1.754.575.663 1.327 1.267 2.241 1.813z" fill="#06199C"/><path d="M281.142 289.539c-.354-1.134.162-2.358 1.548-3.257 2.242-1.474 5.943-1.562 8.258-.177 2.315 1.371 2.36 3.685.118 5.159-1.755 1.149-4.38 1.444-6.547.884l-5.442 3.184c4.896 2.417 12.107 2.107 16.59-.841.221-.147.428-.294.619-.442.34-.25.649-.516.915-.796.722-.707 1.238-1.473 1.563-2.269.015-.015.015-.044.029-.059 1.018-2.579-.118-5.394-3.362-7.325-4.881-2.904-12.682-2.727-17.416.383-3.185 2.093-4.188 4.982-3.008 7.531.192.413.443.826.738 1.224a479.898 479.898 0 015.397-3.199z" fill="#fff"/><path d="M292.644 292.266c2.89-1.887 2.817-4.864-.148-6.618-2.964-1.754-7.712-1.665-10.602.236-1.784 1.164-2.433 2.741-1.976 4.186 1.047-.619 2.109-1.238 3.156-1.857 2.816-1.666 5.352 2.712 2.551 4.362-.457.266-.929.546-1.386.811 2.787.737 6.164.354 8.405-1.12z" fill="#06199C"/><path d="M274.078 355.023c6.149-1.297 10.205-6.5 14.511-10.612 3.804-3.626 8.582-6.647 13.965-6.839 2.978-.103 5.943.251 8.907.325 3.524.088 7.107-.502 10.484-1.533 7.786-2.403 14.378-7.075 20.749-12.012a628.068 628.068 0 014.217-3.272 72.508 72.508 0 013.259-2.358c1.489-1.017 3.008-1.961 4.645-2.786 2.905-1.489.339-5.851-2.551-4.363-2.477 1.283-4.807 2.786-7.064 4.422a160.912 160.912 0 00-3.199 2.388c-4.837 3.729-9.527 7.678-15.012 10.494-2.994 1.532-6.15 2.726-9.438 3.419-3.23.678-6.385.56-9.644.383-4.97-.28-9.63-.147-14.201 2.049-5.486 2.653-9.305 6.971-13.641 11.054-1.873 1.768-3.952 3.449-6.473 4.171-3.097.884-6.386.147-9.276-1.091a37.647 37.647 0 01-4.999-2.609c-3.657-2.255-7.019-5.188-9.305-8.607-3.406-5.114-3.716-11.172-1.298-16.772 2.979-6.898 9.01-11.556 15.219-15.417a475.792 475.792 0 019.496-5.719l3.849-2.255c2.33-1.356 4.66-2.726 6.975-4.082.457-.266.929-.546 1.386-.811 2.802-1.651.251-6.028-2.551-4.362-1.047.619-2.108 1.238-3.155 1.857-2.316 1.356-4.631 2.726-6.961 4.082-.486.28-.958.575-1.445.855a953.649 953.649 0 00-9.158 5.468c-6.046 3.699-11.959 7.959-15.896 13.957-3.746 5.704-5.589 12.97-3.672 19.647 1.784 6.22 6.385 11.054 11.502 14.768.796.575 1.622 1.15 2.478 1.695 5.131 3.272 11.207 5.763 17.297 4.466z" fill="#06199C"/><path opacity=".4" d="M147.701 349.408l-86.326-51.099c-3.097-1.842-2.67-5.041.958-7.178l118.975-69.61c3.628-2.123 9.084-2.358 12.195-.516l86.326 51.099c3.097 1.842 2.669 5.04-.958 7.177l-118.975 69.611c-3.628 2.122-9.084 2.358-12.195.516z" fill="#A8B2E5"/><path d="M275.641 270.541a5.306 5.306 0 00-1.15-.914l-86.326-51.113c-3.097-1.842-8.568-1.606-12.195.516L56.995 288.64a7.906 7.906 0 00-1.091.752l-1.932.899.044 2.874c.148.987.812 1.931 2.035 2.653l86.326 51.099c3.097 1.842 8.568 1.606 12.196-.516l118.974-69.611c1.888-1.105 2.905-2.505 3.009-3.846l.014-2.3-.929-.103z" fill="#0E2E82"/><path d="M142.377 344.632l-86.34-51.113c-3.097-1.843-2.67-5.041.958-7.178l118.975-69.61c3.627-2.123 9.084-2.358 12.195-.516l86.326 51.099c3.097 1.842 2.669 5.04-.958 7.177l-118.975 69.611c-3.628 2.122-9.084 2.358-12.181.53z" fill="#E0EEFF" stroke="#35519C" stroke-width="2.602" stroke-miterlimit="10"/><path d="M147.715 337.027l-83.008-49.138 119.27-67.96 83.008 49.138-119.27 67.96z" fill="#fff" stroke="#35519C" stroke-width="2.602" stroke-miterlimit="10"/><path d="M246.458 250.806l-2.831-1.68c3.347-1.901 3.347-5.055 0-7.03l-15.366-9.094c-3.348-1.975-8.774-2.034-12.122-.133l-1.902-1.134c-3.48-2.064-9.128-2.123-12.608-.148-3.48 1.99-3.48 5.262 0 7.325l32.236 19.087c3.48 2.063 9.128 2.122 12.608.147 3.465-2.004 3.465-5.276-.015-7.34z" fill="#0E2E82"/><path d="M246.458 248.036l-2.831-1.681c3.347-1.901 3.347-5.055 0-7.03l-15.366-9.094c-3.348-1.975-8.774-2.034-12.122-.132l-1.902-1.135c-3.48-2.064-9.128-2.123-12.608-.148-3.48 1.99-3.48 5.262 0 7.325l32.236 19.087c3.48 2.063 9.128 2.122 12.608.147 3.465-1.989 3.465-5.276-.015-7.339z" fill="#3072FF"/><path d="M237.654 247.299l-23.535-14.326c-.841-.501-.855-1.71-.044-2.241a1.31 1.31 0 011.371-.014l23.536 14.326c.84.501.855 1.709.044 2.24a1.315 1.315 0 01-1.372.015z" fill="#fff"/><path d="M196.497 255.508l22.68 13.604m-31.012-9.065l38.356 22.698" stroke="#C2CFEF" stroke-width="10.62" stroke-miterlimit="10" stroke-linecap="round" stroke-linejoin="round"/><path d="M175.409 253.371l-14.805-8.829 14.761-8.43 14.82 8.828-14.776 8.431z" fill="#3072FF"/><path d="M172.15 241.609l-1.061 4.525 10.484-.855" stroke="#fff" stroke-width="4.29" stroke-miterlimit="10" stroke-linecap="round" stroke-linejoin="round"/><path d="M163.538 273.99l22.68 13.604m-31.011-9.064l38.355 22.697" stroke="#C2CFEF" stroke-width="10.62" stroke-miterlimit="10" stroke-linecap="round" stroke-linejoin="round"/><path d="M142.451 271.838l-14.805-8.813 14.761-8.431 14.805 8.814-14.761 8.43z" fill="#3072FF"/><path d="M139.192 260.077l-1.062 4.539 10.485-.854" stroke="#fff" stroke-width="4.29" stroke-miterlimit="10" stroke-linecap="round" stroke-linejoin="round"/><path d="M130.58 292.458l22.68 13.603m-31.012-9.064l38.356 22.697" stroke="#C2CFEF" stroke-width="10.62" stroke-miterlimit="10" stroke-linecap="round" stroke-linejoin="round"/><path d="M109.493 290.32l-14.82-8.828 14.775-8.43 14.806 8.813-14.761 8.445z" fill="#3072FF"/><path d="M106.234 278.559l-1.062 4.525 10.485-.855" stroke="#fff" stroke-width="4.29" stroke-miterlimit="10" stroke-linecap="round" stroke-linejoin="round"/><path d="M213.323 279.547c-.738-2.138-2.905-3.11-4.852-2.152-.029.014-.044.029-.074.029l-3.612 1.769c-.133.044-.281.088-.413.162-.03.015-.045.029-.074.029l-1.327.649-38.813 19.072a.845.845 0 00-.324.118l-3.289 4.701-3.082 3.921 5.53-.634 4.291-.369c.148-.147.266-.324.369-.515l.103.176 36.277-17.789a3.552 3.552 0 01-.458.324c-.029.015-.044.015-.073.03l1.799-.855c.029-.015.044-.015.073-.03.148-.073.295-.162.443-.265l1.253-.604c.03-.015.045-.015.074-.03.28-.147.516-.324.723-.545l3.229-1.577c.03-.015.044-.015.074-.03 1.917-.928 2.89-3.448 2.153-5.585z" fill="#A8C4E5"/><path d="M208.088 275.98c-.03.015-.045.029-.074.029l-6.96 3.42c-1.947.958-2.92 3.463-2.183 5.6.737 2.137 2.905 3.11 4.852 2.152l6.96-3.419c.029-.015.044-.015.074-.03 1.946-.958 2.92-3.463 2.182-5.6-.737-2.137-2.905-3.11-4.851-2.152z" fill="#3072FF"/><path d="M210.757 283.732l-43.399 21.371-2.212-4.082 42.249-20.811c6.341-3.066 7.019 1.223 3.362 3.522z" fill="#265AC9"/><path d="M165.131 301.035c-.383-2.034-1.696-.648-1.416-3.286l39.639-19.485c2.92-.486 3.967.398 4.203 1.872l-42.426 20.899z" fill="#3072FF"/><path d="M163.45 297.822l-5.869 8.416 9.305-.796c2.094-2.048-1.445-8.784-3.436-7.62z" fill="#E1EAF4"/><path d="M157.08 306.444l3.082-3.92c1.592.398 2.418 1.489 2.433 3.272l-5.515.648z" fill="#0E2E82"/><path d="M267.442 126.177l48.767 27.797c.944.531 2.241.015 2.389-.943l10.131-62.227c.073-.486-.236-1.105-.708-1.385l-48.708-27.355c-.944-.53-2.241-.014-2.389.944l-10.116 61.916c-.088.501.162.988.634 1.253z" fill="#292685"/><path d="M296.449 108.859l1.415.811c1.033.589 2.035.073 2.242-1.165l.044-.28-4.866-2.771-.104.634c-.177 1.047.399 2.285 1.269 2.771zm-.782 4.775l1.416.811c1.032.59 2.035.074 2.241-1.164l.044-.28-4.866-2.771-.103.634c-.177 1.031.398 2.269 1.268 2.77zm1.548-9.535l1.416.81c1.032.59 2.035.074 2.241-1.164l.045-.28-4.867-2.771-.103.634c-.162 1.032.413 2.27 1.268 2.771zm.782-4.776l1.416.811c1.032.589 2.035.074 2.241-1.164l.044-.28-4.866-2.771-.103.633c-.162 1.047.398 2.285 1.268 2.771zm.782-4.76l1.415.81c1.032.59 2.035.074 2.242-1.164l.044-.28-4.866-2.77-.104.633c-.162 1.031.399 2.27 1.269 2.77zm.663-4.348l1.416.81c1.062.605 2.094.074 2.3-1.193l.399-2.432-4.867-2.771-.472 2.903c-.177 1.003.369 2.211 1.224 2.683zm-4.837 28.622l1.711.973c1.268.722 2.477.088 2.728-1.415l.059-.339-5.913-3.375-.133.781c-.192 1.268.501 2.771 1.548 3.375zm-.943 5.041l1.917 1.09c1.401.796 2.772.104 3.037-1.577l.059-.368-6.591-3.758-.148.869c-.221 1.4.546 3.081 1.726 3.744zm-.87 5.32l1.917 1.091c1.4.796 2.772.103 3.037-1.577l.059-.368-6.591-3.759-.148.87c-.221 1.4.546 3.065 1.726 3.743zm-1.106 5.144l2.315 1.312c1.696.973 3.347.118 3.672-1.901l.073-.457-7.963-4.54-.177 1.047c-.28 1.695.649 3.729 2.08 4.539zm4.217-54.754c-.752-.118-2.197-.545-2.876-.972-4.129-2.624-5.294-5.557-8.567-7.546-.59-.354-1.342-.575-1.903.132-.486.604-.575 1.695-.354 2.447.222.751.679 1.252 1.136 1.665 2.094 1.901 4.542 2.845 6.931 3.891 1.165.516 2.404.973 3.465 1.813.62.486 1.342 1.724 2.124 1.636.398-.044.693-.486.826-1.076.25-1.076-.207-1.901-.782-1.99zm11.31 6.442c.664.692 1.991 1.841 2.684 2.195 4.218 2.137 6.046.914 9.364 2.683.59.31 1.283.928 1.534 2.092.221 1.017-.03 2.005-.428 2.403-.413.398-.929.339-1.445.206-2.3-.604-4.615-2.387-6.916-4.009-1.121-.796-2.286-1.695-3.406-2.107-.649-.236-1.622.03-2.257-.87-.309-.442-.427-1.135-.368-1.754.118-1.15.737-1.356 1.238-.84zm-19.14-3.494c-4.026 1.282-6.548 3.685-7.772 8.504-1.076 4.274-1.519 8.666-1.297 14.031.103 2.491.589 5.1 1.4 7.723.723 2.329 2.448 4.938 4.941 4.437.988-.192 1.356-1.725 1.799-2.609 1.209-2.314 2.167-4.068 4.483-5.011.442-.177.914.751.486.928-2.772 1.12-3.288 3.773-4.94 6.176-.708 1.032-1.755 2.211-3.244 1.901-3.48-.707-4.586-6.47-5.161-9.285-1.387-6.618-1.549-13.692-.163-19.278 1.254-5.07 4.734-7.119 8.981-8.475.457-.118.944.81.487.958z" fill="#63FFF5"/><path d="M293.897 91.306c-3.863-1.076-6.458-3.39-9.467-7.104-.427-.531.531-1.695.915-1.135 2.315 3.463 4.792 6.264 8.464 7.295.531.148.619 1.09.088.944zm-.693 4.2c-4.379-1.267-8.508-4.156-12.048-8.371-.427-.516.664-1.931 1.018-1.356 2.123 3.375 6.783 7.575 10.942 8.784.546.162.619 1.105.088.943zm-.973 3.419c-4.409-.663-9.202-2.962-13.183-6.927-.472-.457-.089-1.916.383-1.444 3.879 3.847 8.435 6.78 12.726 7.428.517.088.605 1.017.074.943zm.502 4.481c-4.705-.663-10.441-2.624-14.408-7.635-.413-.53.044-2.24.457-1.71 3.775 4.79 9.379 7.783 13.862 8.402.531.073.605 1.017.089.943zm-.177 3.847c-4.439.294-9.836-1.622-14.393-5.041-.501-.383-.148-2.388.369-2.004 4.335 3.257 9.526 6.352 13.729 6.072.501-.03.796.943.295.973zm-.546 3.331c-4.173.324-8.745-.398-13.11-3.656-.516-.383-.545-2.328-.044-1.96 4.144 3.095 8.922 4.938 12.859 4.643.501-.044.796.928.295.973zm-3.318 2.992c-1.357.324-2.743.722-4.291.471-1.637-.25-3.274-1.267-4.867-2.314-.516-.339-.678-2.048-.162-1.695 1.401.914 3.008 2.344 4.454 2.653 1.533.324 3.052.28 4.379-.044.457-.118.944.811.487.929zm24.081-16.95c2.949 5.277 4.321 9.89 3.908 15.151-.384 4.673-1.327 8.77-3.112 13a14.007 14.007 0 01-3.465 4.952c-1.298 1.179-3.51 1.548-5.427-1.474-.767-1.194-.605-2.844-.722-4.038-.31-3.169-.576-5.63-2.212-8.829-.31-.604-.988-.339-.679.266 1.961 3.832 1.593 6.558 2.242 10.272.28 1.592.796 3.656 2.123 4.967 3.097 3.037 5.737-.589 7.064-2.314 3.126-4.053 5.367-9.742 5.898-15.829.472-5.527-1.799-10.847-4.925-16.404-.339-.575-1.032-.324-.693.28z" fill="#63FFF5"/><path d="M305.326 97.82c3.524 3.125 6.37 3.92 9.983 3.994.516.015.059-1.975-.413-1.901-2.964.457-5.854.191-9.201-2.786-.502-.427-.856.266-.369.693zm-.678 4.2c4.011 3.508 8.302 5.439 12.49 5.631.516.029.03-2.285-.442-2.196-2.773.589-7.89-.796-11.709-4.127-.487-.428-.841.265-.339.692zm-.222 3.847c3.864 4.053 8.524 7.134 13.007 8.018.531.103.649-1.489.118-1.592-4.365-.855-9.025-3.169-12.771-7.118-.471-.472-.811.221-.354.692zm-1.754 3.198c4.099 4.348 9.452 8.726 14.23 8.696.501 0 .634-1.901.133-1.901-4.572.029-10.102-3.331-14.009-7.487-.458-.487-.797.221-.354.692zm-1.003 3.39c3.598 4.879 8.641 8.932 13.449 10.833.53.207.825-1.827.294-2.034-4.571-1.813-9.791-4.657-13.212-9.285-.398-.56-.929-.059-.531.486zm-.546 3.317c3.363 4.613 7.374 8.798 11.974 10.641.531.221 1.151-1.356.62-1.577-4.35-1.754-8.878-5.203-12.048-9.566-.413-.545-.944-.044-.546.502zm1.873 5.954c1.018 1.68 2.065 3.449 3.421 4.864 1.431 1.488 3.097 2.358 4.734 3.154.531.265 1.18-.988.634-1.253-1.43-.693-3.2-1.179-4.483-2.447-1.357-1.326-2.61-2.962-3.613-4.598-.368-.56-1.047-.295-.693.28zm-23.727-41.548c-.206-.236-.398-.545-.472-1.105-.088-.56-.029-1.43.192-2.167.383-1.238.944-1.312 1.342-1.18 1.032.355 2.049.708 3.082 1.062.354.118 2.005.442 1.061 3.154-.501 1.43-2.256 1.238-2.728 1.282-.929.074-1.769-.22-2.477-1.046zm42.16 24.039c.236.014.487-.045.723-.413.236-.383.457-1.15.486-2.005.059-1.429-.383-2.063-.766-2.373l-2.876-2.343c-.324-.265-1.799-1.724-1.814 1.518-.015 1.71 1.49 3.375 1.888 3.921.737 1.002 1.519 1.65 2.359 1.695zm-24.508-12.69l6.046 3.448c.162.089.324.015.354-.176.029-.192-.074-.428-.236-.516l-6.046-3.45c-.163-.088-.325-.014-.354.178-.03.191.073.427.236.516zm3.878-9.374l1.415.81c1.033.59 2.036.074 2.242-1.164l.044-.28-4.866-2.77-.103.633c-.163 1.032.413 2.27 1.268 2.77z" fill="#63FFF5"/><path d="M298.941 79.117l6.046 3.448c.162.089.324.015.354-.176.029-.192-.074-.428-.236-.516l-6.046-3.449c-.162-.089-.325-.015-.354.177-.03.191.074.427.236.516zm-2.802 17.185l6.046 3.449c.162.088.324.015.354-.177.029-.192-.074-.427-.236-.516l-6.046-3.449c-.162-.088-.325-.014-.354.177a.561.561 0 00.236.516zm-.782 4.76l6.047 3.449c.162.089.324.015.353-.177.03-.191-.073-.427-.236-.515l-6.046-3.449c-.162-.089-.324-.015-.354.177-.029.191.074.427.236.515zm-.781 4.761l6.046 3.449c.162.088.324.015.354-.177.029-.192-.074-.427-.236-.516l-6.046-3.449c-.163-.088-.325-.014-.354.177-.03.192.073.428.236.516zm-.767 4.775l6.046 3.449c.162.089.324.015.354-.177.029-.191-.074-.427-.236-.516l-6.046-3.448c-.162-.089-.324-.015-.354.177a.508.508 0 00.236.515zm-.782 4.761l6.047 3.449c.162.088.324.014.353-.177.03-.192-.073-.428-.236-.516l-6.046-3.449c-.162-.088-.324-.015-.353.177-.03.192.073.427.235.516zm-1.282 4.48l7.034 4.009c.162.089.324.015.354-.177.029-.191-.074-.427-.236-.515l-7.035-4.009c-.162-.089-.324-.015-.353.177-.03.191.073.427.236.515zm-1.608 4.304l8.494 4.849c.162.089.325.015.354-.177.029-.191-.074-.427-.236-.516l-8.494-4.849c-.162-.088-.324-.014-.354.177-.029.192.074.428.236.516zm-1.416 4.407l10.131 5.777c.163.089.325.015.354-.176.03-.192-.073-.428-.236-.516l-10.131-5.778c-.162-.088-.324-.015-.354.177a.549.549 0 00.236.516zm11.835-41.623c.758-.492.791-1.787.073-2.894-.718-1.106-1.915-1.604-2.673-1.113-.758.492-.791 1.787-.074 2.894.718 1.106 1.915 1.605 2.674 1.113z" fill="#63FFF5"/><path d="M304.038 88.916c.759-.492.792-1.787.074-2.894-.718-1.106-1.915-1.604-2.673-1.113-.759.492-.792 1.787-.074 2.894.718 1.106 1.915 1.604 2.673 1.113z" fill="#63FFF5"/><path d="M389.16 163.038l-55.226-31.762c-1.592-.913-2.669-3.109-2.403-4.863l4.335-28.431c.265-1.769 1.784-2.461 3.377-1.547l55.226 31.761c1.592.914 2.669 3.11 2.403 4.864l-4.335 28.431c-.266 1.768-1.785 2.461-3.377 1.547zm-7.727 27.193c2.743 1.577 6.68.25 7.078-2.373l1.917-12.572c.266-1.769-.811-3.95-2.404-4.864l-55.225-31.761c-1.593-.914-3.112-.222-3.377 1.547l-2.404 15.8c-.25 1.665.664 3.316 2.389 4.318l52.026 29.905z" fill="#A1BFFF"/><path d="M357.3 132.021c3.91-2.956 3.289-10.362-1.388-16.543-4.676-6.181-11.638-8.795-15.548-5.839-3.911 2.955-3.29 10.362 1.387 16.543 4.677 6.18 11.638 8.795 15.549 5.839z" fill="#fff"/><path d="M351.895 128.712c.959.59 2.301 0 2.139-.929-.163-.899-.399-1.768-.664-2.166-.236-.354-.546-.649-.811-.899-.28-.265-.634-.634-.988-1.002a8.393 8.393 0 01-.354-.369l-.693-.752-.31-.397c-.015-.03-.059-.059-.073-.089 0-.044.014-.088.014-.133.03-.28.045-.574.074-.854.339-.104.575-.384.693-.767.501.31.693-.221.782-.589.073-.266.206-.958-.163-1.268a1.06 1.06 0 01.045-.118c.088-.221.177-.442.206-.707.03-.266.015-.56-.088-.87-.03-.074-.059-.147-.104-.206a.858.858 0 00-.029-.324 4.39 4.39 0 00-1.313-2.182 4.126 4.126 0 00-1.858-.943c-.457-.103-1.076-.133-1.179.516a.491.491 0 00.029.25c-.088-.044-.162-.014-.206.045-.162.147-.236.398-.266.663-.029.265 0 .56.03.855 0 .044.015.103.015.147-.472-.295-.487.545-.472.884.014.428.073 1.076.531 1.386.014.191.029.383.073.589.074.295.192.56.325.811v.015c-.03.295-.045.589-.074.884v.103c0-.015-.088.015-.103.03-.074.014-.148.044-.236.059l-.207-.045-.044-.014a1.837 1.837 0 00-.413-.089h-.015c-.176-.029-.353-.059-.53-.073-.325-.045-.634-.148-.944-.177-.782-.074-1.902.353-2.242 1.754-.162.663.163 1.341.841 1.768l8.582 5.203zm-.28-8.991c-.015.03-.015.074-.029.089.014-.03.029-.059.029-.089z" fill="#3072FF"/><path d="M380.622 132.013l-15.352-9.285-.619 4.333 15.366 9.286.605-4.334zm-16.413-1.739l-.62 4.333 23.315 14.091.604-4.334-23.299-14.09zM350.598 159l-.605 4.318 23.3 14.09.604-4.333L350.598 159z" fill="#fff"/><path d="M344.257 150.938c-1.445-.398-2.522.029-3.274.486-.236.148-.634-.088-.796-.472-.546-1.267-1.357-2.903-2.669-3.905-2.493-1.916-4.616-.826-4.233 2.019.369 3.405 5.884 11.54 5.884 11.54l.148.089s6.812-1.047 8.007-3.552c1.076-1.99-.133-5.409-3.067-6.205z" fill="#3072FF"/><path d="M340.496 157.673s-.014 0-.014-.015a1.036 1.036 0 01-.443-.619l-.678-3.493-.752 1.062c-.103.147-.325.162-.546.044l-1.917-1.106c-.147-.088-.221-.221-.206-.368.044-.31.501-.457.811-.28l1.135.663 1.165-1.636c.103-.147.325-.162.546-.044a.984.984 0 01.442.619l.693 3.567.59-.722c.118-.133.325-.148.531-.03l2.065 1.179c.147.089.221.221.206.369-.044.309-.501.456-.811.28l-1.298-.752-1.003 1.238c-.103.147-.309.162-.516.044z" fill="#fff"/><path opacity=".52" d="M136.449 220.754c-.428-.103-.855-.191-1.298-.294 2.33-5.866-5.854-10.671-8.715-12.145a2.999 2.999 0 00-1.991-.251c-2.683.605-10.13 2.624-17.371 7.414-4.07 1.769-9.792 4.569-14.997 8.268a11.4 11.4 0 00-.678.501c-.915.325-1.829.678-2.743 1.047-6.577 2.623-11.326 5.659-14.275 7.855-1.828 1.238-3.2 2.373-4.188 3.302-1.327 1.253-1.194 3.404.266 4.495 1.872 1.4 4.763 3.213 8.36 4.377.222 2.403.96 4.82 2.228 7.252.988 1.754 3.2 2.329 4.954 2.122 1.077-.118 2.05-.545 2.581-1.194.383-.471.516-1.076.28-1.783-.015-.059-.81-2.225-1.297-5.247 2.816-.177 5.824-.899 8.95-2.432 15.794-7.752 3.997-17.052 3.997-17.052l.369-.207 1.15-.619.368-.206s12.24 10.096 28.019-.427c.177-.118.339-.236.501-.354 2.153.309 3.495.545 3.539.56 2.448.427 4.277-.221 4.985-1.135a1.25 1.25 0 00.147-.236c.531-.943-.413-2.918-3.141-3.611zm-4.748-1.459c.044-.339.073-.678.088-1.017 0 .339-.015.678-.088 1.017z" fill="#A8C4E5"/><path d="M81.386 250.055c-2.964-5.675-3.112-11.32-.443-16.773 2.139-4.333 6.047-8.563 11.65-12.542 9.497-6.765 20.734-10.583 20.837-10.612l.796.737c-.118.073-12.652 6.927-23.181 18.231-6.503 6.972-1.785 19.971-1.74 20.104.25.722.118 1.326-.28 1.813-.531.663-1.534 1.076-2.625 1.208-1.77.192-4.026-.383-5.014-2.166z" fill="#173891"/><path d="M89.098 222.302c7.079-2.83 14.349-4.687 21.633-5.542 9.143-1.061 18.035-1.223 26.972.929 2.772.707 3.73 2.726 3.214 3.714-.044.073-.088.162-.147.236-.708.928-2.581 1.591-5.058 1.149-.207-.044-20.822-3.758-32.855-.663-19.495 5.011-31.97 11.511-32.089 11.584l.207-.383c.059-.073 6.12-6.219 18.123-11.024z" fill="#173891"/><path d="M127.955 206.959a2.944 2.944 0 00-2.035-.251c-3.996.914-18.359 4.864-27.266 16.287l-.103.059c-16.325 3.507-24.362 9.255-27.812 12.527-.325.31-.56.664-.708 1.047l-.575-.177.398 1.842a2.988 2.988 0 001.15 1.857c4.483 3.346 14.629 8.991 26.5 3.169 16.059-7.885 4.055-17.347 4.055-17.347l.383-.207 1.165-.633.384-.207s12.446 10.273 28.505-.427c12.254-8.165-.325-15.623-4.041-17.539zm-31.911 33.633c-7.83 3.847-15.086 1.563-19.156-.456-1.947-.973-2.241-3.611-.56-4.997 2.978-2.446 8.597-5.91 18.344-8.239a3.087 3.087 0 012.404.442l1.888 1.297c0-.014 9.039 6.087-2.92 11.953zm33.15-17.907c-10.927 6.5-20.911.899-20.911.899-1.784-.987-2.079-3.434-.59-4.819 6.341-5.94 14.482-8.283 17.431-8.991a2.978 2.978 0 012.182.324c3.023 1.739 10.927 7.222 1.888 12.587z" fill="#8CADED"/><path opacity=".65" d="M103.491 218.868s1.769 6.809 9.275 6.927c7.506.118 17.475-1.607 19.362-6.47 1.888-4.864.634-11.555-3.2-12.97-3.848-1.43-21.559 4.23-25.437 12.513zm-30.378 16.36s1.77 6.809 9.276 6.927c7.505.118 17.474-1.607 19.362-6.471 1.887-4.863.634-11.555-3.2-12.969-3.834-1.43-21.545 4.23-25.438 12.513z" fill="#E3F2FF"/><path d="M76.46 238.205c-1.946-.973-2.241-3.611-.56-4.997 2.979-2.446 8.597-5.91 18.345-8.238a3.079 3.079 0 012.403.442l1.888 1.297s9.025 6.101-2.92 11.967c-7.816 3.832-15.07 1.563-19.156-.471zm31.41-16.537c-1.784-.987-2.079-3.434-.589-4.819 6.341-5.94 14.481-8.284 17.43-8.991a2.978 2.978 0 012.182.324c3.009 1.739 10.913 7.222 1.873 12.587-10.927 6.485-20.896.899-20.896.899zm-37.53 11.983a2.994 2.994 0 00.28 4.569c4.484 3.345 14.63 8.99 26.5 3.168 16.059-7.885 4.056-17.347 4.056-17.347l.383-.206 1.165-.634.383-.206s12.446 10.272 28.505-.428c12.255-8.165-.324-15.623-4.055-17.539a2.944 2.944 0 00-2.035-.25c-3.996.913-18.359 4.863-27.266 16.286l-.103.059c-16.34 3.508-24.376 9.256-27.812 12.528z" fill="#fff"/><path d="M74.676 237.851s-1.416-1.754-.737-3.36c.678-1.622 4.306-3.773 6.459-4.908m25.437-8.652s-1.415-1.754-.737-3.36c.678-1.621 4.306-3.773 6.459-4.908" stroke="#fff" stroke-width="1.668" stroke-miterlimit="10" stroke-linecap="round" stroke-linejoin="round"/><path d="M81.415 238.175a.35.35 0 01-.25-.442l1.651-6.293a.35.35 0 01.443-.251.35.35 0 01.25.442l-1.651 6.294c-.06.191-.25.309-.443.25zm2.271-.073c-.088-.03-.147-.118-.118-.207l1.74-6.662c.03-.088.118-.147.207-.117.088.029.147.117.118.206l-1.74 6.662c-.03.088-.118.147-.207.118zm28.446-16.198a.35.35 0 01-.251-.442l1.652-6.294a.35.35 0 01.442-.25.35.35 0 01.251.442l-1.651 6.293a.37.37 0 01-.443.251zm2.271-.074c-.088-.029-.147-.118-.118-.206l1.74-6.662c.03-.088.118-.147.207-.118.088.03.147.118.118.206l-1.74 6.662c-.03.089-.118.148-.207.118z" fill="#fff"/><path d="M157.714 100.104s-8.037 3.272-9.335 10.067c-1.297 6.794-.339 40.634-.339 40.634m22.061 15.77s10.057-.663 15.085-6.072c4.041-4.348 4.115-9.698 4.115-9.698s.973-33.84-.34-40.634c-1.312-6.795-9.334-10.067-9.334-10.067" stroke="#342B8C" stroke-width="2.556" stroke-miterlimit="10" stroke-linecap="round" stroke-linejoin="round"/></svg>