<svg width="42" height="42" fill="none" xmlns="http://www.w3.org/2000/svg"><path d="M1.021 41s-.645-9.677 5.162-11.613l9.677-3.226v-3.87m10.323-.001v3.871l9.677 3.226C41.666 31.323 41.021 41 41.021 41M24.247 22.936c4.516-1.936 4.968-7.162 5.484-11.162.258-2.193.323-4.516-.71-6.516-.967-1.806-2.71-3.097-4.645-3.742A11.407 11.407 0 0021.021 1c-1.16 0-2.322.194-3.355.58-1.935.646-3.677 1.936-4.645 3.743-1.032 2-.967 4.322-.71 6.516.517 3.935.969 9.161 5.485 11.097" stroke="#925ADD" stroke-width="1.5" stroke-miterlimit="10" stroke-linecap="round" stroke-linejoin="round"/><path d="M15.215 10.032c6.451 0 7.742-1.29 8.387-3.226 0 0 0 3.226 3.226 3.226" stroke="#925ADD" stroke-width="1.5" stroke-miterlimit="10" stroke-linecap="square" stroke-linejoin="round"/><path d="M15.86 26.161c0 3.871 5.161 7.097 5.161 7.097s5.162-3.226 5.162-7.097" stroke="#925ADD" stroke-width="1.5" stroke-miterlimit="10" stroke-linecap="round" stroke-linejoin="round"/></svg>