<svg width="24" height="24" fill="none" xmlns="http://www.w3.org/2000/svg"><path d="M.817 3.28C1.1 1.372 2.754-.002 4.682-.002h14.536c1.911 0 3.555 1.35 3.858 3.237.409 2.537.892 6.075.922 8.763.03 2.654-.364 6.144-.712 8.676C23.02 22.601 21.359 24 19.415 24H4.682c-1.928 0-3.58-1.374-3.865-3.28C.439 18.184 0 14.67 0 11.999c0-2.671.439-6.185.817-8.72z" fill="url(#paint0_linear_301_541)"/><path d="M13.138 18.544v-5.962h2.011l.3-2.334h-2.31V8.761c0-.673.187-1.134 1.154-1.134h1.224V5.546a16.246 16.246 0 00-1.794-.093c-1.778 0-2.998 1.086-2.998 3.078v1.713H8.727v2.334h2.002v5.966h2.41z" fill="#fff"/><defs><linearGradient id="paint0_linear_301_541" x1="4.508" y1="-.001" x2="9.609" y2="25.895" gradientUnits="userSpaceOnUse"><stop stop-color="#79CBEB"/><stop offset="1" stop-color="#2C64F5"/></linearGradient></defs></svg>