<svg width="32" height="32" fill="none" xmlns="http://www.w3.org/2000/svg"><rect width="32" height="32" rx="3" fill="#F2F6FF"/><path d="M19.333 10c-.108 0-.218.004-.333.013V10c0-2.168-1.832-4-4-4h-3a1.001 1.001 0 000 2h3c1.103 0 2 .897 2 2v.583a5.054 5.054 0 00-1.333 1.023 4.988 4.988 0 00-1.334-1.023V10c0-.294.067-.582.198-.856a.334.334 0 00-.601-.288c-.175.365-.263.75-.263 1.144v.29a4.925 4.925 0 00-.667-.188V10c0-.303.044-.608.132-.906a.333.333 0 10-.64-.188A3.882 3.882 0 0012.333 10v.017c-.11-.007-.22-.017-.333-.017-2.757 0-5 2.243-5 5 0 3.035 2.629 7.6 8.501 10.956a.333.333 0 00.331 0c5.873-3.356 8.501-7.92 8.501-10.956 0-2.757-2.243-5-5-5zm1.236 10.764l-1.333-1.333a.333.333 0 10-.472.471l.765.765h-.862a.333.333 0 000 .666h1.528l.233.232c-1.22 1.296-2.794 2.573-4.761 3.717-4.022-2.338-6.42-5.227-7.432-7.712l.236-.237H10a.333.333 0 100-.666h-.862l.764-.765a.333.333 0 10-.471-.471l-1.333 1.333-.113.113c-.21-.67-.318-1.304-.318-1.877a4.338 4.338 0 014.868-4.299.33.33 0 00.132.028c.005 0 .009-.002.013-.003a4.296 4.296 0 012.725 1.6c.126.16.397.16.524 0 .41-.521.945-.949 1.548-1.237a.334.334 0 00.19-.3V10A2.67 2.67 0 0015 7.333h-3a.334.334 0 010-.666h3c1.807 0 3.333 1.526 3.333 3.333v.386a.333.333 0 00.381.33 4.29 4.29 0 01.62-.05c1.074 0 2.057.397 2.815 1.047l-1.052 1.051a.334.334 0 00.472.472l1.052-1.052A4.31 4.31 0 0123.666 15c0 1.685-.895 3.886-2.792 6.07l-.306-.306z" fill="#925ADD"/></svg>