<svg width="32" height="32" fill="none" xmlns="http://www.w3.org/2000/svg"><path d="M0 6.4A6.4 6.4 0 016.4 0h19.2A6.4 6.4 0 0132 6.4v19.2a6.4 6.4 0 01-6.4 6.4H6.4A6.4 6.4 0 010 25.6V6.4z" fill="#F2F6FF"/><mask id="path-2-inside-1_88_5490" fill="#fff"><path d="M23.583 12.333H9.417A.417.417 0 019 11.916V7.75C9 5.472 10.31 4 12.334 4h7.916C22.388 4 24 5.612 24 7.75v4.166c0 .23-.187.417-.417.417zm-.416-4.583c0-1.69-1.227-2.917-2.917-2.917h-7.916c-1.844 0-2.5 1.507-2.5 2.917v3.75h13.333V7.75z"/></mask><path d="M23.583 12.333H9.417A.417.417 0 019 11.916V7.75C9 5.472 10.31 4 12.334 4h7.916C22.388 4 24 5.612 24 7.75v4.166c0 .23-.187.417-.417.417zm-.416-4.583c0-1.69-1.227-2.917-2.917-2.917h-7.916c-1.844 0-2.5 1.507-2.5 2.917v3.75h13.333V7.75z" fill="#F2F6FF"/><path d="M24 11.916h1-1zM9.834 11.5v1h-1v-1h1zm13.333 0h1v1h-1v-1zm.416 1.833H9.417v-2h14.166v2zm-14.166 0A1.417 1.417 0 018 11.916h2a.583.583 0 00-.583-.583v2zM8 11.916V7.75h2v4.166H8zM8 7.75c0-1.326.383-2.519 1.16-3.394C9.95 3.47 11.064 3 12.334 3v2c-.756 0-1.307.266-1.679.685-.383.43-.655 1.113-.655 2.065H8zM12.334 3h7.916v2h-7.916V3zm7.916 0C22.94 3 25 5.06 25 7.75h-2C23 6.164 21.836 5 20.25 5V3zM25 7.75v4.166h-2V7.75h2zm0 4.166c0 .783-.634 1.417-1.417 1.417v-2a.583.583 0 00-.583.583h2zM22.167 7.75c0-1.138-.78-1.917-1.917-1.917v-2c2.242 0 3.917 1.675 3.917 3.917h-2zM20.25 5.833h-7.916v-2h7.916v2zm-7.916 0c-.606 0-.925.227-1.128.51-.236.332-.372.835-.372 1.407h-2c0-.838.192-1.793.744-2.568.587-.822 1.518-1.349 2.756-1.349v2zm-1.5 1.917v3.75h-2V7.75h2zm-1 2.75h13.333v2H9.834v-2zm12.333 1V7.75h2v3.75h-2z" fill="#925ADD" mask="url(#path-2-inside-1_88_5490)"/><path d="M11.083 8.167h3.333c.015 0 .028.007.042.008A2.086 2.086 0 0116.5 6.5c1.009 0 1.851.721 2.042 1.675.014-.001.026-.008.041-.008h3.333a.417.417 0 010 .833h-3.333c-.014 0-.027-.007-.041-.008a2.086 2.086 0 01-2.042 1.674 2.086 2.086 0 01-2.042-1.674c-.014 0-.027.008-.042.008h-3.333a.417.417 0 010-.833zM16.5 9.833a1.251 1.251 0 000-2.5 1.251 1.251 0 000 2.5z" fill="#14964D"/><mask id="path-5-inside-2_88_5490" fill="#fff"><path d="M23.092 16.452c-.214.908-.924 3.753-1.663 4.862-.536.803-1.79 2.686-4.93 2.686-3.14 0-4.394-1.883-4.93-2.686-.739-1.108-1.448-3.954-1.662-4.862a1.252 1.252 0 01-.908-1.202v-1.667a.417.417 0 01.834 0v1.667c0 .23.187.416.416.416.196 0 .365.136.407.327.004.02.235 1.043.565 2.178.008 0 .016-.005.025-.005.03 0 3.112-.009 5.098-.803.1-.04.21-.04.31 0 1.983.793 5.062.803 5.093.803.01 0 .02.006.03.007a40.4 40.4 0 00.565-2.18.416.416 0 01.407-.327c.23 0 .417-.187.417-.416v-1.667a.417.417 0 01.833 0v1.667c0 .57-.384 1.053-.907 1.202zm-6.593 1.744c-1.82.68-4.272.784-5.025.8.245.747.519 1.45.789 1.856.5.751 1.543 2.314 4.236 2.314 2.694 0 3.736-1.563 4.237-2.314.27-.405.544-1.109.788-1.855-.744-.016-3.2-.12-5.025-.8z"/></mask><path d="M23.092 16.452c-.214.908-.924 3.753-1.663 4.862-.536.803-1.79 2.686-4.93 2.686-3.14 0-4.394-1.883-4.93-2.686-.739-1.108-1.448-3.954-1.662-4.862a1.252 1.252 0 01-.908-1.202v-1.667a.417.417 0 01.834 0v1.667c0 .23.187.416.416.416.196 0 .365.136.407.327.004.02.235 1.043.565 2.178.008 0 .016-.005.025-.005.03 0 3.112-.009 5.098-.803.1-.04.21-.04.31 0 1.983.793 5.062.803 5.093.803.01 0 .02.006.03.007a40.4 40.4 0 00.565-2.18.416.416 0 01.407-.327c.23 0 .417-.187.417-.416v-1.667a.417.417 0 01.833 0v1.667c0 .57-.384 1.053-.907 1.202zm-6.593 1.744c-1.82.68-4.272.784-5.025.8.245.747.519 1.45.789 1.856.5.751 1.543 2.314 4.236 2.314 2.694 0 3.736-1.563 4.237-2.314.27-.405.544-1.109.788-1.855-.744-.016-3.2-.12-5.025-.8z" fill="#F2F6FF"/><path d="M23.092 16.452l-.974-.23.135-.57.565-.162.274.962zm-1.663 4.862l.832.555-.832-.555zm-9.86 0l-.832.555.832-.555zm-1.662-4.862l.274-.962.565.161.134.572-.973.229zm.749-.46l.977-.215.001.008-.978.208zm.565 2.18l.05.998-.79.04-.22-.76.96-.279zm5.123-.81l-.371-.928.007-.003.364.932zm.31 0l.365-.93.007.002-.372.929zm5.123.81l.96.28-.226.78-.81-.062.076-.997zm.565-2.18l-.978-.207.002-.008.976.216zM24 15.25h-1 1zm-7.5 2.946l-.35-.937.35-.13.35.13-.35.937zm-5.025.8l-.95.311-.42-1.282 1.35-.028.02 1zm.789 1.856l-.832.554.832-.554zm8.473 0l-.832-.555.832.555zm.788-1.855l.021-1 1.348.029-.419 1.281-.95-.31zm2.541-2.316c-.11.464-.346 1.427-.652 2.421-.294.954-.691 2.076-1.152 2.767l-1.664-1.11c.279-.417.605-1.273.905-2.245a36.94 36.94 0 00.616-2.291l1.947.458zm-1.804 5.188c-.274.411-.802 1.211-1.726 1.893C19.594 24.458 18.289 25 16.5 25v-2c1.351 0 2.243-.4 2.848-.846.622-.46.989-1.003 1.25-1.395l1.664 1.11zM16.5 25c-1.788 0-3.094-.541-4.035-1.236-.924-.683-1.452-1.483-1.726-1.894l1.663-1.11c.262.392.629.935 1.251 1.395.605.447 1.496.846 2.847.846v2zm-5.762-3.13c-.46-.691-.858-1.813-1.152-2.767a39.003 39.003 0 01-.651-2.421l1.946-.458c.105.444.33 1.358.617 2.29.3.973.626 1.829.905 2.246l-1.665 1.11zm-1.104-4.456A2.252 2.252 0 018 15.251h2c0 .11.076.21.182.24l-.548 1.923zM7.999 15.25v-1.667h2v1.667H8zm0-1.667c0-.782.635-1.417 1.417-1.417v2a.583.583 0 00.583-.583H8zm1.417-1.417c.782 0 1.417.635 1.417 1.417h-2c0 .322.26.583.583.583v-2zm1.417 1.417v1.667h-2v-1.667h2zm0 1.667a.583.583 0 00-.584-.584v2a1.417 1.417 0 01-1.416-1.416h2zm-.584-.584c.664 0 1.24.462 1.383 1.111l-1.952.431a.582.582 0 00.57.458v-2zm1.385 1.12c0-.002.225.998.547 2.106l-1.92.559a41.012 41.012 0 01-.583-2.251l1.956-.415zm-.464 1.387a.97.97 0 00-.211.034l-.007.002a.933.933 0 01.083-.02.965.965 0 01.21-.023v2a.974.974 0 00.27-.038h-.001l-.002.001a.31.31 0 00-.01.003l-.046.012a.976.976 0 01-.185.026l-.1-1.997zm.076-.007c-.005 0 .738-.001 1.717-.099.998-.099 2.15-.29 3.01-.633l.743 1.857c-1.127.451-2.508.662-3.555.767a21.93 21.93 0 01-1.915.108v-2zm4.734-.735a1.423 1.423 0 011.039 0l-.73 1.863a.577.577 0 00.42 0l-.73-1.863zm1.046.003c.857.343 2.009.534 3.006.633.978.097 1.72.1 1.715.1v2c-.037 0-.85-.004-1.914-.11-1.046-.104-2.425-.316-3.55-.766l.743-1.857zm4.72.732a1.042 1.042 0 01.296.043c.008.003 0 0-.002 0a.937.937 0 00-.186-.033l-.153 1.994a1.042 1.042 0 01-.218-.04l-.002-.001.022.006a1.046 1.046 0 00.244.031v-2zm-.929.727c.323-1.108.547-2.109.547-2.108l1.957.415c-.009.04-.245 1.09-.583 2.252l-1.92-.559zm.549-2.116c.143-.65.72-1.11 1.383-1.11v2c.273 0 .51-.19.57-.459l-1.953-.431zm1.383-1.11a.583.583 0 00-.583.583h2c0 .782-.635 1.416-1.417 1.416v-2zm-.583.583v-1.667h2v1.667h-2zm0-1.667c0-.782.634-1.416 1.416-1.416v2a.583.583 0 00.584-.584h-2zm1.416-1.416c.783 0 1.417.634 1.417 1.416h-2c0 .322.261.584.583.584v-2zM25 13.583v1.667h-2v-1.667h2zm0 1.667a2.25 2.25 0 01-1.633 2.163l-.548-1.923a.252.252 0 00.181-.24h2zm-8.15 3.883c-1.995.745-4.6.847-5.354.863l-.042-2c.752-.015 3.05-.122 4.697-.736l.699 1.873zm-4.424-.447c.245.75.484 1.333.67 1.611l-1.665 1.11c-.354-.533-.663-1.357-.906-2.1l1.9-.621zm.67 1.611c.246.37.55.816 1.056 1.188.487.358 1.213.681 2.348.681v2c-1.558 0-2.7-.458-3.532-1.07-.814-.597-1.282-1.308-1.536-1.69l1.664-1.109zm3.404 1.87c1.135 0 1.862-.324 2.349-.682.506-.372.81-.819 1.056-1.188l1.664 1.11c-.255.381-.723 1.092-1.536 1.69-.832.611-1.974 1.07-3.533 1.07v-2zm3.405-1.87c.185-.278.424-.86.67-1.61l1.9.62c-.242.743-.551 1.567-.906 2.1l-1.664-1.11zm1.599-.3c-.744-.016-3.354-.117-5.353-.864l.699-1.873c1.65.615 3.952.721 4.696.737l-.043 2z" fill="#925ADD" mask="url(#path-5-inside-2_88_5490)"/><path d="M4.496 28.609h0s0 0 0 0z" fill="#F2F6FF" stroke="#925ADD"/><mask id="path-8-inside-3_88_5490" fill="#fff"><path d="M15.25 14.834a.417.417 0 010 .833h-.416a.417.417 0 01-.834 0h-.416a.417.417 0 010-.833h1.666z"/></mask><path d="M15.25 14.834a.417.417 0 010 .833h-.416a.417.417 0 01-.834 0h-.416a.417.417 0 010-.833h1.666z" fill="#F2F6FF"/><path d="M14.834 15.667h-1v-1h1v1zm-.834 0v-1h1v1h-1zm1.25-1.833c.783 0 1.417.634 1.417 1.416h-2c0 .322.261.584.583.584v-2zm1.417 1.416c0 .782-.634 1.417-1.417 1.417v-2a.583.583 0 00-.583.583h2zm-1.417 1.417h-.416v-2h.416v2zm.584-1c0 .782-.635 1.416-1.417 1.416v-2a.583.583 0 00-.583.584h2zm-1.417 1.416A1.417 1.417 0 0113 15.667h2a.583.583 0 00-.583-.584v2zM14 16.667h-.416v-2H14v2zm-.416 0a1.417 1.417 0 01-1.417-1.417h2a.583.583 0 00-.583-.583v2zm-1.417-1.417c0-.782.635-1.416 1.417-1.416v2a.583.583 0 00.583-.584h-2zm1.417-1.416h1.666v2h-1.666v-2z" fill="#925ADD" mask="url(#path-8-inside-3_88_5490)"/><mask id="path-10-inside-4_88_5490" fill="#fff"><path d="M19.416 14.834a.417.417 0 010 .833H19a.417.417 0 01-.834 0h-.416a.417.417 0 010-.833h1.666z"/></mask><path d="M19.416 14.834a.417.417 0 010 .833H19a.417.417 0 01-.834 0h-.416a.417.417 0 010-.833h1.666z" fill="#F2F6FF"/><path d="M19 15.667h-1v-1h1v1zm-.834 0v-1h1v1h-1zm1.25-1.833c.783 0 1.417.634 1.417 1.416h-2c0 .322.261.584.583.584v-2zm1.417 1.416c0 .782-.634 1.417-1.417 1.417v-2a.583.583 0 00-.583.583h2zm-1.417 1.417H19v-2h.416v2zm.584-1c0 .782-.635 1.416-1.417 1.416v-2a.583.583 0 00-.583.584h2zm-1.417 1.416a1.417 1.417 0 01-1.417-1.416h2a.583.583 0 00-.583-.584v2zm-.417-.416h-.416v-2h.416v2zm-.416 0a1.417 1.417 0 01-1.417-1.417h2a.583.583 0 00-.583-.583v2zm-1.417-1.417c0-.782.635-1.416 1.417-1.416v2a.583.583 0 00.583-.584h-2zm1.417-1.416h1.666v2H17.75v-2z" fill="#925ADD" mask="url(#path-10-inside-4_88_5490)"/></svg>