<svg width="32" height="32" fill="none" xmlns="http://www.w3.org/2000/svg"><path d="M0 6.4A6.4 6.4 0 016.4 0h19.2A6.4 6.4 0 0132 6.4v19.2a6.4 6.4 0 01-6.4 6.4H6.4A6.4 6.4 0 010 25.6V6.4z" fill="#F2F6FF"/><path fill-rule="evenodd" clip-rule="evenodd" d="M14.587 6v.002h3.154c.17.02.28.17.28.348v1.327h.344a.344.344 0 01.346.348v1.82a.322.322 0 01-.196.295.316.316 0 01-.122.024h-.372v.87a11.84 11.84 0 001.215 5.186l3.383 6.87a2.5 2.5 0 01-.12 2.449 2.4 2.4 0 01-2.025 1.108h-9.062a2.388 2.388 0 01-2.028-1.108 2.495 2.495 0 01-.121-2.447l3.366-6.87a11.837 11.837 0 001.195-5.187v-.871h-.367a.322.322 0 01-.323-.325v-1.8a.363.363 0 01.359-.362h.33V6.35a.363.363 0 01.36-.35h.404zm7.607 18.267a1.788 1.788 0 00-.19-.862L20 19.322c-.23.03-.452.103-.655.216-.286.142-.611.303-1.23.303-.62 0-.944-.16-1.23-.303h-.001c-.251-.124-.467-.23-.926-.23-.458 0-.675.106-.925.23-.287.142-.611.303-1.23.303-.62 0-.944-.16-1.23-.303h-.001c-.203-.1-.383-.19-.686-.22l-2.004 4.087a1.795 1.795 0 00.055 1.711 1.715 1.715 0 001.475.837h9.062a1.702 1.702 0 001.475-.837c.15-.258.235-.55.245-.849zM18.02 9.47V8.371h-4.197V9.47h.575a.34.34 0 01.341.347.352.352 0 01-.223.323l-.003.046v.849c0 1.904-.434 3.783-1.267 5.493l-1.041 2.138a2.6 2.6 0 01.67.25h.002c.25.125.466.231.924.231.459 0 .675-.107.926-.231.287-.142.61-.303 1.23-.303s.943.16 1.23.303l.002.001c.25.124.466.23.923.23.458 0 .672-.106.922-.23l.002-.001a2.61 2.61 0 01.638-.244l-1.058-2.144a12.56 12.56 0 01-1.286-5.493v-.871h-.633a.344.344 0 01-.345-.347.348.348 0 01.345-.347h1.323zm-.69-1.793v-.983h-2.817v.983h2.817z" fill="#925ADD"/></svg>