<svg width="32" height="32" fill="none" xmlns="http://www.w3.org/2000/svg"><path d="M0 6.4A6.4 6.4 0 016.4 0h19.2A6.4 6.4 0 0132 6.4v19.2a6.4 6.4 0 01-6.4 6.4H6.4A6.4 6.4 0 010 25.6V6.4z" fill="#F2F6FF"/><path d="M7.268 20.693a.416.416 0 00-.531.254 4.153 4.153 0 00-.237 1.387c0 .492.085.974.253 1.432a.416.416 0 10.783-.286 3.34 3.34 0 01-.014-2.256.416.416 0 00-.254-.531z" fill="#14964D"/><mask id="path-3-inside-1_88_5503" fill="#fff"><path d="M22.333 4a6.66 6.66 0 00-4.718 1.948l-4.683 4.686a.417.417 0 00.59.59l4.68-4.685a5.84 5.84 0 019.964 4.128 5.793 5.793 0 01-1.708 4.124l-.004.004c-.108.11-4.365 4.364-5.535 5.534l-8.543-8.549a.417.417 0 00-.59 0l-5.584 5.588c-.09.091-.175.176-.242.26l-.008-.008A6.621 6.621 0 004 22.333 6.674 6.674 0 0010.667 29a6.61 6.61 0 004.755-1.998l4.645-4.643a.417.417 0 00-.589-.59l-4.648 4.646a5.79 5.79 0 01-4.163 1.752 5.84 5.84 0 01-5.834-5.834c0-1.558.607-3.023 1.709-4.124l.006-.007c.112-.114 3.507-3.512 5.533-5.538l8.551 8.558a.416.416 0 00.652-.08l5.513-5.51c.09-.092.175-.177.243-.26l.007.008A6.622 6.622 0 0029 10.668 6.674 6.674 0 0022.333 4z"/></mask><path d="M22.333 4a6.66 6.66 0 00-4.718 1.948l-4.683 4.686a.417.417 0 00.59.59l4.68-4.685a5.84 5.84 0 019.964 4.128 5.793 5.793 0 01-1.708 4.124l-.004.004c-.108.11-4.365 4.364-5.535 5.534l-8.543-8.549a.417.417 0 00-.59 0l-5.584 5.588c-.09.091-.175.176-.242.26l-.008-.008A6.621 6.621 0 004 22.333 6.674 6.674 0 0010.667 29a6.61 6.61 0 004.755-1.998l4.645-4.643a.417.417 0 00-.589-.59l-4.648 4.646a5.79 5.79 0 01-4.163 1.752 5.84 5.84 0 01-5.834-5.834c0-1.558.607-3.023 1.709-4.124l.006-.007c.112-.114 3.507-3.512 5.533-5.538l8.551 8.558a.416.416 0 00.652-.08l5.513-5.51c.09-.092.175-.177.243-.26l.007.008A6.622 6.622 0 0029 10.668 6.674 6.674 0 0022.333 4z" fill="#F2F6FF"/><path d="M17.615 5.948l-.705-.71-.003.003.708.707zm-4.683 4.686l.707.707-.707-.707zm0 .59l-.707.706v.001l.707-.708zm.59 0l.707.707-.707-.708zm4.68-4.685l-.703-.71-.003.003.707.707zm8.256 8.252l-.707-.707.707.707zm-.004.004l-.593-.805-.063.046-.055.056.71.703zm-5.535 5.534l-.708.707.707.707.708-.707-.707-.707zm-8.543-8.549l.707-.707-.707.707zm-.59 0l-.707-.707.707.707zm-5.584 5.588l-.707-.706h-.001l.708.706zm-.242.26l-.707.706.786.786.699-.864-.778-.629zm-.008-.008l.708-.707-.707-.708-.707.707.706.708zm9.47 9.382l-.707-.707-.007.007.714.7zm4.645-4.643l.707.707-.707-.707zm0-.589l-.708.706.708-.706zm-.589 0l-.706-.709v.001l.706.708zm-4.648 4.645l-.707-.707-.007.007.714.7zM6.542 18.21l.707.707.012-.012.011-.012-.73-.683zm.006-.007l-.711-.703-.01.01-.01.01.73.683zm5.533-5.538l.707-.707-.707-.708-.707.708.707.707zm8.551 8.558l-.707.706.293.294h.414v-1zm0 0l.708-.707-.293-.293h-.415v1zm.652-.08l-.707-.707-.087.087-.063.105.857.515zm5.513-5.51l.707.707.002-.002-.71-.705zm.243-.26l.707-.706-.784-.784-.7.86.777.63zm.007.008l-.707.707.707.708.707-.707-.707-.708zM22.333 3a7.66 7.66 0 00-5.423 2.238l1.409 1.42A5.66 5.66 0 0122.333 5V3zm-5.426 2.241l-4.682 4.686 1.414 1.414 4.683-4.686-1.415-1.414zm-4.682 4.686a1.417 1.417 0 000 2.003l1.414-1.414a.583.583 0 010 .825l-1.414-1.414zm0 2.004c.553.551 1.45.554 2.004 0l-1.414-1.415a.583.583 0 01.823 0l-1.412 1.415zm2.004 0l4.681-4.685-1.414-1.414-4.682 4.685 1.415 1.413zm4.678-4.682a4.83 4.83 0 013.426-1.416v-2A6.83 6.83 0 0017.5 5.83l1.408 1.42zm3.426-1.416a4.84 4.84 0 014.834 4.834h2a6.84 6.84 0 00-6.834-6.834v2zm4.834 4.834a4.793 4.793 0 01-1.416 3.417l1.414 1.415a6.793 6.793 0 002.002-4.832h-2zm-1.416 3.417l-.036.038-.002.002.009-.01a.983.983 0 01.14-.124l1.184 1.611a.937.937 0 00.144-.129l.01-.01-.035.036-1.414-1.414zm-.008.008l-.002.002-.004.004-.013.013-.045.045-.153.154-.525.524-1.623 1.623-3.166 3.165 1.414 1.414 5.539-5.538-1.422-1.405zm-4.117 5.53l-8.543-8.549-1.415 1.414 8.543 8.549 1.415-1.414zm-8.543-8.55a1.417 1.417 0 00-1.002-.414v2a.583.583 0 01-.412-.17l1.414-1.415zm-1.002-.414c-.376 0-.736.149-1.002.415l1.414 1.414a.584.584 0 01-.412.17v-2zm-1.002.415l-5.584 5.588 1.415 1.414 5.584-5.588-1.415-1.414zm-5.585 5.59c-.079.079-.205.204-.312.335l1.556 1.258c.027-.034.071-.08.173-.182l-1.417-1.411zm1.173.257l-.007-.008-1.415 1.415.008.007 1.414-1.414zm-1.421-.008A7.621 7.621 0 003 22.333h2a5.62 5.62 0 011.66-4.006l-1.414-1.415zM3 22.333C3 26.561 6.438 30 10.667 30v-2A5.674 5.674 0 015 22.333H3zM10.667 30c2.072 0 4.019-.82 5.469-2.298l-1.428-1.4A5.615 5.615 0 0110.667 28v2zm5.462-2.29l4.645-4.643-1.413-1.415-4.646 4.643 1.414 1.414zm4.646-4.644a1.417 1.417 0 000-2.002l-1.415 1.412a.583.583 0 010-.824l1.415 1.414zm0-2.002a1.417 1.417 0 00-2.003-.003l1.413 1.417a.583.583 0 01-.826-.002l1.416-1.412zm-2.004-.002l-4.648 4.646 1.414 1.415 4.648-4.646-1.414-1.415zm-4.655 4.653a4.79 4.79 0 01-3.45 1.452v2a6.79 6.79 0 004.878-2.051l-1.428-1.4zm-3.45 1.452a4.84 4.84 0 01-4.833-4.834h-2a6.84 6.84 0 006.834 6.834v-2zm-4.833-4.834c0-1.293.502-2.503 1.416-3.417l-1.414-1.414a6.794 6.794 0 00-2.002 4.831h2zm1.44-3.441l.006-.007-1.462-1.366-.006.007 1.461 1.366zm-.014.013c.11-.111 3.502-3.506 5.53-5.534l-1.415-1.414a13608.85 13608.85 0 00-5.537 5.542l1.422 1.406zm4.114-5.534l8.552 8.557 1.415-1.413-8.552-8.558-1.415 1.414zm9.26 8.85v-2 2zm-.708-.293a1.416 1.416 0 002.004 0l-1.414-1.413a.584.584 0 01.825 0l-1.415 1.413zm2.004 0c.08-.08.152-.17.212-.27l-1.714-1.031a.588.588 0 01.088-.112l1.414 1.414zm.062-.078l5.513-5.511-1.414-1.415-5.513 5.511 1.414 1.415zm5.515-5.513c.079-.08.204-.203.31-.333l-1.552-1.262a3.05 3.05 0 01-.176.184l1.418 1.411zm-1.174-.257l.008.008 1.414-1.415-.007-.007-1.415 1.414zm1.422.008A7.622 7.622 0 0030 10.667h-2a5.622 5.622 0 01-1.66 4.006l1.414 1.415zM30 10.667C30 6.439 26.561 3 22.333 3v2A5.674 5.674 0 0128 10.667h2z" fill="#925ADD" mask="url(#path-3-inside-1_88_5503)"/><path d="M25.667 10.666a.417.417 0 10.833 0 4.17 4.17 0 00-1.808-3.435.417.417 0 00-.472.687 3.336 3.336 0 011.447 2.748z" fill="#14964D"/></svg>