<svg width="32" height="32" fill="none" xmlns="http://www.w3.org/2000/svg"><rect width="32" height="32" rx="3" fill="#F2F6FF"/><path d="M6.5 25h-.834v.833h.833V25zm7.5 0h-.834v.833h.833V25zm-2.5 0h-.834v.833h.833V25zM9 25h-.834v.833h.833V25zm1.25-1.666h-.834v.833h.833v-.834zm-2.5 0h-.834v.833h.833v-.834zm5 0h-.834v.833h.833v-.834z" fill="#2BAF5D"/><path d="M26.917 15.833h-5c.272-.36.419-.799.416-1.25v-7.5c0-1.15-.932-2.083-2.083-2.083h-7.5c-1.15 0-2.083.933-2.083 2.083v7.5c-.003.451.144.89.416 1.25h-5c-1.15 0-2.083.933-2.083 2.084v7.5c0 1.15.933 2.083 2.083 2.083h7.5c1.15 0 2.084-.933 2.084-2.083v-7.5a2.05 2.05 0 00-.417-1.25h2.5a2.05 2.05 0 00-.417 1.25v7.5c0 1.15.933 2.083 2.084 2.083h7.5c1.15 0 2.083-.933 2.083-2.083v-7.5c0-1.15-.933-2.084-2.083-2.084zm-12.084 9.584c0 .69-.56 1.25-1.25 1.25h-7.5c-.69 0-1.25-.56-1.25-1.25v-7.5c0-.69.56-1.25 1.25-1.25h7.5c.69 0 1.25.56 1.25 1.25v7.5zm-2.083-9.584c-.69 0-1.25-.56-1.25-1.25v-7.5c0-.69.56-1.25 1.25-1.25h7.5c.69 0 1.25.56 1.25 1.25v7.5c0 .69-.56 1.25-1.25 1.25h-7.5zm15.417 9.584c0 .69-.56 1.25-1.25 1.25h-7.5c-.69 0-1.25-.56-1.25-1.25v-7.5c0-.69.56-1.25 1.25-1.25h7.5c.69 0 1.25.56 1.25 1.25v7.5z" fill="#925ADD"/><path d="M19.833 25H19v.833h.833V25zm7.5 0H26.5v.833h.833V25zm-2.5 0H24v.833h.833V25zm-2.5 0H21.5v.833h.833V25zm1.25-1.666h-.833v.833h.833v-.834zm-2.5 0h-.833v.833h.833v-.834zm5 0h-.833v.833h.833v-.834zm-12.916-9.168h-.833V15h.833v-.834zm7.5 0h-.833V15h.833v-.834zm-2.5 0h-.833V15h.833v-.834zm-2.5 0h-.833V15h.833v-.834zm1.25-1.666h-.833v.833h.833V12.5zm-2.5 0h-.833v.833h.833V12.5zm5 0h-.833v.833h.833V12.5z" fill="#2BAF5D"/></svg>