<svg width="32" height="32" fill="none" xmlns="http://www.w3.org/2000/svg"><path d="M0 6.4A6.4 6.4 0 016.4 0h19.2A6.4 6.4 0 0132 6.4v19.2a6.4 6.4 0 01-6.4 6.4H6.4A6.4 6.4 0 010 25.6V6.4z" fill="#F2F6FF"/><g clip-path="url(#clip0_88_5626)"><path d="M25.563 9.097l-2.661-2.668c-.57-.57-1.569-.57-2.142.004l-11 11.332c-.43.431-.43.896-.43 1.236v1.333c0 .196-.014.209-.236.431l-2.668 2.668c-.57.57-.57 1.569 0 2.138.285.285.677.427 1.07.427.392 0 .784-.142 1.069-.427l2.333-2.334a.333.333 0 10-.471-.471L8.094 25.1c-.307.307-.888.307-1.195 0-.313-.314-.313-.883 0-1.196l2.667-2.667c.25-.25.431-.431.431-.903v-1.333c0-.296 0-.529.24-.768L21.234 6.9a.83.83 0 01.595-.236h.007a.85.85 0 01.593.236l2.661 2.667a.834.834 0 01.242.599.836.836 0 01-.238.593L13.762 21.766c-.236.235-.457.235-.764.235h-1.334a.333.333 0 100 .667h1.334c.358 0 .804 0 1.232-.428l11.333-11.005A1.5 1.5 0 0026 10.168a1.496 1.496 0 00-.437-1.071z" fill="#925ADD"/><path d="M7.428 24.57a.332.332 0 00.471 0l13.336-13.336a.333.333 0 000-.471l-1-1a.333.333 0 10-.471.471l.764.765-.862.862-.431-.431a.333.333 0 10-.472.471l.431.431-.862.862-.43-.43a.333.333 0 10-.472.47l.43.432-.861.862-.765-.764a.333.333 0 10-.471.47l.764.765-.862.863-.431-.431a.333.333 0 10-.471.47l.43.432-.861.862-.432-.43a.333.333 0 10-.471.47l.431.432-.862.862-.764-.765a.333.333 0 10-.472.472l.764.764-5.097 5.1a.333.333 0 000 .471z" fill="#14964D"/></g><defs><clipPath id="clip0_88_5626"><path fill="#fff" transform="translate(6 6)" d="M0 0h20v20H0z"/></clipPath></defs></svg>