<svg width="43" height="42" fill="none" xmlns="http://www.w3.org/2000/svg"><path d="M30.532 12.613s-4.467 3.097-10.967 3.226v10.71a11.64 11.64 0 004.306 9.048L30.532 41l6.662-5.403a11.64 11.64 0 004.306-9.049v-10.71c-6.5-.128-10.968-3.225-10.968-3.225z" stroke="#925ADD" stroke-width="1.5" stroke-miterlimit="10" stroke-linecap="round" stroke-linejoin="round"/><path d="M32.468 23.58v-3.87h-3.871v3.87h-3.871v3.872h3.87v3.87h3.872v-3.87h3.87V23.58h-3.87zm-19.355-3.87h6.451m-6.451 5.161h6.451m.533 5.161h-6.984" stroke="#925ADD" stroke-width="1.5" stroke-miterlimit="10" stroke-linecap="round" stroke-linejoin="round"/><path d="M8.597 20.355a.645.645 0 100-1.29.645.645 0 000 1.29zm0 5.161a.645.645 0 100-1.29.645.645 0 000 1.29zm0 5.161a.645.645 0 100-1.29.645.645 0 000 1.29z" stroke="#925ADD" stroke-width="1.5" stroke-miterlimit="10"/><path d="M24.726 8.742v-2.58a1.941 1.941 0 00-1.936-1.936H21.5V1H11.178v3.226h-1.29A1.941 1.941 0 007.951 6.16v2.58h16.774z" stroke="#925ADD" stroke-width="1.5" stroke-miterlimit="10" stroke-linecap="round" stroke-linejoin="round"/><path d="M14.403 4.871v.645h3.871v-.645M24.726 41H2.79c-.71 0-1.29-.58-1.29-1.29V7.452c0-.71.58-1.29 1.29-1.29h1.29m20.646-.001h4.516c.71 0 1.29.58 1.29 1.29v.646" stroke="#925ADD" stroke-width="1.5" stroke-miterlimit="10" stroke-linecap="round" stroke-linejoin="round"/></svg>