<svg width="18" height="18" fill="none" xmlns="http://www.w3.org/2000/svg"><path fill-rule="evenodd" clip-rule="evenodd" d="M3 3.749c-.41 0-.75.34-.75.75v9c0 .41.34.75.75.75h12c.41 0 .75-.34.75-.75v-9c0-.41-.34-.75-.75-.75H3zm-2.25.75c0-1.24 1.01-2.25 2.25-2.25h12c1.24 0 2.25 1.01 2.25 2.25v9c0 1.24-1.01 2.25-2.25 2.25H3c-1.24 0-2.25-1.01-2.25-2.25v-9z" fill="#925ADD"/><path fill-rule="evenodd" clip-rule="evenodd" d="M.886 4.069a.75.75 0 011.044-.184L9 8.834l7.07-4.95a.75.75 0 01.86 1.23l-7.5 5.25a.75.75 0 01-.86 0l-7.5-5.25a.75.75 0 01-.184-1.045z" fill="#925ADD"/></svg>