<svg width="43" height="42" fill="none" xmlns="http://www.w3.org/2000/svg"><path d="M21.5 11c.724 0 1.311-.597 1.311-1.333 0-.737-.587-1.334-1.311-1.334s-1.311.597-1.311 1.334c0 .736.587 1.333 1.311 1.333z" fill="#925ADD"/><path d="M21.5 29.667v4m2.754-12c.328.533.525 1.133.525 1.733 0 1.333-.853 2.533-2.099 3l-2.164.667c-.983.333-1.704 1.266-1.704 2.333 0 .933.524 1.8 1.377 2.2l1.245.667m.066-16.601v10.667M23.467 13H20.91c-1.836 0-3.344 1.533-3.344 3.4 0 1 .459 1.933 1.18 2.6" stroke="#925ADD" stroke-width="2" stroke-miterlimit="10" stroke-linecap="round" stroke-linejoin="round"/><path d="M41.5 16.2L35.598 5.8l-8.196 4.8V1H15.598v9.6L7.402 5.8 1.5 16.2 9.697 21 1.5 25.8l5.902 10.4 8.196-4.8V41h11.804v-9.6l8.196 4.8L41.5 25.8 33.303 21l8.197-4.8z" stroke="#925ADD" stroke-width="2" stroke-miterlimit="10" stroke-linecap="round" stroke-linejoin="round"/></svg>