<svg width="24" height="24" fill="none" xmlns="http://www.w3.org/2000/svg"><path d="M.817 3.28C1.1 1.372 2.754-.002 4.682-.002h14.536c1.911 0 3.555 1.35 3.858 3.237.409 2.537.892 6.075.922 8.763.03 2.654-.364 6.144-.712 8.676C23.02 22.601 21.359 24 19.415 24H4.682c-1.928 0-3.58-1.374-3.865-3.28C.439 18.184 0 14.67 0 11.999c0-2.671.439-6.185.817-8.72z" fill="url(#paint0_linear_301_535)"/><path d="M13.34 14.966a6.321 6.321 0 001.962-.813.99.99 0 00-1.056-1.677 4.29 4.29 0 01-4.549 0 .99.99 0 00-1.055 1.677 6.32 6.32 0 001.962.813l-1.887 1.889a.989.989 0 101.4 1.399l1.856-1.856 1.856 1.856a.989.989 0 101.4-1.4l-1.89-1.888zm-1.367-7.532a1.4 1.4 0 011.4 1.4 1.4 1.4 0 01-2.8 0c0-.773.63-1.4 1.4-1.4zm0 4.776a3.381 3.381 0 003.378-3.377 3.382 3.382 0 00-3.378-3.38 3.382 3.382 0 00-3.379 3.378 3.382 3.382 0 003.379 3.379z" fill="#fff"/><defs><linearGradient id="paint0_linear_301_535" x1="4.508" y1="-.001" x2="9.609" y2="25.895" gradientUnits="userSpaceOnUse"><stop stop-color="#79CBEB"/><stop offset="1" stop-color="#2C64F5"/></linearGradient></defs></svg>