<svg width="18" height="18" fill="none" xmlns="http://www.w3.org/2000/svg"><path d="M11.288 3.75a3.75 3.75 0 012.962 2.963M11.288.75a6.75 6.75 0 015.962 5.955m-.75 5.985v2.25a1.502 1.502 0 01-1.635 1.5 14.843 14.843 0 01-6.472-2.303 14.625 14.625 0 01-4.5-4.5A14.843 14.843 0 011.59 3.135 1.5 1.5 0 013.083 1.5h2.25a1.5 1.5 0 011.5 1.29 9.63 9.63 0 00.525 2.107A1.5 1.5 0 017.02 6.48l-.952.952a12 12 0 004.5 4.5l.952-.952a1.5 1.5 0 011.583-.338c.68.254 1.387.43 2.107.526a1.5 1.5 0 011.29 1.522z" stroke="#925ADD" stroke-width="1.5" stroke-linecap="round" stroke-linejoin="round"/></svg>