<svg width="22" height="22" fill="none" xmlns="http://www.w3.org/2000/svg"><path d="M13.296 4.583a4.583 4.583 0 013.62 3.621M13.297.917a8.25 8.25 0 017.288 7.278m-.917 7.315v2.75a1.833 1.833 0 01-1.998 1.833 18.14 18.14 0 01-7.911-2.814 17.875 17.875 0 01-5.5-5.5 18.14 18.14 0 01-2.815-7.947 1.833 1.833 0 011.825-1.999h2.75A1.833 1.833 0 017.85 3.41c.116.88.331 1.744.642 2.576A1.833 1.833 0 018.08 7.92L6.916 9.084a14.667 14.667 0 005.5 5.5l1.164-1.164a1.834 1.834 0 011.934-.413c.832.31 1.696.526 2.576.642a1.833 1.833 0 011.577 1.86z" stroke="#293543" stroke-width="2" stroke-linecap="round" stroke-linejoin="round"/></svg>