<svg width="200" height="200" fill="none" xmlns="http://www.w3.org/2000/svg"><path d="M110.206 182.427L200 174.991 154.543 142.4l-92.036 9.721 47.699 30.306z" fill="#E0E5F4"/><path d="M66.943 34.103L51.8 43.971l-.43-.22-2.194.9.883.438 6.82-1.118L79.25 30.774l-12.307 3.33z" fill="#C7D1F4"/><path d="M56.33 43.63l-7.035 1.022 17.22-11.01 12.306-3.305L56.33 43.63z" fill="#E0E5F4"/><path d="M78.82 30.337l-.31 107.761 53.423 31.424.31-107.566v-.195L78.82 30.337z" fill="#C7D1F4"/><path d="M78.964 30.288L56.45 43.533l.286 107.567 22.538-13.245-.31-107.567z" fill="#BBC5E6"/><path d="M124.54 22.827L87 .735C85.952.152 84.927-.09 84.068.03c-.214.025-.43.073-.62.146l-.763.195v.243c-.716.583-1.145 1.604-1.145 3.038l-.286 97.845c0 3.524 2.433 7.801 5.438 9.575l37.253 22.384c2.075 1.507 5.748.048 5.748-3.476l.262-97.577c.024-3.524-2.409-7.802-5.414-9.576z" fill="#C7D1F4"/><path d="M123.658 23.047L86.118.955c-3.004-1.75-5.46-.34-5.46 3.184l-.263 97.577c0 3.524 2.432 7.802 5.438 9.576l37.539 22.092c3.005 1.774 5.461.34 5.461-3.184l.263-97.578c0-3.524-2.433-7.801-5.438-9.575zM92.487 12.086c.047.024.119.073.166.097 2.695 1.677 4.842 5.541 4.842 8.725 0 3.184-2.17 4.496-4.865 3.014-.048-.025-.12-.073-.167-.098-2.767-1.628-5.009-5.59-5.009-8.822.024-3.232 2.266-4.545 5.033-2.916zm-.263 95.731c-2.766-1.629-5.008-5.59-5.008-8.823 0-3.256 2.266-4.544 5.032-2.916 2.767 1.628 5.008 5.59 5.008 8.822 0 3.232-2.265 4.545-5.032 2.917zm.072-20.998c-2.767-1.629-5.009-5.59-5.009-8.823 0-3.256 2.266-4.544 5.033-2.916 2.766 1.628 5.008 5.59 5.008 8.822-.024 3.232-2.266 4.545-5.032 2.916zm.047-20.999c-2.766-1.628-5.008-5.59-5.008-8.822 0-3.256 2.266-4.544 5.032-2.916 2.767 1.628 5.009 5.59 5.009 8.822 0 3.257-2.266 4.545-5.032 2.916zm.048-20.998c-2.766-1.628-5.008-5.59-5.008-8.822 0-3.256 2.266-4.544 5.032-2.916 2.767 1.628 5.008 5.59 5.008 8.822 0 3.257-2.241 4.545-5.032 2.916zm12.521 75.025c0 .218-.143.291-.334.194-.19-.097-.334-.364-.334-.583l.287-104.966c0-.219.143-.292.334-.195.19.098.333.365.333.584l-.286 104.966zm12.068 2.527c-2.766-1.628-5.008-5.59-5.008-8.822 0-3.257 2.265-4.545 5.032-2.916 2.767 1.628 5.008 5.589 5.008 8.822 0 3.256-2.265 4.545-5.032 2.916zm.048-20.998c-2.767-1.628-5.009-5.59-5.009-8.822 0-3.257 2.266-4.545 5.033-2.916 2.766 1.628 5.008 5.59 5.008 8.822 0 3.256-2.242 4.544-5.032 2.916zm.071-20.998c-2.766-1.628-5.008-5.59-5.008-8.822 0-3.257 2.266-4.545 5.032-2.916 2.767 1.628 5.009 5.59 5.009 8.822 0 3.256-2.266 4.569-5.033 2.916zm.048-20.998c-2.766-1.628-5.008-5.59-5.008-8.822 0-3.257 2.265-4.545 5.032-2.916 2.767 1.628 5.008 5.59 5.008 8.822 0 3.256-2.265 4.569-5.032 2.916zm.072-20.974c-2.767-1.628-5.009-5.59-5.009-8.822 0-3.256 2.266-4.545 5.033-2.916 2.766 1.628 5.008 5.59 5.008 8.822-.024 3.232-2.266 4.545-5.032 2.916z" fill="#fff"/><path d="M94.3 10.991c-.049-.024-.12-.073-.168-.097-1.43-.85-2.719-.9-3.625-.316a1.06 1.06 0 00-.262.194l-1.288.948.143 1.288.071-.048c-.047.267-.047.559-.071.85 0 3.257 2.218 7.194 5.008 8.822.048.025.12.073.167.098.239.121.453.243.692.316l-.072.048 1.145 1.118 1.86-1.36.024-.025c.787-.584 1.24-1.653 1.264-3.135-.047-3.16-2.194-7.024-4.889-8.7zm-4.485 3.524c-.143-.073-.238-.267-.238-.437 0-.17.12-.22.238-.146v.583zm4.269 17.354c-1.431-.851-2.743-.9-3.65-.292l-.023-.024-1.55 1.142.142 1.288.096-.073a5.288 5.288 0 00-.072.9c0 3.256 2.218 7.193 5.009 8.821.286.17.572.292.835.413l-.096.05 1.145 1.117 1.622-1.19c.93-.511 1.526-1.678 1.526-3.306.024-3.257-2.218-7.194-4.984-8.846zm-.072 20.997c-1.478-.875-2.814-.9-3.744-.243l-1.55 1.142.143 1.288.167-.121a4.99 4.99 0 00-.072.875c0 3.256 2.218 7.194 5.008 8.822.287.17.573.316.859.413l-.19.122 1.144 1.117 1.813-1.336c.858-.535 1.407-1.677 1.407-3.257.024-3.232-2.195-7.194-4.985-8.822zm-.047 20.998c-1.503-.875-2.839-.899-3.769-.219l-.023-.024-1.55 1.142.142 1.288.215-.145a5.489 5.489 0 00-.072.899c0 3.256 2.218 7.194 5.009 8.822.286.17.549.292.835.413l-.191.122 1.145 1.118 1.693-1.24c.978-.51 1.574-1.653 1.574-3.354 0-3.232-2.242-7.194-5.008-8.822zm-.072 20.998c-1.336-.802-2.552-.9-3.459-.413l-.023-.025-1.55 1.143.119 1.02c-.072.365-.12.754-.12 1.191 0 3.257 2.218 7.194 5.009 8.823a4.25 4.25 0 001.073.486l1.002.972 1.55-1.143.286-.218.024-.025c.692-.607 1.097-1.628 1.097-3.013.024-3.208-2.218-7.17-5.008-8.798zm24.97-57.672a4.76 4.76 0 001.503.608l.739.73 1.86-1.386v-.073c.573-.607.907-1.58.907-2.843 0-3.257-2.218-7.194-5.009-8.822-1.24-.73-2.361-.875-3.243-.51l-.048-.05-.238.17a3.4 3.4 0 00-.477.341l-.835.608.071.607a5.342 5.342 0 00-.262 1.726c.024 3.33 2.242 7.266 5.032 8.895zm-.023 9.26c-1.24-.73-2.385-.875-3.267-.51l-.048-.05-1.55 1.143.071.68c-.167.486-.238 1.045-.238 1.677 0 3.257 2.218 7.194 5.008 8.822.525.292 1.026.51 1.479.608l.739.729 1.384-1.02c.119-.074.214-.147.31-.244l.19-.121v-.025c.597-.607.931-1.58.931-2.867 0-3.257-2.242-7.194-5.009-8.822zm-.072 20.998c-1.288-.754-2.48-.875-3.387-.462l-.023-.024-.167.121c-.12.073-.239.17-.358.268l-1.002.753.096.826c-.12.438-.191.9-.191 1.458 0 3.257 2.218 7.194 5.008 8.823.43.267.859.437 1.264.559l.883.874 1.86-1.385v-.024c.644-.608 1.026-1.604 1.026-2.94 0-3.282-2.242-7.219-5.009-8.847zm-.047 20.999c-1.312-.778-2.504-.875-3.386-.462l-.048-.025-1.55 1.143.095.899a6.132 6.132 0 00-.167 1.385c0 3.257 2.218 7.194 5.008 8.822.43.243.835.438 1.241.535l.882.875 1.407-1.045c.167-.097.31-.195.453-.34.644-.608 1.05-1.629 1.05-2.965.024-3.257-2.218-7.194-4.985-8.823zm-.071 20.973c-1.145-.681-2.194-.851-3.053-.584l-.095-.097-.43.316c-.119.073-.238.17-.357.267l-.74.559.048.414c-.262.559-.406 1.239-.406 2.041 0 3.257 2.218 7.194 5.009 8.822.644.389 1.264.608 1.836.681l.573.559 1.86-1.386-.024-.121c.477-.608.763-1.531.763-2.674.024-3.208-2.218-7.145-4.984-8.797z" fill="#C7D1F4"/><path d="M92.653 12.183c-.047-.025-.119-.073-.167-.098-2.766-1.628-5.032-.316-5.032 2.917 0 3.256 2.218 7.193 5.009 8.822.047.024.119.073.166.097 2.695 1.483 4.866.17 4.866-3.014 0-3.183-2.147-7.047-4.842-8.724zm3.983 8.506l-8.466-4.982c-.144-.073-.239-.268-.239-.438 0-.17.12-.219.239-.146l8.466 4.982c.143.073.239.268.239.438.024.17-.096.243-.239.146zm-4.197 12.393c-2.767-1.628-5.032-.316-5.032 2.917 0 3.256 2.218 7.194 5.008 8.822 2.766 1.628 5.032.316 5.032-2.916 0-3.233-2.242-7.194-5.008-8.823zm4.15 8.604l-8.467-4.982c-.143-.073-.239-.268-.239-.438 0-.17.12-.219.239-.146l8.467 4.983c.143.072.238.267.238.437 0 .17-.12.243-.238.146zm-4.222 12.395c-2.767-1.628-5.032-.316-5.032 2.917 0 3.257 2.218 7.194 5.008 8.822 2.766 1.628 5.032.316 5.032-2.916.024-3.257-2.218-7.194-5.008-8.823zm4.15 8.604l-8.467-4.982c-.143-.073-.239-.268-.239-.438 0-.17.12-.218.239-.146l8.467 4.983c.143.073.238.267.238.437.024.17-.095.243-.238.146zM92.32 75.08c-2.767-1.629-5.033-.316-5.033 2.916 0 3.257 2.218 7.194 5.008 8.822 2.767 1.628 5.033.316 5.033-2.916 0-3.257-2.242-7.194-5.009-8.823zm4.15 8.603L88.001 78.7c-.143-.073-.238-.268-.238-.438 0-.17.12-.219.238-.146L96.47 83.1c.143.073.239.267.239.437 0 .17-.096.243-.239.146zm-4.223 12.394c-2.766-1.628-5.032-.316-5.032 2.916 0 3.257 2.218 7.194 5.008 8.823 2.767 1.628 5.032.316 5.032-2.917.024-3.256-2.218-7.194-5.008-8.822zm4.15 8.603l-8.467-4.982c-.143-.073-.238-.267-.238-.437 0-.17.12-.219.238-.146l8.467 4.982c.143.073.238.267.238.438.024.17-.095.218-.238.145zm20.845-78.038c-2.766-1.628-5.032-.316-5.032 2.916 0 3.257 2.218 7.194 5.008 8.822 2.767 1.629 5.033.316 5.033-2.916 0-3.232-2.242-7.194-5.009-8.822zm4.293 8.7l-8.466-4.982c-.144-.072-.239-.267-.239-.437 0-.17.119-.219.262-.146l8.467 4.982c.143.073.239.268.239.438-.024.17-.144.218-.263.146zm-4.34 12.299c-2.767-1.628-5.033-.316-5.033 2.916 0 3.257 2.218 7.194 5.009 8.822 2.766 1.629 5.032.317 5.032-2.916 0-3.232-2.242-7.194-5.008-8.822zm4.269 8.7l-8.467-4.982c-.143-.073-.238-.267-.238-.437 0-.17.119-.219.262-.146l8.467 4.982c.143.073.238.268.238.438 0 .146-.119.218-.262.146zm-4.341 12.299c-2.767-1.63-5.033-.317-5.033 2.915 0 3.257 2.218 7.194 5.009 8.823 2.766 1.628 5.032.316 5.032-2.917 0-3.232-2.242-7.194-5.008-8.822zm4.293 8.7l-8.467-4.983c-.143-.072-.239-.267-.239-.437 0-.17.12-.219.263-.146l8.466 4.982c.143.073.239.268.239.438-.024.146-.119.219-.262.146zm-4.341 12.297c-2.767-1.629-5.032-.316-5.032 2.916 0 3.257 2.218 7.194 5.008 8.822 2.767 1.628 5.032.316 5.032-2.916 0-3.257-2.241-7.194-5.008-8.822zm4.269 8.7l-8.467-4.982c-.143-.073-.238-.267-.238-.437 0-.17.119-.22.262-.146l8.467 4.982c.143.073.239.267.239.437 0 .146-.12.22-.263.146zm-4.341 12.298c-2.767-1.628-5.032-.316-5.032 2.917 0 3.256 2.218 7.193 5.008 8.822 2.767 1.628 5.032.316 5.032-2.917 0-3.256-2.218-7.194-5.008-8.822zm4.293 8.701l-8.467-4.982c-.143-.073-.238-.268-.238-.438 0-.17.119-.219.262-.146l8.467 4.982c.143.073.238.268.238.438-.024.146-.119.219-.262.146zM104.888 14.297c-.191-.098-.334-.025-.334.194l-.286 104.966c0 .219.143.486.334.583.191.098.334.025.334-.194l.286-104.966a.772.772 0 00-.334-.583z" fill="#E0E5F4"/><path d="M96.636 20.106l-8.466-4.982c-.143-.073-.239-.025-.239.145 0 .17.12.365.239.438l8.466 4.982c.144.073.263.024.263-.146 0-.145-.12-.34-.263-.437zm-.047 20.997l-8.467-4.982c-.143-.073-.238-.025-.238.145 0 .17.119.365.238.438l8.467 4.982c.143.073.262.025.262-.146a.831.831 0 00-.262-.437zm-.072 20.998L88.05 57.12c-.143-.073-.238-.024-.238.146 0 .17.119.365.238.438l8.467 4.982c.143.073.262.024.262-.146 0-.146-.119-.34-.262-.438zM96.47 83.1l-8.467-4.982c-.143-.073-.239-.024-.239.146 0 .17.12.364.239.437l8.466 4.982c.143.073.263.025.263-.146-.024-.145-.12-.364-.263-.437zm-.073 20.997l-8.466-4.982c-.144-.073-.239-.024-.239.146 0 .17.12.364.239.437l8.466 4.982c.143.073.263.025.263-.145 0-.146-.12-.365-.263-.438zm25.138-69.337l-8.467-4.982c-.143-.073-.262-.024-.262.146 0 .17.119.364.238.437l8.467 4.982c.143.073.238.025.238-.145.024-.17-.095-.365-.214-.438zm-.071 20.999l-8.467-4.983c-.143-.072-.262-.024-.262.146 0 .17.119.365.238.438l8.467 4.982c.143.073.239.024.239-.146.047-.17-.072-.364-.215-.437zm-.048 20.997l-8.466-4.982c-.144-.073-.263-.024-.263.146 0 .17.12.364.239.437l8.466 4.983c.143.072.239.024.239-.146a.447.447 0 00-.215-.438zm-.072 20.998l-8.466-4.982c-.144-.073-.263-.024-.263.146 0 .17.119.364.239.437l8.466 4.983c.144.072.239.024.239-.146.048-.17-.072-.365-.215-.438zm-.047 20.999l-8.467-4.982c-.143-.073-.262-.024-.262.146 0 .17.119.364.238.437l8.467 4.983c.143.072.238.024.238-.146a.447.447 0 00-.214-.438z" fill="#fff"/><path d="M118.363 62.271L80.823 40.18c-1.048-.584-2.074-.827-2.933-.705a2.563 2.563 0 00-.62.146l-.763.194v.243c-.715.583-1.145 1.604-1.145 3.038l-.286 97.845c0 3.524 2.433 7.802 5.438 9.576l37.253 22.383c2.075 1.507 5.748.049 5.748-3.475l.262-97.578c.024-3.5-2.409-7.801-5.414-9.576z" fill="#C7D1F4"/><path d="M117.48 62.513L79.94 40.422c-3.004-1.775-5.46-.34-5.46 3.183l-.263 97.578c0 3.524 2.433 7.802 5.438 9.576l37.539 22.091c3.005 1.775 5.462.341 5.462-3.183l.262-97.578c0-3.524-2.433-7.826-5.438-9.576zM86.309 51.528c.047.025.119.073.166.097 2.696 1.677 4.842 5.541 4.842 8.725 0 3.184-2.17 4.496-4.865 3.014-.048-.024-.12-.073-.167-.097-2.767-1.629-5.009-5.59-5.009-8.822.024-3.233 2.266-4.545 5.033-2.917zm-.263 95.755c-2.766-1.628-5.008-5.589-5.008-8.822 0-3.256 2.266-4.545 5.032-2.916 2.767 1.628 5.009 5.59 5.009 8.822 0 3.232-2.242 4.545-5.033 2.916zm.072-20.998c-2.767-1.628-5.009-5.59-5.009-8.822 0-3.257 2.266-4.545 5.033-2.916 2.766 1.628 5.008 5.589 5.008 8.822-.024 3.232-2.266 4.545-5.032 2.916zm.047-20.998c-2.766-1.628-5.008-5.59-5.008-8.822 0-3.257 2.266-4.545 5.032-2.916 2.767 1.628 5.009 5.59 5.009 8.822 0 3.232-2.266 4.544-5.032 2.916zm.072-20.998c-2.766-1.628-5.008-5.59-5.008-8.822 0-3.257 2.265-4.545 5.032-2.916 2.767 1.628 5.008 5.59 5.008 8.822-.023 3.232-2.265 4.544-5.032 2.916zm12.521 75.024c0 .219-.143.292-.334.195-.19-.097-.334-.365-.334-.583l.286-104.967c0-.218.144-.291.334-.194.191.097.334.365.334.583l-.286 104.966zm12.044 2.528c-2.766-1.628-5.008-5.59-5.008-8.822 0-3.257 2.266-4.545 5.032-2.917 2.767 1.629 5.009 5.59 5.009 8.823 0 3.232-2.266 4.544-5.033 2.916zm.048-20.998c-2.767-1.628-5.009-5.59-5.009-8.822 0-3.257 2.266-4.545 5.033-2.917 2.766 1.629 5.008 5.59 5.008 8.823 0 3.232-2.242 4.544-5.032 2.916zm.071-20.998c-2.766-1.628-5.008-5.59-5.008-8.822 0-3.257 2.266-4.545 5.032-2.917 2.767 1.629 5.009 5.59 5.009 8.822 0 3.233-2.266 4.545-5.033 2.917zm.048-20.998c-2.766-1.629-5.008-5.59-5.008-8.822 0-3.257 2.265-4.545 5.032-2.917 2.767 1.629 5.008 5.59 5.008 8.822 0 3.233-2.241 4.545-5.032 2.917zm.072-20.998c-2.767-1.629-5.009-5.59-5.009-8.822 0-3.257 2.266-4.545 5.033-2.917 2.766 1.629 5.008 5.59 5.008 8.822 0 3.233-2.266 4.545-5.032 2.917z" fill="#fff"/><path d="M88.121 50.435c-.048-.024-.12-.073-.167-.097-1.43-.85-2.719-.9-3.625-.316-.095.048-.19.121-.262.194l-1.288.948.143 1.288.072-.048c-.048.267-.048.558-.072.85 0 3.257 2.218 7.194 5.008 8.822.048.024.12.073.167.097.239.122.453.243.692.316l-.072.049 1.145 1.118 1.86-1.361.024-.024c.787-.584 1.24-1.653 1.264-3.136-.023-3.135-2.194-6.999-4.889-8.7zm-4.484 3.548c-.143-.073-.238-.267-.238-.437 0-.17.12-.219.238-.146v.583zm4.27 17.353c-1.431-.85-2.743-.9-3.65-.292l-.023-.024-1.55 1.142.143 1.288.095-.073a5.28 5.28 0 00-.072.9c0 3.256 2.219 7.193 5.009 8.822.286.17.572.291.835.413l-.096.048 1.145 1.118 1.622-1.19c.93-.51 1.526-1.677 1.526-3.306.024-3.256-2.218-7.218-4.984-8.846zm-.048 20.998c-1.48-.875-2.815-.9-3.745-.243l-1.55 1.142.143 1.288.167-.121a4.991 4.991 0 00-.072.875c0 3.256 2.218 7.193 5.009 8.822.286.17.572.316.858.413l-.19.121 1.145 1.118 1.812-1.336c.859-.535 1.407-1.677 1.407-3.257.024-3.232-2.218-7.194-4.984-8.822zm-.071 20.998c-1.503-.874-2.838-.899-3.768-.218l-.024-.025-1.55 1.143.143 1.288.214-.146a5.49 5.49 0 00-.071.899c0 3.257 2.218 7.194 5.008 8.822.286.17.549.292.835.413l-.19.122 1.144 1.118 1.693-1.24c.978-.51 1.574-1.652 1.574-3.353 0-3.233-2.242-7.194-5.008-8.823zm-.048 20.998c-1.335-.802-2.552-.899-3.458-.413l-.024-.025-1.55 1.143.12 1.02c-.072.365-.12.754-.12 1.191 0 3.257 2.218 7.194 5.008 8.822.358.219.716.389 1.074.486l1.001.972 1.55-1.142.287-.218.024-.025c.691-.607 1.097-1.628 1.097-3.013 0-3.208-2.242-7.17-5.009-8.798zm24.947-57.671c.524.316 1.025.51 1.502.608l.74.729 1.86-1.386v-.073c.572-.607.906-1.58.906-2.843 0-3.257-2.218-7.194-5.008-8.822-1.241-.73-2.362-.875-3.244-.51l-.048-.05-.238.171a3.408 3.408 0 00-.477.34l-.835.608.072.608a5.34 5.34 0 00-.263 1.725c.024 3.305 2.266 7.267 5.033 8.895zm-.024 9.235c-1.24-.73-2.385-.875-3.267-.51l-.048-.05-1.55 1.143.072.68c-.167.487-.239 1.046-.239 1.678 0 3.256 2.218 7.193 5.009 8.822.524.291 1.025.51 1.478.607l.74.73 1.383-1.021a1.53 1.53 0 00.31-.243l.191-.122v-.024c.596-.608.93-1.58.93-2.868 0-3.232-2.242-7.194-5.009-8.822zm-.072 20.998c-1.288-.754-2.48-.875-3.386-.462l-.024-.024-.167.121c-.119.073-.239.17-.358.267l-1.002.754.096.826a5.4 5.4 0 00-.191 1.458c0 3.257 2.218 7.194 5.009 8.822.429.268.858.438 1.264.559l.882.875 1.86-1.385v-.024c.644-.608 1.026-1.604 1.026-2.941 0-3.257-2.218-7.218-5.009-8.846zm-.048 20.997c-1.312-.777-2.504-.875-3.386-.461l-.048-.025-1.55 1.143.095.899a6.131 6.131 0 00-.167 1.385c0 3.257 2.218 7.194 5.008 8.822.43.243.835.438 1.241.535l.882.875 1.407-1.045a2.01 2.01 0 00.453-.341c.644-.607 1.05-1.628 1.05-2.965.024-3.232-2.218-7.193-4.985-8.822zm-.071 20.999c-1.145-.68-2.194-.85-3.053-.583l-.095-.097-.43.316c-.119.073-.238.17-.357.267l-.74.559.048.413c-.262.559-.406 1.24-.406 2.042 0 3.256 2.218 7.194 5.009 8.822.644.389 1.264.607 1.836.68l.573.559 1.86-1.385-.024-.121c.477-.608.763-1.532.763-2.674.048-3.208-2.194-7.169-4.984-8.798z" fill="#C7D1F4"/><path d="M86.477 51.65c-.048-.023-.12-.072-.167-.096-2.767-1.629-5.033-.316-5.033 2.916 0 3.257 2.218 7.194 5.009 8.822.047.024.12.073.167.097 2.695 1.483 4.865.17 4.865-3.013.024-3.184-2.146-7.048-4.841-8.725zm3.983 8.507l-8.467-4.982c-.143-.073-.239-.267-.239-.438 0-.17.12-.218.239-.145l8.467 4.982c.143.073.238.267.238.437.024.17-.095.219-.238.146zm-4.2 12.37c-2.766-1.629-5.032-.316-5.032 2.916 0 3.257 2.219 7.194 5.009 8.822 2.767 1.629 5.032.316 5.032-2.916 0-3.233-2.242-7.194-5.008-8.822zm4.15 8.627l-8.466-4.982c-.143-.073-.239-.267-.239-.437 0-.17.12-.219.239-.146l8.467 4.982c.143.073.238.267.238.438 0 .17-.095.218-.238.145zm-4.197 12.371c-2.766-1.629-5.032-.316-5.032 2.916 0 3.257 2.218 7.194 5.008 8.822 2.767 1.629 5.033.316 5.033-2.916 0-3.232-2.242-7.194-5.009-8.822zm4.126 8.628l-8.466-4.983c-.144-.073-.239-.267-.239-.437 0-.17.12-.219.239-.146l8.466 4.982c.143.073.239.268.239.438.023.17-.096.218-.239.146zm-4.197 12.369c-2.766-1.628-5.032-.316-5.032 2.917 0 3.256 2.218 7.194 5.008 8.822 2.767 1.628 5.033.316 5.033-2.917 0-3.232-2.242-7.193-5.009-8.822zm4.15 8.628l-8.466-4.982c-.143-.073-.239-.267-.239-.438 0-.17.12-.218.239-.145l8.466 4.982c.143.073.239.267.239.437 0 .17-.096.219-.239.146zm-4.197 12.371c-2.767-1.628-5.032-.316-5.032 2.916 0 3.257 2.218 7.194 5.008 8.822 2.767 1.629 5.032.316 5.032-2.916 0-3.232-2.242-7.194-5.008-8.822zm4.126 8.628l-8.467-4.983c-.143-.073-.238-.267-.238-.437 0-.17.119-.219.238-.146l8.467 4.982c.143.073.238.268.238.438.024.146-.095.218-.238.146zm20.844-78.039c-2.766-1.628-5.032-.315-5.032 2.917 0 3.257 2.218 7.194 5.009 8.822 2.766 1.629 5.032.316 5.032-2.916 0-3.257-2.242-7.194-5.009-8.822zm4.293 8.677l-8.466-4.982c-.143-.073-.239-.268-.239-.438 0-.17.12-.218.263-.145l8.466 4.982c.143.073.239.267.239.437-.024.17-.119.243-.263.146zm-4.341 12.297c-2.767-1.628-5.033-.316-5.033 2.917 0 3.256 2.218 7.194 5.009 8.822 2.766 1.628 5.032.316 5.032-2.916 0-3.233-2.242-7.17-5.008-8.823zm4.269 8.701l-8.467-4.982c-.143-.073-.238-.267-.238-.438 0-.17.119-.218.262-.145l8.467 4.982c.143.073.238.267.238.437 0 .17-.119.243-.262.146zm-4.34 12.297c-2.767-1.628-5.032-.316-5.032 2.916 0 3.257 2.218 7.194 5.008 8.822 2.767 1.629 5.032.316 5.032-2.916 0-3.232-2.218-7.169-5.008-8.822zm4.293 8.701l-8.467-4.983c-.143-.073-.238-.267-.238-.437 0-.17.119-.219.262-.146l8.467 4.982c.143.073.238.268.238.438-.024.17-.119.243-.262.146zm-4.341 12.297c-2.766-1.628-5.032-.315-5.032 2.917 0 3.257 2.218 7.194 5.008 8.822 2.767 1.628 5.033.316 5.033-2.916 0-3.233-2.242-7.17-5.009-8.823zm4.269 8.701l-8.466-4.982c-.143-.073-.239-.267-.239-.438 0-.17.119-.218.263-.145l8.466 4.982c.143.073.239.267.239.437 0 .17-.119.243-.263.146zm-4.341 12.298c-2.766-1.628-5.032-.316-5.032 2.916 0 3.257 2.218 7.194 5.008 8.823 2.767 1.628 5.033.315 5.033-2.917.024-3.232-2.218-7.194-5.009-8.822zm4.293 8.701l-8.466-4.983c-.144-.072-.239-.267-.239-.437 0-.17.119-.219.262-.146l8.467 4.982c.143.073.239.268.239.438-.024.17-.12.243-.263.146zM98.711 53.765c-.19-.097-.334-.024-.334.194l-.286 104.966c0 .219.143.486.334.584.191.097.334.024.334-.195l.286-104.966c0-.218-.143-.486-.334-.583z" fill="#E0E5F4"/><path d="M90.459 59.573l-8.467-4.983c-.143-.073-.239-.024-.239.146 0 .17.12.365.239.438l8.467 4.982c.143.073.262.024.262-.146 0-.17-.12-.364-.262-.437zm-.049 20.998l-8.466-4.982c-.143-.073-.238-.024-.238.146 0 .17.12.364.238.437l8.467 4.982c.143.073.262.025.262-.145-.024-.17-.119-.365-.262-.438zm-.071 20.999l-8.467-4.982c-.143-.073-.238-.025-.238.145 0 .17.119.365.238.438l8.467 4.982c.143.073.262.024.262-.146a.534.534 0 00-.262-.437zm-.046 20.997l-8.467-4.982c-.143-.073-.239-.025-.239.145 0 .171.12.365.239.438l8.467 4.982c.143.073.262.024.262-.146-.024-.17-.12-.364-.262-.437zm-.049 20.999l-8.467-4.982c-.143-.073-.238-.025-.238.145 0 .171.119.365.238.438l8.467 4.982c.143.073.262.024.262-.146-.024-.17-.143-.364-.262-.437zm25.114-69.362l-8.467-4.982c-.143-.073-.262-.024-.262.146 0 .17.119.364.238.437l8.467 4.982c.143.073.239.024.239-.146.023-.145-.072-.34-.215-.437zm-.071 20.997l-8.467-4.982c-.143-.073-.262-.024-.262.146 0 .17.119.365.239.438l8.466 4.982c.143.073.239.024.239-.146.047-.146-.072-.34-.215-.438zm-.049 20.999l-8.466-4.983c-.143-.073-.263-.024-.263.146 0 .17.12.365.239.438l8.466 4.982c.144.073.239.024.239-.146.024-.146-.072-.34-.215-.437zm-.047 20.999l-8.467-4.983c-.143-.073-.262-.024-.262.146 0 .17.119.365.238.438l8.467 4.982c.143.073.238.024.238-.146.024-.146-.095-.34-.214-.437zm-.071 20.997l-8.467-4.983c-.143-.072-.262-.024-.262.146 0 .17.119.365.238.438l8.467 4.982c.143.073.238.024.238-.146.024-.146-.071-.364-.214-.437z" fill="#fff"/><path d="M111.065 66.865l-37.54-22.092c-1.049-.583-2.075-.826-2.933-.704a2.54 2.54 0 00-.62.145l-.763.195v.243c-.716.583-1.145 1.604-1.145 3.038l-.286 97.845c0 3.524 2.432 7.801 5.437 9.575l37.254 22.384c2.075 1.507 5.747.048 5.747-3.476l.263-97.577c.024-3.524-2.409-7.826-5.414-9.576z" fill="#C7D1F4"/><path d="M110.183 67.084l-37.54-22.092c-3.005-1.774-5.461-.34-5.461 3.184l-.263 97.578c0 3.524 2.433 7.801 5.438 9.575l37.54 22.092c3.005 1.774 5.461.34 5.461-3.184l.263-97.577c0-3.524-2.433-7.802-5.438-9.576zm-31.148-10.96c.048.024.12.072.167.096 2.695 1.677 4.841 5.542 4.841 8.725 0 3.184-2.17 4.497-4.865 3.014-.047-.024-.12-.073-.167-.097-2.766-1.628-5.008-5.59-5.008-8.822 0-3.257 2.242-4.545 5.032-2.917zm-.286 95.73c-2.767-1.628-5.008-5.59-5.008-8.822 0-3.257 2.265-4.545 5.032-2.916 2.766 1.628 5.008 5.589 5.008 8.822 0 3.232-2.242 4.544-5.032 2.916zm.072-20.998c-2.767-1.628-5.009-5.59-5.009-8.822 0-3.257 2.266-4.545 5.032-2.916 2.767 1.628 5.009 5.589 5.009 8.822 0 3.232-2.266 4.544-5.032 2.916zm.047-20.998c-2.766-1.628-5.008-5.59-5.008-8.822 0-3.257 2.265-4.545 5.032-2.917 2.767 1.629 5.008 5.59 5.008 8.823 0 3.232-2.241 4.544-5.032 2.916zm.072-20.998c-2.767-1.629-5.009-5.59-5.009-8.822 0-3.257 2.266-4.545 5.032-2.917 2.767 1.629 5.009 5.59 5.009 8.823-.024 3.232-2.266 4.544-5.032 2.916zm12.52 75.024c0 .219-.142.292-.333.195-.19-.098-.334-.365-.334-.584l.286-104.966c0-.218.143-.291.334-.194.19.097.334.364.334.583l-.286 104.966zm12.045 2.528c-2.767-1.629-5.008-5.59-5.008-8.822 0-3.257 2.265-4.545 5.032-2.917 2.766 1.629 5.008 5.59 5.008 8.822 0 3.233-2.266 4.545-5.032 2.917zm.071-20.998c-2.766-1.629-5.008-5.59-5.008-8.822 0-3.257 2.266-4.545 5.032-2.917 2.767 1.629 5.009 5.59 5.009 8.822-.024 3.233-2.266 4.545-5.033 2.917zm.048-20.998c-2.766-1.629-5.008-5.59-5.008-8.822 0-3.257 2.265-4.545 5.032-2.917 2.767 1.628 5.008 5.59 5.008 8.822 0 3.257-2.265 4.545-5.032 2.917zm.048-20.998c-2.767-1.629-5.009-5.59-5.009-8.823 0-3.256 2.266-4.544 5.033-2.916 2.766 1.628 5.008 5.59 5.008 8.822 0 3.257-2.242 4.545-5.032 2.917zm.071-20.999c-2.766-1.628-5.008-5.59-5.008-8.822 0-3.256 2.266-4.544 5.032-2.916 2.767 1.628 5.009 5.59 5.009 8.822 0 3.257-2.266 4.57-5.033 2.916z" fill="#fff"/><path d="M80.847 55.03c-.048-.025-.12-.074-.167-.098-1.431-.85-2.719-.9-3.625-.316-.096.049-.19.121-.263.194l-1.287.948.143 1.288.071-.048c-.047.267-.047.559-.071.85 0 3.257 2.218 7.194 5.008 8.823.048.024.12.072.167.097.239.121.453.243.692.316l-.072.048 1.145 1.118 1.86-1.36.024-.025c.787-.583 1.24-1.653 1.264-3.135-.047-3.16-2.194-7.024-4.889-8.7zm-4.484 3.523c-.143-.073-.238-.267-.238-.437 0-.17.119-.219.238-.146v.583zm4.247 17.352c-1.432-.85-2.743-.899-3.65-.291l-.023-.025-1.55 1.142.142 1.289.096-.073a5.278 5.278 0 00-.072.899c0 3.257 2.218 7.194 5.009 8.822.286.17.572.292.834.413l-.095.049 1.145 1.118 1.621-1.191c.93-.51 1.527-1.677 1.527-3.305.024-3.257-2.218-7.218-4.985-8.847zm-.049 20.999c-1.478-.875-2.814-.899-3.744-.243l-1.55 1.142.143 1.288.167-.121a4.99 4.99 0 00-.072.875c0 3.257 2.218 7.194 5.009 8.822.286.17.572.316.858.413l-.19.122 1.144 1.118 1.813-1.337c.858-.535 1.407-1.677 1.407-3.257.024-3.232-2.218-7.194-4.985-8.822zm-.071 20.998c-1.503-.875-2.839-.899-3.769-.218l-.024-.025-1.55 1.142.143 1.289.215-.146a5.48 5.48 0 00-.072.899c0 3.257 2.218 7.194 5.009 8.822.286.17.548.292.834.413l-.19.122 1.144 1.118 1.694-1.24c.977-.51 1.574-1.652 1.574-3.354 0-3.232-2.242-7.193-5.009-8.822zm-.048 20.998c-1.336-.802-2.552-.899-3.458-.413l-.024-.024-1.55 1.142.119 1.021c-.072.364-.12.753-.12 1.19 0 3.257 2.218 7.194 5.009 8.823a4.25 4.25 0 001.073.486l1.002.972 1.55-1.142.286-.219.024-.024c.692-.608 1.097-1.629 1.097-3.014 0-3.208-2.242-7.17-5.008-8.798zm24.947-57.672a4.76 4.76 0 001.503.607l.739.73 1.86-1.386v-.073c.573-.607.907-1.58.907-2.843 0-3.257-2.218-7.194-5.009-8.822-1.24-.73-2.361-.875-3.243-.51l-.048-.05-.239.17a3.52 3.52 0 00-.477.341l-.834.608.071.607a5.342 5.342 0 00-.262 1.726c.024 3.305 2.266 7.267 5.032 8.895zm-.024 9.235c-1.24-.729-2.385-.875-3.268-.51l-.047-.049-1.551 1.142.072.681c-.167.486-.238 1.045-.238 1.677 0 3.257 2.218 7.194 5.008 8.822.525.292 1.026.51 1.479.608l.739.729 1.383-1.021c.12-.073.215-.146.31-.243l.191-.122v-.024c.596-.607.93-1.58.93-2.868 0-3.232-2.242-7.17-5.008-8.822zm-.072 20.999c-1.288-.754-2.481-.875-3.387-.462l-.024-.025-.167.122c-.119.073-.238.17-.357.267l-1.002.754.095.826a5.395 5.395 0 00-.191 1.458c0 3.257 2.219 7.194 5.009 8.822.429.268.858.438 1.264.559l.882.875 1.861-1.385v-.024c.644-.608 1.025-1.604 1.025-2.941.024-3.257-2.218-7.218-5.008-8.846zm-.047 20.997c-1.312-.778-2.504-.875-3.387-.462l-.048-.024-1.55 1.142.096.9a6.075 6.075 0 00-.167 1.385c0 3.257 2.218 7.194 5.008 8.822.429.243.835.437 1.24.535l.883.875 1.407-1.045a2.04 2.04 0 00.453-.341c.644-.607 1.05-1.628 1.05-2.965.023-3.232-2.219-7.194-4.985-8.822zm-.072 20.999c-1.144-.681-2.194-.851-3.052-.584l-.096-.097-.429.316c-.119.073-.239.17-.358.267l-.739.559.048.414c-.263.559-.406 1.239-.406 2.041 0 3.257 2.218 7.194 5.009 8.822.643.389 1.264.608 1.836.681l.572.559 1.861-1.386-.024-.121c.477-.608.763-1.531.763-2.673.048-3.209-2.194-7.17-4.985-8.798z" fill="#C7D1F4"/><path d="M79.201 56.22c-.047-.025-.12-.074-.167-.098-2.766-1.628-5.032-.316-5.032 2.916 0 3.257 2.218 7.194 5.008 8.823.048.024.12.072.167.097 2.695 1.482 4.866.17 4.866-3.014 0-3.184-2.147-7.048-4.842-8.725zm3.96 8.505l-8.467-4.982c-.144-.073-.239-.267-.239-.437 0-.17.12-.219.239-.146l8.466 4.982c.143.073.239.267.239.438.024.17-.096.243-.239.145zM78.963 77.12c-2.766-1.628-5.032-.315-5.032 2.917 0 3.257 2.218 7.194 5.009 8.822 2.766 1.628 5.032.316 5.032-2.916 0-3.257-2.242-7.194-5.009-8.822zm4.15 8.604l-8.466-4.982c-.144-.073-.239-.268-.239-.438 0-.17.12-.219.239-.146l8.466 4.983c.143.072.239.267.239.437 0 .17-.096.243-.239.146zm-4.197 12.371c-2.767-1.629-5.032-.316-5.032 2.916 0 3.257 2.218 7.194 5.008 8.822 2.767 1.628 5.032.316 5.032-2.916 0-3.233-2.242-7.17-5.008-8.822zm4.126 8.627l-8.467-4.982c-.143-.073-.238-.267-.238-.437 0-.17.119-.219.238-.146l8.467 4.982c.143.073.238.267.238.438.024.17-.095.218-.238.145zm-4.198 12.371c-2.767-1.628-5.032-.316-5.032 2.917 0 3.256 2.218 7.193 5.008 8.822 2.767 1.628 5.032.316 5.032-2.917 0-3.232-2.242-7.169-5.008-8.822zm4.15 8.628l-8.467-4.982c-.143-.073-.239-.268-.239-.438 0-.17.12-.219.239-.146l8.467 4.983c.143.072.238.267.238.437.024.17-.095.219-.238.146zm-4.198 12.369c-2.766-1.628-5.032-.316-5.032 2.917 0 3.256 2.218 7.193 5.008 8.822 2.767 1.628 5.033.316 5.033-2.917 0-3.232-2.242-7.169-5.009-8.822zm4.15 8.628l-8.467-4.982c-.143-.073-.238-.268-.238-.438 0-.17.12-.218.238-.146l8.467 4.983c.143.073.239.267.239.437 0 .17-.12.219-.239.146zm20.821-78.038c-2.767-1.628-5.032-.316-5.032 2.916 0 3.257 2.218 7.194 5.008 8.823 2.767 1.628 5.032.316 5.032-2.917 0-3.232-2.218-7.194-5.008-8.822zm4.293 8.7l-8.467-4.98c-.143-.073-.238-.268-.238-.438 0-.17.119-.219.262-.146l8.467 4.982c.143.073.238.268.238.438-.024.146-.119.219-.262.146zm-4.341 12.299c-2.766-1.629-5.032-.316-5.032 2.916 0 3.257 2.218 7.194 5.008 8.822 2.767 1.628 5.033.316 5.033-2.916 0-3.257-2.242-7.194-5.009-8.822zm4.269 8.7l-8.466-4.982c-.143-.073-.239-.267-.239-.437 0-.17.12-.22.263-.146l8.466 4.982c.143.073.239.267.239.437 0 .146-.119.219-.263.146zm-4.341 12.298c-2.766-1.628-5.032-.316-5.032 2.917 0 3.256 2.218 7.193 5.008 8.822 2.767 1.628 5.033.316 5.033-2.917.024-3.256-2.218-7.194-5.009-8.822zm4.293 8.701l-8.466-4.982c-.144-.073-.239-.268-.239-.438 0-.17.12-.219.262-.146l8.467 4.982c.143.073.239.268.239.438-.024.146-.12.219-.263.146zm-4.34 12.296c-2.767-1.628-5.033-.316-5.033 2.917 0 3.256 2.218 7.193 5.009 8.822 2.766 1.628 5.032.316 5.032-2.917 0-3.256-2.242-7.193-5.008-8.822zm4.293 8.701l-8.467-4.982c-.143-.073-.239-.268-.239-.438 0-.17.12-.219.263-.146l8.467 4.983c.143.072.238.267.238.437-.024.146-.143.219-.262.146zm-4.341 12.298c-2.767-1.628-5.032-.316-5.032 2.917 0 3.256 2.218 7.193 5.008 8.822 2.767 1.628 5.032.316 5.032-2.917 0-3.256-2.241-7.193-5.008-8.822zm4.269 8.677l-8.466-4.983c-.144-.073-.239-.267-.239-.437 0-.17.12-.219.262-.146l8.467 4.982c.143.073.238.268.238.438 0 .17-.119.243-.262.146zM91.413 58.334c-.191-.097-.334-.024-.334.195l-.286 104.966c0 .219.143.486.334.583.19.097.334.024.334-.194l.286-104.966c0-.22-.143-.486-.334-.584z" fill="#E0E5F4"/><path d="M83.161 64.142l-8.466-4.982c-.143-.073-.239-.024-.239.146 0 .17.12.364.239.437l8.466 4.982c.143.073.263.025.263-.146 0-.145-.12-.364-.263-.437zm-.047 20.998l-8.467-4.982c-.143-.073-.239-.024-.239.146 0 .17.12.365.239.438l8.467 4.982c.143.073.262.024.262-.146-.024-.146-.12-.365-.262-.438zm-.048 20.999l-8.467-4.982c-.143-.073-.238-.024-.238.146 0 .17.12.364.238.437l8.467 4.982c.143.073.262.025.262-.146-.024-.17-.143-.364-.262-.437zm-.072 20.997l-8.467-4.982c-.143-.073-.238-.024-.238.146 0 .17.12.364.238.437l8.467 4.982c.143.073.262.025.262-.145a.534.534 0 00-.262-.438zm-.048 20.999l-8.466-4.982c-.143-.073-.239-.024-.239.146 0 .17.12.364.239.437l8.466 4.982c.143.073.263.025.263-.145-.024-.171-.143-.365-.263-.438zm25.113-69.337l-8.466-4.983c-.143-.072-.263-.024-.263.146 0 .17.12.365.239.438l8.467 4.982c.143.073.238.024.238-.146a.447.447 0 00-.215-.437zm-.047 20.997l-8.467-4.982c-.143-.073-.262-.024-.262.146 0 .17.119.364.238.437l8.467 4.983c.143.072.238.024.238-.146.024-.17-.095-.365-.214-.438zm-.071 20.998l-8.467-4.982c-.143-.073-.262-.024-.262.146 0 .17.12.365.238.437l8.467 4.983c.143.073.239.024.239-.146.023-.17-.072-.365-.215-.438zm-.048 20.975l-8.466-4.982c-.144-.073-.263-.025-.263.146 0 .17.12.364.239.437l8.466 4.982c.144.073.239.024.239-.146.024-.145-.095-.34-.215-.437zm-.072 20.997l-8.466-4.982c-.144-.073-.263-.024-.263.146 0 .17.12.364.239.437l8.466 4.982c.144.073.239.025.239-.146.048-.145-.072-.34-.215-.437z" fill="#fff"/><path d="M132.196 61.785L110.23 75.079l-.238 107.396 22.514-13.27-.31-107.42z" fill="#C7D1F4"/><path d="M110.111 75.03L56.33 43.581l.047 107.591 53.615 31.425.238-107.543-.119-.024z" fill="#E0E5F4"/><path d="M112.448 74.4v-.657l-2.218 1.337-.238 107.396 2.456-1.458V81.204l8.777 12.59 10.876-7.437V61.762L112.448 74.4z" fill="#BBC5E6"/><path d="M110.23 75.079l21.966-13.294 2.981 16.332-14.739 8.53-10.208-11.568z" fill="#E0E5F4"/><path d="M60.433 148.111l10.899 6.149.19-61.974-10.899-6.173-.19 61.998zm19.222 10.863l1.765.997.095-33.077-1.765-1.021-.095 33.101zm18.078-85.207l-.024 10.256 9.111 5.152.024-10.256-9.11-5.152z" fill="#009BA6"/><path d="M24.584 185.055c.01-3.517-4.809-6.382-10.763-6.399-5.953-.017-10.788 2.82-10.797 6.336-.01 3.517 4.808 6.382 10.762 6.399 5.954.017 10.788-2.82 10.798-6.336z" fill="#E0E5F4"/><path d="M21.596 185.048c.01-3.516-4.81-6.381-10.763-6.398-5.954-.017-10.788 2.82-10.798 6.336-.01 3.517 4.809 6.382 10.763 6.399 5.953.017 10.788-2.82 10.798-6.337z" fill="#88A4F7"/><path d="M.01 182.235v2.795l21.584.146v-2.771l-21.584-.17z" fill="#88A4F7"/><path d="M21.579 182.27c.01-3.516-4.809-6.381-10.762-6.398-5.954-.017-10.788 2.821-10.798 6.337-.01 3.517 4.808 6.381 10.762 6.398 5.953.017 10.788-2.82 10.798-6.337z" fill="#C7D1F4"/><path d="M3.54 185.687a.37.37 0 01-.31-.195c-.096-.17-.025-.388.142-.461l13.332-7.121a.319.319 0 01.453.146.33.33 0 01-.143.461l-13.332 7.121a.326.326 0 01-.143.049z" fill="#fff"/><path d="M46.062 166.163c.01-3.517-4.809-6.381-10.762-6.399-5.954-.017-10.788 2.82-10.798 6.337-.01 3.516 4.809 6.381 10.762 6.398 5.954.018 10.788-2.819 10.798-6.336z" fill="#E0E5F4"/><path d="M43.074 166.157c.01-3.517-4.809-6.382-10.763-6.399-5.953-.017-10.788 2.82-10.797 6.337-.01 3.516 4.808 6.381 10.762 6.398 5.954.017 10.788-2.82 10.798-6.336z" fill="#88A4F7"/><path d="M21.49 163.344v2.794l21.584.146v-2.77l-21.584-.17z" fill="#88A4F7"/><path d="M43.057 163.377c.01-3.516-4.808-6.381-10.762-6.398-5.954-.016-10.788 2.821-10.798 6.337-.01 3.517 4.808 6.381 10.762 6.398 5.953.017 10.788-2.82 10.798-6.337z" fill="#C7D1F4"/><path d="M25.019 166.795a.372.372 0 01-.31-.194c-.096-.17-.024-.389.143-.462l13.332-7.121a.32.32 0 01.453.146c.095.17.024.389-.143.462l-13.332 7.121c-.048.024-.095.048-.143.048z" fill="#fff"/><path d="M49.67 199.969c5.953-.017 10.772-2.882 10.762-6.398-.01-3.517-4.844-6.354-10.798-6.337-5.953.018-10.772 2.882-10.762 6.399.01 3.517 4.844 6.354 10.798 6.336z" fill="#E0E5F4"/><path d="M46.45 199.97c5.954-.017 10.772-2.881 10.762-6.398-.01-3.517-4.844-6.354-10.798-6.337-5.954.017-10.772 2.881-10.762 6.398.01 3.517 4.845 6.354 10.798 6.337z" fill="#88A4F7"/><path d="M57.212 190.806v2.795l-21.56.145v-2.77l21.56-.17z" fill="#88A4F7"/><path d="M46.45 197.175c5.954-.017 10.772-2.882 10.762-6.398-.01-3.517-4.844-6.354-10.798-6.337-5.954.017-10.772 2.881-10.762 6.398.01 3.516 4.844 6.353 10.798 6.337z" fill="#C7D1F4"/><path d="M53.705 194.257a.37.37 0 00.31-.194c.096-.17.024-.389-.143-.462L40.54 186.48a.32.32 0 00-.453.146c-.095.17-.024.389.143.462l13.332 7.121c.048.024.096.048.143.048z" fill="#fff"/></svg>