<svg width="42" height="42" fill="none" xmlns="http://www.w3.org/2000/svg"><path d="M11.968 21H3.58A2.588 2.588 0 011 18.42V3.58A2.588 2.588 0 013.58 1h14.84A2.588 2.588 0 0121 3.58v9.678" stroke="#925ADD" stroke-width="1.5" stroke-miterlimit="10" stroke-linecap="round" stroke-linejoin="round"/><path d="M5.516 4.871h-.645v3.871c0 1.42 1.161 3.226 2.58 3.226 1.42 0 2.581-1.807 2.581-3.226v-3.87h-.645" stroke="#925ADD" stroke-width="1.5" stroke-miterlimit="10" stroke-linecap="round" stroke-linejoin="round"/><path d="M7.452 11.968v1.29a3.862 3.862 0 003.87 3.871 3.862 3.862 0 003.872-3.871v-1.935" stroke="#925ADD" stroke-width="1.5" stroke-miterlimit="10" stroke-linecap="round" stroke-linejoin="round"/><path d="M15.194 11.323a1.935 1.935 0 100-3.871 1.935 1.935 0 000 3.87zM21 3.58A2.588 2.588 0 0123.58 1h14.84A2.588 2.588 0 0141 3.58v15.484" stroke="#925ADD" stroke-width="1.5" stroke-miterlimit="10" stroke-linecap="round" stroke-linejoin="round"/><path d="M25.516 4.871h-.645v3.871c0 1.42 1.161 3.226 2.58 3.226 1.42 0 2.581-1.807 2.581-3.226v-3.87h-.645" stroke="#925ADD" stroke-width="1.5" stroke-miterlimit="10" stroke-linecap="round" stroke-linejoin="round"/><path d="M27.452 11.968v1.29a3.862 3.862 0 003.87 3.871 3.862 3.862 0 003.872-3.871v-1.935" stroke="#925ADD" stroke-width="1.5" stroke-miterlimit="10" stroke-linecap="round" stroke-linejoin="round"/><path d="M35.194 11.323a1.935 1.935 0 100-3.871 1.935 1.935 0 000 3.87zM19.064 41H3.581A2.588 2.588 0 011 38.42V23.58A2.588 2.588 0 013.58 21" stroke="#925ADD" stroke-width="1.5" stroke-miterlimit="10" stroke-linecap="round" stroke-linejoin="round"/><path d="M5.516 24.871h-.645v3.871c0 1.42 1.161 3.226 2.58 3.226 1.42 0 2.581-1.807 2.581-3.226v-3.87h-.645" stroke="#925ADD" stroke-width="1.5" stroke-miterlimit="10" stroke-linecap="round" stroke-linejoin="round"/><path d="M7.452 31.968v1.29a3.862 3.862 0 003.87 3.871 3.862 3.862 0 003.872-3.871v-1.936" stroke="#925ADD" stroke-width="1.5" stroke-miterlimit="10" stroke-linecap="round" stroke-linejoin="round"/><path d="M15.194 31.323a1.941 1.941 0 01-1.936-1.936c0-1.064.871-1.935 1.936-1.935M31.323 41l-4.194-1.242c-.193-.048-.37-.129-.548-.21-1.71-.887-3.178-2.322-4.242-3.903l-2.71-4.08c-.548-.84-.935-1.581-.064-2.162.87-.58 3.16-.048 3.725.79l1.984 3-8.451-12.774c-.549-.838-.29-2 .58-2.58.871-.581 2.049-.371 2.597.467L25.08 26l-.854-1.306c-.549-.84-.29-2 .58-2.581.871-.58 2.049-.371 2.597.468l1.274 1.935-.467-.71c-.549-.838-.29-2 .58-2.58.871-.58 2.049-.371 2.597.468l1.307 1.983-.5-.758c-.549-.838-.29-2 .58-2.58.871-.581 2.049-.371 2.597.467l2.823 4.275C39.645 27.258 40.5 29.645 41 32.21" stroke="#925ADD" stroke-width="1.5" stroke-miterlimit="10" stroke-linecap="round" stroke-linejoin="round"/></svg>