<svg width="24" height="24" fill="none" xmlns="http://www.w3.org/2000/svg"><path d="M.817 3.28C1.1 1.372 2.754-.002 4.682-.002h14.536c1.911 0 3.555 1.35 3.858 3.237.409 2.537.892 6.075.922 8.763.03 2.654-.364 6.144-.712 8.676C23.02 22.601 21.359 24 19.415 24H4.682c-1.928 0-3.58-1.374-3.865-3.28C.439 18.184 0 14.67 0 11.999c0-2.671.439-6.185.817-8.72z" fill="url(#paint0_linear_301_532)"/><path d="M19.635 6.985c-.104.221-.297.502-.58.84a4.285 4.285 0 01-1.049.893c.012.094.02.181.026.263.045 1.258-.253 2.564-.667 3.652-.802 2.022-2.031 3.65-3.787 4.755-1.83 1.06-3.962 1.286-5.927 1.094-1.304-.151-2.59-.582-3.561-1.392 1.778.215 3.437-.397 4.748-1.384-1.457.037-2.515-1.028-3.015-2.259.225.06.46.053.676.035a6.16 6.16 0 00.762-.105c-.929-.303-1.742-.86-2.166-1.699a3.694 3.694 0 01-.364-1.611c.435.232.96.457 1.439.438-.725-.62-1.305-1.412-1.413-2.32-.068-.758.12-1.45.39-2.094 1.083 1.203 2.298 2.193 3.7 2.803.959.396 1.915.608 2.903.612-.114-.892-.025-1.754.39-2.486.489-.787 1.202-1.244 2.002-1.472a2.936 2.936 0 012.963.929c.758-.083 1.484-.423 2.062-.77-.245.75-.723 1.498-1.42 1.855a8.917 8.917 0 001.888-.577z" fill="#fff"/><defs><linearGradient id="paint0_linear_301_532" x1="4.508" y1="-.001" x2="9.609" y2="25.895" gradientUnits="userSpaceOnUse"><stop stop-color="#79CBEB"/><stop offset="1" stop-color="#2C64F5"/></linearGradient></defs></svg>