<svg width="24" height="24" fill="none" xmlns="http://www.w3.org/2000/svg"><path d="M.817 3.28C1.1 1.372 2.754-.002 4.682-.002h14.536c1.911 0 3.555 1.35 3.858 3.237.409 2.537.892 6.075.922 8.763.03 2.654-.364 6.144-.712 8.676C23.02 22.601 21.359 24 19.415 24H4.682c-1.928 0-3.58-1.374-3.865-3.28C.439 18.184 0 14.67 0 11.999c0-2.671.439-6.185.817-8.72z" fill="url(#paint0_linear_301_538)"/><path fill-rule="evenodd" clip-rule="evenodd" d="M11.878 15.769h.793s.239-.04.358-.161c.119-.122.119-.364.119-.364s0-1.05.476-1.21c.476-.162 1.111 1.049 1.746 1.493.476.363.833.282.833.282l1.747-.04s.912-.04.476-.807c-.04-.04-.238-.525-1.31-1.534-1.111-1.05-.952-.848.357-2.664.794-1.09 1.111-1.736 1.032-2.059-.08-.282-.674-.201-.674-.201h-1.985s-.159-.04-.238.04c-.119.08-.159.202-.159.202s-.317.847-.714 1.574c-.873 1.493-1.23 1.574-1.35 1.493-.317-.201-.237-.888-.237-1.332 0-1.453.238-2.058-.437-2.22-.198-.04-.357-.08-.913-.08-.714 0-1.31 0-1.627.161-.238.121-.397.363-.278.363.12 0 .437.081.596.283.159.363.159.969.159.969s.119 1.735-.278 1.937c-.278.162-.635-.161-1.429-1.534-.397-.686-.714-1.493-.714-1.493s-.04-.162-.16-.242c-.118-.081-.317-.121-.317-.121H5.885s-.278 0-.397.12c-.079.122 0 .324 0 .324s1.469 3.47 3.136 5.247c1.547 1.695 3.254 1.574 3.254 1.574z" fill="#fff"/><defs><linearGradient id="paint0_linear_301_538" x1="4.508" y1="-.001" x2="9.609" y2="25.895" gradientUnits="userSpaceOnUse"><stop stop-color="#79CBEB"/><stop offset="1" stop-color="#2C64F5"/></linearGradient></defs></svg>