<svg id="Icons" viewBox="0 0 215 215" version="1.1" xmlns="http://www.w3.org/2000/svg"><defs id="defs9"><linearGradient id="Безымянный_градиент_2" y1="107.5" x2="215" y2="107.5" gradientUnits="userSpaceOnUse"><stop offset="0" stop-color="#2aabee" id="stop4"/><stop offset="1" stop-color="#229ed9" id="stop6"/></linearGradient><style id="style2"/></defs><g id="Telegram"><circle id="Background" cx="107.5" cy="107.5" r="107.5" fill="#000" fill-opacity=".165"/><g id="g38" transform="translate(-20.623 7.415) scale(1.33461)"><path fill="#4285f4" d="M58 108h14V74L52 59v43c0 3.32 2.69 6 6 6" id="path17"/><path fill="#34a853" d="M120 108h14c3.32 0 6-2.69 6-6V59l-20 15" id="path19"/><path fill="#fbbc04" d="M120 48v26l20-15v-8c0-7.42-8.47-11.65-14.4-7.2" id="path21"/><path fill="#ea4335" d="M72 74V48l24 18 24-18v26L96 92" id="path23"/><path fill="#c5221f" d="M52 51v8l20 15V48l-5.6-4.2C60.46 39.35 52 43.58 52 51" id="path25"/></g></g></svg>