<svg id="Icons" xmlns="http://www.w3.org/2000/svg" viewBox="0 0 215 215"><g id="Mail.ru"><circle id="Background" cx="107.5" cy="107.5" r="107.5" fill="#fc2c38"/><path id="Mail.ru-2" data-name="Mail.ru" d="M719.58 384.58c0 19.76-9.25 29-20.87 29a18.86 18.86 0 01-16-8.83 28.83 28.83 0 118.29-20.17V394c0 4.77 3.36 8.13 7.71 8.13 5.18 0 9.38-4.35 9.38-17.52a46.2 46.2 0 10-21.29 38.67l7.56 8.69a56.92 56.92 0 01-32.36 9.92 57.45 57.45 0 1157.58-57.31zm-57.44 17.52a17.52 17.52 0 10-17.52-17.52 17.52 17.52 0 0017.52 17.52z" transform="translate(-554 -277)" fill="#fff"/></g></svg>