<svg width="180" height="180" fill="none" xmlns="http://www.w3.org/2000/svg"><g clip-path="url(#clip0)"><rect width="180" height="180" rx="90" fill="#fff"/><path fill-rule="evenodd" clip-rule="evenodd" d="M128.815 158.436c10.157 12.723 25.411 23.091 27.602 39.263 2.229 16.456-.899 39.063-15.952 46.747-18.264 9.323-40.746-16.72-59.427-8.27-15.722 7.111-5.716 41.245-22.46 45.309-14.656 3.558-17.047-23.748-28.747-32.879-9.36-7.306-27.142-3.744-32.01-14.541-5.016-11.125 10.89-22.867 9.652-35.047-1.482-14.591-20.35-25.103-17.229-39.52 2.902-13.403 17.953-22.996 31.441-26.123 13.132-3.046 24.709 10.888 38.128 9.99 14.764-.987 26.654-18.424 41.033-15.283 13.814 3.017 19.241 19.42 27.969 30.354z" fill="#1C3C89"/></g><defs><clipPath id="clip0"><rect width="180" height="180" rx="90" fill="#fff"/></clipPath></defs></svg>