<svg width="100" height="100" fill="none" xmlns="http://www.w3.org/2000/svg"><path d="M81.69 48.653l-2.54-20.636-4.76.586.002-.003-9.228-5.194a5.562 5.562 0 00-3.239-.69l-14.571 1.347a5.56 5.56 0 00-4.296 2.743l-10.27 17.678a2.443 2.443 0 001.249 3.512l.42.159a9.113 9.113 0 002.47.551l-1.302 1.133-2.604 2.269-7.404 6.316a3.164 3.164 0 00-.307 4.465l.75.86a4.066 4.066 0 005.736.392l2.83 3.246a4.06 4.06 0 005.735.391l2.827 3.246a4.06 4.06 0 003.567 1.365 4.04 4.04 0 002.172-.97l1.536 1.328a4.068 4.068 0 005.739.394l2.088-1.822 17.558-13.675.02-.017 6.927-.007-1.104-8.967z" fill="#F29F5C"/><path d="M74.166 52.31l-.019.018-17.558 13.674-2.088 1.823a4.068 4.068 0 01-5.739-.395l-1.536-1.327a4.039 4.039 0 01-2.172.97 4.061 4.061 0 01-3.567-1.365l-2.827-3.246a4.059 4.059 0 01-5.735-.392l-2.83-3.246a4.065 4.065 0 01-5.035.24 3.162 3.162 0 00.25 3.825l.751.86a4.066 4.066 0 005.736.392l2.83 3.246a4.06 4.06 0 005.735.391l2.827 3.247a4.06 4.06 0 003.566 1.364 4.04 4.04 0 002.172-.97l1.537 1.328a4.068 4.068 0 005.739.394l2.088-1.822 17.558-13.674.019-.018 6.927-.007-.766-6.225-7.863.916z" fill="#D37D42"/><path d="M77.363 61.237l-9.407-8.112-2.616-2.254-1.872-1.612-8.048-6.937.93-7.912a5.46 5.46 0 00-3.968-5.9L34.84 23.656a4.06 4.06 0 00-4.697 2.062l-2.206 4.306-9.47-.643-2.426 20.65-1.054 8.973 9.218.613.02.018 19.257 16.6 2.099 1.81a4.068 4.068 0 005.736-.426l2.809-3.259a4.04 4.04 0 002.178.958 4.06 4.06 0 003.558-1.384l2.81-3.262a4.059 4.059 0 005.733-.423l2.811-3.262a4.066 4.066 0 005.733-.423l.747-.865a3.163 3.163 0 00-.332-4.462z" fill="#F9C295"/><path d="M77.363 61.237l-2.865-2.471a3.358 3.358 0 01-.14 4.212l-.791.917a4.316 4.316 0 01-6.086.45l-2.986 3.462a4.31 4.31 0 01-6.086.45l-2.981 3.463a4.31 4.31 0 01-3.778 1.469 4.286 4.286 0 01-2.312-1.017l-2.982 3.46a4.287 4.287 0 01-2.045 1.318l1.27 1.095a4.068 4.068 0 005.735-.426l2.809-3.259a4.04 4.04 0 002.178.958 4.06 4.06 0 003.558-1.384l2.81-3.261a4.059 4.059 0 005.733-.423l2.811-3.263a4.066 4.066 0 005.733-.423l.747-.865a3.164 3.164 0 00-.332-4.462z" fill="#E59F6A"/><path d="M72.168 65.901l-5.155-4.444a1.465 1.465 0 00-1.913 2.219l5.145 4.436.97-1.125c.387.334.82.577 1.274.74a1.466 1.466 0 00-.321-1.826zm-8.242 5.51a1.464 1.464 0 00-.305-1.851l-4.63-3.993a1.465 1.465 0 00-1.913 2.22l4.63 3.992.006.004.956-1.11c.382.329.808.574 1.256.738z" fill="#E59F6A"/><path d="M24.684 59.596L23.57 61.07a3.644 3.644 0 005.81 4.4l1.116-1.473a3.644 3.644 0 00-5.81-4.4z" fill="#F29F5C"/><path d="M31.48 62.695l-2.1 2.775a3.645 3.645 0 005.81 4.4l2.101-2.774a3.644 3.644 0 00-5.81-4.4z" fill="#F29F5C"/><path d="M38.053 66.089l-2.863 3.782a3.644 3.644 0 005.81 4.4l2.864-3.782a3.644 3.644 0 00-5.81-4.4z" fill="#F29F5C"/><path d="M44.03 70.27l-3.03 4a3.644 3.644 0 005.81 4.401l3.03-4a3.644 3.644 0 00-5.81-4.401zM74.392 28.6l-9.228-5.194a5.561 5.561 0 00-3.239-.69l-14.571 1.347a5.56 5.56 0 00-4.296 2.743l-10.27 17.678a2.443 2.443 0 001.25 3.512l.42.159a9.132 9.132 0 0010.467-2.979l3.935-5.121s9.459 10.952 19.873-1.838" fill="#F29F5C"/><path d="M99.989 60.38l-4.827-39.21a1.465 1.465 0 00-1.633-1.274l-11.286 1.39a5.362 5.362 0 00-4.662 5.97l3.876 31.484a5.364 5.364 0 005.97 4.662l11.287-1.39a1.465 1.465 0 001.275-1.632z" fill="#3791AE"/><path d="M99.989 60.38l-.53-4.304a1.53 1.53 0 01-1.08.66l-11.832 1.457a5.629 5.629 0 01-5.486-2.66l.395 3.207a5.364 5.364 0 005.971 4.662l11.287-1.39a1.465 1.465 0 001.275-1.632z" fill="#36697C"/><path d="M17.757 21.285l-11.286-1.39a1.464 1.464 0 00-1.633 1.275L.01 60.38a1.465 1.465 0 001.275 1.632l11.287 1.39a5.365 5.365 0 005.97-4.662l3.876-31.484a5.362 5.362 0 00-4.662-5.971z" fill="#ED5575"/><path d="M.011 60.38l.53-4.304c.24.352.624.604 1.08.66l11.832 1.457a5.63 5.63 0 005.486-2.66l-.395 3.207a5.364 5.364 0 01-5.971 4.662l-11.287-1.39A1.465 1.465 0 01.011 60.38z" fill="#CC3A60"/><path d="M90.625 56.933a2.832 2.832 0 100-5.663 2.832 2.832 0 000 5.663zm-81.408 0a2.832 2.832 0 100-5.663 2.832 2.832 0 000 5.663z" fill="#EBEEF2"/></svg>