<svg width="96" height="32" fill="none" xmlns="http://www.w3.org/2000/svg"><g clip-path="url(#clip0_5001_575)"><mask id="mask0_5001_575" style="mask-type:luminance" maskUnits="userSpaceOnUse" x="-1211" y="-733" width="2229" height="1590"><path d="M1017.07-732.303h-2227.5V856.349h2227.5V-732.303z" fill="#fff"/></mask><g mask="url(#mask0_5001_575)" fill-rule="evenodd" clip-rule="evenodd" fill="#EE131B"><path d="M57.057 7.285H67.63v24.586H57.057V7.285zm-50.63 0h10.569l6.436 24.586H12.857L6.428 7.285zm25.651-.349h5.688l6.481 24.935h-8.036l-5.333-20.514 1.2-4.42zm10.196 0h5.688l6.482 24.935h-8.036l-5.333-20.514 1.2-4.42zM5.132 12.843l2.379 8.814 2.754 10.214H.155L5.13 12.843zm24.582 2.959l2.008 7.445 2.328 8.624h-8.539l4.203-16.07zm40.199-8.517c4.168 0 7.543 2.748 7.543 6.147 0 3.4-3.375 6.148-7.543 6.148h-.092V7.284h.092v.001z"/><path d="M69.913 31.87c4.168 0 7.543-2.748 7.543-6.147 0-3.4-3.375-6.147-7.543-6.147h-.092v12.295h.092zM82.671.24c1.81 0 3.274 1.497 3.274 3.343 0 1.856-1.464 3.353-3.274 3.353s-3.274-1.497-3.274-3.353c0-1.846 1.464-3.343 3.274-3.343zm0 .42c1.581 0 2.862 1.308 2.862 2.923 0 1.62-1.281 2.927-2.862 2.927-1.581 0-2.862-1.307-2.862-2.927 0-1.615 1.281-2.923 2.862-2.923z"/><path d="M81.848 3.46h.737c.701.031 1.057-.2 1.057-.681 0-.462-.325-.693-.975-.693h-.819V3.46zm0 .313v1.83h-.34V1.758h1.24c.366 0 .655.067.874.205.26.164.386.436.386.816-.01.415-.249.681-.711.81v.02c.366.052.58.338.63.851 0 .108.01.252.02.421.03.384.08.626.163.723h-.387c-.066-.164-.106-.426-.122-.79-.035-.472-.106-.758-.203-.856-.081-.123-.285-.185-.61-.185h-.94z"/></g></g><defs><clipPath id="clip0_5001_575"><path fill="#fff" d="M0 0h96v32H0z"/></clipPath></defs></svg>