<svg width="21" height="20" fill="none" xmlns="http://www.w3.org/2000/svg"><path d="M2.417 14.1v2.5a1.667 1.667 0 001.816 1.667 16.492 16.492 0 007.192-2.559 16.248 16.248 0 005-5 16.49 16.49 0 002.558-7.225 1.665 1.665 0 00-1.658-1.816h-2.5A1.667 1.667 0 0013.158 3.1a10.7 10.7 0 01-.583 2.342A1.666 1.666 0 0012.95 7.2l1.058 1.058a13.333 13.333 0 01-5 5L7.95 12.2a1.667 1.667 0 00-1.758-.375 10.7 10.7 0 01-2.342.583A1.667 1.667 0 002.417 14.1z" stroke="#2B2B2B" stroke-width="1.667" stroke-linecap="round" stroke-linejoin="round"/></svg>