<svg width="13" height="13" fill="none" xmlns="http://www.w3.org/2000/svg"><path d="M10.756 2.237A6.257 6.257 0 006.322.4C2.854.4.044 3.2.044 6.656a6.32 6.32 0 00.834 3.106L0 13l3.337-.875a6.418 6.418 0 002.985.744c3.468 0 6.278-2.8 6.278-6.257-.044-1.618-.659-3.193-1.844-4.375zm-1.405 6.65c-.131.35-.746.7-1.053.744a2.462 2.462 0 01-.966-.044c-.22-.087-.527-.175-.878-.35-1.58-.656-2.59-2.23-2.678-2.362-.088-.088-.659-.831-.659-1.619 0-.787.395-1.137.527-1.312.132-.175.307-.175.439-.175h.307c.088 0 .22-.044.351.262.132.306.44 1.094.483 1.138a.278.278 0 010 .262.915.915 0 01-.175.263c-.088.087-.176.218-.22.262-.088.088-.175.175-.088.306.088.175.396.657.879 1.094.614.525 1.097.7 1.273.788.175.087.263.043.35-.044.089-.088.396-.438.484-.613.088-.175.22-.13.351-.087.132.044.922.437 1.054.525.175.087.263.131.307.175.044.131.044.437-.088.787z" fill="#fff"/></svg>