<svg width="117" height="30" fill="none" xmlns="http://www.w3.org/2000/svg"><path d="M117 29.527c0 .04-.039.08-.039.119-.039.236-.156.315-.351.354h-4.831c-1.363-.04-2.532-.551-3.545-1.496-.507-.473-.896-1.024-1.325-1.614l-6.896-9.685c-.039-.04-.039-.08-.078-.118-.117-.04-.234-.119-.311-.08-.078.04-.156.158-.234.276-.04.04 0 .158 0 .197v11.811c0 .63-.078.709-.702.709H90c-.623 0-.701-.079-.701-.709V.63c.039-.315.156-.433.428-.473h.04c1.753 0 3.506 0 5.26.04.74 0 1.402.354 2.025.748 1.091.708 1.987 1.614 2.766 2.638 2.182 2.952 4.325 5.905 6.507 8.897.039.04.078.118.117.158.078.04.233.118.311.118.078-.04.156-.158.234-.276.039-.04 0-.157 0-.197V.787c.039-.433-.078-.59.507-.708h8.22c.039 0 .078.039.117.039h.663c.233 0 .35.118.389.354 0 .04.039.08.039.118.078 9.607.078 19.292.078 28.938zM86.103.04c.585.236.74.432.74 1.102v18.307c0 1.693-.233 3.346-.857 4.96-.779 1.969-2.026 3.544-3.896 4.528a8.069 8.069 0 01-3.818.945H61.324c-.935 0-1.636-.63-1.831-1.496a3.478 3.478 0 01-.078-.63V.984c0-.55.195-.787.74-.984h8.299c.234.079.468.118.584.354.078.197.156.433.156.63V20.08c0 .63.195.826.818.826h5.143c.701-.039 1.247-.393 1.559-1.062.234-.473.311-.945.35-1.457.04-.906.04-1.811.04-2.677V1.063c0-.67.155-.866.74-1.063 2.727.04 5.493.04 8.26.04zM9.662.04c.429.117.429.157.429.63v9.212c0 .433.078.512.506.512h16.598c.233.039.35.157.39.393v18.74c-.04.276-.157.394-.43.394h-8.843c-.468 0-.546-.078-.546-.55v-9.646c0-.394-.078-.473-.467-.473h-6.78c-.39 0-.467.079-.467.472v9.764c-.039.276-.156.394-.39.394h-9c-.428 0-.506-.079-.584-.473-.039-.118-.039-.196-.078-.314C.039 19.527.039 9.92.039.314.117.157.312.079.468.039h9.194z" fill="#fff"/><path d="M117 .551c0-.04-.039-.079-.039-.118-.039-.236-.156-.354-.39-.354h-.662c-.039 0-.078-.04-.117-.04H117v.512zM42.584 29.882H30.43c-.312 0-.43-.158-.468-.473v-7.874c.039-.275.156-.393.39-.433H43.52c.156 0 .312.04.351-.157.078-.197 0-.355-.117-.512-2.844-2.559-5.65-5.079-8.493-7.638a380.2 380.2 0 01-4.052-3.661c-.312-.276-.546-.59-.78-.906-.311-.433-.428-.905-.428-1.456V2.598c0-1.417.857-2.401 2.26-2.52.233-.039.467-.039.7-.039h23.845c.273.04.39.158.429.433V7.44c0 .67-.078.749-.74.749H43.947c-.273 0-.429.079-.39.276a.59.59 0 00.156.354l2.805 2.598c2.689 2.48 5.338 4.921 8.026 7.402.702.67 1.325 1.378 1.987 2.087.156.196.312.393.429.59.156.236.234.512.234.827v4.41c0 .432 0 .865-.156 1.299-.35 1.18-1.325 1.89-2.65 1.89-3.935-.04-7.87-.04-11.805-.04z" fill="#fff"/><path d="M22.715 8.11h-4.559c-.234-.04-.311-.118-.39-.315V.512c.04-.158.118-.276.312-.315.078 0 .156-.04.234-.04h8.766c.39 0 .546.119.546.552v6.85c0 .433-.117.551-.546.551h-4.363z" fill="red"/></svg>