<?xml version="1.0" encoding="UTF-8" standalone="no"?>
<svg
   xmlns:dc="http://purl.org/dc/elements/1.1/"
   xmlns:cc="http://creativecommons.org/ns#"
   xmlns:rdf="http://www.w3.org/1999/02/22-rdf-syntax-ns#"
   xmlns:svg="http://www.w3.org/2000/svg"
   xmlns="http://www.w3.org/2000/svg"
   xmlns:sodipodi="http://sodipodi.sourceforge.net/DTD/sodipodi-0.dtd"
   xmlns:inkscape="http://www.inkscape.org/namespaces/inkscape"
   width="30.167"
   height="31"
   viewBox="0 0 30.167 31"
   fill="none"
   version="1.1"
   id="svg6"
   sodipodi:docname="check.svg"
   inkscape:version="1.0.1 (3bc2e813f5, 2020-09-07)">
  <metadata
     id="metadata12">
    <rdf:RDF>
      <cc:Work
         rdf:about="">
        <dc:format>image/svg+xml</dc:format>
        <dc:type
           rdf:resource="http://purl.org/dc/dcmitype/StillImage" />
        <dc:title></dc:title>
      </cc:Work>
    </rdf:RDF>
  </metadata>
  <defs
     id="defs10" />
  <sodipodi:namedview
     pagecolor="#ffffff"
     bordercolor="#666666"
     borderopacity="1"
     objecttolerance="10"
     gridtolerance="10"
     guidetolerance="10"
     inkscape:pageopacity="0"
     inkscape:pageshadow="2"
     inkscape:window-width="1920"
     inkscape:window-height="1017"
     id="namedview8"
     showgrid="false"
     inkscape:zoom="9.6590909"
     inkscape:cx="0.45636208"
     inkscape:cy="21.075089"
     inkscape:window-x="-8"
     inkscape:window-y="-8"
     inkscape:window-maximized="1"
     inkscape:current-layer="svg6" />
  <path
     d="m 30.16665,15.5 c 0,8.5729 -6.7654,15.5 -15.0833,15.5 C 6.76535,31 0,24.0729 0,15.5 0,6.9271 6.76535,0 15.08335,0 c 8.3179,0 15.0833,6.9271 15.0833,15.5 z"
     fill="white"
     stroke="#CE2C15"
     id="path2" />
  <path
     fill-rule="evenodd"
     clip-rule="evenodd"
     d="m 20.72175,11.7109 c 0.2738,0.2812 0.2738,0.737 0,1.0182 l -6.545,6.72 c -0.2739,0.2812 -0.7179,0.2812 -0.9918,0 l -3.74,-3.84 c -0.2738,-0.2812 -0.2738,-0.737 0,-1.0182 0.2739,-0.2812 0.7179,-0.2812 0.9918,0 l 3.2441,3.3309 6.0491,-6.2109 c 0.2739,-0.2812 0.7179,-0.2812 0.9918,0 z"
     fill="#ce2c15"
     id="path4" />
</svg>
