<svg width="15" height="18" viewBox="0 0 15 18" fill="none" xmlns="http://www.w3.org/2000/svg">
<path d="M4.54754 7.58667C4.54754 5.98461 5.86939 4.68589 7.49998 4.68589C9.13056 4.68589 10.4524 5.98461 10.4524 7.58667C10.4524 9.18874 9.13056 10.4875 7.49998 10.4875C5.86939 10.4875 4.54754 9.18874 4.54754 7.58667Z" fill="#FAFAFA"/>
<path fill-rule="evenodd" clip-rule="evenodd" d="M0.0267102 6.58469C0.338886 2.8637 3.50371 0 7.30381 0H7.6962C11.4963 0 14.6611 2.8637 14.9733 6.58469C15.1414 8.5881 14.5115 10.5774 13.2164 12.1336L8.86216 17.3655C8.15814 18.2115 6.84187 18.2115 6.13785 17.3655L1.78362 12.1336C0.488493 10.5774 -0.141368 8.5881 0.0267102 6.58469ZM7.49998 3.34706C5.11681 3.34706 3.18487 5.2452 3.18487 7.58667C3.18487 9.92815 5.11681 11.8263 7.49998 11.8263C9.88314 11.8263 11.8151 9.92815 11.8151 7.58667C11.8151 5.2452 9.88314 3.34706 7.49998 3.34706Z" fill="#FAFAFA"/>
</svg>
