<svg width="55" height="55" viewBox="0 0 55 55" fill="none" xmlns="http://www.w3.org/2000/svg">
<path d="M46.8762 46.6964L38.5321 32.9714C40.7571 32.4583 42.5178 31.3476 43.8167 29.6369C45.1143 27.9274 45.7643 25.4905 45.7643 22.325V8.21548H40.5905V22.0691C40.5905 24.2072 40.2286 25.8214 39.5059 26.9107C38.7833 28.0012 37.6607 28.6964 36.1405 28.9952L23.5107 8.21548H18.1702L25.569 20.4655C23.2321 20.8929 21.4524 22.0691 20.2286 23.9929C19.0048 25.9167 18.3928 28.3536 18.3928 31.3048V46.6976H23.5667V31.2405C23.5667 27.1786 24.994 24.8274 27.85 24.1857L41.4797 46.6976H46.8762V46.6964Z" fill="#0F2350"/>
<path d="M36.9178 46.6964L13.5536 8.21548H8.21307L15.6119 20.4655C13.275 20.8929 11.4952 22.0691 10.2714 23.9929C9.0476 25.9167 8.43569 28.3536 8.43569 31.3048V46.6976H13.6095V31.2405C13.6095 27.1786 15.0369 24.8274 17.8928 24.1857L31.5226 46.6976H36.9178V46.6964Z" fill="#CE2C15"/>
<path d="M54.0476 0.952381V54.0476H0.952381V0.952381H54.0476ZM55 0H0V55H55V0Z" fill="#0F2350"/>
</svg>
