<svg width="55" height="55" viewBox="0 0 55 55" fill="none" xmlns="http://www.w3.org/2000/svg">
<path d="M46.8762 46.6965L38.5321 32.9715C40.7571 32.4584 42.5178 31.3477 43.8167 29.637C45.1143 27.9275 45.7643 25.4906 45.7643 22.3251V8.21558H40.5905V22.0691C40.5905 24.2072 40.2286 25.8215 39.5059 26.9108C38.7833 28.0013 37.6607 28.6965 36.1405 28.9953L23.5107 8.21558H18.1702L25.569 20.4656C23.2321 20.893 21.4524 22.0691 20.2286 23.993C19.0048 25.9168 18.3928 28.3537 18.3928 31.3049V46.6977H23.5667V31.2406C23.5667 27.1787 24.994 24.8275 27.85 24.1858L41.4797 46.6977H46.8762V46.6965Z" fill="white"/>
<path d="M36.9178 46.6965L13.5536 8.21558H8.21307L15.6119 20.4656C13.275 20.893 11.4952 22.0691 10.2714 23.993C9.0476 25.9168 8.43569 28.3537 8.43569 31.3049V46.6977H13.6095V31.2406C13.6095 27.1787 15.0369 24.8275 17.8928 24.1858L31.5226 46.6977H36.9178V46.6965Z" fill="#CE2C15"/>
<path d="M54.0476 0.952381V54.0476H0.952381V0.952381H54.0476ZM55 0H0V55H55V0Z" fill="white" fill-opacity="0.5"/>
</svg>
