<svg width="80" height="80" viewBox="0 0 80 80" fill="none" xmlns="http://www.w3.org/2000/svg">
<path d="M19.3097 16.7726C19.3903 16.7726 19.4726 16.7742 19.5548 16.7774C23.0016 16.8807 25.8064 19.9194 25.8064 23.5516V25.8065C25.8064 28.0968 24.5694 30.2355 22.5774 31.3903L21.9323 31.7629L21.9371 35.8468L26.3645 36.9532C25.2161 38.1258 24.5161 39.7145 24.5161 41.4484V42.4049L20.4919 43.3L20.5968 42.9339L20.6452 40.55L13.8403 36.579L16.7742 35.8468V31.7597L16.1306 31.3871C14.1387 30.2355 12.9032 28.0968 12.9032 25.8065V23.2258C12.9032 21.4661 13.5984 19.821 14.8629 18.5952C16.0661 17.4274 17.65 16.7726 19.3097 16.7726ZM19.3113 14.1919C16.9806 14.1919 14.7629 15.0984 13.0677 16.7419C11.2968 18.4581 10.3226 20.7597 10.3226 23.2258V25.8065C10.3226 28.7613 11.7887 31.5323 14.1935 33.2113V33.8323L13.2161 34.0758L7.0629 35.6113L12.5403 38.8081L18.0355 42.0145L18.0242 42.5468L18.0113 42.5903L16.8161 46.7613L21.0516 45.8194L25.0758 44.9242L27.0968 44.4742V42.4049V41.4484C27.0968 40.4452 27.4919 39.4903 28.2081 38.7597L31.3597 35.5419L26.9903 34.45L24.5161 33.8307V33.2129C26.9226 31.529 28.3871 28.7581 28.3871 25.8065V23.5516C28.3871 18.5419 24.4661 14.3484 19.6435 14.1984C19.5339 14.1936 19.421 14.1919 19.3113 14.1919Z" fill="#CE2C15"/>
<path d="M39.9565 16.7726C40.0371 16.7726 40.1194 16.7742 40.2 16.7774C43.6468 16.8807 46.4516 19.9194 46.4516 23.5516V25.8065C46.4516 28.0968 45.2145 30.2355 43.2226 31.3903L42.5774 31.7629L42.5823 35.8468L49.971 37.6936C51.6968 38.1258 52.9032 39.6694 52.9032 41.4484V46.2839L52.5839 46.4516H51.7935L43.8613 44.1855C43.2355 44.0081 42.5919 43.9355 41.9452 43.9113L36.1048 42.0436C34.5435 41.5436 32.9081 41.2919 31.2726 41.2919C30.1177 41.2919 28.9645 41.4161 27.8371 41.6678L27.0968 41.8307V41.4484C27.0968 39.6694 28.3032 38.1258 30.029 37.6936L37.4194 35.8468V31.7597L36.7758 31.3871C34.7839 30.2355 33.5484 28.0968 33.5484 25.8065V23.2258C33.5484 21.4661 34.2435 19.821 35.5081 18.5952C36.7113 17.4274 38.3016 16.7726 39.9565 16.7726ZM39.9565 14.1919C37.6258 14.1919 35.4081 15.0984 33.7113 16.7419C31.9419 18.4581 30.9677 20.7597 30.9677 23.2258V25.8065C30.9677 28.7613 32.4339 31.5323 34.8387 33.2113V33.8323L29.4032 35.1903C26.5258 35.9113 24.5161 38.4839 24.5161 41.4484V41.8307V45.0403L27.6516 44.35L28.3919 44.1871C29.3339 43.9774 30.3016 43.8726 31.2726 43.8726C32.6565 43.8726 34.0177 44.0839 35.3177 44.5L41.1597 46.3678L41.4968 46.4758L41.85 46.4887C42.3855 46.5081 42.8 46.5661 43.1581 46.6661L51.0855 48.9307L51.4323 49.0307H51.7935H52.5839H53.221L53.7839 48.7355L54.1032 48.5678L55.4839 47.8419V46.2823V41.4468C55.4839 38.4823 53.4742 35.9097 50.5984 35.1887L45.1613 33.8307V33.2113C47.5677 31.529 49.0323 28.7581 49.0323 25.8065V23.5516C49.0323 18.5436 45.1113 14.35 40.2887 14.1984C40.179 14.1936 40.0661 14.1919 39.9565 14.1919Z" fill="#CE2C15"/>
<path d="M60.6 16.7726C60.6822 16.7726 60.7629 16.7742 60.8451 16.7774C64.2919 16.8807 67.0968 19.9194 67.0968 23.5516V25.8065C67.0968 28.0968 65.8597 30.2355 63.8677 31.3903L63.2226 31.7629L63.2274 35.8468L69.6742 37.4565L55.4839 44.9258V41.4484C55.4839 39.7145 54.7839 38.1258 53.6355 36.9532L58.0645 35.8468V31.7597L57.421 31.3871C55.429 30.2355 54.1935 28.0968 54.1935 25.8065V23.2258C54.1935 21.4661 54.8887 19.821 56.1532 18.5952C57.3564 17.4274 58.9371 16.7726 60.6 16.7726ZM60.6 14.1919C58.271 14.1919 56.0532 15.0984 54.3564 16.7419C52.5871 18.4581 51.6129 20.7597 51.6129 23.2258V25.8065C51.6129 28.7613 53.079 31.5323 55.4839 33.2113V33.8323L53.0097 34.45L48.6403 35.5419L51.7919 38.7597C52.5081 39.4919 52.9032 40.4468 52.9032 41.4484V44.9258V49.2L56.6855 47.2097L70.8758 39.7403L76.8597 36.5903L70.3 34.9516L65.8064 33.8307V33.2129C68.2129 31.529 69.6774 28.7581 69.6774 25.8065V23.5516C69.6774 18.5419 65.7564 14.3484 60.9339 14.1984C60.8226 14.1936 60.7113 14.1919 60.6 14.1919Z" fill="#CE2C15"/>
<path d="M42.8258 2.58065L43.721 6.8129L44.5145 7.00161C46.4822 7.47419 48.3629 8.25484 50.1016 9.32097L50.7968 9.74677L54.4242 7.38548L58.5419 11.5032L57.079 14.9306C56.0823 15.3581 55.1581 15.9613 54.3548 16.7403C54.3016 16.7919 54.2564 16.8484 54.2048 16.9016C51.1645 12.0677 45.7903 9.03226 40 9.03226C34.1677 9.03226 28.779 12.0968 25.7452 16.979C24.9339 16.129 23.9693 15.4403 22.9 14.9597L21.4516 11.5081L25.5742 7.38548L29.2016 9.74677L29.8968 9.32097C31.6355 8.25484 33.5161 7.47419 35.4839 7.00484L36.2774 6.81452L37.1758 2.58065H42.8258ZM44.9177 0H42.8258H37.1758H35.0855L34.6516 2.04516L34.0887 4.70161C32.4097 5.17097 30.7903 5.84194 29.2581 6.70484L26.9822 5.22419L25.229 4.08226L23.75 5.56129L19.6274 9.68387L18.4016 10.9097L19.0726 12.5081L20.521 15.9597L20.9145 16.8984L21.8419 17.3161C22.6032 17.6581 23.2887 18.1452 23.879 18.7629L26.179 21.1726L27.9371 18.3435C29.2032 16.3065 30.9839 14.6065 33.0855 13.429C35.2016 12.2403 37.5919 11.6129 40 11.6129C44.829 11.6129 49.4355 14.1661 52.021 18.2758L53.771 21.0581L56.0581 18.6984C56.1016 18.6532 56.1435 18.6065 56.1855 18.5613C56.7387 18.0339 57.3806 17.6097 58.0968 17.3032L59.0468 16.8952L59.4532 15.9435L60.9161 12.5161L61.6016 10.9113L60.3677 9.67742L56.25 5.55968L54.771 4.08065L53.0177 5.22258L50.7419 6.70323C49.2129 5.84194 47.5935 5.16935 45.9129 4.69839L45.3516 2.04677L44.9177 0Z" fill="#CE2C15"/>
<path d="M40 11.6129C45.2629 11.6129 50.1194 14.5774 52.5613 19.2081C51.9468 20.4403 51.6129 21.8032 51.6129 23.2258V25.8064C51.6129 28.7597 53.079 31.5323 55.4839 33.2097V33.829L50.3226 35.121L45.1597 33.829V33.2113C47.5645 31.5323 49.0323 28.7597 49.0323 25.8064V23.5516C49.0323 18.5387 45.1048 14.3435 40.2774 14.1968C40.1855 14.1935 40.0935 14.1919 40.0016 14.1919C37.6355 14.1919 35.4129 15.0903 33.7113 16.7435C31.9419 18.4597 30.9677 20.7613 30.9677 23.2258V25.8064C30.9677 28.7597 32.4339 31.5323 34.8387 33.2097V33.829L29.6774 35.121L24.5145 33.829V33.2113C26.9194 31.5323 28.3871 28.7597 28.3871 25.8064V23.5516C28.3871 22.0323 28.021 20.5903 27.3855 19.3113C29.8097 14.6161 34.6855 11.6129 40 11.6129ZM40 9.03226C36.9226 9.03226 33.9 9.88548 31.2613 11.5C28.6339 13.1081 26.5 15.4 25.0919 18.1274L24.4919 19.2887L25.0742 20.4597C25.5597 21.4371 25.8064 22.4774 25.8064 23.5516V25.8064C25.8064 27.9081 24.771 29.8839 23.0371 31.0952L21.9339 31.8661V33.2113V33.829V35.8435L23.8887 36.3323L29.0516 37.6242L29.6774 37.7806L30.3032 37.6242L35.4645 36.3323L37.4177 35.8435V33.829V33.2097V31.8629L36.3129 31.0919C34.5823 29.8839 33.5484 27.9081 33.5484 25.8064V23.2258C33.5484 21.4661 34.2435 19.821 35.5081 18.5968C36.7193 17.421 38.3145 16.7742 40.0016 16.7742C40.0677 16.7742 40.1355 16.7758 40.2016 16.7774C43.6468 16.8823 46.4516 19.921 46.4516 23.5532V25.8064C46.4516 27.9081 45.4161 29.8839 43.6823 31.0952L42.579 31.8661V33.2113V33.829V35.8435L44.5339 36.3323L49.6968 37.6242L50.3226 37.7806L50.9484 37.6242L56.1097 36.3323L58.0629 35.8435V33.829V33.2097V31.8629L56.9581 31.0919C55.2274 29.8839 54.1935 27.9081 54.1935 25.8064V23.2258C54.1935 22.2258 54.421 21.2613 54.871 20.3597L55.4613 19.1758L54.8435 18.0048C53.4242 15.3145 51.2919 13.0532 48.6758 11.4677C46.0484 9.87419 43.0484 9.03226 40 9.03226Z" fill="#CE2C15"/>
<path d="M24.5507 40.8C24.5392 40.8017 24.5276 40.8033 24.5161 40.8066C24.5276 40.8049 24.5392 40.8033 24.549 40.8017C24.549 40.8017 24.549 40.8017 24.5507 40.8Z" fill="black"/>
<path d="M80 33.5484H77.1L72.779 35.8226C72.729 35.7952 72.021 36.7645 71.6048 36.7048C71.6403 36.9839 73.9968 35.4516 73.75 35.3516C73.3565 35.4839 70.1774 37.1468 69.7839 37.4048L69.6742 37.4581L55.4839 44.9258L55 45.1613C54.4 45.521 53.979 45.7032 53.471 45.971C53.4968 45.9694 53.521 45.9677 53.5484 45.9677C53.521 45.9677 53.4968 45.9694 53.471 45.971C53.2952 46.0629 53.1097 46.1661 52.9032 46.2903C53.0806 46.1839 52.9032 46.2839 52.9032 46.2839L52.5839 46.4516H51.7935L43.8613 44.1855C43.2355 44.0081 42.5919 43.9355 41.9452 43.9113L36.1048 42.0452C33.4436 41.1919 30.5613 41.0645 27.8371 41.6677L27.0968 41.8323V41.7742C26.3694 42.2113 24.5161 42.4048 24.5161 42.4048L20.4919 43.3L20.5968 42.9339L20.6452 40.5484L13.8403 36.579L13.8871 36.5677C12.85 35.8903 11.7065 35.4226 10.6887 34.7048L10.6484 34.7145L4.22097 30.9677H0V57.7048L12.6935 61.9355H15.1661L15.4742 60.8548L19.3645 63.1903C19.4274 65.3065 21.1242 67.0081 23.2387 67.0823C23.3129 69.1871 25.0048 70.879 27.1097 70.9532C27.1839 73.0581 28.8758 74.75 30.9806 74.8242C31.0581 76.979 32.821 78.7097 34.9935 78.7097C35.8 78.7097 36.5903 78.4581 37.2548 78.0097L38.3984 79.0194C39.1145 79.65 40.0371 80 40.9952 80H41.2339C43.3806 80 45.1274 78.2645 45.1548 76.1242C47.279 76.0968 48.9984 74.3774 49.0258 72.2532C51.1516 72.2258 52.8726 70.5032 52.8968 68.379C55.0419 68.329 56.7726 66.5758 56.7726 64.4194C56.7726 64.2903 56.7661 64.1613 56.7532 64.0323L80 52.4113V33.5484ZM2.58065 55.8436V33.5484H3.52097L12.8016 38.9613L8.11935 57.6903L2.58065 55.8436ZM13.221 59.3548H13.1129L10.5726 58.5081L15.121 40.3145L18.0645 42.0306V42.4L13.221 59.3548ZM24.4048 64.0936C24.1355 64.3629 23.7629 64.5161 23.3823 64.5161C22.5839 64.5161 21.9355 63.8677 21.9355 63.0694C21.9355 62.6887 22.0887 62.3161 22.3581 62.0468L24.6258 59.779C24.8952 59.5097 25.2677 59.3565 25.6484 59.3565C26.4468 59.3565 27.0952 60.0048 27.0952 60.8032C27.0952 61.1839 26.9419 61.5565 26.6726 61.8258L24.4048 64.0936ZM28.2758 67.9645C28.0065 68.2339 27.6339 68.3871 27.2532 68.3871C26.4548 68.3871 25.8064 67.7387 25.8064 66.9403C25.8064 66.5597 25.9597 66.1871 26.229 65.9177L28.4968 63.65C28.7661 63.3806 29.1387 63.2274 29.5194 63.2274C30.3177 63.2274 30.9661 63.8758 30.9661 64.6742C30.9661 65.0548 30.8129 65.4274 30.5435 65.6968L28.2758 67.9645ZM32.1468 71.8355C31.8774 72.1048 31.5048 72.2581 31.1242 72.2581C30.3258 72.2581 29.6774 71.6097 29.6774 70.8113C29.6774 70.4306 29.8306 70.0581 30.1 69.7887L32.3677 67.521C32.6371 67.2516 33.0097 67.0984 33.3903 67.0984C34.1887 67.0984 34.8371 67.7468 34.8371 68.5452C34.8371 68.9258 34.6839 69.2984 34.4145 69.5677L32.1468 71.8355ZM38.2871 73.4371L36.0194 75.7048C35.75 75.9742 35.3774 76.1274 34.9968 76.1274C34.1984 76.1274 33.55 75.479 33.55 74.6806C33.55 74.3 33.7032 73.9274 33.9726 73.6581L36.2403 71.3903C36.5097 71.121 36.8823 70.9677 37.2629 70.9677C38.0613 70.9677 38.7097 71.6161 38.7097 72.4145C38.7097 72.7952 38.5564 73.1677 38.2871 73.4371ZM41.2355 77.4194H40.9968C40.6677 77.4194 40.3532 77.3 40.1081 77.0823L39.1435 76.2306L40.1129 75.2613C40.4581 74.9161 40.7274 74.5032 40.9258 74.0629L42.0984 75.0387C42.4048 75.2952 42.5823 75.671 42.5823 76.0726C42.5806 76.8161 41.9774 77.4194 41.2355 77.4194ZM52.8064 65.8065H52.5839C52.2597 65.8065 51.9435 65.6919 51.6968 65.4839L44.7 59.6532L43.0468 61.6371L49.8419 67.2984C50.1468 67.5548 50.3242 67.9306 50.3242 68.3323C50.3242 69.0742 49.721 69.6774 48.979 69.6774H48.6968C48.3839 69.6774 48.0774 69.5661 47.8355 69.3645L40.8274 63.5242L39.1742 65.5081L45.9677 71.171C46.2742 71.4242 46.4516 71.8016 46.4516 72.2032C46.4516 72.9452 45.8484 73.5484 45.1064 73.5484C44.6113 73.5484 44.129 73.3726 43.7484 73.0565L40.8677 70.6565C40.2339 69.3597 38.929 68.4565 37.4032 68.4016C37.329 66.2968 35.6371 64.6048 33.5323 64.5306C33.4581 62.4258 31.7661 60.7339 29.6613 60.6597C29.5855 58.5048 27.8226 56.7742 25.65 56.7742C24.5903 56.7742 23.5516 57.2032 22.8016 57.9532L20.5339 60.221C20.3984 60.3565 20.2855 60.5097 20.1726 60.6629L16.2097 58.2839L19.6839 46.1226L28.3952 44.1855C30.6806 43.6742 33.0903 43.7855 35.3177 44.4984L37.2194 45.1065L30.7758 48.329C29.3032 49.0661 28.3887 50.5484 28.3887 52.1952V52.45C28.3887 54.8339 30.3274 56.7726 32.7113 56.7726C33.4952 56.7726 34.2645 56.5597 34.9355 56.1565L39.7403 53.2758C40.7048 52.6968 42.0016 52.8242 42.8339 53.5742L53.7355 63.3855C54.0274 63.65 54.1952 64.0258 54.1952 64.4194C54.1936 65.1839 53.571 65.8065 52.8064 65.8065ZM77.4193 50.8145L55.6806 61.6839C55.6097 61.6097 55.5371 61.5371 55.4581 61.4677L44.5581 51.6565C43.6032 50.7952 42.3677 50.321 41.0823 50.321C40.1419 50.321 39.2177 50.5774 38.4097 51.0613L33.6032 53.9436C33.3339 54.1065 33.0258 54.1919 32.7097 54.1919C31.7484 54.1919 30.9677 53.4113 30.9677 52.45V52.1952C30.9677 51.5306 31.3371 50.9339 31.9306 50.6371L39.1274 47.0387C40.3597 46.4226 41.821 46.2839 43.1484 46.6661L51.2565 48.9823L53.221 49.0306L77.4193 36.2968V50.8145Z" fill="#0F2350"/>
</svg>
