<svg width="180" height="180" viewBox="0 0 180 180" fill="none" xmlns="http://www.w3.org/2000/svg">
<g clip-path="url(#clip0)">
<rect width="180" height="180" rx="90" fill="white"/>
<path fill-rule="evenodd" clip-rule="evenodd" d="M128.815 158.436C138.972 171.159 154.226 181.527 156.417 197.699C158.646 214.155 155.518 236.762 140.465 244.446C122.201 253.769 99.7186 227.726 81.0376 236.176C65.3157 243.287 75.3219 277.421 58.5777 281.485C43.9219 285.043 41.5308 257.737 29.8312 248.606C20.4702 241.3 2.68887 244.862 -2.17911 234.065C-7.19507 222.94 8.71066 211.198 7.4731 199.018C5.99055 184.427 -12.8771 173.915 -9.75582 159.498C-6.85404 146.095 8.19749 136.502 21.6852 133.375C34.8167 130.329 46.3938 144.263 59.813 143.365C74.5769 142.378 86.4668 124.941 100.846 128.082C114.66 131.099 120.087 147.502 128.815 158.436Z" fill="#1C3C89"/>
</g>
<defs>
<clipPath id="clip0">
<rect width="180" height="180" rx="90" fill="white"/>
</clipPath>
</defs>
</svg>
