<svg width="180" height="180" fill="none" xmlns="http://www.w3.org/2000/svg"><g clip-path="url(#clip0)"><rect width="180" height="180" rx="90" fill="#fff"/><path fill-rule="evenodd" clip-rule="evenodd" d="M-1.37 150.174c2.346-11.34 2.977-28.143 13.74-31.51 12.165-3.805 19.616 15.229 31.83 17.256 8.88 1.473 17.754-10.573 26.203-7.626 8.22 2.867 8.336 15.266 14.223 21.725 8.235 9.036 27.442 10.768 27.082 23.594-.361 12.81-21.701 14.268-28.46 25.415-6.508 10.734 2.017 29.57-8.633 35.764-10.8 6.28-21.112-10.597-33.077-11.507-10.154-.772-20.338 10.029-29.86 6.722-9.486-3.294-16.195-13.304-18.39-23.477-2.103-9.747 6.023-19.268 6.984-29.399.872-9.207-3.526-17.85-1.642-26.957z" fill="#1C3C89"/></g><defs><clipPath id="clip0"><rect width="180" height="180" rx="90" fill="#fff"/></clipPath></defs></svg>