<svg width="180" height="180" fill="none" xmlns="http://www.w3.org/2000/svg"><g clip-path="url(#clip0)"><rect width="180" height="180" rx="90" fill="#fff"/><path fill-rule="evenodd" clip-rule="evenodd" d="M125.605 130.11c7.463-4.147 14.793-8.568 23.385-9.415 9.243-.911 18.974-.193 27.462 4.401 8.695 4.706 13.5 14.181 20.39 21.496 9.233 9.803 21.134 16.88 27.155 28.981 7.957 15.995 22.577 37.319 12.569 50.866-10.702 14.485-34.933 4.219-53.066 3.947-10.694-.16-20.725-3.886-31.411-5.214-9.551-1.187-19.02 1.126-28.21-2.197-10.468-3.785-18.933-11.245-27.963-18.114-14.468-11.004-43.873-16.821-41.199-34.486 2.973-19.639 33.666-15.805 50.237-25.218 7.528-4.276 13.081-10.843 20.651-15.047z" fill="#1C3C89"/></g><defs><clipPath id="clip0"><rect width="180" height="180" rx="90" fill="#fff"/></clipPath></defs></svg>