<svg width="100" height="100" fill="none" xmlns="http://www.w3.org/2000/svg"><path d="M76.367 8.79V100H8.79C3.926 100 0 95.879 0 91.016V29.492l2.11-.762L27.655 3.4 29.296 0h38.282a8.777 8.777 0 018.79 8.79z" fill="#F2F2F2"/><path d="M76.367 8.79V100H38.086V0h29.492a8.777 8.777 0 018.79 8.79z" fill="#C4F3FF"/><path d="M0 29.492h26.367c1.62 0 2.93-1.31 2.93-2.93V0L0 29.492z" fill="#C5C9F7"/><path d="M58.828 79.297c0 1.64-1.348 2.93-2.93 2.93h-41.25c-1.64 0-2.93-1.29-2.93-2.93a2.9 2.9 0 012.93-2.93h41.25a2.938 2.938 0 012.93 2.93z" fill="#0A789B"/><path d="M58.828 79.297c0 1.64-1.348 2.93-2.93 2.93H38.086v-5.86h17.812a2.938 2.938 0 012.93 2.93z" fill="#08475E"/><path d="M59.355 67.578c0 1.64-1.347 2.93-2.93 2.93H14.649c-1.64 0-2.93-1.29-2.93-2.93a2.9 2.9 0 012.93-2.93h41.778a2.938 2.938 0 012.93 2.93z" fill="#0A789B"/><path d="M59.355 67.578c0 1.64-1.347 2.93-2.93 2.93h-18.34v-5.86h18.34a2.938 2.938 0 012.93 2.93z" fill="#08475E"/><path d="M53.848 55.86c0 1.64-1.348 2.93-2.93 2.93h-36.27c-1.64 0-2.93-1.29-2.93-2.93a2.9 2.9 0 012.93-2.93h36.27a2.938 2.938 0 012.93 2.93z" fill="#0A789B"/><path d="M53.848 55.86c0 1.64-1.348 2.93-2.93 2.93H38.086v-5.86h12.832a2.938 2.938 0 012.93 2.93z" fill="#08475E"/><path d="M64.648 44.14c0 1.641-1.484 2.93-3.125 2.93H14.648a2.902 2.902 0 01-2.93-2.93 2.9 2.9 0 012.93-2.93h46.875c1.641 0 3.125 1.29 3.125 2.93z" fill="#0A789B"/><path d="M64.648 44.14c0 1.641-1.484 2.93-3.125 2.93H38.086v-5.86h23.437c1.641 0 3.125 1.29 3.125 2.93z" fill="#08475E"/><path d="M64.648 32.422c0 1.64-1.484 2.93-3.125 2.93H38.086c-1.64 0-2.93-1.29-2.93-2.93 0-1.64 1.29-2.93 2.93-2.93h23.437c1.641 0 3.125 1.29 3.125 2.93z" fill="#0A789B"/><path d="M64.648 32.422c0 1.64-1.484 2.93-3.125 2.93H38.086v-5.86h23.437c1.641 0 3.125 1.29 3.125 2.93z" fill="#08475E"/><path d="M64.648 20.703c0 1.64-1.484 2.93-3.125 2.93H38.086a2.901 2.901 0 01-2.93-2.93c0-1.64 1.29-2.93 2.93-2.93h23.437c1.641 0 3.125 1.29 3.125 2.93z" fill="#0A789B"/><path d="M64.648 20.703c0 1.64-1.484 2.93-3.125 2.93H38.086v-5.86h23.437c1.641 0 3.125 1.29 3.125 2.93z" fill="#08475E"/><path d="M76.367 52.93c-12.95 0-23.633 10.488-23.633 23.437 0 12.95 10.684 23.633 23.633 23.633C89.317 100 100 89.316 100 76.367c0-12.95-10.683-23.437-23.633-23.437z" fill="#AAE992"/><path d="M100 76.367C100 89.317 89.317 100 76.367 100V52.93C89.317 52.93 100 63.418 100 76.367z" fill="#19D082"/><path d="M87.207 75.488l-10.84 10.84-.879.879c-.527.586-1.289.879-2.05.879-.762 0-1.524-.293-2.051-.88l-5.86-5.859a2.832 2.832 0 010-4.101 2.832 2.832 0 014.102 0l3.809 3.75 2.93-2.93 6.738-6.68a2.832 2.832 0 014.101 0 2.832 2.832 0 010 4.102z" fill="#0A789B"/><path d="M87.207 75.488l-10.84 10.84v-8.262l6.739-6.68a2.832 2.832 0 014.101 0 2.832 2.832 0 010 4.102z" fill="#08475E"/></svg>