<svg width="100" height="100" fill="none" xmlns="http://www.w3.org/2000/svg"><path d="M50 0L25 50l25 50c27.614 0 50-22.386 50-50S77.614 0 50 0z" fill="#20596E"/><path d="M0 50c0 27.614 22.386 50 50 50V0C22.386 0 0 22.386 0 50z" fill="#2285A5"/><path d="M50 11.719L30.86 50 50 88.281c21.142 0 38.281-17.139 38.281-38.281S71.142 11.719 50 11.719z" fill="#C4F3FF"/><path d="M11.719 50c0 21.142 17.139 38.281 38.281 38.281V11.72c-21.142 0-38.281 17.139-38.281 38.281z" fill="#fff"/><path d="M58.286 54.143L50 45.857h-3.906L50 54.143l4.143 4.143 4.143-4.143z" fill="#1C3C89"/><path d="M33.358 29.215l-4.143 4.143L50 54.143v-8.286L33.358 29.215z" fill="#1C3C89"/><path d="M66.711 29.146L50 45.856l-3.906 8.287H50L70.854 33.29l-4.143-4.143z" fill="#1C3C89"/><path d="M41.714 54.143l4.143 4.143L50 54.143v-8.286l-8.286 8.286zM52.93 17.578H50l-1.953 2.93L50 23.438h2.93v-5.86z" fill="#1C3C89"/><path d="M47.07 17.578H50v5.86h-2.93v-5.86zm5.86 58.985H50l-1.953 2.93L50 82.421h2.93v-5.86z" fill="#1C3C89"/><path d="M47.07 76.563H50v5.859h-2.93v-5.86zM17.578 52.93v-5.86h5.86v5.86h-5.86zm58.985 0v-5.86h5.859v5.86h-5.86z" fill="#1C3C89"/></svg>