<svg width="100" height="100" fill="none" xmlns="http://www.w3.org/2000/svg"><path d="M50 100a2.93 2.93 0 01-1.013-.18c-11.505-4.24-21.293-11.796-28.306-21.854C13.668 67.91 9.96 56.112 9.96 43.851V10.742a2.93 2.93 0 011.793-2.7C24.427 2.706 37.295 0 50 0c12.705 0 25.573 2.706 38.246 8.042a2.93 2.93 0 011.793 2.7v33.109c0 12.26-3.707 24.058-10.72 34.116C72.306 88.024 62.518 95.58 51.013 99.82c-.327.12-.67.18-1.013.18z" fill="#A2E786"/><path d="M79.32 77.966c7.012-10.057 10.72-21.854 10.72-34.115V10.742a2.93 2.93 0 00-1.794-2.7C75.573 2.706 62.705 0 50 0v100c.343 0 .686-.06 1.013-.18 11.505-4.24 21.293-11.796 28.306-21.854z" fill="#00CB75"/><path d="M15.82 12.707V43.85c0 22.071 13.69 42.06 34.18 50.085 20.49-8.024 34.18-28.014 34.18-50.085V12.707c-22.69-9.07-45.67-9.07-68.36 0z" fill="#E2DFF4"/><path d="M84.18 43.85V12.708C72.834 8.172 61.417 5.905 50 5.905v88.031c20.49-8.024 34.18-28.014 34.18-50.085z" fill="#D5D3EA"/><path d="M50 87.28a2.93 2.93 0 01-1.28-.294c-8.05-3.907-14.845-10.005-19.65-17.634-4.835-7.677-7.39-16.495-7.39-25.5V18.854a2.93 2.93 0 012.015-2.783c8.788-2.888 17.638-4.352 26.305-4.352 8.667 0 17.517 1.464 26.305 4.352a2.93 2.93 0 012.015 2.783v24.998c0 9.005-2.555 17.823-7.39 25.5-4.805 7.63-11.6 13.727-19.65 17.634a2.93 2.93 0 01-1.28.294z" fill="#FFF5F5"/><path d="M51.28 86.986c8.05-3.907 14.845-10.005 19.65-17.634 4.835-7.677 7.39-16.495 7.39-25.5V18.854a2.93 2.93 0 00-2.015-2.783C67.517 13.183 58.667 11.719 50 11.719v75.56a2.93 2.93 0 001.28-.293z" fill="#E2DFF4"/><path d="M43.095 59.758l-6.905-6.905a2.93 2.93 0 114.143-4.143l4.833 4.833 14.502-14.501a2.93 2.93 0 014.143 4.143L47.238 59.758a2.93 2.93 0 01-4.143 0z" fill="#0A789B"/><path d="M59.668 39.042L50 48.71v8.286l13.81-13.81a2.93 2.93 0 10-4.142-4.144z" fill="#08475E"/></svg>