<svg width="100" height="100" fill="none" xmlns="http://www.w3.org/2000/svg"><g clip-path="url(#clip0)"><path d="M100 65.361v11.386c0 3.866-10.311 7.089-22.986 7.089-12.674 0-22.77-3.115-22.77-6.982v-1.289l-.216-9.022h.108c1.718 3.33 11.17 5.907 22.556 5.907 11.385 0 23.093-3.222 23.093-7.089H100z" fill="#FFC178"/><path d="M76.37 23.041V34.32h-.215c0 3.975-10.634 7.09-23.2 7.09a55.127 55.127 0 01-14.501-1.612l-.215.215a25.099 25.099 0 00-7.948-4.404v-.214l-.323-11.923c.752 3.652 10.741 6.552 22.879 6.552 12.137 0 23.308-3.115 23.308-6.982h.215z" fill="#FF936B"/><path d="M76.37 23.256c0 3.867-10.634 6.982-23.308 6.982-12.675 0-22.234-2.9-22.986-6.552 0-.107-.108-.322-.108-.43 0-3.866 10.312-7.089 23.094-7.089 12.781-.107 23.308 3.115 23.308 7.09z" fill="#FFE278"/><path d="M54.136 66.543l-.108-2.363-.215-9.667c.752 3.652 10.742 6.552 22.879 6.552 12.138 0 22.879-3.115 23.2-6.875H100v11.171h-.215c0 3.867-10.419 7.09-23.093 7.09s-20.838-2.579-22.556-5.908z" fill="#FF936B"/><path d="M38.776 73.74c2.9-2.686 5.156-6.123 6.337-9.883h.537c2.363.215 4.726.323 7.304.323h1.074v2.363l.215 9.022h-1.181c-4.727.108-9.345-.43-13.964-1.504l-.322-.322z" fill="#FFC178"/><path d="M54.136 53.653v.537l.214 9.99h-1.074c-2.685 0-5.156-.108-7.518-.323h-.537c.752-2.255 1.074-4.618 1.074-6.981 0-1.611-.215-3.115-.537-4.619h.537a72.51 72.51 0 006.981.322l.967.537c-.107.215-.107.43-.107.537z" fill="#FF936B"/><path d="M38.454 39.797a55.126 55.126 0 0014.5 1.612c12.567 0 23.201-3.115 23.201-7.09h.215v12.675c-11.708 0-21.268 2.793-22.449 6.337l-.967-.537c-2.363 0-4.618-.107-6.767-.322h-.536c-.967-4.941-3.545-9.345-7.412-12.567l.215-.108z" fill="#FFC178"/><path d="M45.865 52.472A23.51 23.51 0 0038.24 39.69c-2.363-2.148-5.156-3.652-8.163-4.511-2.148-.752-4.512-1.074-6.767-1.074C10.527 33.997.109 44.2.001 56.983c-.108 12.782 10.096 23.2 22.878 23.308 5.908 0 11.493-2.148 15.897-6.123 3.007-2.792 5.263-6.337 6.445-10.204.751-2.255 1.074-4.511 1.074-6.874 0-1.503-.43-3.115-.43-4.618zm54.028 1.503v.215c-.323 3.76-10.741 6.875-23.201 6.875s-22.127-2.9-22.878-6.552v-.537c0-.215 0-.43.107-.645 1.181-3.545 10.74-6.337 22.449-6.337h.322c12.674 0 23.2 3.115 23.2 6.981z" fill="#FFE278"/><path d="M23.309 54.298c-1.933 0-3.545-1.611-3.545-3.545 0-1.933 1.612-3.544 3.545-3.544 1.933 0 3.545 1.61 3.545 3.544 0 1.182.966 2.148 2.148 2.148a2.155 2.155 0 002.148-2.148c0-3.437-2.363-6.552-5.693-7.519v-.859a2.154 2.154 0 00-2.148-2.148 2.154 2.154 0 00-2.148 2.148v.86a7.501 7.501 0 00-5.693 7.518c0 4.297 3.545 7.841 7.841 7.841 1.933 0 3.545 1.611 3.545 3.545 0 1.933-1.612 3.544-3.545 3.544-1.933 0-3.545-1.61-3.545-3.544a2.155 2.155 0 00-2.148-2.149 2.155 2.155 0 00-2.148 2.149c0 3.544 2.363 6.552 5.693 7.518v1.719c0 1.181.966 2.148 2.148 2.148a2.155 2.155 0 002.148-2.148v-1.719c4.19-1.181 6.552-5.585 5.263-9.774-.966-3.222-3.974-5.585-7.411-5.585z" fill="#FFC178"/></g><defs><clipPath id="clip0"><path fill="#fff" d="M0 0h100v100H0z"/></clipPath></defs></svg>