<svg width="180" height="180" fill="none" xmlns="http://www.w3.org/2000/svg"><g clip-path="url(#clip0)"><rect width="180" height="180" rx="90" fill="#fff"/><path fill-rule="evenodd" clip-rule="evenodd" d="M179.333 141.717c5.849 4.95 6.289 14.036 6.531 21.673.245 7.726-2.258 14.972-5.147 22.053-3.204 7.854-4.554 19.11-12.619 21.496-8.68 2.569-16.063-8.668-25.047-10.349-6.861-1.284-13.441 2.612-20.366 1.852-10.046-1.102-22.364.566-29.012-7.27-6.375-7.513-5.794-20.12-1.653-28.875 4.067-8.599 17.048-8.4 22.828-15.899 4.558-5.915 1.404-15.477 5.931-21.418 5.29-6.942 13.024-17.422 21.286-14.297 9.805 3.709 6.212 21.011 14.33 27.77 6.119 5.096 16.858-1.881 22.938 3.264z" fill="#1C3C89"/></g><defs><clipPath id="clip0"><rect width="180" height="180" rx="90" fill="#fff"/></clipPath></defs></svg>