<svg width="180" height="180" fill="none" xmlns="http://www.w3.org/2000/svg"><g clip-path="url(#clip0)"><rect width="180" height="180" rx="90" fill="#fff"/><path fill-rule="evenodd" clip-rule="evenodd" d="M128.232 205.123c-4.454 7.609-3.657 18.548-10.751 23.659-7.071 5.093-16.514 2.001-24.992 2.09-8.39.088-19.05 4.618-24.624-1.57-6.132-6.809 2.367-19.464-1.773-27.739-3.88-7.755-16.17-7.7-19.882-15.546-4.12-8.707-5.079-19.777-1.158-28.918 3.989-9.3 12.315-19.525 22.089-19.883 11.125-.408 16.212 15.357 26.893 18.088 6.741 1.724 13.064-6.336 20.064-6.081 9.168.335 19.78.806 25.7 7.753 5.86 6.876 6.11 17.869 3.917 26.999-2.069 8.613-10.989 13.474-15.483 21.148z" fill="#1C3C89"/></g><defs><clipPath id="clip0"><rect width="180" height="180" rx="90" fill="#fff"/></clipPath></defs></svg>