<svg width="100" height="100" fill="none" xmlns="http://www.w3.org/2000/svg"><g clip-path="url(#clip0)"><path d="M8.008 71.68v13.672c0 4.339 3.245 8.226 9.139 10.946C22.319 98.685 29.13 100 36.328 100c7.197 0 14.01-1.315 19.182-3.702 5.893-2.72 9.138-6.607 9.138-10.946V71.68H8.008z" fill="#FFE278"/><path d="M36.328 71.68V100c7.197 0 14.01-1.315 19.182-3.702 5.893-2.72 9.138-6.607 9.138-10.946V71.68h-28.32z" fill="#FFC178"/><path d="M8.008 58.008V71.68c0 4.339 3.245 8.226 9.139 10.946 5.172 2.387 11.984 3.702 19.181 3.702 7.197 0 14.01-1.315 19.182-3.702 5.893-2.72 9.138-6.607 9.138-10.946V58.008H8.008z" fill="#FFC178"/><path d="M36.328 58.008v28.32c7.197 0 14.01-1.315 19.182-3.702 5.893-2.72 9.138-6.607 9.138-10.946V58.008h-28.32z" fill="#FF936B"/><path d="M8.008 44.336v13.672c0 4.339 3.245 8.226 9.139 10.946 5.172 2.388 11.984 3.702 19.181 3.702 7.197 0 14.01-1.314 19.182-3.702 5.893-2.72 9.138-6.607 9.138-10.946V44.336H8.008z" fill="#FFE278"/><path d="M36.328 44.336v28.32c7.197 0 14.01-1.314 19.182-3.702 5.893-2.72 9.138-6.607 9.138-10.946V44.336h-28.32z" fill="#FFC178"/><path d="M8.008 30.664v13.672c0 4.339 3.245 8.227 9.139 10.946 5.172 2.388 11.984 3.702 19.181 3.702 7.197 0 14.01-1.314 19.182-3.702 5.893-2.72 9.138-6.607 9.138-10.946V30.664H8.008z" fill="#FFC178"/><path d="M36.328 30.664v28.32c7.197 0 14.01-1.314 19.182-3.702 5.893-2.72 9.138-6.607 9.138-10.946V30.664h-28.32z" fill="#FF936B"/><path d="M36.328 45.313c-7.197 0-14.01-1.315-19.181-3.703-5.894-2.72-9.14-6.607-9.14-10.946 0-4.339 3.246-8.227 9.14-10.946 5.172-2.388 11.984-3.702 19.181-3.702 7.197 0 14.01 1.314 19.182 3.702 5.893 2.72 9.138 6.607 9.138 10.946 0 4.34-3.245 8.227-9.138 10.947-5.173 2.387-11.985 3.702-19.182 3.702z" fill="#FFE278"/><path d="M55.51 19.718c-5.173-2.388-11.985-3.702-19.182-3.702v29.297c7.197 0 14.01-1.315 19.182-3.703 5.893-2.72 9.138-6.607 9.138-10.946 0-4.339-3.245-8.227-9.138-10.946z" fill="#FFC178"/><path d="M71.484 48.82a2.93 2.93 0 01-1.19-.252 32.557 32.557 0 01-19.317-29.726V6.828a2.93 2.93 0 011.74-2.677c12.453-5.535 25.082-5.535 37.535 0a2.93 2.93 0 011.74 2.677v12.014a32.557 32.557 0 01-19.318 29.726 2.93 2.93 0 01-1.19.253z" fill="#A2E786"/><path d="M90.252 4.151C84.026 1.384 77.755 0 71.484 0v48.82a2.93 2.93 0 001.19-.252 32.557 32.557 0 0019.318-29.726V6.828a2.93 2.93 0 00-1.74-2.677z" fill="#00CB75"/><path d="M56.836 8.772v10.07A26.697 26.697 0 0071.484 42.65a26.696 26.696 0 0014.649-23.807V8.772c-9.839-3.923-19.459-3.923-29.297 0z" fill="#FFF5F5"/><path d="M86.133 18.843V8.772c-4.92-1.961-9.784-2.942-14.649-2.942v36.82a26.696 26.696 0 0014.649-23.807z" fill="#E2DFF4"/><path d="M67.341 30.621l-4.143-4.143a2.93 2.93 0 014.143-4.143l2.072 2.071 6.214-6.214a2.93 2.93 0 014.144 4.143l-8.287 8.286a2.93 2.93 0 01-4.143 0z" fill="#0A789B"/><path d="M79.77 18.192a2.93 2.93 0 00-4.142 0l-4.144 4.143v8.286l8.287-8.286a2.93 2.93 0 000-4.143z" fill="#08475E"/></g><defs><clipPath id="clip0"><path fill="#fff" d="M0 0h100v100H0z"/></clipPath></defs></svg>