<svg width="100" height="100" fill="none" xmlns="http://www.w3.org/2000/svg"><path d="M91.21 100H8.79C3.942 100 0 96.057 0 91.21V8.79C0 3.942 3.943 0 8.79 0h82.42C96.058 0 100 3.943 100 8.79v82.42c0 4.847-3.943 8.79-8.79 8.79z" fill="#0A789B"/><path d="M91.21 0H50v100h41.21c4.847 0 8.79-3.943 8.79-8.79V8.79C100 3.942 96.057 0 91.21 0z" fill="#08475E"/><path d="M8.79 5.86a2.933 2.933 0 00-2.93 2.93v82.42a2.933 2.933 0 002.93 2.93h82.42a2.933 2.933 0 002.93-2.93V8.79a2.933 2.933 0 00-2.93-2.93H8.79z" fill="#A2E786"/><path d="M91.21 5.86H50v88.28h41.21a2.933 2.933 0 002.93-2.93V8.79a2.933 2.933 0 00-2.93-2.93z" fill="#00CB75"/><path d="M14.844 27.54a2.93 2.93 0 01-2.93-2.93v-9.766a2.93 2.93 0 012.93-2.93h9.765a2.93 2.93 0 010 5.86h-6.836v6.835a2.93 2.93 0 01-2.93 2.93zm9.766 60.546h-9.766a2.93 2.93 0 01-2.93-2.93v-9.765a2.93 2.93 0 015.86 0v6.836h6.835a2.93 2.93 0 010 5.859z" fill="#0A789B"/><path d="M85.156 88.086h-9.765a2.93 2.93 0 010-5.86h6.836v-6.835a2.93 2.93 0 015.859 0v9.765a2.93 2.93 0 01-2.93 2.93zm0-60.546a2.93 2.93 0 01-2.93-2.93v-6.837h-6.835a2.93 2.93 0 010-5.859h9.765a2.93 2.93 0 012.93 2.93v9.765a2.93 2.93 0 01-2.93 2.93z" fill="#08475E"/><path d="M50 72.46c-8.59 0-17.803-3.585-26.643-10.37-6.564-5.038-10.625-10.041-10.794-10.252a2.93 2.93 0 010-3.676c.17-.21 4.23-5.214 10.794-10.252C32.197 31.125 41.41 27.54 50 27.54s17.802 3.585 26.643 10.37c6.564 5.038 10.625 10.041 10.794 10.252a2.93 2.93 0 010 3.676c-.17.21-4.23 5.214-10.794 10.252C67.803 68.875 58.59 72.46 50 72.46z" fill="#FFF5F5"/><path d="M76.643 62.09c6.564-5.038 10.625-10.041 10.794-10.252a2.93 2.93 0 000-3.676c-.17-.21-4.23-5.214-10.794-10.252C67.803 31.125 58.59 27.54 50 27.54v44.92c8.59 0 17.802-3.585 26.643-10.37z" fill="#E2DFF4"/><path d="M50 72.46c-12.385 0-22.46-10.075-22.46-22.46 0-12.385 10.075-22.46 22.46-22.46 12.385 0 22.46 10.075 22.46 22.46 0 12.385-10.075 22.46-22.46 22.46z" fill="#BCEAF9"/><path d="M72.46 50c0-12.385-10.075-22.46-22.46-22.46v44.92c12.385 0 22.46-10.075 22.46-22.46z" fill="#AED0FF"/><path d="M50 60.742c-5.923 0-10.742-4.819-10.742-10.742 0-5.923 4.819-10.742 10.742-10.742 5.923 0 10.742 4.819 10.742 10.742 0 5.923-4.819 10.742-10.742 10.742z" fill="#0A789B"/><path d="M60.742 50c0-5.923-4.819-10.742-10.742-10.742v21.484c5.923 0 10.742-4.819 10.742-10.742z" fill="#08475E"/></svg>