<svg width="36" height="36" fill="none" xmlns="http://www.w3.org/2000/svg"><g clip-path="url(#clip0)"><path fill-rule="evenodd" clip-rule="evenodd" d="M35.175 8.922c.249-.819 0-1.422-1.192-1.422h-3.938c-1.002 0-1.464.52-1.715 1.095 0 0-2.002 4.794-4.838 7.908-.919.903-1.335 1.19-1.837 1.19-.25 0-.627-.287-.627-1.108V8.922c0-.984-.275-1.422-1.11-1.422h-6.191c-.626 0-1.002.456-1.002.89 0 .931 1.418 1.147 1.564 3.769v5.697c0 1.25-.23 1.476-.73 1.476-1.335 0-4.583-4.817-6.51-10.328C6.675 7.933 6.296 7.5 5.29 7.5H1.35C.225 7.5 0 8.02 0 8.595 0 9.618 1.335 14.7 6.218 21.422c3.255 4.59 7.837 7.078 12.012 7.078 2.503 0 2.812-.552 2.812-1.505v-3.469c0-1.105.237-1.326 1.03-1.326.585 0 1.586.288 3.923 2.5 2.67 2.624 3.11 3.8 4.613 3.8h3.937c1.125 0 1.689-.552 1.365-1.644-.357-1.086-1.632-2.663-3.322-4.533-.919-1.065-2.296-2.213-2.714-2.787-.583-.737-.417-1.065 0-1.72 0 0 4.8-6.64 5.3-8.894h.001z" fill="#2787F5"/></g><defs><clipPath id="clip0"><path fill="#fff" d="M0 0h36v36H0z"/></clipPath></defs></svg>