<svg width="36" height="36" fill="none" xmlns="http://www.w3.org/2000/svg"><path d="M26.244 21.574c-.451-.228-2.648-1.3-3.059-1.453-.41-.147-.709-.223-1.008.228-.292.44-1.154 1.447-1.417 1.74-.264.294-.522.317-.967.117-.45-.228-1.892-.697-3.603-2.232-1.337-1.189-2.227-2.654-2.49-3.105-.264-.445-.03-.697.193-.92.204-.205.45-.515.68-.785.216-.27.286-.451.445-.744.146-.316.07-.562-.04-.785-.112-.223-1.009-2.431-1.383-3.31-.358-.874-.733-.762-1.009-.762-.257-.024-.556-.024-.854-.024a1.69 1.69 0 00-1.196.539c-.411.45-1.57 1.529-1.57 3.709 0 2.186 1.604 4.3 1.827 4.617.229.292 3.158 4.792 7.652 6.726 1.073.451 1.905.721 2.555.944 1.073.34 2.051.293 2.824.181.855-.14 2.648-1.084 3.024-2.138.382-1.061.382-1.94.27-2.139-.111-.205-.404-.316-.855-.515l-.019.111zm-8.15 11.051h-.024c-2.66 0-5.291-.721-7.588-2.069l-.54-.322L4.319 31.7l1.512-5.473-.364-.563a14.812 14.812 0 01-2.273-7.886c0-8.167 6.686-14.83 14.912-14.83a14.8 14.8 0 0110.535 4.365 14.69 14.69 0 014.365 10.489c-.011 8.162-6.691 14.824-14.906 14.824h-.006zM30.778 5.174C27.357 1.869 22.857 0 18.069 0 8.198 0 .158 8.004.153 17.841c0 3.141.82 6.206 2.39 8.918L0 36l9.504-2.478a18.145 18.145 0 008.567 2.173h.005c9.88 0 17.918-8.004 17.924-17.848 0-4.763-1.857-9.246-5.244-12.616l.023-.057z" fill="#27B847"/></svg>