<svg width="180" height="180" fill="none" xmlns="http://www.w3.org/2000/svg"><g clip-path="url(#clip0)"><rect width="180" height="180" rx="90" fill="#fff"/><path fill-rule="evenodd" clip-rule="evenodd" d="M179.378 251.461c-12.416 1.767-24.338 2.066-36.845 2.711-17.807.92-40.022 13.797-52.532 1.904-12.484-11.868 2.612-33.321 1.588-50.334-.787-13.078-9.014-24.947-6.903-37.956 2.226-13.718 7.069-28.939 19.052-36.899 11.955-7.942 28.254-.571 42.299-3.855 13.388-3.13 25.316-20.207 37.7-14.848 13.289 5.749 10.045 25.572 16.296 38.209 3.973 8.031 11.111 14.062 13.787 22.598 2.746 8.761.887 17.912 1.777 27.06 1.423 14.619 13.723 30.684 5.041 43.008-8.064 11.445-27.131 6.392-41.26 8.402z" fill="#1C3C89"/></g><defs><clipPath id="clip0"><rect width="180" height="180" rx="90" fill="#fff"/></clipPath></defs></svg>