<svg width="180" height="180" viewBox="0 0 180 180" fill="none" xmlns="http://www.w3.org/2000/svg">
<g clip-path="url(#clip0)">
<rect width="180" height="180" rx="90" fill="white"/>
<path fill-rule="evenodd" clip-rule="evenodd" d="M179.378 251.461C166.962 253.228 155.04 253.527 142.533 254.172C124.726 255.092 102.511 267.969 90.0011 256.076C77.517 244.208 92.6135 222.755 91.5892 205.742C90.8019 192.664 82.5746 180.795 84.6858 167.786C86.9122 154.068 91.7547 138.847 103.738 130.887C115.693 122.945 131.992 130.316 146.037 127.032C159.425 123.902 171.353 106.825 183.737 112.184C197.026 117.933 193.782 137.756 200.033 150.393C204.006 158.424 211.144 164.455 213.82 172.991C216.566 181.752 214.707 190.903 215.597 200.051C217.02 214.67 229.32 230.735 220.638 243.059C212.574 254.504 193.507 249.451 179.378 251.461Z" fill="#1C3C89"/>
</g>
<defs>
<clipPath id="clip0">
<rect width="180" height="180" rx="90" fill="white"/>
</clipPath>
</defs>
</svg>
