<svg width="89" height="22" viewBox="0 0 89 22" fill="none" xmlns="http://www.w3.org/2000/svg">
<path d="M58.8061 13.5809C58.9436 13.2659 59.064 12.9684 59.1672 12.6709C59.9237 10.7984 60.6803 8.94345 61.4197 7.07099C61.4713 6.931 61.54 6.896 61.6776 6.896C61.9527 6.9135 62.2278 6.896 62.5029 6.896C62.5029 9.59094 62.5029 12.2859 62.5029 14.9808C62.2794 14.9808 62.0731 14.9808 61.8323 14.9808C61.8323 12.6184 61.8323 10.2734 61.8323 7.92847C61.8152 7.92847 61.8152 7.92847 61.798 7.92847C61.7808 7.98097 61.7464 8.03347 61.712 8.10347C60.8007 10.3434 59.8893 12.6009 58.978 14.8408C58.9436 14.9458 58.9092 15.0158 58.7717 15.0158C58.6341 15.0158 58.6169 14.9283 58.5653 14.8233C57.654 12.5834 56.7427 10.3434 55.8314 8.10347C55.8142 8.05097 55.7798 7.98097 55.7282 7.92847C55.7282 10.2734 55.7282 12.6184 55.7282 14.9808C55.4875 14.9808 55.2811 14.9808 55.0576 14.9808C55.0576 12.2859 55.0576 9.60844 55.0576 6.896C55.3671 6.896 55.6938 6.896 56.0033 6.896C56.0377 6.896 56.0893 6.98349 56.1065 7.03599C56.6223 8.31347 57.1554 9.60844 57.6712 10.9034C57.9979 11.7259 58.3418 12.5484 58.6685 13.3534C58.7373 13.4234 58.7545 13.4934 58.8061 13.5809Z" fill="#6B687C"/>
<path d="M71.1174 14.981C71.1174 12.2861 71.1174 9.59115 71.1174 6.9137C71.169 6.9137 71.2034 6.89621 71.255 6.89621C72.1147 6.89621 72.9745 6.87871 73.8342 6.89621C76.0179 6.9312 77.6686 8.62867 77.6858 10.8511C77.703 12.1636 77.2732 13.2836 76.2587 14.1235C75.5193 14.736 74.6595 14.981 73.731 14.9985C72.9057 15.016 72.0631 14.9985 71.2378 14.9985C71.2034 14.9985 71.169 14.981 71.1174 14.981ZM71.788 14.351C72.5446 14.351 73.284 14.4035 74.0061 14.3335C75.313 14.2285 76.2587 13.5636 76.7401 12.2861C76.998 11.5861 77.0324 10.8686 76.8949 10.1511C76.6541 8.83866 75.76 7.87618 74.4876 7.59619C73.6107 7.40369 72.7165 7.52619 71.8224 7.50869C71.8052 7.50869 71.8052 7.52619 71.788 7.52619C71.788 9.80114 71.788 12.0761 71.788 14.351Z" fill="#6B687C"/>
<path d="M31.6727 14.9982C31.3976 14.9982 31.1569 15.0157 30.9162 14.9982C30.8646 14.9982 30.813 14.9107 30.7614 14.8582C30.0736 13.8432 29.403 12.8282 28.7152 11.7957C28.6465 11.6732 28.5605 11.6382 28.4229 11.6382C27.9587 11.6382 27.4944 11.6382 27.0301 11.6382C26.9786 11.6382 26.9098 11.6382 26.841 11.6382C26.841 12.7582 26.841 13.8607 26.841 14.9806C26.6003 14.9806 26.3939 14.9806 26.1704 14.9806C26.1704 12.2857 26.1704 9.60827 26.1704 6.91333C26.2392 6.91333 26.2908 6.91333 26.3596 6.91333C27.2881 6.91333 28.2338 6.91333 29.1795 6.91333C29.6266 6.91333 30.0392 7.00083 30.4347 7.21082C31.2601 7.64831 31.7071 8.59329 31.5696 9.57327C31.4148 10.7282 30.6926 11.4457 29.5406 11.5857C29.489 11.5857 29.4546 11.6032 29.3686 11.6207C30.1424 12.7407 30.899 13.8432 31.6727 14.9982ZM26.841 9.25828C26.841 9.78327 26.841 10.3258 26.841 10.8507C26.841 10.9557 26.8582 11.0257 26.9786 11.0257C27.7007 11.0257 28.4229 11.0257 29.1451 11.0257C29.6609 11.0082 30.1252 10.8507 30.4519 10.4308C30.9162 9.85327 30.9849 9.18828 30.6926 8.5058C30.4003 7.80581 29.8157 7.54332 29.1107 7.52582C28.4229 7.50832 27.7179 7.52582 27.0301 7.52582C26.8926 7.52582 26.841 7.56082 26.841 7.71831C26.8582 8.2258 26.841 8.73329 26.841 9.25828Z" fill="#6B687C"/>
<path d="M43.3995 7.91076C43.004 8.87324 42.6086 9.80072 42.2303 10.7107C41.6629 12.0757 41.1126 13.4406 40.5624 14.8231C40.5108 14.9456 40.4592 14.9806 40.3217 14.9806C40.1325 14.9631 39.9434 14.9806 39.7198 14.9806C39.7542 14.8931 39.7714 14.8406 39.7886 14.7881C40.8375 12.1982 41.8692 9.62572 42.9009 7.03578C42.9525 6.91328 43.004 6.86078 43.1416 6.87828C43.3136 6.89578 43.4855 6.89578 43.6574 6.87828C43.795 6.87828 43.8466 6.91328 43.8982 7.03578C44.5688 8.73324 45.2566 10.4132 45.9444 12.1107C46.3054 13.0031 46.6665 13.8956 47.0276 14.7881C47.0448 14.8406 47.062 14.8931 47.0964 14.9806C46.8385 14.9806 46.6149 14.9981 46.3914 14.9806C46.3398 14.9806 46.2882 14.8931 46.271 14.8406C45.7896 13.6681 45.3253 12.5132 44.8611 11.3407C44.414 10.2732 43.967 9.20573 43.5199 8.12075C43.4683 8.06825 43.4339 8.01576 43.3995 7.91076Z" fill="#6B687C"/>
<path d="M85.3032 7.91059C85.0969 8.41808 84.8905 8.90807 84.7014 9.38056C83.962 11.2005 83.2226 13.0205 82.4661 14.8404C82.4145 14.9629 82.3629 14.9979 82.2254 14.9979C82.0362 14.9804 81.8471 14.9979 81.6235 14.9979C81.7439 14.7004 81.8471 14.4205 81.9674 14.158C82.9131 11.7955 83.876 9.43306 84.8218 7.08811C84.8733 6.94811 84.9421 6.89561 85.0969 6.91311C85.3204 6.93061 85.5783 6.86061 85.7331 6.96561C85.8878 7.07061 85.9222 7.3506 85.991 7.5431C86.9711 9.95805 87.934 12.373 88.9141 14.8054C88.9313 14.8579 88.9657 14.9279 89.0001 15.0154C88.7422 15.0154 88.5014 15.0154 88.2779 15.0154C88.2435 15.0154 88.1919 14.9279 88.1747 14.8754C87.2462 12.6355 86.3349 10.3955 85.4236 8.15559C85.372 8.06809 85.3548 7.99809 85.3032 7.91059Z" fill="#6B687C"/>
<path d="M53.0458 14.3683C53.0458 14.5958 53.0458 14.7883 53.0458 14.9808C51.5327 14.9808 50.0367 14.9808 48.5408 14.9808C48.5408 12.2859 48.5408 9.60844 48.5408 6.896C48.7643 6.896 48.9706 6.896 49.1942 6.896C49.1942 9.38094 49.1942 11.8484 49.1942 14.3508C50.4838 14.3683 51.7562 14.3683 53.0458 14.3683Z" fill="#6B687C"/>
<path d="M79.2678 6.896C79.5085 6.896 79.7148 6.896 79.9383 6.896C79.9383 9.59094 79.9383 12.2684 79.9383 14.9808C79.7492 14.9808 79.5601 14.9808 79.3537 14.9808C79.3194 14.9808 79.285 14.9283 79.2678 14.8933C79.2506 14.8583 79.2678 14.7883 79.2678 14.7533C79.2678 12.2159 79.2678 9.67844 79.2678 7.12349C79.2678 7.05349 79.2678 6.98349 79.2678 6.896Z" fill="#6B687C"/>
<path d="M69.2948 10.606C69.2948 10.7985 69.2948 10.9734 69.2948 11.1834C67.6269 11.1834 65.9418 11.1834 64.2739 11.1834C64.2739 10.9909 64.2739 10.816 64.2739 10.606C65.9418 10.606 67.6097 10.606 69.2948 10.606Z" fill="#6B687C"/>
<path d="M64.2739 14.9981C64.2739 14.8056 64.2739 14.6132 64.2739 14.4207C65.959 14.4207 67.6269 14.4207 69.312 14.4207C69.312 14.6132 69.312 14.8056 69.312 14.9981C67.6269 14.9981 65.959 14.9981 64.2739 14.9981Z" fill="#6B687C"/>
<path d="M33.2546 11.1834C33.2546 10.9909 33.2546 10.7985 33.2546 10.606C34.9225 10.606 36.5904 10.606 38.2755 10.606C38.2755 10.781 38.2755 10.9734 38.2755 11.1834C36.6076 11.1834 34.9397 11.1834 33.2546 11.1834Z" fill="#6B687C"/>
<path d="M33.2546 14.9981C33.2546 14.8056 33.2546 14.6132 33.2546 14.4207C34.9225 14.4207 36.5904 14.4207 38.2755 14.4207C38.2755 14.6132 38.2755 14.8056 38.2755 14.9981C36.6076 14.9981 34.9397 14.9981 33.2546 14.9981Z" fill="#6B687C"/>
<path d="M38.2755 6.896C38.2755 7.08849 38.2755 7.26349 38.2755 7.45598C36.6076 7.45598 34.9397 7.45598 33.2546 7.45598C33.2546 7.28099 33.2546 7.08849 33.2546 6.896C34.9225 6.896 36.5904 6.896 38.2755 6.896Z" fill="#6B687C"/>
<path d="M64.2739 7.45598C64.2739 7.26349 64.2739 7.07099 64.2739 6.896C65.959 6.896 67.6269 6.896 69.2948 6.896C69.2948 7.08849 69.2948 7.26349 69.2948 7.45598C67.6269 7.45598 65.959 7.45598 64.2739 7.45598Z" fill="#6B687C"/>
<path d="M10.0073 0.770996C4.48783 0.770996 0 5.3384 0 10.9558C0 16.5732 4.48783 21.1406 10.0073 21.1406C15.5269 21.1406 20.0147 16.5732 20.0147 10.9558C20.0147 5.3384 15.5269 0.770996 10.0073 0.770996ZM7.39374 10.0108C7.35935 10.2208 7.35935 10.4483 7.35935 10.6583C7.35935 11.5158 7.35935 12.3732 7.35935 13.2307C7.35935 14.1232 6.79192 14.8407 5.98377 15.0157C4.95209 15.2432 3.90321 14.4557 3.88601 13.3707C3.85162 11.8483 3.85162 10.3258 3.88601 8.80332C3.90321 7.59585 5.15842 6.80836 6.25889 7.24586C6.37925 7.29835 6.48242 7.29835 6.60278 7.26335C7.44532 7.03586 8.28787 7.07086 9.11321 7.35085C9.1648 7.36835 9.21638 7.38585 9.28516 7.42085C9.26797 7.43835 9.28516 7.45585 9.31955 7.47335C9.25077 7.50835 9.18199 7.54335 9.13041 7.57835C8.1847 8.12084 7.56569 8.89082 7.39374 10.0108ZM11.83 10.2383C11.7956 10.5883 11.7956 10.9558 11.7956 11.3058C11.7956 11.9358 11.7956 12.5657 11.7956 13.1957C11.7956 14.2107 11.0906 15.0332 10.1621 15.0682C9.1648 15.1032 8.37384 14.4032 8.32226 13.3707C8.27067 12.3732 8.28787 11.3758 8.32226 10.3783C8.37384 9.25831 8.92407 8.38333 9.85259 7.82334C11.2969 6.94836 12.7929 6.89586 14.2716 7.77084C14.4092 7.82334 14.5124 7.92834 14.6671 8.03334C14.3748 8.05084 14.1341 8.05084 13.9105 8.08584C12.8273 8.22583 11.9675 9.13581 11.83 10.2383ZM16.2146 12.0058C16.2146 12.4432 16.2146 12.8807 16.2146 13.3007C16.1974 14.2107 15.544 14.9632 14.6843 15.0507C13.7386 15.1382 12.9476 14.5432 12.7757 13.6157C12.7585 13.5282 12.7585 13.4407 12.7585 13.3532C12.7585 12.4782 12.7585 11.6208 12.7585 10.7458C12.7585 10.3258 12.8445 9.9233 13.0508 9.53831C13.4119 8.87332 13.9793 8.55833 14.7359 8.62833C15.4237 8.69832 15.8707 9.11831 16.0599 9.7658C16.1803 10.1333 16.1974 10.5183 16.2318 10.9033C16.2318 11.2708 16.2146 11.6383 16.2146 12.0058Z" fill="#6B687C"/>
</svg>
