<svg width="12" height="20" viewBox="0 0 12 20" fill="none" xmlns="http://www.w3.org/2000/svg">
<path d="M8.55995 0.0209961C7.23815 0.0209961 5.97049 0.546077 5.03584 1.48073C4.10119 2.41538 3.57611 3.68304 3.57611 5.00483V7.77962H0.909083C0.775177 7.77962 0.666626 7.88817 0.666626 8.02207V11.6859C0.666626 11.8198 0.775178 11.9283 0.909083 11.9283H3.57611V19.4445C3.57611 19.5784 3.68466 19.6869 3.81857 19.6869H7.48236C7.61626 19.6869 7.72482 19.5784 7.72482 19.4445V11.9283H10.4155C10.5267 11.9283 10.6237 11.8526 10.6507 11.7447L11.5666 8.08088C11.6049 7.92785 11.4891 7.77962 11.3314 7.77962H7.72482V5.00483C7.72482 4.78334 7.8128 4.57092 7.96942 4.41431C8.12604 4.25769 8.33846 4.1697 8.55995 4.1697H11.3617C11.4956 4.1697 11.6041 4.06115 11.6041 3.92725V0.263453C11.6041 0.129548 11.4956 0.0209961 11.3617 0.0209961H8.55995Z" fill="white"/>
</svg>
