<svg width="151" height="67" viewBox="0 0 151 67" fill="none" xmlns="http://www.w3.org/2000/svg">
<path d="M0.228333 57.3926H0.786528V66.7297H0.228333V57.3926Z" fill="white"/>
<path d="M9.61618 57.3926H10.0983V66.7297H9.51469L4.2372 57.9762V66.7297H3.75513V57.3926H4.36407L9.64155 66.0954V57.3926H9.61618Z" fill="white"/>
<path d="M18.1667 57.3926V57.824H15.3757V66.7297H14.8175V57.824H11.7728V57.3926H18.1667Z" fill="white"/>
<path d="M25.1695 57.3926V57.824H19.9935V61.5537H24.5606V61.985H19.9935V66.2984H25.1441V66.7043H19.4607V57.3672H25.1695V57.3926Z" fill="white"/>
<path d="M30.1933 62.6701L32.3499 66.7297H31.8171L29.7112 62.6955H27.9097V66.7297H27.4023V57.3926H29.9649C31.6395 57.3926 32.7051 58.1031 32.7051 60.0821C32.7051 61.9089 31.6395 62.594 30.1933 62.6701ZM27.9097 62.3403H29.7112C30.8783 62.3403 32.2484 62.1119 32.2484 60.0314C32.2484 57.9508 30.9037 57.824 29.838 57.824H27.9097V62.3403Z" fill="white"/>
<path d="M34.6842 57.3926H35.2424V66.7297H34.6842V57.3926Z" fill="white"/>
<path d="M44.5034 61.097C44.5287 61.8074 44.5287 62.4925 44.5034 63.0507C44.4019 65.5879 43.2855 66.7804 41.0527 66.7804C38.8453 66.7804 37.7035 65.5626 37.602 63.0507C37.5767 62.4925 37.5767 61.8074 37.602 61.097C37.6782 58.6612 38.8199 57.3165 41.0527 57.3165C43.2601 57.3165 44.4272 58.6612 44.5034 61.097ZM43.9452 60.9448C43.8183 58.8135 42.9556 57.6717 41.0527 57.6717C39.1751 57.6717 38.2871 58.8135 38.1602 60.9448C38.0841 61.9343 38.1349 62.0612 38.1602 63.1014C38.2363 65.2327 39.1498 66.3999 41.0527 66.3999C42.9556 66.3999 43.869 65.2327 43.9452 63.1014C43.9705 62.0865 43.9959 61.9343 43.9452 60.9448Z" fill="white"/>
<path d="M49.5525 62.6701L51.7092 66.7297H51.1764L49.0704 62.6955H47.269V66.7297H46.7615V57.3926H49.3242C50.9987 57.3926 52.0644 58.1031 52.0644 60.0821C52.0644 61.9089 50.9987 62.594 49.5525 62.6701ZM47.269 62.3403H49.0704C50.2376 62.3403 51.6331 62.1119 51.6331 60.0314C51.6331 57.9508 50.2883 57.824 49.2227 57.824H47.2944V62.3403H47.269Z" fill="white"/>
<path d="M64.2686 60.9194C64.294 61.503 64.294 62.5179 64.2686 63.2537C64.1925 65.6895 63.0253 66.7551 60.8179 66.7551H57.7225V57.418H60.8179C63.0253 57.3926 64.1671 58.3822 64.2686 60.9194ZM63.7358 60.8433C63.6596 58.6866 62.6955 57.7986 60.8179 57.7986H58.2299V66.3238H60.8179C62.6955 66.3238 63.6089 65.4865 63.7358 63.3552C63.7865 62.391 63.7865 61.8836 63.7358 60.8433Z" fill="white"/>
<path d="M72.1848 57.3926V57.824H67.0342V61.5537H71.6012V61.985H67.0342V66.2984H72.1848V66.7043H66.476V57.3672H72.1848V57.3926Z" fill="white"/>
<path d="M76.9548 57.621C75.7623 57.621 74.8743 58.3822 74.8743 59.3971C74.8743 60.4373 75.5847 60.8433 77.31 61.6806C78.604 62.2895 79.6697 63.0253 79.6697 64.4969C79.6697 65.9939 78.5533 66.8058 76.9295 66.8058C75.4071 66.8058 74.037 66.0954 74.0624 64.1417H74.5698C74.5698 65.8163 75.8892 66.4252 76.9295 66.4252C78.4011 66.4252 79.1369 65.7656 79.1369 64.4716C79.1369 63.1014 78.0458 62.5432 76.828 61.9089C75.5086 61.2492 74.2907 60.6403 74.2907 59.4478C74.2907 58.1284 75.3056 57.2911 76.9548 57.2911C78.9085 57.2911 79.7965 58.5598 79.7458 60.0821H79.2637C79.2891 58.6613 78.5533 57.621 76.9548 57.621Z" fill="white"/>
<path d="M82.3845 57.3926H82.9427V66.7297H82.3845V57.3926Z" fill="white"/>
<path d="M92.3052 62.0612C92.3052 62.4671 92.3052 62.8223 92.2799 63.1776C92.1784 65.7148 91.0366 66.7804 88.8292 66.7804C86.6218 66.7804 85.48 65.5626 85.3785 63.0507C85.3532 62.4925 85.3532 61.8074 85.3785 61.097C85.4546 58.6612 86.6218 57.3165 88.8292 57.3165C90.7068 57.3165 91.9246 57.9762 92.1784 59.9299H91.6202C91.4172 58.4075 90.453 57.6717 88.8292 57.6717C86.9263 57.6717 86.0636 58.8135 85.9367 60.9448C85.886 61.9343 85.886 62.0612 85.9367 63.1014C86.0382 65.5626 86.9263 66.3999 88.8292 66.3999C91.062 66.3999 91.8231 64.8014 91.747 62.4417H89.1844V62.0104H92.3052V62.0612Z" fill="white"/>
<path d="M100.754 57.3926H101.236V66.7297H100.653L95.3753 57.9762V66.7297H94.8932V57.3926H95.5021L100.78 66.0954V57.3926H100.754Z" fill="white"/>
<path d="M110.472 57.621C109.279 57.621 108.391 58.3822 108.391 59.3971C108.391 60.4373 109.102 60.8433 110.827 61.6806C112.121 62.2895 113.187 63.0253 113.187 64.4969C113.187 65.9939 112.07 66.8058 110.447 66.8058C108.924 66.8058 107.554 66.0954 107.579 64.1417H108.087C108.087 65.8163 109.406 66.4252 110.447 66.4252C111.918 66.4252 112.654 65.7656 112.654 64.4716C112.654 63.1014 111.563 62.5432 110.345 61.9089C109.026 61.2492 107.808 60.6403 107.808 59.4478C107.808 58.1284 108.823 57.2911 110.472 57.2911C112.426 57.2911 113.314 58.5598 113.263 60.0821H112.781C112.806 58.6613 112.07 57.621 110.472 57.621Z" fill="white"/>
<path d="M121.027 57.3926V57.824H118.236V66.7297H117.678V57.824H114.633V57.3926H121.027Z" fill="white"/>
<path d="M128.968 57.3926V63.1015C128.968 65.6387 127.903 66.7805 125.695 66.7805C123.463 66.7805 122.422 65.588 122.422 63.1015V57.3926H122.981V63.1776C122.981 65.3342 123.792 66.4506 125.695 66.4506C127.573 66.4506 128.385 65.385 128.385 63.1776V57.3926H128.968Z" fill="white"/>
<path d="M138.026 60.9194C138.052 61.503 138.052 62.5179 138.026 63.2537C137.925 65.6895 136.783 66.7551 134.576 66.7551H131.48V57.418H134.576C136.783 57.3926 137.925 58.3822 138.026 60.9194ZM137.494 60.8433C137.418 58.6866 136.453 57.7986 134.576 57.7986H131.988V66.3238H134.576C136.453 66.3238 137.367 65.4865 137.494 63.3552C137.544 62.391 137.544 61.8836 137.494 60.8433Z" fill="white"/>
<path d="M140.411 57.3926H140.97V66.7297H140.411V57.3926Z" fill="white"/>
<path d="M150.256 61.097C150.281 61.8074 150.281 62.4925 150.256 63.0507C150.155 65.5879 149.038 66.7804 146.805 66.7804C144.598 66.7804 143.456 65.5626 143.355 63.0507C143.329 62.4925 143.329 61.8074 143.355 61.097C143.431 58.6612 144.573 57.3165 146.805 57.3165C149.013 57.3165 150.18 58.6612 150.256 61.097ZM149.698 60.9448C149.571 58.8135 148.708 57.6717 146.805 57.6717C144.928 57.6717 144.04 58.8135 143.913 60.9448C143.837 61.9343 143.888 62.0612 143.913 63.1014C144.014 65.2327 144.902 66.3999 146.805 66.3999C148.708 66.3999 149.622 65.2327 149.698 63.1014C149.723 62.0865 149.749 61.9343 149.698 60.9448Z" fill="white"/>
<path d="M26.362 44.3512H0.0761175H0L24.2815 1.97906H2.05517V0H27.9351L3.70439 42.4228H26.362V44.3512Z" fill="white"/>
<path d="M109.051 16.6951C109.127 19.4607 109.127 24.2815 109.051 27.7322C108.645 39.2513 103.165 44.3512 92.6351 44.3512H77.919V0H92.6351C103.165 0 108.544 4.69392 109.051 16.6951ZM106.514 16.416C106.108 6.19089 101.592 1.95368 92.6351 1.95368H80.3548V42.4736H92.6351C101.592 42.4736 105.88 38.4394 106.514 28.3411C106.793 23.7233 106.717 21.3129 106.514 16.416Z" fill="white"/>
<path d="M52.1659 0H50.0599L32.5529 44.3512H35.1917L40.4945 30.3455H40.5199L41.3064 28.265L42.2706 25.7785L44.5795 19.7398L51.1256 2.7656L59.4732 24.5352V24.5606L60.894 28.265L67.0088 44.3512H69.6475L52.1659 0Z" fill="white"/>
<path d="M141.908 23.2412L148.658 19.1562L148.201 18.3951L141.579 22.4039L132.724 0H130.618L113.136 44.3512H115.775L118.388 37.4498L139.98 24.4084L140.031 24.5606V24.586L141.452 28.3157L147.567 44.3765H150.205L141.908 23.2412ZM118.896 36.1051L121.078 30.3455H121.103L121.89 28.265L122.854 25.7785V25.7531L125.163 19.7398L131.683 2.7656L139.65 23.5457L118.896 36.1051Z" fill="white"/>
</svg>
