<svg width="12" height="12" viewBox="0 0 12 12" fill="none" xmlns="http://www.w3.org/2000/svg">
<path fill-rule="evenodd" clip-rule="evenodd" d="M10.8415 2.24818H2.6517L1.95195 1.02755C1.8734 0.890544 1.72482 0.805634 1.5636 0.805634H0.674216C0.428619 0.805634 0.229523 0.999389 0.229523 1.2384C0.229523 1.47741 0.428619 1.67116 0.674216 1.67116H1.30248L1.99305 2.87578L3.58569 6.30513L3.58732 6.30863L3.7276 6.61068L2.12858 8.27055C2.0136 8.3899 1.97761 8.56215 2.03556 8.71571C2.09351 8.86928 2.23549 8.97793 2.40251 8.9965L3.85999 9.1586C5.68304 9.36136 7.5239 9.36136 9.34694 9.1586L10.8044 8.9965C11.0484 8.96936 11.2236 8.75486 11.1958 8.5174C11.1679 8.27994 10.9475 8.10943 10.7034 8.13657L9.24596 8.29867C7.49001 8.49397 5.71692 8.49397 3.96098 8.29867L3.38257 8.23434L4.55619 7.01606C4.56754 7.00428 4.57809 6.99204 4.58783 6.97941L5.03419 7.03593C5.65968 7.11514 6.29195 7.13066 6.92075 7.08227C8.38733 6.96939 9.74656 6.29025 10.6955 5.19621L11.0383 4.80106C11.0498 4.78779 11.0605 4.77385 11.0702 4.75933L11.709 3.81195C12.1618 3.14044 11.6668 2.24818 10.8415 2.24818Z" fill="#FDC5BC"/>
<path d="M3.34238 9.89368C2.85118 9.89368 2.45299 10.2812 2.45299 10.7592C2.45299 11.2372 2.85118 11.6247 3.34238 11.6247C3.83357 11.6247 4.23176 11.2372 4.23176 10.7592C4.23176 10.2812 3.83357 9.89368 3.34238 9.89368Z" fill="#FDC5BC"/>
<path d="M8.97516 10.7592C8.97516 10.2812 9.37335 9.89368 9.86454 9.89368C10.3557 9.89368 10.7539 10.2812 10.7539 10.7592C10.7539 11.2372 10.3557 11.6247 9.86454 11.6247C9.37335 11.6247 8.97516 11.2372 8.97516 10.7592Z" fill="#FDC5BC"/>
</svg>
