<svg width="90" height="20" viewBox="0 0 90 20" fill="none" xmlns="http://www.w3.org/2000/svg">
<path d="M17.6108 0.0171821C17.7656 0.0515464 17.9032 0.0859107 18.058 0.120275C19.1758 0.429553 19.967 1.40893 20.0357 2.56014C20.0357 2.64605 20.0357 2.73196 20.0357 2.81787C20.0357 7.61168 20.0357 12.3883 20.0357 17.1821C20.0357 18.5052 19.2446 19.5704 18.0064 19.8969C17.8688 19.9313 17.7312 19.9656 17.5936 20C12.5374 20 7.48116 20 2.42493 20C2.39053 19.9828 2.35613 19.9656 2.32174 19.9656C1.16947 19.7594 0.412754 19.0722 0.0859903 17.9553C0.0515942 17.8351 0.0343961 17.7148 0 17.5773C0 12.5258 0 7.47423 0 2.42268C0.0171981 2.38832 0.0343961 2.35395 0.0343961 2.31959C0.240773 1.16838 0.928695 0.412371 2.04657 0.0859106C2.16696 0.0515464 2.28734 0.0343643 2.42493 0C7.49836 0.0171821 12.5546 0.0171821 17.6108 0.0171821ZM9.33855 6.59794C9.30415 6.58076 9.30415 6.56357 9.28695 6.56357C9.23536 6.54639 9.18377 6.51203 9.11497 6.49484C8.28947 6.21993 7.44676 6.20275 6.60406 6.40893C6.48367 6.4433 6.38048 6.4433 6.26009 6.39175C5.17662 5.94502 3.92116 6.73539 3.88676 7.92096C3.85237 9.41581 3.85237 10.9107 3.88676 12.4055C3.90396 13.4708 4.93584 14.244 5.98493 14.0206C6.79323 13.8488 7.36077 13.1271 7.36077 12.268C7.36077 11.4261 7.36077 10.5842 7.36077 9.74227C7.36077 9.53608 7.36077 9.31271 7.39517 9.10653C7.56715 8.02405 8.18628 7.25086 9.13217 6.71821C9.20096 6.66667 9.26976 6.6323 9.33855 6.59794ZM14.6871 7.14777C14.5324 7.02749 14.4292 6.9244 14.2916 6.85567C12.8126 5.99656 11.3163 6.04811 9.87169 6.90722C8.94299 7.45704 8.37546 8.31615 8.34106 9.41581C8.30666 10.3952 8.28947 11.3746 8.34106 12.354C8.39266 13.3849 9.18377 14.0722 10.1813 14.0206C11.1099 13.9863 11.8151 13.1787 11.8151 12.1821C11.8151 11.5636 11.8151 10.945 11.8151 10.3265C11.8151 9.98282 11.8151 9.62199 11.8495 9.27835C11.9699 8.19588 12.847 7.31959 13.9304 7.16495C14.154 7.16495 14.3948 7.16495 14.6871 7.14777ZM16.235 11.0481C16.235 10.6873 16.2522 10.3265 16.235 9.96564C16.2006 9.58763 16.1662 9.20962 16.063 8.8488C15.8566 8.21306 15.4267 7.80069 14.7387 7.73196C13.9992 7.66323 13.4317 7.97251 13.0533 8.62543C12.847 8.98625 12.761 9.39862 12.761 9.811C12.761 10.6701 12.761 11.512 12.761 12.3711C12.761 12.457 12.761 12.543 12.7782 12.6289C12.9501 13.5395 13.7585 14.1237 14.6871 14.0378C15.547 13.9691 16.2178 13.2131 16.2178 12.3196C16.235 11.89 16.235 11.4777 16.235 11.0481Z" fill="white"/>
<path d="M58.8375 12.5978C58.9751 12.2885 59.0955 11.9964 59.1987 11.7043C59.9554 9.86579 60.7121 8.04449 61.4516 6.206C61.5032 6.06854 61.572 6.03418 61.7096 6.03418C61.9848 6.05136 62.2599 6.03418 62.5351 6.03418C62.5351 8.68023 62.5351 11.3263 62.5351 13.9723C62.3115 13.9723 62.1052 13.9723 61.8644 13.9723C61.8644 11.6527 61.8644 9.35033 61.8644 7.04793C61.8472 7.04793 61.8472 7.04793 61.83 7.04793C61.8128 7.09947 61.7784 7.15102 61.744 7.21975C60.8325 9.41906 59.921 11.6356 59.0095 13.8349C58.9751 13.938 58.9407 14.0067 58.8031 14.0067C58.6655 14.0067 58.6483 13.9208 58.5968 13.8177C57.6853 11.6184 56.7738 9.41906 55.8623 7.21975C55.8451 7.1682 55.8107 7.09947 55.7591 7.04793C55.7591 9.35033 55.7591 11.6527 55.7591 13.9723C55.5183 13.9723 55.3119 13.9723 55.0883 13.9723C55.0883 11.3263 55.0883 8.69741 55.0883 6.03418C55.3979 6.03418 55.7247 6.03418 56.0342 6.03418C56.0686 6.03418 56.1202 6.12009 56.1374 6.17164C56.6534 7.42593 57.1865 8.69741 57.7025 9.96889C58.0292 10.7764 58.3732 11.584 58.6999 12.3744C58.7687 12.4431 58.7859 12.5118 58.8375 12.5978Z" fill="white"/>
<path d="M71.1513 13.9721C71.1513 11.3261 71.1513 8.68005 71.1513 6.05119C71.2029 6.05119 71.2373 6.034 71.2889 6.034C72.1488 6.034 73.0087 6.01682 73.8686 6.034C76.0528 6.06837 77.7038 7.73503 77.721 9.91717C77.7382 11.2058 77.3082 12.3055 76.2936 13.1302C75.554 13.7316 74.6941 13.9722 73.7654 13.9893C72.9399 14.0065 72.0972 13.9893 71.2717 13.9893C71.2373 13.9893 71.2029 13.9721 71.1513 13.9721ZM71.8221 13.3536C72.5788 13.3536 73.3183 13.4051 74.0406 13.3364C75.3477 13.2333 76.2936 12.5804 76.7751 11.3261C77.0331 10.6388 77.0675 9.93435 76.9299 9.22988C76.6891 7.94122 75.7948 6.9962 74.5222 6.72129C73.6451 6.53229 72.7508 6.65256 71.8565 6.63538C71.8393 6.63538 71.8393 6.65256 71.8221 6.65256C71.8221 8.88624 71.8221 11.1199 71.8221 13.3536Z" fill="white"/>
<path d="M31.699 13.9899C31.4238 13.9899 31.183 14.0071 30.9423 13.9899C30.8907 13.9899 30.8391 13.904 30.7875 13.8524C30.0995 12.8559 29.4288 11.8593 28.7409 10.8456C28.6721 10.7253 28.5861 10.6909 28.4485 10.6909C27.9842 10.6909 27.5198 10.6909 27.0555 10.6909C27.0039 10.6909 26.9351 10.6909 26.8663 10.6909C26.8663 11.7906 26.8663 12.8731 26.8663 13.9727C26.6255 13.9727 26.4192 13.9727 26.1956 13.9727C26.1956 11.3267 26.1956 8.69781 26.1956 6.05176C26.2644 6.05176 26.316 6.05176 26.3848 6.05176C27.3135 6.05176 28.2594 6.05176 29.2052 6.05176C29.6524 6.05176 30.0652 6.13767 30.4607 6.34385C31.2862 6.77341 31.7334 7.70124 31.5958 8.66344C31.441 9.79746 30.7187 10.5019 29.5664 10.6394C29.5148 10.6394 29.4804 10.6566 29.3944 10.6738C30.1683 11.7734 30.9251 12.8559 31.699 13.9899ZM26.8663 8.35416C26.8663 8.86963 26.8663 9.40227 26.8663 9.91774C26.8663 10.0208 26.8835 10.0896 27.0039 10.0896C27.7262 10.0896 28.4485 10.0896 29.1709 10.0896C29.6868 10.0724 30.1511 9.91774 30.4779 9.50537C30.9423 8.93836 31.011 8.28544 30.7187 7.61533C30.4263 6.92805 29.8416 6.67031 29.1365 6.65313C28.4485 6.63595 27.7434 6.65313 27.0555 6.65313C26.9179 6.65313 26.8663 6.6875 26.8663 6.84214C26.8835 7.34042 26.8663 7.8387 26.8663 8.35416Z" fill="white"/>
<path d="M43.428 7.03064C43.0325 7.97566 42.6369 8.88631 42.2586 9.77978C41.691 11.12 41.1407 12.4602 40.5904 13.8176C40.5388 13.9379 40.4872 13.9722 40.3496 13.9722C40.1604 13.955 39.9712 13.9722 39.7477 13.9722C39.782 13.8863 39.7992 13.8348 39.8164 13.7832C40.8655 11.2403 41.8974 8.71449 42.9293 6.17153C42.9809 6.05126 43.0325 5.99971 43.1701 6.01689C43.342 6.03408 43.514 6.03408 43.686 6.01689C43.8236 6.01689 43.8752 6.05126 43.9268 6.17153C44.5975 7.8382 45.2854 9.48768 45.9734 11.1543C46.3345 12.0306 46.6957 12.9069 47.0568 13.7832C47.074 13.8348 47.0912 13.8863 47.1256 13.9722C46.8677 13.9722 46.6441 13.9894 46.4205 13.9722C46.3689 13.9722 46.3173 13.8863 46.3001 13.8348C45.8186 12.6836 45.3542 11.5495 44.8899 10.3983C44.4427 9.35023 43.9956 8.30212 43.5484 7.23682C43.4968 7.18528 43.4624 7.13373 43.428 7.03064Z" fill="white"/>
<path d="M85.3397 7.03104C85.1334 7.52932 84.927 8.01042 84.7378 8.47434C83.9983 10.2613 83.2588 12.0482 82.5021 13.8352C82.4505 13.9554 82.3989 13.9898 82.2613 13.9898C82.0721 13.9726 81.8829 13.9898 81.6594 13.9898C81.7797 13.6977 81.8829 13.4228 82.0033 13.1651C82.9492 10.8455 83.9123 8.52589 84.8582 6.22348C84.9098 6.08602 84.9786 6.03448 85.1334 6.05166C85.3569 6.06884 85.6149 6.00011 85.7697 6.10321C85.9245 6.2063 85.9589 6.48121 86.0277 6.67022C87.008 9.04135 87.971 11.4125 88.9513 13.8008C88.9685 13.8523 89.0029 13.9211 89.0373 14.007C88.7794 14.007 88.5386 14.007 88.315 14.007C88.2806 14.007 88.229 13.9211 88.2118 13.8695C87.2831 11.6702 86.3716 9.47091 85.4601 7.27159C85.4085 7.18568 85.3913 7.11695 85.3397 7.03104Z" fill="white"/>
<path d="M53.0762 13.371C53.0762 13.5943 53.0762 13.7833 53.0762 13.9723C51.5627 13.9723 50.0665 13.9723 48.5703 13.9723C48.5703 11.3263 48.5703 8.69741 48.5703 6.03418C48.7939 6.03418 49.0002 6.03418 49.2238 6.03418C49.2238 8.47404 49.2238 10.8967 49.2238 13.3538C50.5137 13.371 51.7863 13.371 53.0762 13.371Z" fill="white"/>
<path d="M79.3032 6.03418C79.544 6.03418 79.7504 6.03418 79.974 6.03418C79.974 8.68023 79.974 11.3091 79.974 13.9723C79.7848 13.9723 79.5956 13.9723 79.3892 13.9723C79.3548 13.9723 79.3204 13.9208 79.3032 13.8864C79.286 13.8521 79.3032 13.7833 79.3032 13.749C79.3032 11.2575 79.3032 8.76614 79.3032 6.25755C79.3032 6.18882 79.3032 6.12009 79.3032 6.03418Z" fill="white"/>
<path d="M69.3284 9.67676C69.3284 9.86576 69.3284 10.0376 69.3284 10.2438C67.6602 10.2438 65.9747 10.2438 64.3065 10.2438C64.3065 10.0548 64.3065 9.88294 64.3065 9.67676C65.9747 9.67676 67.643 9.67676 69.3284 9.67676Z" fill="white"/>
<path d="M64.3065 13.9894C64.3065 13.8004 64.3065 13.6114 64.3065 13.4224C65.9919 13.4224 67.6601 13.4224 69.3456 13.4224C69.3456 13.6114 69.3456 13.8004 69.3456 13.9894C67.6601 13.9894 65.9919 13.9894 64.3065 13.9894Z" fill="white"/>
<path d="M33.2812 10.2438C33.2812 10.0548 33.2812 9.86576 33.2812 9.67676C34.9494 9.67676 36.6176 9.67676 38.303 9.67676C38.303 9.84858 38.303 10.0376 38.303 10.2438C36.6348 10.2438 34.9666 10.2438 33.2812 10.2438Z" fill="white"/>
<path d="M33.2812 13.9894C33.2812 13.8004 33.2812 13.6114 33.2812 13.4224C34.9494 13.4224 36.6176 13.4224 38.303 13.4224C38.303 13.6114 38.303 13.8004 38.303 13.9894C36.6348 13.9894 34.9666 13.9894 33.2812 13.9894Z" fill="white"/>
<path d="M38.303 6.03418C38.303 6.22318 38.303 6.395 38.303 6.58401C36.6348 6.58401 34.9666 6.58401 33.2812 6.58401C33.2812 6.41219 33.2812 6.22318 33.2812 6.03418C34.9494 6.03418 36.6176 6.03418 38.303 6.03418Z" fill="white"/>
<path d="M64.3065 6.58401C64.3065 6.395 64.3065 6.206 64.3065 6.03418C65.9919 6.03418 67.6602 6.03418 69.3284 6.03418C69.3284 6.22318 69.3284 6.395 69.3284 6.58401C67.6602 6.58401 65.9919 6.58401 64.3065 6.58401Z" fill="white"/>
</svg>
