<svg width="90" height="20" viewBox="0 0 90 20" fill="none" xmlns="http://www.w3.org/2000/svg">
<path d="M17.6108 0.0171821C17.7656 0.0515464 17.9032 0.0859107 18.058 0.120275C19.1758 0.429553 19.967 1.40893 20.0357 2.56014C20.0357 2.64605 20.0357 2.73196 20.0357 2.81787C20.0357 7.61168 20.0357 12.3883 20.0357 17.1821C20.0357 18.5052 19.2446 19.5704 18.0064 19.8969C17.8688 19.9313 17.7312 19.9656 17.5936 20C12.5374 20 7.48116 20 2.42493 20C2.39053 19.9828 2.35613 19.9656 2.32174 19.9656C1.16947 19.7594 0.412754 19.0722 0.0859903 17.9553C0.0515942 17.8351 0.0343961 17.7148 0 17.5773C0 12.5258 0 7.47423 0 2.42268C0.0171981 2.38832 0.0343961 2.35395 0.0343961 2.31959C0.240773 1.16838 0.928696 0.412371 2.04657 0.0859106C2.16696 0.0515464 2.28734 0.0343643 2.42493 0C7.49836 0.0171821 12.5546 0.0171821 17.6108 0.0171821ZM9.33855 6.59794C9.30415 6.58076 9.30415 6.56357 9.28695 6.56357C9.23536 6.54639 9.18377 6.51203 9.11497 6.49484C8.28947 6.21993 7.44676 6.20275 6.60406 6.40893C6.48367 6.4433 6.38048 6.4433 6.2601 6.39175C5.17662 5.94502 3.92116 6.73539 3.88676 7.92096C3.85237 9.41581 3.85237 10.9107 3.88676 12.4055C3.90396 13.4708 4.93584 14.244 5.98493 14.0206C6.79324 13.8488 7.36077 13.1271 7.36077 12.268C7.36077 11.4261 7.36077 10.5842 7.36077 9.74227C7.36077 9.53608 7.36077 9.31271 7.39517 9.10653C7.56715 8.02405 8.18628 7.25086 9.13217 6.71821C9.20096 6.66667 9.26976 6.6323 9.33855 6.59794ZM14.6871 7.14777C14.5324 7.02749 14.4292 6.9244 14.2916 6.85567C12.8126 5.99656 11.3163 6.04811 9.87169 6.90722C8.94299 7.45704 8.37546 8.31615 8.34106 9.41581C8.30667 10.3952 8.28947 11.3746 8.34106 12.354C8.39266 13.3849 9.18377 14.0722 10.1813 14.0206C11.1099 13.9863 11.8151 13.1787 11.8151 12.1821C11.8151 11.5636 11.8151 10.945 11.8151 10.3265C11.8151 9.98282 11.8151 9.62199 11.8495 9.27835C11.9699 8.19588 12.847 7.31959 13.9304 7.16495C14.154 7.16495 14.3948 7.16495 14.6871 7.14777ZM16.235 11.0481C16.235 10.6873 16.2522 10.3265 16.235 9.96564C16.2006 9.58763 16.1662 9.20962 16.063 8.8488C15.8566 8.21306 15.4267 7.80069 14.7387 7.73196C13.9992 7.66323 13.4317 7.97251 13.0533 8.62543C12.847 8.98625 12.761 9.39862 12.761 9.811C12.761 10.6701 12.761 11.512 12.761 12.3711C12.761 12.457 12.761 12.543 12.7782 12.6289C12.9501 13.5395 13.7585 14.1237 14.6871 14.0378C15.5471 13.9691 16.2178 13.2131 16.2178 12.3196C16.235 11.89 16.235 11.4777 16.235 11.0481Z" fill="#00549B"/>
<path d="M58.8374 12.5978C58.975 12.2885 59.0954 11.9964 59.1986 11.7043C59.9553 9.86579 60.712 8.04449 61.4515 6.206C61.5031 6.06854 61.5719 6.03418 61.7095 6.03418C61.9847 6.05136 62.2598 6.03418 62.535 6.03418C62.535 8.68023 62.535 11.3263 62.535 13.9723C62.3114 13.9723 62.105 13.9723 61.8643 13.9723C61.8643 11.6527 61.8643 9.35033 61.8643 7.04793C61.8471 7.04793 61.8471 7.04793 61.8299 7.04793C61.8127 7.09947 61.7783 7.15102 61.7439 7.21975C60.8324 9.41906 59.9209 11.6356 59.0094 13.8349C58.975 13.938 58.9406 14.0067 58.803 14.0067C58.6654 14.0067 58.6482 13.9208 58.5966 13.8177C57.6851 11.6184 56.7736 9.41906 55.8621 7.21975C55.8449 7.1682 55.8105 7.09947 55.7589 7.04793C55.7589 9.35033 55.7589 11.6527 55.7589 13.9723C55.5182 13.9723 55.3118 13.9723 55.0882 13.9723C55.0882 11.3263 55.0882 8.69741 55.0882 6.03418C55.3978 6.03418 55.7246 6.03418 56.0341 6.03418C56.0685 6.03418 56.1201 6.12009 56.1373 6.17164C56.6532 7.42593 57.1864 8.69741 57.7023 9.96889C58.0291 10.7764 58.3731 11.584 58.6998 12.3744C58.7686 12.4431 58.7858 12.5118 58.8374 12.5978Z" fill="#00549B"/>
<path d="M71.1512 13.9726C71.1512 11.3266 71.1512 8.68054 71.1512 6.05167C71.2028 6.05167 71.2372 6.03449 71.2888 6.03449C72.1487 6.03449 73.0086 6.01731 73.8685 6.03449C76.0527 6.06886 77.7037 7.73552 77.7209 9.91765C77.7381 11.2063 77.3081 12.306 76.2934 13.1307C75.5539 13.7321 74.694 13.9726 73.7653 13.9898C72.9398 14.007 72.0971 13.9898 71.2716 13.9898C71.2372 13.9898 71.2028 13.9726 71.1512 13.9726ZM71.8219 13.3541C72.5787 13.3541 73.3182 13.4056 74.0405 13.3369C75.3475 13.2338 76.2934 12.5809 76.775 11.3266C77.033 10.6393 77.0674 9.93484 76.9298 9.23037C76.689 7.94171 75.7947 6.99669 74.522 6.72178C73.6449 6.53277 72.7506 6.65305 71.8563 6.63587C71.8391 6.63587 71.8391 6.65305 71.8219 6.65305C71.8219 8.88673 71.8219 11.1204 71.8219 13.3541Z" fill="#00549B"/>
<path d="M31.6989 13.9894C31.4238 13.9894 31.183 14.0066 30.9422 13.9894C30.8906 13.9894 30.839 13.9035 30.7874 13.852C30.0995 12.8554 29.4288 11.8588 28.7409 10.8451C28.6721 10.7248 28.5861 10.6904 28.4485 10.6904C27.9842 10.6904 27.5198 10.6904 27.0555 10.6904C27.0039 10.6904 26.9351 10.6904 26.8663 10.6904C26.8663 11.7901 26.8663 12.8726 26.8663 13.9722C26.6255 13.9722 26.4191 13.9722 26.1956 13.9722C26.1956 11.3262 26.1956 8.69732 26.1956 6.05127C26.2643 6.05127 26.3159 6.05127 26.3847 6.05127C27.3134 6.05127 28.2593 6.05127 29.2052 6.05127C29.6524 6.05127 30.0651 6.13718 30.4607 6.34337C31.2862 6.77292 31.7333 7.70076 31.5957 8.66295C31.441 9.79698 30.7186 10.5014 29.5664 10.6389C29.5148 10.6389 29.4804 10.6561 29.3944 10.6733C30.1683 11.7729 30.925 12.8554 31.6989 13.9894ZM26.8663 8.35368C26.8663 8.86914 26.8663 9.40179 26.8663 9.91725C26.8663 10.0203 26.8835 10.0891 27.0039 10.0891C27.7262 10.0891 28.4485 10.0891 29.1708 10.0891C29.6868 10.0719 30.1511 9.91725 30.4779 9.50488C30.9422 8.93787 31.011 8.28495 30.7186 7.61484C30.4263 6.92756 29.8415 6.66983 29.1364 6.65264C28.4485 6.63546 27.7434 6.65264 27.0555 6.65264C26.9179 6.65264 26.8663 6.68701 26.8663 6.84165C26.8835 7.33993 26.8663 7.83821 26.8663 8.35368Z" fill="#00549B"/>
<path d="M43.4282 7.03064C43.0326 7.97566 42.6371 8.88631 42.2587 9.77978C41.6912 11.12 41.1409 12.4602 40.5905 13.8176C40.5389 13.9379 40.4873 13.9722 40.3497 13.9722C40.1606 13.955 39.9714 13.9722 39.7478 13.9722C39.7822 13.8863 39.7994 13.8348 39.8166 13.7832C40.8657 11.2403 41.8976 8.71449 42.9295 6.17153C42.9811 6.05126 43.0326 5.99971 43.1702 6.01689C43.3422 6.03408 43.5142 6.03408 43.6862 6.01689C43.8238 6.01689 43.8754 6.05126 43.9269 6.17153C44.5977 7.8382 45.2856 9.48768 45.9735 11.1544C46.3347 12.0306 46.6958 12.9069 47.057 13.7832C47.0742 13.8348 47.0914 13.8863 47.1258 13.9722C46.8678 13.9722 46.6443 13.9894 46.4207 13.9722C46.3691 13.9722 46.3175 13.8863 46.3003 13.8348C45.8187 12.6836 45.3544 11.5495 44.89 10.3983C44.4429 9.35023 43.9957 8.30212 43.5486 7.23682C43.497 7.18528 43.4626 7.13373 43.4282 7.03064Z" fill="#00549B"/>
<path d="M85.3399 7.03104C85.1335 7.52932 84.9271 8.01042 84.738 8.47434C83.9984 10.2613 83.2589 12.0482 82.5022 13.8352C82.4506 13.9554 82.399 13.9898 82.2614 13.9898C82.0722 13.9726 81.8831 13.9898 81.6595 13.9898C81.7799 13.6977 81.8831 13.4228 82.0034 13.1651C82.9493 10.8455 83.9124 8.52589 84.8583 6.22348C84.9099 6.08602 84.9787 6.03448 85.1335 6.05166C85.3571 6.06884 85.6151 6.00011 85.7698 6.10321C85.9246 6.2063 85.959 6.48121 86.0278 6.67022C87.0081 9.04135 87.9712 11.4125 88.9515 13.8008C88.9687 13.8523 89.0031 13.9211 89.0375 14.007C88.7795 14.007 88.5387 14.007 88.3152 14.007C88.2808 14.007 88.2292 13.9211 88.212 13.8695C87.2833 11.6702 86.3718 9.47091 85.4603 7.27159C85.4087 7.18568 85.3915 7.11695 85.3399 7.03104Z" fill="#00549B"/>
<path d="M53.076 13.3709C53.076 13.5943 53.076 13.7833 53.076 13.9723C51.5626 13.9723 50.0663 13.9723 48.5701 13.9723C48.5701 11.3263 48.5701 8.69741 48.5701 6.03418C48.7937 6.03418 49.0001 6.03418 49.2236 6.03418C49.2236 8.47404 49.2236 10.8967 49.2236 13.3538C50.5135 13.371 51.7861 13.3709 53.076 13.3709Z" fill="#00549B"/>
<path d="M79.3032 6.03418C79.5439 6.03418 79.7503 6.03418 79.9739 6.03418C79.9739 8.68023 79.9739 11.3091 79.9739 13.9723C79.7847 13.9723 79.5955 13.9723 79.3892 13.9723C79.3548 13.9723 79.3204 13.9208 79.3032 13.8864C79.286 13.852 79.3032 13.7833 79.3032 13.749C79.3032 11.2575 79.3032 8.76614 79.3032 6.25755C79.3032 6.18882 79.3032 6.12009 79.3032 6.03418Z" fill="#00549B"/>
<path d="M69.3282 9.67676C69.3282 9.86576 69.3282 10.0376 69.3282 10.2438C67.66 10.2438 65.9746 10.2438 64.3064 10.2438C64.3064 10.0548 64.3064 9.88294 64.3064 9.67676C65.9746 9.67676 67.6428 9.67676 69.3282 9.67676Z" fill="#00549B"/>
<path d="M64.3064 13.9894C64.3064 13.8004 64.3064 13.6114 64.3064 13.4224C65.9918 13.4224 67.66 13.4224 69.3454 13.4224C69.3454 13.6114 69.3454 13.8004 69.3454 13.9894C67.66 13.9894 65.9918 13.9894 64.3064 13.9894Z" fill="#00549B"/>
<path d="M33.2812 10.2438C33.2812 10.0548 33.2812 9.86576 33.2812 9.67676C34.9495 9.67676 36.6177 9.67676 38.3031 9.67676C38.3031 9.84858 38.3031 10.0376 38.3031 10.2438C36.6349 10.2438 34.9667 10.2438 33.2812 10.2438Z" fill="#00549B"/>
<path d="M33.2812 13.9894C33.2812 13.8004 33.2812 13.6114 33.2812 13.4224C34.9495 13.4224 36.6177 13.4224 38.3031 13.4224C38.3031 13.6114 38.3031 13.8004 38.3031 13.9894C36.6349 13.9894 34.9667 13.9894 33.2812 13.9894Z" fill="#00549B"/>
<path d="M38.3031 6.03418C38.3031 6.22318 38.3031 6.395 38.3031 6.58401C36.6349 6.58401 34.9667 6.58401 33.2812 6.58401C33.2812 6.41219 33.2812 6.22318 33.2812 6.03418C34.9495 6.03418 36.6177 6.03418 38.3031 6.03418Z" fill="#00549B"/>
<path d="M64.3064 6.58401C64.3064 6.395 64.3064 6.206 64.3064 6.03418C65.9918 6.03418 67.66 6.03418 69.3282 6.03418C69.3282 6.22318 69.3282 6.395 69.3282 6.58401C67.66 6.58401 65.9918 6.58401 64.3064 6.58401Z" fill="#00549B"/>
</svg>
