<?xml version="1.0" encoding="UTF-8" standalone="no"?>
<svg
   id="Icons"
   viewBox="0 0 215 215"
   version="1.1"
   sodipodi:docname="Gmail.svg"
   inkscape:version="1.1.2 (b8e25be833, 2022-02-05)"
   xmlns:inkscape="http://www.inkscape.org/namespaces/inkscape"
   xmlns:sodipodi="http://sodipodi.sourceforge.net/DTD/sodipodi-0.dtd"
   xmlns="http://www.w3.org/2000/svg"
   xmlns:svg="http://www.w3.org/2000/svg">
  <sodipodi:namedview
     id="namedview15"
     pagecolor="#ffffff"
     bordercolor="#666666"
     borderopacity="1.0"
     inkscape:pageshadow="2"
     inkscape:pageopacity="0.0"
     inkscape:pagecheckerboard="0"
     showgrid="false"
     inkscape:zoom="1.366525"
     inkscape:cx="49.395365"
     inkscape:cy="242.22024"
     inkscape:window-width="1920"
     inkscape:window-height="1017"
     inkscape:window-x="-8"
     inkscape:window-y="-8"
     inkscape:window-maximized="1"
     inkscape:current-layer="Telegram" />
  <defs
     id="defs9">
    <style
       id="style2">.cls-1{fill:url(#Безымянный_градиент_2);}.cls-2{fill:#fff;fill-rule:evenodd;}</style>
    <linearGradient
       id="Безымянный_градиент_2"
       y1="107.5"
       x2="215"
       y2="107.5"
       gradientUnits="userSpaceOnUse">
      <stop
         offset="0"
         stop-color="#2aabee"
         id="stop4" />
      <stop
         offset="1"
         stop-color="#229ed9"
         id="stop6" />
    </linearGradient>
  </defs>
  <g
     id="Telegram">
    <circle
       id="Background"
       class="cls-1"
       cx="107.5"
       cy="107.5"
       r="107.5"
       style="fill:#000000;fill-opacity:0.16465864" />
    <g
       id="g38"
       transform="matrix(1.3346136,0,0,1.3346136,-20.622907,7.4154451)">
      <path
         fill="#4285f4"
         d="M 58,108 H 72 V 74 L 52,59 v 43 c 0,3.32 2.69,6 6,6"
         id="path17" />
      <path
         fill="#34a853"
         d="m 120,108 h 14 c 3.32,0 6,-2.69 6,-6 V 59 l -20,15"
         id="path19" />
      <path
         fill="#fbbc04"
         d="m 120,48 v 26 l 20,-15 v -8 c 0,-7.42 -8.47,-11.65 -14.4,-7.2"
         id="path21" />
      <path
         fill="#ea4335"
         d="M 72,74 V 48 L 96,66 120,48 V 74 L 96,92"
         id="path23" />
      <path
         fill="#c5221f"
         d="m 52,51 v 8 L 72,74 V 48 L 66.4,43.8 C 60.46,39.35 52,43.58 52,51"
         id="path25" />
    </g>
  </g>
</svg>
