<svg width="47" height="34" fill="none" xmlns="http://www.w3.org/2000/svg"><path d="M1.843 1.858A2.85 2.85 0 013.874 1h39.252c.762 0 1.492.31 2.031.858m-43.314 0A2.96 2.96 0 001 3.928v26.144c0 .761.293 1.491.815 2.035m.028-30.249l17.156 15.633M1.815 32.107l.38.331c.488.364 1.075.56 1.68.562h39.25a2.813 2.813 0 001.756-.626l.221-.186L28.02 17.493M1.815 32.107l17.184-14.616M45.157 1.858c.539.55.842 1.293.843 2.07V17m-.843-15.142L28.02 17.493M19 17.49l2.355 2.084c.6.525 1.364.815 2.155.815.791 0 1.556-.29 2.156-.815l2.354-2.082" stroke="#0C4E58" stroke-width="1.5"/></svg>