<svg width="213" height="40" fill="none" xmlns="http://www.w3.org/2000/svg"><path d="M40.01 39.929h-4.822c-7.412 0-6.692-.072-10.362-12.358-1.799-6-9.355-6-12.09-6h-3.38V34.5c0 4 1.295 4.786 4.245 4.786v.643H0v-.643c3.094 0 4.03-.715 4.03-5.929V4.643c0-3.5-.936-4-4.03-4V.07h11.585c14.177 0 21.013 1.358 21.013 10.786 0 8.072-5.685 10.286-12.953 10.429 4.75.428 9.21-.215 13.025 13.285 1.223 4.358 5.468 4.643 7.34 4.786v.572zM11.586.714H9.354V21h2.23c8.708 0 14.968.071 14.968-10.071C26.553.286 19.573.714 11.585.714zM64.26.071v.572c-3.095 0-4.39.714-4.39 4.214v29.429c0 3.857 1.44 5.071 4.39 5.071V40H49.58v-.643c3.094 0 4.462-1.214 4.462-5.071V4.857c0-3.5-1.368-4.214-4.462-4.214V.07h14.68zm23.17 39.858h-13.6v-.643c3.095 0 4.534-1.786 4.534-5.572v-27.5c0-3.5-1.44-5.5-4.534-5.5V.071h13.6c14.177 0 27.561 3.429 27.561 20-.072 17.429-13.384 19.858-27.56 19.858zm0-39.215h-3.166v38.643h3.167c7.987 0 20.796.143 20.796-19.286C108.227 1.43 95.707.714 87.431.714zM213 28.429v11.5h-33.677v-.643c3.022 0 3.67-1.572 3.67-5.429V5.214c0-3.5-.504-4.5-3.67-4.5V.071h32.742V10h-.792c-.36-9.143-9.211-9.286-17.918-9.286h-4.533V19.5h5.684c2.879 0 8.851-.071 9.067-5.571h.792v11.857h-.792c-.216-5.572-6.332-5.643-9.067-5.643h-5.684v19.214h3.67c9.57 0 19.069.429 19.788-10.857h.72v-.071zM147.301 8.571c-15.399 0-22.811 9.143-22.811 20.429 0 4 .935 7.786 2.878 10.929h6.117c-1.152-2.786-1.799-6.358-1.799-10.929 0-15.571 7.484-19.857 15.615-19.857 8.419 0 15.615 1.857 16.119 11.643h1.151l.648-8.929c-4.462-2.286-8.779-3.286-17.918-3.286zm7.34 24.5v.643c4.461 0 5.397.072 5.541 6.215h5.037c.288-6.072 1.223-6.215 4.533-6.215v-.643h-15.111zm10.506-33c0 1.429-.072 3.143-.072 5.072C160.685 6.5 154.857 7.5 147.229 7.5c-8.635 0-14.824-2.929-18.494-7.5h5.613c2.951 5.143 7.844 6.857 12.881 6.857 8.347 0 12.881-1.714 12.881-6.071V.07h5.037z" fill="#022632"/></svg>