<svg width="70" height="70" fill="none" xmlns="http://www.w3.org/2000/svg"><path d="M11.442 53.034h-8.26V7.204h63.636v45.933h-27.84M0 4h70M23.068 32.032c.816.828 1.938 1.345 2.958 1.345h.102c1.223 0 2.345-.413 3.263-1.345.816-.827 1.428-1.655 1.836-2.586.815-1.862 1.223-3.828 1.223-5.69v-.931c-.204-2.276-1.427-3.931-3.467-4.759a7.835 7.835 0 00-2.855-.517c-1.02 0-1.938.207-2.754.517-2.04.828-3.263 2.483-3.467 4.759v.931c0 1.862.408 3.828 1.224 5.69.51.931 1.121 1.862 1.937 2.586zm-5.507 4.966c-1.122.31-1.938 1.242-2.04 2.483 0 .104 0 .414-.101.724v.104c-.102.517-.102 1.138-.102 1.448 0 2.38-.102 4.76 0 7.242v2.69c0 .93.204 1.758.51 2.483.306.827.815 1.552 1.53 2.38v.827c.101 1.552.101 3.207.203 4.759v.207c.714 3 2.856 4.655 5.915 4.655h5.508c2.549 0 4.588-1.552 5.302-3.931l.102-.414c.102-2.173.102-4.345.204-6.518l.204-6.414c0-.31 0-1.034.102-1.965 0-.828.102-2.173.102-3.208h.102c.714.31 1.53.621 2.346.828l.407.103c.714.207 1.428.414 2.142.518.408.103.816.103 1.428 0 2.855-.31 5.71-1.035 8.872-2.173 1.836-.62 2.958-2.483 2.55-4.241-.204-1.242-.918-2.173-1.938-2.794a4.156 4.156 0 00-3.365-.31c-2.04.62-3.774 1.035-5.507 1.448-.51.104-.816.207-1.02.207h-.408c-1.734-.31-3.263-1.034-4.487-1.759-.408-.206-1.122-.517-1.836-.62-.714-.104-1.53-.104-2.244-.207h-.101c-.51 0-1.02-.103-1.53-.103h-.51c-.51.103-.612.206-3.671 4.241-1.836-2.38-2.448-3.207-2.856-3.62l-.204-.208c-.409-.31-.612-.207-.612-.207h-.884s-.645.207-.951.31c-.102 0-.204.104-.306.104l-.306.104c-.714.206-1.632.517-2.346.724l-.204.103z" stroke="#0C4E58" stroke-width="2"/></svg>