<svg width="47" height="18" fill="none" xmlns="http://www.w3.org/2000/svg"><path d="M43.354 6.209s-4.202-2.612-8.502-3.731C31.434 1.585 25.744 1.064 21.744 1c-4.23-.012-8.43.672-12.43 2.023C5.745 4.285 4.04 5.525 4.04 5.525S.957 7.566 1 11.283c.047 3.738 1.376 4.812 1.376 4.812.384.203.793.358 1.216.46 1.213.312 2.358.316 4.008.185 2.224-.174 3.599-.666 4.328-1.251.957-.773 1.43-6.027 1.43-6.027s.368-.603 3.769-1.28c1.73-.343 3.368-.269 4.725-.311 1.585-.05 4.784.032 6.74.177 1.88.155 3.674.834 5.174 1.956 0 0 0 4.518 1.159 5.5a7.144 7.144 0 004.653 1.49c4.321-.074 5.137-1.42 5.137-1.42s1.816-3.239 1.13-5.202" stroke="#0C4E58" stroke-width="1.5"/></svg>