<svg width="70" height="70" fill="none" xmlns="http://www.w3.org/2000/svg"><path d="M38.63 36.51h7.732c1.957 0 3.684.951 4.75 2.434l.263.428M38.63 36.51v-5.046m0 5.046h-7.299m7.3-5.046h5.032c.81 0 1.593-.177 2.322-.544 2.159-1.06 3.333-3.509 2.833-5.957L44.784 4.89C44.338 2.632 42.354 1 40.074 1H29.887c-2.281 0-4.251 1.632-4.71 3.89l-4.034 20.073c-.486 2.448.675 4.896 2.834 5.957a5.292 5.292 0 002.32.544h5.034m7.3 0h-7.3m0 0v5.045m0 0h-7.732c-1.943 0-3.67.966-4.75 2.435l-.243.428m13.615 4.618H19.267a1.538 1.538 0 01-1.525-1.537c0-.952.23-1.85.621-2.652l.243-.429m13.615 4.618v8.418m0-8.418h5.558m-5.558 8.418h-.823c-.756 0-1.363.626-1.363 1.374v6.447m2.186-7.82h5.558m-7.744 7.82c-4.304.503-7.988 1.645-10.188 3.223a1.594 1.594 0 00-.594 1.808c.19.585.635.98 1.201 1.102m9.581-6.133l.851-.096a44.617 44.617 0 014.102-.19c1.404 0 2.78.068 4.102.19l.875.095m-19.51 6.134a3.516 3.516 0 003.4 2.638c1.605 0 2.992-1.102 3.41-2.638H31.6C32.02 67.899 33.394 69 35 69c1.606 0 2.985-1.102 3.403-2.638h4.338C43.159 67.899 44.539 69 46.145 69a3.505 3.505 0 003.4-2.638m-29.09 0h29.09m0 0c.567-.109 1.012-.517 1.201-1.102a1.6 1.6 0 00-.593-1.808c-2.2-1.578-5.884-2.72-10.188-3.224m0 0v-6.446c0-.762-.607-1.374-1.363-1.374h-.823m0 0V43.99m0 0h12.954c.837 0 1.525-.694 1.525-1.537 0-.952-.23-1.85-.621-2.652l-.262-.429m6.558-7.12H55.39a1.538 1.538 0 01-1.525-1.536v-.353c0-1.809 1.444-3.278 3.238-3.278h1.633c1.78 0 3.239 1.482 3.264 3.278v.353c0 .843-.688 1.537-1.525 1.537h-2.542zm0 0c.19 4.257-3.022 6.984-6.558 7.12m-39.313-7.119h2.537c.836 0 1.524-.693 1.524-1.537v-.353c0-1.809-1.457-3.278-3.238-3.278h-1.647C9.444 27.085 8 28.554 8 30.363v.353c0 .843.688 1.537 1.525 1.537h2.537zm0 0c-.286 3.566 2.798 7.259 6.544 7.12" stroke="#0C4E58" stroke-width="2"/></svg>