<svg width="70" height="70" fill="none" xmlns="http://www.w3.org/2000/svg"><path d="M34.638 64.377v1-1zm-.639-.272l.705-.71-.02-.02-.023-.02-.662.75zm0-50.83l.665.747.02-.018.02-.02-.705-.709zm1.094-.181l.446-.895h-.002l-.444.895zm.547 20.477h-1v.9l.894.094.106-.994zm0 10.33l-.136-.991-.864.119v.872h1zm-.547 20.477l-.007 1 .306.002.254-.169-.553-.833zm-.419-.001v-1 1zm-.036-1c-.013 0-.012-.001 0 .001a.243.243 0 01.085.035l-.019-.017-1.41 1.418c.151.15.341.302.587.41.25.11.505.153.757.153v-2zm.023-.021L21.534 51.758l-1.324 1.499 13.127 11.597 1.324-1.498zM20.872 51.507H8.657v2h12.215v-2zm-12.215 0c-2.096 0-3.738-1.392-4.91-3.837C2.579 45.228 2 41.945 2 38.735H0c0 3.405.607 7.008 1.944 9.799 1.335 2.787 3.522 4.974 6.713 4.974v-2zM2 38.736c0-3.21.578-6.493 1.748-8.934 1.171-2.445 2.813-3.838 4.91-3.838v-2c-3.192 0-5.379 2.187-6.714 4.974C.607 31.728 0 35.33 0 38.735h2zm6.657-12.772h12.215v-2H8.657v2zm12.88-.253l13.127-11.688-1.33-1.494-13.127 11.688 1.33 1.494zm13.167-11.725a.083.083 0 01-.019.015c-.002 0-.001 0 0 0 .005 0-.01.003-.036-.01l.889-1.792a1.974 1.974 0 00-2.244.368l1.41 1.419zm-.057.004c.001 0 .001 0 0 0a.039.039 0 01-.01-.011v.005a.04.04 0 01.003.017h2c0-.69-.353-1.428-1.101-1.801l-.892 1.79zm-.007.01v19.571h2v-19.57h-2zm.894 20.565c2.064.22 3.755 1.983 3.755 4.17h2c0-3.248-2.502-5.834-5.543-6.158l-.212 1.988zm3.755 4.17c0 2.095-1.602 3.876-3.785 4.175l.272 1.981c3.104-.426 5.513-2.994 5.513-6.155h-2zm-4.65 5.166v19.57h2v-19.57h-2zm0 19.57c0-.017.003-.03.004-.04l.003-.013-.003.008a.389.389 0 01-.102.118l1.105 1.667a2.35 2.35 0 00.663-.676c.174-.268.33-.636.33-1.063h-2zm.461-.093l-.426-.001v2h.412l.014-2zm-.426-.001h-.036v2h.036v-2zM19.872 24.963v6.886h2v-6.886h-2zm0 20.658v6.886h2v-6.886h-2zM68.287 27.41L57.71 38.164l1.426 1.402 10.578-10.754-1.426-1.402zM57.71 38.164L47.48 48.565l1.425 1.403 10.231-10.402-1.426-1.402zm11.657 10.401l-10.23-10.401-1.427 1.402 10.23 10.402 1.426-1.403zm-10.23-10.401L48.556 27.41l-1.425 1.402 10.577 10.754 1.426-1.402z" fill="#0C4E58"/></svg>