<svg width="17" height="17" fill="none" xmlns="http://www.w3.org/2000/svg"><path fill-rule="evenodd" clip-rule="evenodd" d="M4.46 6.474c-.027-.364.045-.73.21-1.057.05-.13.12-.253.206-.363a1.5 1.5 0 01.602-.475s.71-.069.771.026c.33.564.604 1.157.822 1.77.109.403-.462.861-.462.861s-.361.182 0 .633c.27.336.728.922 1.003 1.138.291.235.6.447.925.633.673.368.798.329.798.329s.124.05.462-.405c.18-.241.378-.525.566-.582.217-.065 1.973.93 1.903.86.123.123.026.515.026.515s.038.439-.631.945c-.44.334-1.17.413-1.17.413a4.515 4.515 0 01-1.337-.303c-.712-.265-1.465-.489-2.442-1.367A9.787 9.787 0 014.96 7.97c-.514-.875-.5-1.495-.5-1.495zm3.833 9.39a7.943 7.943 0 01-3.887-1.007L.104 16.219l1.414-4.149a7.706 7.706 0 01-1.06-4.908A7.746 7.746 0 012.65 2.635 7.922 7.922 0 017.185.369a7.97 7.97 0 014.994.937 7.82 7.82 0 013.377 3.75 7.694 7.694 0 01.358 5.007 7.78 7.78 0 01-2.81 4.182 7.95 7.95 0 01-4.811 1.62zM8.28 1.62a6.646 6.646 0 00-3.435.94A6.534 6.534 0 002.41 5.13a6.43 6.43 0 00.482 6.758l-.628 1.878.003.002-.183.53 1.064-.313a.026.026 0 00-.006-.005l1.46-.454a6.674 6.674 0 005.893.742c.972-.34 1.85-.9 2.564-1.636a6.494 6.494 0 001.542-2.602 6.43 6.43 0 00.19-3.009 6.468 6.468 0 00-1.202-2.77 6.575 6.575 0 00-2.338-1.94A6.663 6.663 0 008.28 1.62z" fill="#fff"/></svg>