<svg width="479" height="90" fill="none" xmlns="http://www.w3.org/2000/svg"><path d="M89.974 89.84H79.132c-16.668 0-15.05-.161-23.303-27.804-4.045-13.5-21.037-13.5-27.186-13.5h-7.606v29.089c0 9 2.913 10.768 9.548 10.768v1.446H0v-1.446c6.958 0 9.062-1.607 9.062-13.34V10.447c0-7.875-2.104-9-9.062-9V.161h26.054c31.88 0 47.252 3.053 47.252 24.267 0 18.161-12.784 23.143-29.128 23.465 10.68.964 20.714-.482 29.29 29.893 2.751 9.803 12.299 10.446 16.506 10.768v1.285zM26.054 1.606h-5.017V47.25h5.017c19.58 0 33.66.16 33.66-22.66 0-23.947-15.698-22.983-33.66-22.983zM144.509.16v1.286c-6.958 0-9.871 1.608-9.871 9.482v66.215c0 8.678 3.236 11.41 9.871 11.41V90h-33.012v-1.446c6.958 0 10.033-2.733 10.033-11.411V10.928c0-7.874-3.075-9.482-10.033-9.482V.161h33.012zm52.108 89.68h-30.585v-1.447c6.958 0 10.195-4.018 10.195-12.536V13.982c0-7.875-3.237-12.375-10.195-12.375V.161h30.585c31.879 0 61.978 7.714 61.978 45-.162 39.214-30.099 44.678-61.978 44.678zm0-88.233h-7.121v86.947h7.121c17.962 0 46.767.321 46.767-43.393 0-41.947-28.158-43.554-46.767-43.554zM479 63.964V89.84h-75.734v-1.446c6.797 0 8.253-3.536 8.253-12.214V11.732c0-7.875-1.133-10.125-8.253-10.125V.161h73.63V22.5h-1.78c-.809-20.571-20.713-20.893-40.294-20.893h-10.195v42.268h12.784c6.473 0 19.905-.16 20.39-12.536h1.78v26.679h-1.78c-.485-12.536-14.241-12.697-20.39-12.697h-12.784v43.233h8.253c21.523 0 42.884.964 44.502-24.429H479v-.16zM331.254 19.286c-34.63 0-51.298 20.571-51.298 45.964 0 9 2.104 17.518 6.473 24.59h13.755c-2.589-6.269-4.045-14.304-4.045-24.59 0-35.036 16.829-44.679 35.115-44.679 18.934 0 35.116 4.179 36.249 26.197h2.589l1.457-20.09c-10.033-5.142-19.743-7.392-40.295-7.392zM347.76 74.41v1.446c10.034 0 12.137.16 12.461 13.982h11.328c.647-13.66 2.751-13.982 10.195-13.982V74.41H347.76zM371.387.16c0 3.215-.162 7.072-.162 11.411-9.871 3.054-22.979 5.304-40.132 5.304-19.419 0-33.336-6.59-41.589-16.875h12.622c6.635 11.571 17.639 15.429 28.967 15.429 18.771 0 28.966-3.858 28.966-13.661V.16h11.328z" fill="#fff"/></svg>