<svg width="81" height="82" viewBox="0 0 81 82" fill="none" xmlns="http://www.w3.org/2000/svg">
<path d="M79.7141 62.9194L80.9735 60.5806L62.5677 50.6697L61.1655 53.1235L59.1931 51.8085C59.9249 51.1995 60.4866 50.4115 60.8237 49.5211C61.1609 48.6307 61.2619 47.6683 61.117 46.7273C60.9721 45.7863 60.5862 44.8988 59.9968 44.1511C59.4075 43.4034 58.6347 42.8209 57.7536 42.4603L74.8818 29.9435C75.9166 29.1873 76.6167 28.0583 76.8341 26.7952C77.0514 25.5321 76.7689 24.234 76.0464 23.1754C75.3238 22.1168 74.2179 21.3807 72.9624 21.1229C71.707 20.865 70.4005 21.1056 69.3192 21.7937L61.6353 26.6835C59.5849 27.9885 57.3567 28.9902 55.0198 29.6577L44.1415 32.7658C42.8933 33.123 41.6761 33.5812 40.5022 34.1358C39.327 33.5808 38.1085 33.1226 36.8587 32.7658L25.9803 29.6577C23.6434 28.9902 21.4152 27.9885 19.3648 26.6835L11.6809 21.7937C10.5997 21.1056 9.29312 20.865 8.03766 21.1229C6.78219 21.3807 5.67624 22.1168 4.95372 23.1754C4.23119 24.234 3.94874 25.5321 4.16611 26.7952C4.38348 28.0583 5.08361 29.1874 6.11844 29.9435L23.2466 42.4602C22.3651 42.8205 21.5919 43.4028 21.0022 44.1506C20.4125 44.8983 20.0265 45.7859 19.8815 46.7271C19.7366 47.6682 19.8378 48.6309 20.1752 49.5213C20.5126 50.4118 21.0748 51.1998 21.807 51.8086L19.8346 53.1235L18.4325 50.6697L0.0266113 60.5806L1.28601 62.9194L9.53584 58.4772L18.7314 75.7189L13.2245 79.2233L14.6506 81.4642L30.3284 71.4875L28.4832 68.2585L31.8689 66.0015C33.4283 64.9596 35.262 64.4044 37.1374 64.4062C38.2743 64.4062 39.4056 64.2464 40.498 63.9316C41.5918 64.2466 42.7244 64.4064 43.8627 64.4062C45.7382 64.4044 47.5719 64.9596 49.1314 66.0015L52.5169 68.2585L50.6718 71.4875L66.3495 81.4642L67.7756 79.2233L62.2687 75.7189L71.4643 58.4771L79.7141 62.9194ZM58.4956 47.9872C58.4397 48.3766 58.3034 48.7501 58.0952 49.0838C57.887 49.4176 57.6116 49.7043 57.2864 49.9257L56.8348 50.2362L55.2046 49.1495C54.9808 49.0007 54.8075 48.7873 54.708 48.5376C54.3192 47.5672 53.8671 46.6234 53.3547 45.7123L53.9833 45.2551C54.4389 44.9237 54.9823 44.7342 55.5452 44.7104C56.1081 44.6867 56.6655 44.8297 57.1475 45.1215C57.6294 45.4133 58.0145 45.8409 58.2543 46.3507C58.4941 46.8606 58.578 47.4299 58.4956 47.9872L58.4956 47.9872ZM44.8711 35.3199L55.7497 32.2118C58.3325 31.474 60.7952 30.3668 63.0613 28.9244L70.7452 24.0346C71.2447 23.7168 71.8481 23.6057 72.428 23.7248C73.0078 23.8439 73.5186 24.1839 73.8524 24.6729C74.1861 25.1618 74.3166 25.7614 74.2162 26.3448C74.1158 26.9282 73.7925 27.4496 73.3146 27.799L51.9068 43.4431C50.4946 41.4825 48.793 39.7475 46.8602 38.2973L44.6302 36.6249C44.2398 36.3321 43.8417 36.0525 43.4359 35.7861C43.9091 35.6136 44.3874 35.4582 44.8711 35.3199ZM20.979 74.2886L11.8746 57.2178L17.4114 54.2365L26.7655 70.6062L20.979 74.2886ZM30.3953 63.7914L27.1622 65.9468L21.1556 55.4352L24.1423 53.444L36.2693 61.7812C34.1698 61.9293 32.1453 62.6222 30.3953 63.7914L30.3953 63.7914ZM50.605 63.7914C48.6094 62.4581 46.2627 61.7476 43.8627 61.75C41.9409 61.7525 40.0639 61.1695 38.4816 60.0786L23.7137 49.9257C23.4015 49.7111 23.1351 49.4366 22.9298 49.1182C22.7246 48.7997 22.5847 48.4437 22.5182 48.0707C22.4517 47.6978 22.4599 47.3153 22.5424 46.9456C22.6249 46.5758 22.7801 46.2261 22.9988 45.9168C23.2175 45.6075 23.4955 45.3447 23.8167 45.1438C24.1378 44.9428 24.4957 44.8076 24.8695 44.746C25.2433 44.6844 25.6256 44.6977 25.9942 44.7851C26.3628 44.8725 26.7104 45.0323 27.0168 45.2551L38.3908 53.5272L39.1719 52.4531L39.9555 51.3808L39.953 51.379L39.9513 51.3777L7.68571 27.799C7.20776 27.4497 6.8844 26.9282 6.78401 26.3448C6.68362 25.7614 6.81408 25.1618 7.14778 24.6729C7.48149 24.1839 7.99228 23.844 8.57214 23.7248C9.152 23.6057 9.75546 23.7168 10.2549 24.0346L17.9388 28.9244C20.2049 30.3668 22.6677 31.474 25.2506 32.2118L36.129 35.3199C38.6222 36.0304 40.9636 37.1931 43.0365 38.75L45.2665 40.4225C48.3824 42.7591 50.7955 45.9078 52.2418 49.524C52.5402 50.2729 53.0597 50.9132 53.731 51.3596L59.8445 55.4352L53.8379 65.9467L50.605 63.7914ZM60.0212 74.2886L54.2346 70.6062L63.5887 54.2365L69.1256 57.2178L60.0212 74.2886Z" fill="#0F2350"/>
<path d="M25.7868 25.1975C26.1306 25.8142 26.6338 26.3271 27.2437 26.6827C27.8537 27.0383 28.548 27.2234 29.254 27.2187H51.7462C52.4513 27.2187 53.1437 27.0316 53.7529 26.6765C54.362 26.3214 54.866 25.8111 55.2134 25.1975C55.5608 24.5839 55.7392 23.8892 55.7303 23.1841C55.7214 22.4791 55.5256 21.7891 55.1628 21.1845L43.9167 2.4409V2.44107C43.5627 1.85107 43.062 1.3628 42.4632 1.0238C41.8645 0.684794 41.1882 0.506609 40.5001 0.506592C39.8121 0.506575 39.1358 0.684728 38.537 1.0237C37.9383 1.36268 37.4375 1.85092 37.0835 2.4409L25.8374 21.1845C25.4701 21.7875 25.2717 22.4781 25.2628 23.1841C25.2539 23.89 25.4348 24.5854 25.7868 25.1975ZM28.1152 22.5512L39.3613 3.80745C39.4793 3.61084 39.6462 3.44813 39.8458 3.33517C40.0454 3.22221 40.2708 3.16284 40.5001 3.16284C40.7294 3.16284 40.9548 3.22221 41.1543 3.33517C41.3539 3.44813 41.5208 3.61084 41.6388 3.80745L52.8849 22.5512C53.0058 22.7527 53.0711 22.9827 53.0741 23.2177C53.077 23.4527 53.0176 23.6842 52.9018 23.8887C52.786 24.0932 52.618 24.2634 52.415 24.3817C52.212 24.5001 51.9812 24.5625 51.7462 24.5625H29.254C29.019 24.5625 28.7882 24.5001 28.5852 24.3817C28.3821 24.2634 28.2142 24.0932 28.0984 23.8887C27.9826 23.6842 27.9231 23.4527 27.9261 23.2177C27.9291 22.9827 27.9943 22.7527 28.1152 22.5512H28.1152Z" fill="#CE2C15"/>
<path d="M41.8281 7.29688H39.1719V16.5938H41.8281V7.29688Z" fill="#CE2C15"/>
<path d="M41.8281 19.25H39.1719V21.9062H41.8281V19.25Z" fill="#CE2C15"/>
<path d="M74.1526 52.9129C75.6179 48.9387 76.3651 44.7357 76.3594 40.5C76.3598 38.1859 76.138 35.8771 75.697 33.6055L73.0897 34.1132C73.4982 36.2176 73.7036 38.3563 73.7032 40.5C73.7087 44.4219 73.017 48.3135 71.6604 51.9933L74.1526 52.9129Z" fill="#CE2C15"/>
<path d="M5.3031 33.6055C4.86211 35.8771 4.64028 38.1859 4.64066 40.5C4.63497 44.7357 5.38221 48.9387 6.8475 52.9129L9.33968 51.9933C7.98304 48.3135 7.29135 44.4219 7.29691 40.5C7.29646 38.3563 7.5019 36.2176 7.91039 34.1132L5.3031 33.6055Z" fill="#CE2C15"/>
<path d="M31.56 8.5139L30.8463 5.95526C23.4762 8.03591 16.9581 12.4052 12.2333 18.432L14.326 20.0679C18.7006 14.487 24.7358 10.441 31.56 8.5139Z" fill="#CE2C15"/>
<path d="M66.674 20.0679L68.7668 18.4321C64.0911 12.4699 57.6599 8.12795 50.3821 6.01996L49.6516 8.57375C56.3903 10.5261 62.345 14.547 66.674 20.0679Z" fill="#CE2C15"/>
</svg>
