<svg width="12" height="11" viewBox="0 0 12 11" fill="none" xmlns="http://www.w3.org/2000/svg">
<path d="M4.63323 2.16454C4.89023 1.87484 4.89023 1.40515 4.63323 1.11545C4.37623 0.825754 3.95955 0.825754 3.70255 1.11545L0.19275 5.07182C0.0642499 5.21666 0 5.40651 0 5.59636C0 5.69694 0.0177588 5.79285 0.0499349 5.88032C0.0820495 5.96781 0.129654 6.04978 0.19275 6.1209L3.70255 10.0773C3.95955 10.367 4.37623 10.367 4.63323 10.0773C4.89023 9.78757 4.89023 9.31788 4.63323 9.02818L2.24685 6.33818H10.7488C11.1122 6.33818 11.4069 6.00605 11.4069 5.59636C11.4069 5.18666 11.1122 4.85454 10.7488 4.85454H2.24685L4.63323 2.16454Z" fill="#FAFAFA"/>
</svg>
