<svg width="80" height="80" viewBox="0 0 80 80" fill="none" xmlns="http://www.w3.org/2000/svg">
<path d="M7.43848 32.5616C11.1396 32.5616 14.2174 35.2791 14.7832 38.8234H22.5833C22.8461 34.8938 24.4144 31.3163 26.8578 28.5219L16.8063 18.4704C15.5806 19.36 14.0749 19.8865 12.448 19.8865C8.3463 19.8865 5.00956 16.5496 5.00956 12.448C5.00956 8.34646 8.3463 5.00941 12.4479 5.00941C16.5495 5.00941 19.8865 8.34646 19.8865 12.448C19.8865 14.0749 19.3601 15.5804 18.4704 16.8062L28.5219 26.8577C31.3163 24.4141 34.8938 22.8459 38.8234 22.5831V14.7831C35.279 14.2173 32.5614 11.1396 32.5614 7.43848C32.5614 3.33705 35.8985 0 40.0001 0V2.35345C37.1962 2.35345 34.9149 4.63456 34.9149 7.43864C34.9149 10.2424 37.196 12.5237 40.0001 12.5237C42.8038 12.5237 45.0851 10.2426 45.0851 7.43864C45.0851 5.82472 44.3432 4.34174 43.0493 3.36971L44.4629 1.48813C46.354 2.90877 47.4386 5.07753 47.4386 7.43864C47.4386 11.1398 44.7212 14.2174 41.1768 14.7832V22.5833C45.1062 22.8461 48.6837 24.4142 51.478 26.8578L55.4484 22.8873L57.1127 24.5516L53.1422 28.522C55.5858 31.3164 57.1539 34.894 57.4167 38.8235H65.2169C65.7827 35.2791 68.8604 32.5618 72.5615 32.5618C76.6633 32.5618 80 35.8987 80 40.0002C80 44.1018 76.6631 47.4389 72.5615 47.4389C68.8604 47.4389 65.7826 44.7214 65.2169 41.177H57.4169C57.1541 45.1065 55.5858 48.684 53.1423 51.4784L63.1938 61.5299C64.4198 60.6404 65.9251 60.1138 67.5521 60.1138C71.6539 60.1138 74.9906 63.4507 74.9906 67.5523C74.9906 71.6539 71.6537 74.9909 67.5521 74.9909C63.4505 74.9909 60.1135 71.654 60.1135 67.5523C60.1135 65.9254 60.6399 64.4199 61.5296 63.1941L51.4781 53.1427C48.6839 55.5863 45.1064 57.1544 41.177 57.4172V65.2173C44.7214 65.7831 47.4387 68.8607 47.4387 72.5618C47.4387 76.6636 44.102 80.0005 40.0002 80.0005V77.647C42.804 77.647 45.0853 75.3659 45.0853 72.5618C45.0853 69.7581 42.8042 67.4768 40.0002 67.4768C37.1963 67.4768 34.915 69.7579 34.915 72.5618C34.915 74.1753 35.6569 75.6581 36.9501 76.63L35.5361 78.5116C33.6458 77.0908 32.5616 74.9223 32.5616 72.5618C32.5616 68.8607 35.2793 65.7831 38.8235 65.2173V57.4172C34.894 57.1544 31.3164 55.5861 28.522 53.1427L25.8034 55.8613L24.1392 54.197L26.8578 51.4784C24.4142 48.684 22.8461 45.1065 22.5833 41.177H14.7832C14.2174 44.7214 11.1397 47.4389 7.43848 47.4389C3.33673 47.4389 0 44.102 0 40.0002C0.000152588 35.8985 3.33673 32.5616 7.43848 32.5616ZM12.448 7.36301C9.64428 7.36301 7.36301 9.64412 7.36301 12.4482C7.36301 15.252 9.64412 17.5332 12.448 17.5332C15.252 17.5332 17.5332 15.2521 17.5332 12.4482C17.5331 9.64412 15.252 7.36301 12.448 7.36301ZM72.5617 45.0854C75.3654 45.0854 77.6467 42.8043 77.6467 40.0002C77.6467 37.1965 75.3656 34.9152 72.5617 34.9152C69.7578 34.9152 67.4765 37.1963 67.4765 40.0002C67.4765 42.8042 69.7578 45.0854 72.5617 45.0854ZM67.5523 72.6375C70.356 72.6375 72.6373 70.3564 72.6373 67.5523C72.6373 64.7485 70.3562 62.4673 67.5523 62.4673C64.7483 62.4673 62.4671 64.7484 62.4671 67.5523C62.4671 70.3564 64.7482 72.6375 67.5523 72.6375ZM40.0001 55.1044C48.3284 55.1044 55.1041 48.3286 55.1041 40.0002C55.1041 31.6719 48.3283 24.8961 40.0001 24.8961C31.6716 24.8961 24.8959 31.6719 24.8959 40.0002C24.8959 48.3287 31.6717 55.1044 40.0001 55.1044ZM7.43848 45.0854C10.2424 45.0854 12.5237 42.8043 12.5237 40.0002C12.5237 37.1965 10.2426 34.9152 7.43848 34.9152C4.63471 34.9152 2.35345 37.1963 2.35345 40.0002C2.35345 42.8042 4.63471 45.0854 7.43848 45.0854Z" fill="#0F2350"/>
<path d="M12.4489 60.1138C14.0758 60.1138 15.5815 60.6402 16.8072 61.5299L21.634 56.7031L23.2982 58.3674L18.4716 63.1941C19.3612 64.4197 19.8877 65.9254 19.8877 67.5523C19.8877 71.654 16.5507 74.9909 12.4491 74.9909C8.3475 74.9909 5.01061 71.654 5.01061 67.5523C5.01061 63.4507 8.34719 60.1138 12.4489 60.1138ZM12.4489 72.6374C15.2529 72.6374 17.5341 70.3563 17.5341 67.5523C17.5341 64.7485 15.253 62.4672 12.4489 62.4672C9.64517 62.4672 7.3639 64.7483 7.3639 67.5523C7.36375 70.3563 9.64485 72.6374 12.4489 72.6374Z" fill="#CE2C15"/>
<path d="M67.5532 19.8867C65.9261 19.8867 64.4207 19.3603 63.1949 18.4706L59.6202 22.0455L57.9559 20.3815L61.5308 16.8065C60.6411 15.5807 60.1147 14.0753 60.1147 12.4482C60.1147 8.34648 63.4518 5.00958 67.5533 5.00958C71.6549 5.00958 74.9918 8.34663 74.9918 12.4482C74.9918 16.5498 71.6548 19.8867 67.5532 19.8867ZM67.5532 7.36303C64.7493 7.36303 62.468 9.64414 62.468 12.4482C62.468 15.252 64.7491 17.5333 67.5532 17.5333C70.357 17.5333 72.6382 15.2521 72.6382 12.4482C72.6382 9.64414 70.3571 7.36303 67.5532 7.36303Z" fill="#CE2C15"/>
<path d="M40.0009 28.8046C46.1744 28.8046 51.1967 33.8269 51.1967 40.0003H48.8432C48.8432 35.1248 44.8766 31.1582 40.0011 31.1582V28.8046H40.0009Z" fill="#CE2C15"/>
<path d="M40.001 48.8425V51.1959C33.8275 51.1959 28.8052 46.1736 28.8052 40.0002H31.1588C31.1588 44.8759 35.1253 48.8425 40.001 48.8425Z" fill="#CE2C15"/>
<path d="M48.8425 42.5043H51.1959V45.009H48.8425V42.5043Z" fill="#CE2C15"/>
<path d="M28.8047 34.9904H31.1582V37.4951H28.8047V34.9904Z" fill="#CE2C15"/>
<path d="M38.8244 38.748H41.1779V41.2527H38.8244V38.748Z" fill="#CE2C15"/>
<path d="M33.8145 38.748H36.168V41.2527H33.8145V38.748Z" fill="#CE2C15"/>
<path d="M43.8342 38.748H46.1876V41.2527H43.8342V38.748Z" fill="#CE2C15"/>
<path d="M38.8244 6.18658H41.1779V8.69129H38.8244V6.18658Z" fill="#CE2C15"/>
<path d="M38.8244 71.3096H41.1779V73.8143H38.8244V71.3096Z" fill="#CE2C15"/>
<path d="M11.2728 66.2998H13.6262V68.8045H11.2728V66.2998Z" fill="#CE2C15"/>
<path d="M11.2728 11.1965H13.6262V13.7012H11.2728V11.1965Z" fill="#CE2C15"/>
<path d="M66.3765 11.1965H68.73V13.7012H66.3765V11.1965Z" fill="#CE2C15"/>
<path d="M71.3859 38.748H73.7394V41.2527H71.3859V38.748Z" fill="#CE2C15"/>
<path d="M6.26288 38.748H8.61633V41.2527H6.26288V38.748Z" fill="#CE2C15"/>
<path d="M66.3765 66.2998H68.73V68.8045H66.3765V66.2998Z" fill="#CE2C15"/>
</svg>
