<svg width="25" height="25" viewBox="0 0 25 25" fill="none" xmlns="http://www.w3.org/2000/svg">
<rect width="25" height="25" rx="12.5" fill="#217BEE"/>
<path d="M13.9714 5.72925C13.0273 5.72925 12.1218 6.10431 11.4542 6.77191C10.7866 7.43952 10.4115 8.34499 10.4115 9.28913V11.2711H8.50651C8.41087 11.2711 8.33333 11.3487 8.33333 11.4443V14.0613C8.33333 14.1569 8.41087 14.2345 8.50651 14.2345H10.4115V19.6032C10.4115 19.6988 10.4891 19.7764 10.5847 19.7764H13.2017C13.2974 19.7764 13.3749 19.6988 13.3749 19.6032V14.2345H15.2968C15.3763 14.2345 15.4455 14.1804 15.4648 14.1033L16.119 11.4863C16.1464 11.377 16.0637 11.2711 15.951 11.2711H13.3749V9.28913C13.3749 9.13092 13.4377 8.9792 13.5496 8.86733C13.6615 8.75546 13.8132 8.69261 13.9714 8.69261H15.9726C16.0683 8.69261 16.1458 8.61507 16.1458 8.51943V5.90243C16.1458 5.80679 16.0683 5.72925 15.9726 5.72925H13.9714Z" fill="white"/>
</svg>
