<svg width="9" height="16" viewBox="0 0 9 16" fill="none" xmlns="http://www.w3.org/2000/svg">
<path d="M6.5878 0C5.54043 0 4.53596 0.416065 3.79536 1.15666C3.05476 1.89726 2.6387 2.90173 2.6387 3.9491V6.14779H0.525401C0.419297 6.14779 0.333282 6.2338 0.333282 6.33991V9.24303C0.333282 9.34913 0.419297 9.43514 0.525401 9.43514H2.6387V15.3908C2.6387 15.4969 2.72471 15.5829 2.83082 15.5829H5.73394C5.84004 15.5829 5.92606 15.4969 5.92606 15.3908V9.43514H8.05807C8.14623 9.43514 8.22308 9.37515 8.24446 9.28962L8.97024 6.3865C9.00055 6.26525 8.90884 6.14779 8.78385 6.14779H5.92606V3.9491C5.92606 3.77359 5.99577 3.60528 6.11988 3.48118C6.24398 3.35708 6.41229 3.28736 6.5878 3.28736H8.80783C8.91393 3.28736 8.99995 3.20134 8.99995 3.09524V0.192118C8.99995 0.0860144 8.91393 0 8.80783 0H6.5878Z" fill="#217BEE"/>
</svg>
