<svg width="20" height="20" viewBox="0 0 20 20" fill="none" xmlns="http://www.w3.org/2000/svg">
<path fill-rule="evenodd" clip-rule="evenodd" d="M1.78626 6.36379L3.83551 6.13603V1.91302C3.83551 1.26973 4.32557 0.732358 4.96613 0.67323C8.03918 0.389563 11.1318 0.389563 14.2049 0.67323C14.8455 0.732359 15.3355 1.26973 15.3355 1.91302V6.13602L17.3848 6.36379C18.0471 6.43741 18.5935 6.91572 18.7541 7.56248C19.3101 9.80175 19.3101 12.143 18.7541 14.3823L18.6013 14.9975C18.528 15.2927 18.263 15.5 17.9588 15.5H15.3355V18.083C15.3355 18.705 14.8642 19.2259 14.2452 19.2878C11.1465 19.5977 8.02456 19.5977 4.92582 19.2878C4.30686 19.2259 3.83551 18.705 3.83551 18.083V15.5H1.21226C0.908076 15.5 0.643032 15.2927 0.569732 14.9975L0.416984 14.3823C-0.138995 12.143 -0.138995 9.80175 0.416984 7.56248C0.577564 6.91572 1.12395 6.43741 1.78626 6.36379ZM5.33551 5.99042C8.16405 5.75735 11.007 5.75734 13.8355 5.99041V2.14607C11.0076 1.89862 8.16344 1.89862 5.33551 2.14607V5.99042ZM5.33551 14.1795V17.8205C8.16259 18.0867 11.0084 18.0867 13.8355 17.8205V14.1795C11.0084 13.9133 8.16259 13.9133 5.33551 14.1795ZM15.3355 9C14.6452 9 14.0855 9.55964 14.0855 10.25C14.0855 10.9404 14.6452 11.5 15.3355 11.5C16.0259 11.5 16.5855 10.9404 16.5855 10.25C16.5855 9.55964 16.0259 9 15.3355 9Z" fill="#FAFAFA"/>
</svg>
