<svg width="55" height="55" viewBox="0 0 55 55" fill="none" xmlns="http://www.w3.org/2000/svg">
<rect x="0.5" y="0.5" width="54" height="54" stroke="white" stroke-opacity="0.5"/>
<path d="M34.2935 15.8899H26.1076C25.8701 15.8899 25.6776 16.0824 25.6776 16.3199C25.6776 16.5574 25.8701 16.7499 26.1076 16.7499H34.2935C34.531 16.7499 34.7235 16.5574 34.7235 16.3199C34.7235 16.0824 34.531 15.8899 34.2935 15.8899Z" fill="#ECECEC"/>
<path d="M34.2935 17.8965H26.1076C25.8701 17.8965 25.6776 18.089 25.6776 18.3265C25.6776 18.5639 25.8701 18.7565 26.1076 18.7565H34.2935C34.531 18.7565 34.7235 18.5639 34.7235 18.3265C34.7235 18.089 34.531 17.8965 34.2935 17.8965Z" fill="#ECECEC"/>
<path d="M39.3733 20.3538H39.3162V19.3241C39.3162 18.6387 38.7586 18.081 38.0731 18.081H37.6644V17.3252C37.6644 17.0878 37.4719 16.8952 37.2344 16.8952C36.9968 16.8952 36.8044 17.0878 36.8044 17.3252V20.3538H23.5967V13.8057C23.5967 13.6174 23.7499 13.4642 23.9381 13.4642H36.4629C36.6512 13.4642 36.8044 13.6174 36.8044 13.8057V15.315C36.8044 15.5525 36.9969 15.745 37.2344 15.745C37.4719 15.745 37.6644 15.5525 37.6644 15.315V13.8057C37.6644 13.1432 37.1254 12.6042 36.4629 12.6042H23.9381C23.2757 12.6042 22.7367 13.1432 22.7367 13.8057V18.081H22.3279C21.8369 18.081 21.4116 18.3673 21.2097 18.7816C20.821 18.4343 20.3086 18.2227 19.7476 18.2227H16.8332C15.6438 18.2227 14.6728 19.1728 14.6377 20.3539H14.4807C13.4459 20.3539 12.6041 21.1957 12.6041 22.2304V37.3191C12.6041 38.3539 13.4459 39.1957 14.4807 39.1957H14.6377C14.6728 40.3766 15.6438 41.3268 16.8332 41.3268H19.7475C20.9369 41.3268 21.9079 40.3766 21.943 39.1956H39.3734C40.4081 39.1956 41.25 38.3538 41.25 37.319V22.2303C41.2499 21.1956 40.4081 20.3538 39.3733 20.3538ZM37.6644 18.941H38.0731C38.2844 18.941 38.4562 19.1129 38.4562 19.3241V20.3538H37.6643V18.941H37.6644ZM22.3279 18.941H22.7367V20.3538H21.9447V19.3241C21.9447 19.1128 22.1166 18.941 22.3279 18.941ZM13.4641 37.319V22.2303C13.4641 21.6698 13.9201 21.2138 14.4807 21.2138H14.636V22.0421C14.636 24.051 14.9115 25.3324 15.0529 26.5347V33.0006C14.5104 35.6883 14.6622 37.5957 14.636 38.3356H14.4807C13.9201 38.3356 13.4641 37.8796 13.4641 37.319ZM21.0847 39.1296C21.0847 39.867 20.4848 40.4668 19.7475 40.4668H16.8332C16.0958 40.4668 15.496 39.867 15.496 39.1296C15.536 37.77 15.3408 35.8913 15.9042 33.1298C15.91 33.1015 15.9129 33.0727 15.9129 33.0439V26.5056C15.9129 26.4862 15.9116 26.4668 15.909 26.4476C15.7684 25.2572 15.496 23.9858 15.496 22.0421V20.4198C15.496 19.6824 16.0959 19.0826 16.8332 19.0826H19.7475C20.4849 19.0826 21.0847 19.6824 21.0847 20.4198V20.7838V22.0421C21.0847 23.9783 20.8177 25.2118 20.6718 26.4477C20.6692 26.4668 20.6679 26.4863 20.6679 26.5056V33.0438C20.6679 33.0726 20.6708 33.1015 20.6766 33.1297C21.2395 35.8895 21.0445 37.7584 21.0847 39.1296ZM40.39 37.319C40.39 37.8796 39.9339 38.3356 39.3733 38.3356H21.9447C21.9198 37.6321 22.0709 35.6915 21.5279 33.0007V26.5347C21.67 25.3261 21.9447 24.0575 21.9447 22.0421V21.2138H39.3734C39.9339 21.2138 40.39 21.6698 40.39 22.2303V37.319H40.39Z" fill="#ECECEC"/>
<path d="M35.9803 23.135H24.4208C23.8693 23.135 23.4207 23.5836 23.4207 24.1351V26.8324C23.4207 27.3838 23.8693 27.8325 24.4208 27.8325H26.4309C26.6684 27.8325 26.8608 27.64 26.8608 27.4025C26.8608 27.165 26.6684 26.9725 26.4309 26.9725H24.4208C24.3435 26.9725 24.2806 26.9096 24.2806 26.8324V24.1351C24.2806 24.0578 24.3435 23.995 24.4208 23.995H35.9803C36.0576 23.995 36.1204 24.0579 36.1204 24.1351V26.8324C36.1204 26.9097 36.0576 26.9725 35.9803 26.9725H28.4411C28.2036 26.9725 28.0111 27.165 28.0111 27.4025C28.0111 27.64 28.2036 27.8325 28.4411 27.8325H35.9803C36.5318 27.8325 36.9804 27.3839 36.9804 26.8324V24.1351C36.9804 23.5837 36.5318 23.135 35.9803 23.135Z" fill="#ECECEC"/>
<path d="M25.3884 29.231H24.2568C23.7957 29.231 23.4207 29.606 23.4207 30.0671V31.156C23.4207 31.6171 23.7958 31.9922 24.2568 31.9922H25.3884C25.8495 31.9922 26.2245 31.6171 26.2245 31.156V30.0671C26.2245 29.606 25.8494 29.231 25.3884 29.231ZM25.3646 31.1322H24.2806V30.0909H25.3646V31.1322Z" fill="#ECECEC"/>
<path d="M28.9736 29.231H27.842C27.3809 29.231 27.0059 29.606 27.0059 30.0671V31.156C27.0059 31.6171 27.381 31.9922 27.842 31.9922H28.9736C29.4347 31.9922 29.8098 31.6171 29.8098 31.156V30.0671C29.8098 29.606 29.4347 29.231 28.9736 29.231ZM28.9498 31.1322H27.8659V30.0909H28.9498V31.1322Z" fill="#ECECEC"/>
<path d="M32.559 29.231H31.4273C30.9663 29.231 30.5912 29.606 30.5912 30.0671V31.156C30.5912 31.6171 30.9663 31.9922 31.4273 31.9922H32.559C33.02 31.9922 33.3951 31.6171 33.3951 31.156V30.0671C33.3951 29.606 33.02 29.231 32.559 29.231ZM32.5352 31.1322H31.4512V30.0909H32.5352V31.1322Z" fill="#ECECEC"/>
<path d="M36.1442 29.231H35.0126C34.5515 29.231 34.1765 29.606 34.1765 30.0671V31.156C34.1765 31.6171 34.5516 31.9922 35.0126 31.9922H36.1442C36.6053 31.9922 36.9804 31.6171 36.9804 31.156V30.0671C36.9804 29.606 36.6053 29.231 36.1442 29.231ZM36.1204 31.1322H35.0365V30.0909H36.1204V31.1322Z" fill="#ECECEC"/>
<path d="M25.3884 33.3198H24.2568C23.7957 33.3198 23.4207 33.6949 23.4207 34.156V35.2449C23.4207 35.706 23.7958 36.0811 24.2568 36.0811H25.3884C25.8495 36.0811 26.2245 35.706 26.2245 35.2449V34.156C26.2245 33.695 25.8494 33.3198 25.3884 33.3198ZM25.3646 35.2211H24.2806V34.1798H25.3646V35.2211Z" fill="#ECECEC"/>
<path d="M28.9736 33.3198H27.842C27.3809 33.3198 27.0059 33.6949 27.0059 34.156V35.2449C27.0059 35.706 27.381 36.0811 27.842 36.0811H28.9736C29.4347 36.0811 29.8098 35.706 29.8098 35.2449V34.156C29.8098 33.695 29.4347 33.3198 28.9736 33.3198ZM28.9498 35.2211H27.8659V34.1798H28.9498V35.2211Z" fill="#ECECEC"/>
<path d="M32.559 33.3198H31.4273C30.9663 33.3198 30.5912 33.6949 30.5912 34.156V35.2449C30.5912 35.706 30.9663 36.0811 31.4273 36.0811H32.559C33.02 36.0811 33.3951 35.706 33.3951 35.2449V34.156C33.3951 33.695 33.02 33.3198 32.559 33.3198ZM32.5352 35.2211H31.4512V34.1798H32.5352V35.2211Z" fill="#ECECEC"/>
<path d="M36.1442 33.3198H35.0126C34.5515 33.3198 34.1765 33.6949 34.1765 34.156V35.2449C34.1765 35.706 34.5516 36.0811 35.0126 36.0811H36.1442C36.6053 36.0811 36.9804 35.706 36.9804 35.2449V34.156C36.9804 33.695 36.6053 33.3198 36.1442 33.3198ZM36.1204 35.2211H35.0365V34.1798H36.1204V35.2211Z" fill="#ECECEC"/>
</svg>
