<svg width="48" height="48" viewBox="0 0 48 48" fill="none" xmlns="http://www.w3.org/2000/svg">
<rect x="0.5" y="0.5" width="47" height="47" stroke="#CE2C15"/>
<path d="M24.015 13.8753C23.7558 13.8734 23.5444 14.082 23.5425 14.3407C23.5406 14.5995 23.7487 14.8109 24.008 14.8128C24.2667 14.8146 24.4781 14.6065 24.48 14.3478C24.4819 14.089 24.2737 13.8776 24.015 13.8753Z" fill="#CE2C15"/>
<path d="M23.9936 16.6877C22.1838 16.6749 20.7015 18.135 20.6878 19.9443C20.6742 21.7535 22.1351 23.2365 23.9444 23.2501C23.9528 23.2502 23.9612 23.2502 23.9696 23.2502C25.7674 23.2502 27.2366 21.7945 27.2502 19.9935C27.2639 18.1844 25.803 16.7013 23.9936 16.6877ZM23.9695 22.3128C23.9636 22.3128 23.9574 22.3127 23.9515 22.3127C22.6591 22.3029 21.6155 21.2436 21.6253 19.9513C21.635 18.6649 22.6844 17.6251 23.9686 17.6251C23.9745 17.6251 23.9807 17.6251 23.9866 17.6252C25.279 17.6349 26.3225 18.6942 26.3128 19.9865C26.303 21.273 25.2537 22.3128 23.9695 22.3128Z" fill="#CE2C15"/>
<path d="M26.0142 14.2307C25.7703 14.1442 25.5023 14.2719 25.4157 14.5159C25.3292 14.76 25.457 15.0278 25.701 15.1144C27.7657 15.8461 29.1417 17.8126 29.1252 20.0076C29.1233 20.2665 29.3315 20.4779 29.5904 20.4799C29.5916 20.4799 29.5928 20.4799 29.594 20.4799C29.8512 20.4799 30.0607 20.2723 30.0627 20.0147C30.0822 17.4203 28.4552 15.0959 26.0142 14.2307Z" fill="#CE2C15"/>
<path d="M26.8451 29.6458C29.9629 25.6325 31.9113 23.5398 31.9376 20.0287C31.9706 15.611 28.3855 12 23.9682 12C19.6024 12 16.0335 15.5357 16.0003 19.9091C15.9735 23.5155 17.9581 25.6054 21.0974 29.6451C17.9744 30.1118 16.0003 31.2845 16.0003 32.7188C16.0003 33.6796 16.8884 34.5418 18.501 35.1465C19.9688 35.6969 21.9107 36 23.9689 36C26.0272 36 27.9691 35.6969 29.4369 35.1465C31.0495 34.5417 31.9376 33.6795 31.9376 32.7187C31.9376 31.2852 29.9653 30.1128 26.8451 29.6458ZM16.9377 19.9162C16.967 16.057 20.1158 12.9375 23.9683 12.9375C27.8664 12.9375 31.0292 16.1244 31.0002 20.0217C30.9752 23.3561 28.9089 25.411 25.6099 29.7114C25.0215 30.4781 24.4811 31.203 23.9696 31.9121C23.4596 31.2026 22.93 30.4907 22.3328 29.7111C18.8975 25.2306 16.9123 23.3311 16.9377 19.9162ZM23.9689 35.0625C19.9447 35.0625 16.9377 33.8252 16.9377 32.7188C16.9377 31.8983 18.7353 30.8618 21.7577 30.5029C22.4258 31.3795 23.0116 32.1759 23.5861 32.9893C23.6738 33.1135 23.8164 33.1874 23.9685 33.1875C23.9687 33.1875 23.9688 33.1875 23.9689 33.1875C24.1209 33.1875 24.2635 33.1139 24.3513 32.9899C24.9204 32.1871 25.5222 31.371 26.1846 30.5034C29.2042 30.8627 31.0002 31.8989 31.0002 32.7188C31.0001 33.8252 27.9932 35.0625 23.9689 35.0625Z" fill="#CE2C15"/>
</svg>
