<svg width="55" height="55" viewBox="0 0 55 55" fill="none" xmlns="http://www.w3.org/2000/svg">
<rect x="0.5" y="0.5" width="54" height="54" stroke="white" stroke-opacity="0.5"/>
<path d="M27.5172 15.8987C27.2202 15.8965 26.978 16.1356 26.9758 16.432C26.9737 16.7285 27.2122 16.9708 27.5092 16.9729C27.8057 16.9751 28.0479 16.7366 28.05 16.4401C28.0522 16.1436 27.8137 15.9014 27.5172 15.8987Z" fill="#ECECEC"/>
<path d="M27.4927 19.1212C25.4189 19.1065 23.7205 20.7795 23.7048 22.8527C23.6892 24.9258 25.3631 26.625 27.4363 26.6406C27.4459 26.6407 27.4555 26.6407 27.4651 26.6407C29.5251 26.6407 31.2087 24.9727 31.2242 22.9091C31.2399 20.8361 29.566 19.1368 27.4927 19.1212ZM27.465 25.5666C27.4582 25.5666 27.4512 25.5665 27.4444 25.5665C25.9635 25.5553 24.7678 24.3415 24.779 22.8608C24.7901 21.3867 25.9926 20.1952 27.464 20.1952C27.4708 20.1952 27.4779 20.1953 27.4847 20.1954C28.9655 20.2065 30.1612 21.4203 30.1501 22.9011C30.1389 24.3752 28.9365 25.5666 27.465 25.5666Z" fill="#ECECEC"/>
<path d="M29.808 16.3059C29.5286 16.2068 29.2215 16.3531 29.1223 16.6328C29.0232 16.9124 29.1696 17.2193 29.4491 17.3185C31.815 18.157 33.3916 20.4102 33.3727 22.9253C33.3705 23.2219 33.6092 23.4642 33.9058 23.4665C33.9072 23.4665 33.9086 23.4665 33.91 23.4665C34.2046 23.4665 34.4447 23.2286 34.447 22.9334C34.4693 19.9606 32.605 17.2973 29.808 16.3059Z" fill="#ECECEC"/>
<path d="M30.76 33.9691C34.3325 29.3706 36.5651 26.9727 36.5952 22.9495C36.633 17.8876 32.5251 13.75 27.4636 13.75C22.4612 13.75 18.3717 17.8013 18.3337 22.8126C18.303 26.9448 20.577 29.3395 24.1742 33.9683C20.5957 34.5031 18.3337 35.8468 18.3337 37.4903C18.3337 38.5912 19.3513 39.5791 21.1991 40.272C22.881 40.9027 25.1061 41.25 27.4645 41.25C29.8228 41.25 32.0479 40.9027 33.7298 40.272C35.5776 39.5791 36.5952 38.5911 36.5952 37.4902C36.5952 35.8476 34.3353 34.5043 30.76 33.9691ZM19.4078 22.8207C19.4414 18.3987 23.0494 14.8242 27.4637 14.8242C31.9303 14.8242 35.5544 18.4759 35.5211 22.9415C35.4925 26.7622 33.1248 29.1167 29.3448 34.0443C28.6705 34.9228 28.0514 35.7534 27.4653 36.5659C26.8809 35.7529 26.2741 34.9372 25.5897 34.044C21.6535 28.9101 19.3787 26.7335 19.4078 22.8207ZM27.4645 40.1758C22.8533 40.1758 19.4078 38.758 19.4078 37.4903C19.4078 36.5501 21.4676 35.3625 24.9307 34.9512C25.6963 35.9556 26.3675 36.8682 27.0257 37.8002C27.1263 37.9425 27.2897 38.0273 27.464 38.0274C27.4641 38.0274 27.4643 38.0274 27.4645 38.0274C27.6386 38.0274 27.8019 37.943 27.9026 37.8009C28.5547 36.881 29.2442 35.946 30.0032 34.9518C33.4632 35.3635 35.5211 36.5508 35.5211 37.4903C35.521 38.758 32.0756 40.1758 27.4645 40.1758Z" fill="#ECECEC"/>
</svg>
