<svg width="48" height="48" viewBox="0 0 48 48" fill="none" xmlns="http://www.w3.org/2000/svg">
<rect x="0.5" y="0.5" width="47" height="47" stroke="#CE2C15"/>
<path d="M35.8221 22.2202L35.8221 22.2202L32.7575 20.1884V13.3975C32.7575 13.178 32.5796 13 32.36 13H15.6394C15.4199 13 15.2419 13.178 15.2419 13.3975V20.1889L12.1779 22.2202L12.1779 22.2203C12.0708 22.2914 12 22.4131 12 22.5515V34.861C12 35.0805 12.178 35.2585 12.3975 35.2585H35.6025C35.822 35.2585 36 35.0805 36 34.861V22.5515C36 22.4131 35.9292 22.2914 35.8221 22.2202ZM15.2419 23.6103L13.9951 22.9489H15.2419V23.6103ZM12.795 23.2122L21.936 28.0611L12.795 34.1203V23.2122ZM23.9998 27.6467L34.2836 34.4635H13.7162L23.9998 27.6467ZM26.0639 28.0612L35.205 23.2122V34.1205L26.0639 28.0612ZM32.7575 22.9489H34.0049L32.7575 23.6106V22.9489ZM34.2836 22.154H32.7575V21.1422L34.2836 22.154ZM31.9625 13.795V24.0323L25.3098 27.5613L24.2194 26.8385C24.0863 26.7503 23.9133 26.7503 23.7802 26.8385L22.69 27.5612L16.0369 24.032V13.795H31.9625ZM15.2419 22.154H13.7165L15.2419 21.1427V22.154Z" fill="#CE2C15"/>
<path d="M23.9997 23.4536H27.1666C27.3861 23.4536 27.5641 23.2757 27.5641 23.0561C27.5641 22.8366 27.3861 22.6586 27.1666 22.6586H23.9997C22.4726 22.6586 21.2303 21.4163 21.2303 19.8892V19.772C21.2303 18.2449 22.4726 17.0026 23.9997 17.0026C25.5268 17.0026 26.7691 18.2449 26.7691 19.772V20.0652C26.7691 20.3958 26.5002 20.6647 26.1696 20.6647C25.839 20.6647 25.5701 20.3958 25.5701 20.0652V19.5081C25.5701 18.5613 24.7998 17.791 23.853 17.791C22.9063 17.791 22.136 18.5613 22.136 19.5081C22.136 20.4548 22.9063 21.2251 23.853 21.2251C24.286 21.2251 24.6817 21.0637 24.984 20.7983C25.2302 21.1949 25.6694 21.4597 26.1696 21.4597C26.9385 21.4597 27.5641 20.8341 27.5641 20.0651V19.7719C27.5641 17.8065 25.9651 16.2075 23.9997 16.2075C22.0343 16.2075 20.4353 17.8065 20.4353 19.7719V19.8892C20.4353 21.8547 22.0343 23.4536 23.9997 23.4536ZM23.853 20.4301C23.3446 20.4301 22.931 20.0165 22.931 19.5081C22.931 18.9997 23.3447 18.586 23.853 18.586C24.3614 18.586 24.7751 18.9997 24.7751 19.5081C24.7751 20.0165 24.3615 20.4301 23.853 20.4301Z" fill="#CE2C15"/>
</svg>
