<svg width="19" height="16" viewBox="0 0 19 16" fill="none" xmlns="http://www.w3.org/2000/svg">
<path d="M4.45355 0.907613C7.58819 0.635125 10.7406 0.635125 13.8752 0.907613L15.3854 1.03889C16.3908 1.12629 17.2519 1.72596 17.698 2.58374C17.7551 2.69347 17.7123 2.82633 17.6071 2.89144L11.3412 6.77037C9.99732 7.60228 8.3028 7.61974 6.94209 6.81568L0.634259 3.08833C0.532348 3.02811 0.485571 2.90415 0.531498 2.79505C0.939655 1.82548 1.85729 1.1333 2.94332 1.0389L4.45355 0.907613Z" fill="#FAFAFA"/>
<path d="M0.526365 4.76688C0.370402 4.67472 0.171398 4.7739 0.153218 4.95414C-0.100517 7.46977 -0.039106 10.0092 0.337451 12.5133C0.535965 13.8334 1.61337 14.8455 2.94332 14.9611L4.45355 15.0924C7.58819 15.3649 10.7406 15.3649 13.8752 15.0924L15.3854 14.9611C16.7154 14.8455 17.7928 13.8334 17.9913 12.5133C18.3788 9.93625 18.4326 7.32174 18.1525 4.73428C18.1329 4.55276 17.9305 4.45541 17.7753 4.55151L12.1307 8.04576C10.3125 9.1713 8.01996 9.19492 6.17899 8.10707L0.526365 4.76688Z" fill="#FAFAFA"/>
</svg>
