<svg width="55" height="55" viewBox="0 0 55 55" fill="none" xmlns="http://www.w3.org/2000/svg">
<rect x="0.5" y="0.5" width="54" height="54" stroke="white" stroke-opacity="0.5"/>
<path d="M31.3553 36.9942L27.4083 33.2104C26.475 32.3155 25.0526 32.2191 24.0266 32.9817C24.0262 32.9819 24.0214 32.9852 24.0212 32.9856L24.0038 32.9986C23.9828 33.0145 23.9631 33.0146 23.9499 33.0124C23.9267 33.008 23.9171 32.9933 23.9138 32.9876C23.002 31.54 22.3854 29.9489 22.0807 28.2583C21.7762 26.5673 21.799 24.8602 22.1493 23.1845C22.1504 23.1788 22.1537 23.1637 22.1717 23.1528C22.1864 23.1442 22.2026 23.1423 22.2204 23.1477L22.2477 23.1556C23.4784 23.5157 24.7824 22.9275 25.3473 21.7575L27.9305 16.4085C28.2945 15.6547 28.1386 14.7546 27.543 14.167C27.3318 13.9532 27.0914 13.7522 26.8282 13.569C24.4706 11.9315 21.2529 12.4256 19.5027 14.6939C19.394 14.8359 19.293 14.9846 19.1957 15.1347L19.1946 15.1363C18.8444 15.6548 18.6706 15.9786 18.4081 16.4677L18.3522 16.5716C18.2891 16.688 16.8006 19.4437 16.4339 21.3837C15.8653 24.393 15.9157 27.5049 16.5803 30.3826C17.2824 33.4224 18.6172 36.1271 20.5473 38.4212C21.0372 39.0034 21.9445 38.2413 21.4542 37.6582C19.6456 35.5091 18.3943 32.9712 17.735 30.1159C17.1073 27.3965 17.0598 24.4533 17.5984 21.6037C17.9304 19.8465 19.3787 17.1639 19.3946 17.135L19.452 17.0282C19.681 16.6018 19.9217 16.1912 20.1859 15.7858L20.1899 15.7794C20.2694 15.6537 20.3542 15.532 20.4441 15.4137C21.8088 13.6492 24.3148 13.2664 26.1518 14.5422C26.3564 14.6842 26.5414 14.8391 26.7022 15.002C26.7044 15.0044 26.7068 15.0068 26.7092 15.0092C26.945 15.2404 27.007 15.5958 26.8633 15.8931L24.2802 21.2421C23.9679 21.8884 23.2529 22.2149 22.5812 22.0187L22.5587 22.0118C22.225 21.9123 21.8629 21.957 21.5651 22.1347C21.2695 22.3109 21.0596 22.6051 20.9893 22.942C20.6077 24.7675 20.5826 26.6267 20.9145 28.4685C21.2461 30.3094 21.9177 32.0421 22.911 33.6191C23.0949 33.9115 23.3953 34.115 23.735 34.1777C24.0779 34.2408 24.4351 34.1565 24.7171 33.9448L24.7333 33.9329C25.2935 33.5166 26.0736 33.5724 26.5881 34.0657L30.5351 37.8495C31.0167 38.3114 31.0259 39.0904 30.7102 39.6442C30.1564 40.609 29.0086 41.2557 27.9397 41.4371C26.8513 41.6214 25.7521 41.3764 24.8449 40.7462C24.2201 40.3123 23.5432 41.2848 24.1689 41.7195C25.0798 42.352 26.1413 42.6824 27.2292 42.6824C27.5308 42.6824 27.8349 42.6568 28.1376 42.6055C29.5567 42.3647 31.0079 41.5057 31.7379 40.2343L31.7515 40.2106C32.3309 39.2011 32.2134 37.817 31.3553 36.9942Z" fill="#ECECEC"/>
<path d="M33.5005 17.9912C29.985 17.9912 27.1253 20.8511 27.1253 24.3668C27.1253 24.674 27.1475 24.9834 27.1919 25.2889L26.1349 28.7223C26.0237 29.0834 26.2983 29.4688 26.67 29.4883L29.9464 29.6599C30.9989 30.3686 32.2239 30.7422 33.5005 30.7422C37.0159 30.7422 39.876 27.8821 39.876 24.3668C39.876 20.8511 37.0159 17.9912 33.5005 17.9912ZM33.5005 29.557C32.413 29.557 31.3717 29.2243 30.4894 28.5947C30.3976 28.5292 30.2889 28.4911 30.1765 28.4854L27.4909 28.3445L28.3647 25.5069C28.4673 25.1736 28.3104 24.7133 28.3104 24.3668C28.3104 21.5047 30.6385 19.1765 33.5005 19.1765C36.3624 19.1765 38.6907 21.5047 38.6907 24.3668C38.6907 27.2285 36.3624 29.557 33.5005 29.557Z" fill="#ECECEC"/>
<path d="M31.3489 23.9414C31.0267 23.9414 30.7563 24.2118 30.7563 24.5339C30.7563 24.8561 31.0269 25.1267 31.3489 25.1267C31.6616 25.1267 31.9265 24.8716 31.9403 24.5598C31.9548 24.228 31.6817 23.9414 31.3489 23.9414Z" fill="#ECECEC"/>
<path d="M22.5753 39.2185C22.253 39.2185 21.9826 39.4891 21.9826 39.811C21.9826 40.133 22.2532 40.4036 22.5753 40.4036C22.888 40.4036 23.1528 40.1489 23.1666 39.8369C23.1812 39.5056 22.9075 39.2185 22.5753 39.2185Z" fill="#ECECEC"/>
<path d="M33.6798 23.9414C33.3569 23.9414 33.0873 24.2111 33.0873 24.5339C33.0873 24.8565 33.3575 25.1267 33.6798 25.1267C33.9929 25.1263 34.257 24.8719 34.2706 24.5598C34.2851 24.228 34.0131 23.9414 33.6798 23.9414Z" fill="#ECECEC"/>
<path d="M36.0102 23.9414C35.6881 23.9414 35.4177 24.2118 35.4177 24.5339C35.4178 24.8561 35.6884 25.1267 36.0102 25.1267C36.3232 25.1267 36.5877 24.8716 36.6015 24.5598C36.6164 24.228 36.3433 23.9414 36.0102 23.9414Z" fill="#ECECEC"/>
</svg>
