<svg width="48" height="48" viewBox="0 0 48 48" fill="none" xmlns="http://www.w3.org/2000/svg">
<rect x="0.5" y="0.5" width="47" height="47" stroke="#CE2C15"/>
<path d="M27.3646 32.2858L23.92 28.9835C23.1054 28.2025 21.8641 28.1184 20.9686 28.784C20.9683 28.7841 20.9641 28.787 20.964 28.7873L20.9487 28.7987C20.9304 28.8125 20.9132 28.8127 20.9017 28.8108C20.8815 28.8069 20.8731 28.7941 20.8702 28.7891C20.0745 27.5257 19.5364 26.1371 19.2704 24.6617C19.0047 23.186 19.0246 21.6961 19.3302 20.2336C19.3312 20.2287 19.3341 20.2155 19.3498 20.206C19.3627 20.1985 19.3768 20.1969 19.3924 20.2015L19.4161 20.2084C20.4902 20.5228 21.6282 20.0094 22.1212 18.9883L24.3757 14.32C24.6934 13.6622 24.5573 12.8767 24.0375 12.3638C23.8532 12.1773 23.6434 12.0018 23.4137 11.8419C21.3561 10.4129 18.548 10.8441 17.0205 12.8237C16.9257 12.9477 16.8375 13.0774 16.7526 13.2084L16.7517 13.2098C16.446 13.6623 16.2943 13.9449 16.0652 14.3717L16.0164 14.4624C15.9614 14.564 14.6623 16.9689 14.3423 18.6621C13.8461 21.2883 13.89 24.0042 14.47 26.5157C15.0828 29.1686 16.2477 31.529 17.9322 33.5312C18.3597 34.0393 19.1516 33.3742 18.7236 32.8653C17.1453 30.9897 16.0532 28.7748 15.4778 26.2829C14.93 23.9096 14.8885 21.341 15.3586 18.8541C15.6483 17.3205 16.9123 14.9793 16.9261 14.9541L16.9762 14.8609C17.1761 14.4888 17.3862 14.1304 17.6167 13.7766L17.6203 13.771C17.6896 13.6614 17.7636 13.5551 17.8421 13.4519C19.0331 11.9119 21.2202 11.5779 22.8234 12.6913C23.0019 12.8152 23.1634 12.9504 23.3037 13.0926C23.3056 13.0947 23.3077 13.0968 23.3098 13.0989C23.5156 13.3007 23.5697 13.6108 23.4443 13.8702L21.19 18.5384C20.9174 19.1026 20.2934 19.3875 19.7072 19.2162L19.6876 19.2103C19.3964 19.1234 19.0803 19.1624 18.8204 19.3175C18.5624 19.4713 18.3793 19.728 18.3179 20.0221C17.9848 21.6152 17.963 23.2378 18.2526 24.8452C18.542 26.4518 19.1281 27.964 19.995 29.3402C20.1555 29.5955 20.4177 29.773 20.7142 29.8277C21.0134 29.8828 21.3252 29.8093 21.5712 29.6245L21.5854 29.6141C22.0744 29.2508 22.7552 29.2994 23.2042 29.73L26.6488 33.0322C27.0691 33.4353 27.0771 34.1152 26.8016 34.5985C26.3183 35.4405 25.3166 36.0049 24.3837 36.1632C23.4339 36.3241 22.4746 36.1103 21.6828 35.5603C21.1375 35.1816 20.5467 36.0303 21.0929 36.4096C21.8878 36.9617 22.8142 37.25 23.7636 37.25C24.0269 37.25 24.2922 37.2277 24.5565 37.1829C25.795 36.9728 27.0614 36.2231 27.6985 35.1135L27.7104 35.0928C28.2161 34.2118 28.1135 33.0038 27.3646 32.2858Z" fill="#CE2C15"/>
<path d="M29.2368 15.7014C26.1687 15.7014 23.673 18.1973 23.673 21.2656C23.673 21.5336 23.6924 21.8037 23.7311 22.0703L22.8087 25.0668C22.7116 25.3819 22.9512 25.7182 23.2757 25.7352L26.135 25.885C27.0536 26.5035 28.1227 26.8295 29.2368 26.8295C32.3048 26.8295 34.8009 24.3334 34.8009 21.2656C34.8009 18.1973 32.3048 15.7014 29.2368 15.7014ZM29.2368 25.7952C28.2877 25.7952 27.379 25.5048 26.6089 24.9553C26.5288 24.8982 26.4339 24.865 26.3359 24.86L23.9921 24.737L24.7546 22.2605C24.8442 21.9696 24.7073 21.568 24.7073 21.2656C24.7073 18.7677 26.7391 16.7359 29.2368 16.7359C31.7345 16.7359 33.7665 18.7677 33.7665 21.2656C33.7665 23.7631 31.7345 25.7952 29.2368 25.7952Z" fill="#CE2C15"/>
<path d="M27.3591 20.8943C27.0778 20.8943 26.8419 21.1303 26.8419 21.4113C26.8419 21.6926 27.078 21.9287 27.3591 21.9287C27.632 21.9287 27.8631 21.7061 27.8752 21.434C27.8879 21.1444 27.6495 20.8943 27.3591 20.8943Z" fill="#CE2C15"/>
<path d="M19.702 34.2272C19.4208 34.2272 19.1848 34.4633 19.1848 34.7442C19.1848 35.0253 19.421 35.2615 19.702 35.2615C19.9749 35.2615 20.2061 35.0391 20.2181 34.7669C20.2308 34.4778 19.992 34.2272 19.702 34.2272Z" fill="#CE2C15"/>
<path d="M29.3932 20.8943C29.1115 20.8943 28.8762 21.1296 28.8762 21.4113C28.8762 21.6929 29.112 21.9287 29.3932 21.9287C29.6665 21.9284 29.897 21.7064 29.9089 21.434C29.9216 21.1444 29.6841 20.8943 29.3932 20.8943Z" fill="#CE2C15"/>
<path d="M31.4271 20.8943C31.146 20.8943 30.91 21.1303 30.91 21.4113C30.9101 21.6926 31.1463 21.9287 31.4271 21.9287C31.7003 21.9287 31.9311 21.7061 31.9432 21.434C31.9562 21.1444 31.7178 20.8943 31.4271 20.8943Z" fill="#CE2C15"/>
</svg>
