<svg width="14" height="16" viewBox="0 0 14 16" fill="none" xmlns="http://www.w3.org/2000/svg">
<path d="M0.70824 6.37763C2.33751 10.4355 5.23661 13.6617 8.84097 15.4107L9.41874 15.7051C10.7406 16.3786 12.2945 15.8669 13.1008 14.4927L13.8558 13.2058C14.1013 12.7874 14.0265 12.2238 13.6836 11.9075L11.123 9.54524C10.7469 9.19827 10.1939 9.27909 9.90613 9.72305L9.114 10.9454C7.0814 9.79881 5.43117 7.91172 4.42852 5.58737L5.4974 4.68155C5.88564 4.35254 5.95632 3.72011 5.6529 3.29002L3.58708 0.361814C3.31048 -0.0302555 2.8178 -0.115777 2.45192 0.164769L1.31877 1.03362C0.10953 1.96082 -0.335435 3.75243 0.267111 5.26804L0.707577 6.37598L0.70824 6.37763Z" fill="#FAFAFA"/>
</svg>
