<svg width="89" height="20" viewBox="0 0 89 20" fill="none" xmlns="http://www.w3.org/2000/svg">
<path d="M17.5907 -0.00332568C17.7455 0.0310386 17.883 0.0654028 18.0378 0.0997671C19.1557 0.409045 19.9468 1.38843 20.0156 2.53963C20.0156 2.62554 20.0156 2.71145 20.0156 2.79736C20.0156 7.59118 20.0156 12.3678 20.0156 17.1616C20.0156 18.4846 19.2245 19.5499 17.9862 19.8764C17.8486 19.9108 17.7111 19.9451 17.5735 19.9795C12.5172 19.9795 7.46102 19.9795 2.40479 19.9795C2.37039 19.9623 2.33599 19.9451 2.3016 19.9451C1.14933 19.7389 0.392612 19.0517 0.0658487 17.9348C0.0314526 17.8145 0.0142545 17.6943 -0.0201416 17.5568C-0.0201416 12.5053 -0.0201416 7.45372 -0.0201416 2.40217C-0.00294354 2.36781 0.0142545 2.33344 0.0142545 2.29908C0.220631 1.14788 0.908554 0.391863 2.02643 0.0654028C2.14681 0.0310386 2.2672 0.0138564 2.40479 -0.0205078C7.47821 -0.00332568 12.5344 -0.00332568 17.5907 -0.00332568ZM9.31841 6.57743C9.28401 6.56025 9.28401 6.54307 9.26681 6.54307C9.21522 6.52588 9.16362 6.49152 9.09483 6.47434C8.26933 6.19942 7.42662 6.18224 6.58391 6.38843C6.46353 6.42279 6.36034 6.42279 6.23995 6.37124C5.15648 5.92451 3.90102 6.71489 3.86662 7.90045C3.83222 9.3953 3.83222 10.8901 3.86662 12.385C3.88382 13.4503 4.9157 14.2235 5.96478 14.0001C6.77309 13.8283 7.34063 13.1066 7.34063 12.2475C7.34063 11.4056 7.34063 10.5637 7.34063 9.72176C7.34063 9.51557 7.34063 9.29221 7.37503 9.08602C7.54701 8.00355 8.16614 7.23035 9.11203 6.6977C9.18082 6.64616 9.24961 6.61179 9.31841 6.57743ZM14.667 7.12726C14.5122 7.00698 14.409 6.90389 14.2714 6.83516C12.7924 5.97606 11.2962 6.0276 9.85155 6.88671C8.92285 7.43654 8.35532 8.29564 8.32092 9.3953C8.28652 10.3747 8.26933 11.3541 8.32092 12.3334C8.37251 13.3644 9.16362 14.0517 10.1611 14.0001C11.0898 13.9657 11.7949 13.1582 11.7949 12.1616C11.7949 11.5431 11.7949 10.9245 11.7949 10.306C11.7949 9.96231 11.7949 9.60148 11.8293 9.25784C11.9497 8.17537 12.8268 7.29908 13.9103 7.14444C14.1339 7.14444 14.3746 7.14444 14.667 7.12726ZM16.2148 11.0276C16.2148 10.6668 16.232 10.306 16.2148 9.94513C16.1804 9.56712 16.146 9.18911 16.0429 8.82829C15.8365 8.19255 15.4065 7.78018 14.7186 7.71145C13.9791 7.64272 13.4115 7.952 13.0332 8.60492C12.8268 8.96574 12.7408 9.37812 12.7408 9.79049C12.7408 10.6496 12.7408 11.4915 12.7408 12.3506C12.7408 12.4365 12.7408 12.5224 12.758 12.6084C12.93 13.519 13.7383 14.1032 14.667 14.0173C15.5269 13.9486 16.1976 13.1925 16.1976 12.2991C16.2148 11.8695 16.2148 11.4572 16.2148 11.0276Z" fill="#CFCFCF"/>
<path d="M58.8174 12.5772C58.955 12.268 59.0754 11.9759 59.1785 11.6838C59.9353 9.84529 60.692 8.02398 61.4315 6.18549C61.4831 6.04804 61.5519 6.01367 61.6895 6.01367C61.9646 6.03085 62.2398 6.01367 62.515 6.01367C62.515 8.65972 62.515 11.3058 62.515 13.9518C62.2914 13.9518 62.085 13.9518 61.8442 13.9518C61.8442 11.6322 61.8442 9.32982 61.8442 7.02742C61.8271 7.02742 61.827 7.02742 61.8099 7.02742C61.7927 7.07896 61.7583 7.13051 61.7239 7.19924C60.8124 9.39855 59.9009 11.615 58.9894 13.8144C58.955 13.9175 58.9206 13.9862 58.783 13.9862C58.6454 13.9862 58.6282 13.9003 58.5766 13.7972C57.6651 11.5979 56.7536 9.39855 55.8421 7.19924C55.8249 7.14769 55.7905 7.07896 55.7389 7.02742C55.7389 9.32982 55.7389 11.6322 55.7389 13.9518C55.4982 13.9518 55.2918 13.9518 55.0682 13.9518C55.0682 11.3058 55.0682 8.6769 55.0682 6.01367C55.3778 6.01367 55.7045 6.01367 56.0141 6.01367C56.0485 6.01367 56.1001 6.09958 56.1173 6.15113C56.6332 7.40542 57.1664 8.6769 57.6823 9.94838C58.0091 10.7559 58.353 11.5635 58.6798 12.3539C58.7486 12.4226 58.7658 12.4913 58.8174 12.5772Z" fill="#CFCFCF"/>
<path d="M71.1312 13.9519C71.1312 11.3058 71.1312 8.65979 71.1312 6.03092C71.1828 6.03092 71.2172 6.01374 71.2688 6.01374C72.1287 6.01374 72.9886 5.99656 73.8485 6.01374C76.0326 6.0481 77.6837 7.71477 77.7009 9.8969C77.7181 11.1856 77.2881 12.2852 76.2734 13.11C75.5339 13.7113 74.674 13.9519 73.7453 13.9691C72.9198 13.9863 72.0771 13.9691 71.2516 13.9691C71.2172 13.9691 71.1828 13.9519 71.1312 13.9519ZM71.8019 13.3333C72.5586 13.3333 73.2982 13.3849 74.0205 13.3161C75.3275 13.2131 76.2734 12.5601 76.755 11.3058C77.0129 10.6186 77.0473 9.91408 76.9098 9.20962C76.669 7.92096 75.7747 6.97594 74.502 6.70103C73.6249 6.51202 72.7306 6.6323 71.8363 6.61511C71.8191 6.61511 71.8191 6.6323 71.8019 6.6323C71.8019 8.86597 71.8019 11.0997 71.8019 13.3333Z" fill="#CFCFCF"/>
<path d="M31.6788 13.9692C31.4037 13.9692 31.1629 13.9863 30.9221 13.9692C30.8705 13.9692 30.8189 13.8832 30.7673 13.8317C30.0794 12.8351 29.4087 11.8386 28.7208 10.8248C28.652 10.7045 28.566 10.6702 28.4284 10.6702C27.964 10.6702 27.4997 10.6702 27.0353 10.6702C26.9838 10.6702 26.915 10.6702 26.8462 10.6702C26.8462 11.7698 26.8462 12.8523 26.8462 13.952C26.6054 13.952 26.399 13.952 26.1754 13.952C26.1754 11.3059 26.1754 8.67705 26.1754 6.03101C26.2442 6.03101 26.2958 6.03101 26.3646 6.03101C27.2933 6.03101 28.2392 6.03101 29.1851 6.03101C29.6323 6.03101 30.045 6.11692 30.4406 6.3231C31.2661 6.75266 31.7132 7.68049 31.5756 8.64269C31.4209 9.77671 30.6985 10.4812 29.5463 10.6186C29.4947 10.6186 29.4603 10.6358 29.3743 10.653C30.1482 11.7527 30.9049 12.8351 31.6788 13.9692ZM26.8462 8.33341C26.8462 8.84888 26.8462 9.38152 26.8462 9.89699C26.8462 10.0001 26.8634 10.0688 26.9838 10.0688C27.7061 10.0688 28.4284 10.0688 29.1507 10.0688C29.6667 10.0516 30.131 9.89699 30.4578 9.48462C30.9221 8.91761 30.9909 8.26468 30.6985 7.59458C30.4062 6.9073 29.8214 6.64956 29.1163 6.63238C28.4284 6.6152 27.7233 6.63238 27.0353 6.63238C26.8978 6.63238 26.8462 6.66675 26.8462 6.82138C26.8634 7.31967 26.8462 7.81795 26.8462 8.33341Z" fill="#CFCFCF"/>
<path d="M43.4079 7.01038C43.0123 7.95539 42.6168 8.86604 42.2384 9.75952C41.6709 11.0997 41.1206 12.4399 40.5702 13.7973C40.5186 13.9176 40.467 13.952 40.3294 13.952C40.1403 13.9348 39.9511 13.952 39.7275 13.952C39.7619 13.866 39.7791 13.8145 39.7963 13.763C40.8454 11.22 41.8773 8.69422 42.9092 6.15127C42.9607 6.03099 43.0123 5.97945 43.1499 5.99663C43.3219 6.01381 43.4939 6.01381 43.6659 5.99663C43.8035 5.99663 43.8551 6.03099 43.9066 6.15127C44.5774 7.81793 45.2653 9.46742 45.9532 11.1341C46.3144 12.0104 46.6755 12.8867 47.0367 13.763C47.0539 13.8145 47.0711 13.866 47.1055 13.952C46.8475 13.952 46.6239 13.9691 46.4004 13.952C46.3488 13.952 46.2972 13.866 46.28 13.8145C45.7984 12.6633 45.3341 11.5293 44.8697 10.3781C44.4226 9.32996 43.9754 8.28185 43.5283 7.21656C43.4767 7.16501 43.4423 7.11347 43.4079 7.01038Z" fill="#CFCFCF"/>
<path d="M85.3196 7.01029C85.1132 7.50857 84.9069 7.98967 84.7177 8.45359C83.9782 10.2405 83.2386 12.0275 82.4819 13.8144C82.4303 13.9347 82.3787 13.9691 82.2412 13.9691C82.052 13.9519 81.8628 13.9691 81.6392 13.9691C81.7596 13.677 81.8628 13.402 81.9832 13.1443C82.9291 10.8247 83.8922 8.50514 84.8381 6.20273C84.8896 6.06527 84.9584 6.01373 85.1132 6.03091C85.3368 6.04809 85.5948 5.97936 85.7496 6.08246C85.9043 6.18555 85.9387 6.46046 86.0075 6.64947C86.9878 9.0206 87.9509 11.3917 88.9312 13.7801C88.9484 13.8316 88.9828 13.9003 89.0172 13.9862C88.7592 13.9862 88.5184 13.9862 88.2949 13.9862C88.2605 13.9862 88.2089 13.9003 88.1917 13.8488C87.263 11.6495 86.3515 9.45015 85.44 7.25084C85.3884 7.16493 85.3712 7.0962 85.3196 7.01029Z" fill="#CFCFCF"/>
<path d="M53.056 13.3504C53.056 13.5738 53.056 13.7628 53.056 13.9518C51.5426 13.9518 50.0464 13.9518 48.5501 13.9518C48.5501 11.3058 48.5501 8.6769 48.5501 6.01367C48.7737 6.01367 48.9801 6.01367 49.2037 6.01367C49.2037 8.45353 49.2037 10.8762 49.2037 13.3333C50.4935 13.3504 51.7662 13.3504 53.056 13.3504Z" fill="#CFCFCF"/>
<path d="M79.2831 6.01367C79.5239 6.01367 79.7302 6.01367 79.9538 6.01367C79.9538 8.65972 79.9538 11.2886 79.9538 13.9518C79.7646 13.9518 79.5755 13.9518 79.3691 13.9518C79.3347 13.9518 79.3003 13.9003 79.2831 13.8659C79.2659 13.8315 79.2831 13.7628 79.2831 13.7285C79.2831 11.237 79.2831 8.74563 79.2831 6.23704C79.2831 6.16831 79.2831 6.09958 79.2831 6.01367Z" fill="#CFCFCF"/>
<path d="M69.3082 9.65625C69.3082 9.84525 69.3082 10.0171 69.3082 10.2233C67.64 10.2233 65.9546 10.2233 64.2864 10.2233C64.2864 10.0343 64.2864 9.86244 64.2864 9.65625C65.9546 9.65625 67.6228 9.65625 69.3082 9.65625Z" fill="#CFCFCF"/>
<path d="M64.2864 13.9689C64.2864 13.7799 64.2864 13.5909 64.2864 13.4019C65.9718 13.4019 67.64 13.4019 69.3254 13.4019C69.3254 13.5909 69.3254 13.7799 69.3254 13.9689C67.64 13.9689 65.9718 13.9689 64.2864 13.9689Z" fill="#CFCFCF"/>
<path d="M33.261 10.2233C33.261 10.0343 33.261 9.84525 33.261 9.65625C34.9293 9.65625 36.5975 9.65625 38.2829 9.65625C38.2829 9.82807 38.2829 10.0171 38.2829 10.2233C36.6147 10.2233 34.9465 10.2233 33.261 10.2233Z" fill="#CFCFCF"/>
<path d="M33.261 13.9689C33.261 13.7799 33.261 13.5909 33.261 13.4019C34.9293 13.4019 36.5975 13.4019 38.2829 13.4019C38.2829 13.5909 38.2829 13.7799 38.2829 13.9689C36.6147 13.9689 34.9465 13.9689 33.261 13.9689Z" fill="#CFCFCF"/>
<path d="M38.2829 6.01367C38.2829 6.20267 38.2829 6.3745 38.2829 6.5635C36.6147 6.5635 34.9465 6.5635 33.261 6.5635C33.261 6.39168 33.261 6.20267 33.261 6.01367C34.9293 6.01367 36.5975 6.01367 38.2829 6.01367Z" fill="#CFCFCF"/>
<path d="M64.2864 6.5635C64.2864 6.3745 64.2864 6.18549 64.2864 6.01367C65.9718 6.01367 67.64 6.01367 69.3082 6.01367C69.3082 6.20267 69.3082 6.3745 69.3082 6.5635C67.64 6.5635 65.9718 6.5635 64.2864 6.5635Z" fill="#CFCFCF"/>
</svg>
