<svg width="80" height="78" viewBox="0 0 80 78" fill="none" xmlns="http://www.w3.org/2000/svg">
<path d="M63.1653 35.257C63.8127 35.257 64.3372 34.7324 64.3372 34.0852V32.5785C64.3372 29.8185 62.0917 27.573 59.3317 27.573H56.538C53.778 27.573 51.5325 29.8185 51.5325 32.5785V34.0852C51.5325 34.7324 52.057 35.257 52.7044 35.257C53.3517 35.257 53.8763 34.7324 53.8763 34.0852V32.5785C53.8763 31.1108 55.0703 29.9167 56.538 29.9167H59.3317C60.7995 29.9167 61.9934 31.1108 61.9934 32.5785V34.0852C61.9934 34.7324 62.518 35.257 63.1653 35.257Z" fill="#CE2C15"/>
<path d="M35.9413 32.5784C35.9413 31.1108 37.1353 29.9167 38.603 29.9167H41.3969C42.8647 29.9167 44.0586 31.1108 44.0586 32.5784C44.0586 33.2256 44.5831 33.7503 45.2305 33.7503C45.8778 33.7503 46.4023 33.2256 46.4023 32.5784C46.4023 29.8184 44.1569 27.573 41.3969 27.573H38.6031C35.8431 27.573 33.5977 29.8184 33.5977 32.5784C33.5977 33.2256 34.1222 33.7503 34.7695 33.7503C35.4169 33.7503 35.9413 33.2256 35.9413 32.5784Z" fill="#CE2C15"/>
<path d="M27.2956 35.257C27.943 35.257 28.4675 34.7324 28.4675 34.0852V32.5785C28.4675 29.8185 26.222 27.573 23.462 27.573H20.6683C17.9083 27.573 15.6628 29.8185 15.6628 32.5785V34.0852C15.6628 34.7324 16.1873 35.257 16.8347 35.257C17.482 35.257 18.0066 34.7324 18.0066 34.0852V32.5785C18.0066 31.1108 19.2006 29.9167 20.6683 29.9167H23.462C24.9298 29.9167 26.1237 31.1108 26.1237 32.5785V34.0852C26.1237 34.7324 26.6484 35.257 27.2956 35.257Z" fill="#CE2C15"/>
<path d="M79.2589 15.9402L40.4308 0.590637C40.1541 0.481262 39.8461 0.481262 39.5692 0.590637L24.3264 6.61626C23.7244 6.85408 23.4295 7.53501 23.6673 8.13689C23.9052 8.73876 24.5863 9.03408 25.1878 8.79579L40 2.94064L77.6562 17.8269V19.6385H2.34375V17.8269L20.8022 10.5297C21.4042 10.2919 21.6991 9.61095 21.4613 9.00908C21.2234 8.4072 20.5425 8.1122 19.9408 8.35017L0.741094 15.9402C0.293906 16.1169 0 16.5491 0 17.0299V20.8102C0 21.4574 0.524531 21.982 1.17188 21.982H3.84234V22.8986C3.84234 24.9927 5.54594 26.6964 7.64016 26.6964H8.18922V34.0852C8.18922 34.7324 8.71375 35.257 9.36109 35.257C10.0084 35.257 10.533 34.7324 10.533 34.0852V26.7083H69.4673V34.0852C69.4673 34.7324 69.9919 35.257 70.6392 35.257C71.2866 35.257 71.8111 34.7324 71.8111 34.0852V26.6964H72.3602C74.4542 26.6964 76.158 24.9928 76.158 22.8986V21.982H78.8281C79.4755 21.982 80 21.4574 80 20.8102V17.0299C80 16.5491 79.7061 16.1169 79.2589 15.9402ZM73.8139 22.8988C73.8139 23.7005 73.1616 24.3528 72.3598 24.3528H7.64C6.83828 24.3528 6.18594 23.7006 6.18594 22.8988V21.9822H73.8138V22.8988H73.8139Z" fill="#CE2C15"/>
<path d="M44.9745 11.9225C44.9745 9.17954 42.743 6.94814 40 6.94814C37.257 6.94814 35.0255 9.1797 35.0255 11.9225C35.0255 14.6653 37.257 16.897 40 16.897C42.743 16.897 44.9745 14.6655 44.9745 11.9225ZM37.3692 11.9225C37.3692 10.4719 38.5494 9.29188 40 9.29188C41.4506 9.29188 42.6308 10.472 42.6308 11.9225C42.6308 13.373 41.4506 14.5533 40 14.5533C38.5494 14.5533 37.3692 13.3731 37.3692 11.9225Z" fill="#0F2350"/>
<path d="M60.2126 55.5934H58.6769H57.3792H55.8434C53.6456 55.5934 51.598 56.682 50.3659 58.5053C50.0037 59.0416 50.1447 59.77 50.6809 60.1324C51.2176 60.4949 51.9459 60.3538 52.3081 59.8173C53.0978 58.6486 54.4061 57.9483 55.8126 57.9381L54.4612 62.5316C54.3416 62.9381 54.4509 63.3777 54.747 63.6809L57.1897 66.1827C57.4101 66.4084 57.7125 66.5358 58.0281 66.5358C58.3437 66.5358 58.6461 66.4084 58.8666 66.1827L61.3092 63.6809C61.6055 63.3777 61.7147 62.9381 61.595 62.5316L60.2434 57.938C62.5795 57.9547 64.4751 59.8597 64.4751 62.1999V67.7206H55.1562C54.5089 67.7206 53.9844 68.2453 53.9844 68.8925C53.9844 69.5397 54.5089 70.0644 55.1562 70.0644H65.6472C66.2945 70.0644 66.8191 69.5397 66.8191 68.8925V62.1999C66.8191 58.557 63.8555 55.5934 60.2126 55.5934ZM58.0281 63.6866L56.9034 62.5347L58.0281 58.712L59.1528 62.5347L58.0281 63.6866Z" fill="#0F2350"/>
<path d="M29.3191 60.1322C29.8553 59.7699 29.9962 59.0414 29.6341 58.5052C28.402 56.6819 26.3545 55.5933 24.1566 55.5933H22.6208H21.3231H19.7873C16.1447 55.5933 13.1811 58.5569 13.1811 62.1997V68.8923C13.1811 69.5395 13.7056 70.0642 14.353 70.0642H24.8437C25.4911 70.0642 26.0156 69.5395 26.0156 68.8923C26.0156 68.2452 25.4911 67.7205 24.8437 67.7205H15.5247V62.1997C15.5247 59.8597 17.4203 57.9545 19.7564 57.9378L18.4048 62.5314C18.2852 62.938 18.3945 63.3775 18.6906 63.6808L21.1333 66.1825C21.3537 66.4083 21.6561 66.5356 21.9717 66.5356C22.2873 66.5356 22.5897 66.4083 22.8102 66.1825L25.2528 63.6808C25.5491 63.3775 25.6583 62.938 25.5386 62.5314L24.1872 57.938C25.5937 57.9481 26.902 58.6484 27.6917 59.8172C28.0541 60.3536 28.7828 60.4947 29.3191 60.1322ZM21.9719 63.6866L20.8472 62.5347L21.9719 58.712L23.0966 62.5347L21.9719 63.6866Z" fill="#0F2350"/>
<path d="M14.5966 45.2138V47.6313C14.5966 51.698 17.9052 55.0066 21.9719 55.0066C26.0387 55.0066 29.3473 51.698 29.3473 47.6313V45.8114V44.6405C29.3473 44.5091 29.3436 44.3784 29.3367 44.2488C29.3352 44.2195 29.332 44.1906 29.3302 44.1616C29.3236 44.06 29.3161 43.9586 29.3055 43.8581C29.3022 43.8277 29.2975 43.7975 29.2939 43.7672C29.2822 43.6681 29.2695 43.5694 29.2537 43.4716C29.2489 43.4411 29.2427 43.4108 29.2375 43.3805C29.2208 43.2834 29.2028 43.1867 29.1822 43.0909C29.1755 43.0594 29.1675 43.028 29.1603 42.9966C29.1389 42.9031 29.1164 42.8103 29.0916 42.7183C29.0823 42.6842 29.0722 42.6503 29.0625 42.6164C29.0373 42.5284 29.0111 42.4411 28.9828 42.3545C28.9705 42.3167 28.9575 42.2794 28.9447 42.2419C28.9169 42.1613 28.888 42.0813 28.8573 42.0019C28.8411 41.9594 28.8242 41.917 28.8072 41.8749C28.778 41.803 28.7477 41.7317 28.7162 41.6609C28.695 41.613 28.6736 41.5652 28.6512 41.5175C28.622 41.4555 28.5917 41.3942 28.5611 41.3333C28.5339 41.2792 28.5069 41.2253 28.4783 41.1719C28.4512 41.1213 28.4228 41.0716 28.3945 41.0216C28.3598 40.9602 28.3255 40.8988 28.2891 40.8383C28.2683 40.8039 28.2461 40.7703 28.2248 40.7361C27.9986 40.3745 27.7409 40.0314 27.4525 39.7113C27.4428 39.7006 27.4336 39.6895 27.4241 39.6789C27.3619 39.6106 27.2975 39.5442 27.2327 39.4781C27.2097 39.4547 27.187 39.4309 27.1637 39.4078C27.1044 39.3491 27.0436 39.2916 26.982 39.2347C26.9505 39.2055 26.9189 39.1763 26.8869 39.1477C26.8583 39.122 26.8312 39.0953 26.8022 39.0702C26.7923 39.0611 26.7825 39.0524 26.7725 39.0436C26.7566 39.0302 26.7406 39.0169 26.7309 39.0094C26.6741 38.9613 26.6166 38.9139 26.5583 38.8675L26.4794 38.8058C26.4478 38.7814 26.4159 38.758 26.3842 38.7342C26.3828 38.7333 26.3816 38.7322 26.3803 38.7313C26.36 38.7161 26.3397 38.7003 26.3194 38.6855C26.2873 38.662 26.2552 38.6388 26.2214 38.6149C26.1787 38.5847 26.1359 38.5556 26.0934 38.527C26.0931 38.5269 26.0928 38.5266 26.0925 38.5264C26.0859 38.522 26.0792 38.5172 26.0728 38.5128C26.0358 38.4878 25.9984 38.4631 25.9603 38.4384C25.9147 38.4091 25.8686 38.3805 25.8239 38.3531C25.817 38.3489 25.8095 38.3445 25.8027 38.3402C25.7959 38.3361 25.7891 38.332 25.7823 38.3278C25.7525 38.3095 25.7233 38.2916 25.6909 38.2725C25.6536 38.2506 25.6159 38.2297 25.5745 38.2066L25.5591 38.198C25.5411 38.188 25.5245 38.1791 25.5069 38.1692C25.4945 38.1625 25.4822 38.1555 25.4697 38.1488C25.4536 38.1399 25.4362 38.13 25.4209 38.1219C25.3994 38.1103 25.3777 38.0992 25.3556 38.0881L25.3364 38.0783C25.318 38.0688 25.2991 38.0609 25.2806 38.0516C25.1906 38.0063 25.0995 37.9628 25.0075 37.9211C24.972 37.905 24.9367 37.8884 24.9012 37.873C24.8072 37.8322 24.712 37.7938 24.6159 37.7567C24.5825 37.7438 24.5495 37.7297 24.5159 37.7172C24.397 37.6733 24.2766 37.6324 24.1548 37.5945C24.0894 37.5741 24.023 37.5567 23.957 37.5383C23.897 37.5216 23.8373 37.5042 23.7767 37.4889C23.7042 37.4706 23.6311 37.4544 23.558 37.4383C23.5014 37.4258 23.4448 37.4136 23.388 37.4025C23.3153 37.3883 23.2425 37.3753 23.1694 37.3634C23.1077 37.3533 23.0456 37.3444 22.9833 37.3358C22.9148 37.3264 22.8466 37.317 22.7777 37.3095C22.702 37.3013 22.6256 37.2953 22.5494 37.2894C22.4927 37.285 22.4362 37.2795 22.3792 37.2764C22.2512 37.2694 22.1225 37.2655 21.9928 37.2652C21.9859 37.2652 21.9791 37.2645 21.9722 37.2645C17.9055 37.2645 14.5969 40.5731 14.5969 44.64V45.2138H14.5966ZM21.9719 52.6628C19.1975 52.6628 16.9403 50.4056 16.9403 47.6313V46.8206C17.5325 46.9488 18.1383 47.0142 18.7537 47.0142C20.7222 47.0142 22.6237 46.3322 24.1394 45.1099C24.9344 45.9049 25.9186 46.478 27.0036 46.777V47.6311C27.0036 50.4056 24.7464 52.6628 21.9719 52.6628ZM22.2487 39.6167C22.2887 39.6189 22.3284 39.6227 22.3681 39.6258C22.4191 39.6297 22.4698 39.6338 22.5205 39.6392C22.5681 39.6444 22.6155 39.6508 22.6628 39.6574C22.7042 39.663 22.7456 39.6691 22.7869 39.6758C22.8377 39.6841 22.8883 39.6931 22.9384 39.703C22.9761 39.7103 23.0136 39.7184 23.0511 39.7266C23.1019 39.7377 23.1527 39.7491 23.2028 39.7617C23.2427 39.7719 23.2822 39.7831 23.3217 39.7942C23.368 39.8072 23.4144 39.8194 23.46 39.8336C23.5427 39.8594 23.6248 39.887 23.7062 39.917C23.7262 39.9244 23.7458 39.9328 23.7656 39.9405C23.8344 39.967 23.903 39.9944 23.9709 40.0241C23.9911 40.0328 24.0108 40.0422 24.0308 40.0511C24.0995 40.0822 24.168 40.1145 24.2356 40.1489C24.2733 40.168 24.3111 40.1867 24.3483 40.2067C24.3655 40.2161 24.3827 40.2256 24.3998 40.2352C24.4511 40.2636 24.502 40.2927 24.5522 40.3228C24.5673 40.332 24.5823 40.3409 24.598 40.3506C24.6008 40.3524 24.6036 40.3541 24.6064 40.3558C24.6589 40.3881 24.7108 40.4214 24.762 40.4556C24.7642 40.457 24.7661 40.4583 24.7683 40.4599C24.7836 40.47 24.7981 40.4803 24.8133 40.4906C24.8647 40.5259 24.9156 40.5619 24.9655 40.5989C24.9736 40.605 24.9816 40.6108 24.9898 40.617C25.0425 40.6567 25.0942 40.6977 25.1453 40.7392C25.1606 40.7517 25.1761 40.7642 25.1912 40.777C25.2273 40.8072 25.2627 40.8383 25.298 40.8695C25.3291 40.897 25.36 40.9247 25.3903 40.9528C25.4219 40.982 25.453 41.0119 25.4837 41.0419C25.5106 41.0681 25.5373 41.0947 25.5636 41.1214C25.5956 41.1542 25.6273 41.1874 25.6586 41.2209C25.6823 41.2466 25.7058 41.2725 25.7291 41.2986C25.7606 41.3341 25.7917 41.3699 25.8223 41.4063C25.8442 41.4322 25.8656 41.4583 25.8869 41.4847C25.9167 41.5217 25.9462 41.5591 25.9752 41.597C25.9961 41.6245 26.0167 41.6525 26.037 41.6805C26.0642 41.7177 26.0909 41.755 26.117 41.793C26.1383 41.8239 26.1591 41.8552 26.1795 41.8866C26.203 41.9222 26.2261 41.958 26.2486 41.9942C26.2706 42.0297 26.2919 42.0656 26.313 42.1017C26.3323 42.1347 26.3516 42.1677 26.3702 42.2011C26.393 42.2422 26.415 42.2839 26.4367 42.3256C26.4519 42.3549 26.4672 42.3839 26.4817 42.4134C26.505 42.4605 26.5272 42.508 26.5489 42.5556C26.5605 42.5811 26.5722 42.6064 26.5834 42.632C26.6062 42.6842 26.6278 42.737 26.6487 42.79C26.6575 42.8122 26.6666 42.8342 26.675 42.8566C26.6962 42.9127 26.7162 42.9694 26.7356 43.0263C26.7425 43.0467 26.7497 43.067 26.7564 43.0877C26.7752 43.1455 26.7925 43.2039 26.8092 43.2625C26.8152 43.2834 26.8214 43.3044 26.8272 43.3253C26.8428 43.3828 26.8569 43.4408 26.8705 43.4991C26.8759 43.5224 26.8816 43.5456 26.8867 43.5691C26.8987 43.6242 26.9094 43.6797 26.9195 43.7355C26.9245 43.7633 26.9298 43.7909 26.9345 43.8188C26.943 43.8697 26.9502 43.9211 26.957 43.9725C26.9616 44.0061 26.9661 44.0397 26.97 44.0736C26.9752 44.1197 26.9794 44.1661 26.9833 44.2125C26.9853 44.2364 26.987 44.2605 26.9887 44.2844C26.2817 43.9572 25.6725 43.4333 25.2339 42.7575C25.0356 42.452 24.7067 42.2561 24.3437 42.2272C23.9825 42.1981 23.625 42.3399 23.3811 42.6103C22.1995 43.9194 20.5128 44.6703 18.753 44.6703C18.1342 44.6703 17.5291 44.5808 16.9455 44.4033C16.9456 44.3994 16.9455 44.3956 16.9458 44.3917C16.9475 44.3574 16.9508 44.3234 16.9531 44.2894C16.9566 44.2395 16.9597 44.1895 16.9645 44.14C16.968 44.1045 16.973 44.0695 16.9773 44.0344C16.9831 43.9867 16.9884 43.9389 16.9955 43.8916C17.0008 43.8559 17.0075 43.8208 17.0136 43.7855C17.0216 43.7392 17.0292 43.6928 17.0384 43.647C17.0455 43.6116 17.0539 43.5767 17.0619 43.5416C17.0719 43.4964 17.0817 43.4513 17.0931 43.4066C17.102 43.3716 17.112 43.337 17.1216 43.3024C17.1337 43.2584 17.1458 43.2144 17.1591 43.1708C17.1697 43.1359 17.1814 43.1017 17.1928 43.0672C17.2069 43.0245 17.2209 42.9817 17.2361 42.9397C17.2484 42.9056 17.2617 42.872 17.2747 42.8383C17.2908 42.7966 17.3069 42.7547 17.3239 42.7136C17.3378 42.6802 17.3525 42.6474 17.367 42.6144C17.385 42.5738 17.403 42.5331 17.422 42.493C17.4375 42.4605 17.4536 42.4283 17.4697 42.3961C17.4895 42.3564 17.5095 42.3169 17.5305 42.2778C17.5473 42.2463 17.5648 42.2152 17.5823 42.1841C17.6041 42.1453 17.6261 42.1067 17.6487 42.0686C17.667 42.0381 17.6858 42.008 17.7047 41.9778C17.7283 41.9403 17.7519 41.903 17.7764 41.8661C17.7961 41.8364 17.8162 41.8072 17.8366 41.778C17.8617 41.7417 17.8872 41.7056 17.9134 41.67C17.9344 41.6414 17.9558 41.6133 17.9773 41.5852C18.0042 41.55 18.0316 41.5152 18.0594 41.4808C18.0816 41.4534 18.1041 41.4263 18.1269 41.3992C18.1555 41.3653 18.1844 41.3319 18.2139 41.2988C18.2373 41.2725 18.2609 41.2464 18.285 41.2206C18.3152 41.1881 18.3458 41.1559 18.3769 41.1242C18.4014 41.0991 18.4261 41.0742 18.4512 41.0497C18.483 41.0186 18.5153 40.988 18.5478 40.9577C18.5734 40.9339 18.5991 40.9102 18.6252 40.8869C18.6584 40.8572 18.6923 40.828 18.7264 40.7991C18.753 40.7766 18.7797 40.7542 18.8067 40.7322C18.8416 40.7039 18.8769 40.6764 18.9123 40.6491C18.94 40.6278 18.9677 40.6067 18.9956 40.5861C19.0319 40.5594 19.0686 40.5336 19.1056 40.5078C19.1341 40.4881 19.1623 40.4683 19.1912 40.4491C19.2289 40.4239 19.2672 40.3997 19.3056 40.3756C19.335 40.3572 19.3642 40.3388 19.3937 40.3209C19.4328 40.2977 19.4723 40.2752 19.5119 40.253C19.542 40.2359 19.572 40.2189 19.6025 40.2025C19.6428 40.1809 19.6837 40.1603 19.7247 40.1399C19.7555 40.1244 19.7861 40.1088 19.8172 40.0939C19.8591 40.0741 19.9014 40.0553 19.9439 40.0366C19.9752 40.0228 20.0062 40.0086 20.0378 39.9953C20.0811 39.9772 20.125 39.9605 20.1689 39.9436C20.2005 39.9314 20.2317 39.9189 20.2636 39.9074C20.3087 39.8909 20.3545 39.8761 20.4003 39.8611C20.4317 39.8508 20.4628 39.8399 20.4945 39.8302C20.5414 39.8158 20.5889 39.8028 20.6364 39.7897C20.6677 39.7811 20.6987 39.7717 20.7303 39.7638C20.7792 39.7513 20.8289 39.7405 20.8784 39.7295C20.9092 39.7227 20.9395 39.7152 20.9705 39.7089C21.0225 39.6983 21.0752 39.6897 21.1278 39.6808C21.1569 39.6759 21.1856 39.6702 21.2148 39.6656C21.2719 39.657 21.3295 39.6503 21.387 39.6436C21.4123 39.6406 21.4375 39.6367 21.463 39.6342C21.5309 39.6274 21.5997 39.6227 21.6684 39.6186C21.6839 39.6177 21.6992 39.6159 21.7147 39.6152C21.7997 39.6109 21.8852 39.6086 21.9712 39.6086C21.9783 39.6086 21.9852 39.6091 21.9922 39.6091C22.0786 39.6097 22.1639 39.6122 22.2487 39.6167Z" fill="#0F2350"/>
<path d="M50.6526 45.2138V47.6313C50.6526 51.698 53.9612 55.0066 58.0281 55.0066C62.0948 55.0066 65.4034 51.698 65.4034 47.6313V45.8114V44.6405C65.4034 44.5091 65.3997 44.3786 65.3928 44.2488C65.3912 44.2195 65.388 44.1905 65.3862 44.1613C65.3797 44.0599 65.3723 43.9588 65.3617 43.8586C65.3584 43.8275 65.3536 43.7969 65.3498 43.766C65.3381 43.6675 65.3255 43.5694 65.31 43.4722C65.305 43.4413 65.2987 43.4106 65.2934 43.3799C65.2767 43.2833 65.2589 43.1872 65.2386 43.092C65.2317 43.0597 65.2236 43.0278 65.2162 42.9956C65.1951 42.903 65.1728 42.8108 65.1481 42.7195C65.1387 42.6847 65.1284 42.6502 65.1186 42.6155C65.0937 42.5286 65.0678 42.442 65.0398 42.3564C65.0272 42.3177 65.0139 42.2791 65.0006 42.2405C64.9733 42.1611 64.9447 42.0822 64.9147 42.0041C64.898 41.9605 64.8808 41.917 64.8631 41.8738C64.8344 41.8031 64.8045 41.733 64.7737 41.6635C64.752 41.6144 64.7301 41.5655 64.7073 41.5169C64.6789 41.4563 64.6492 41.3963 64.6191 41.3366C64.5912 41.2813 64.5634 41.226 64.5342 41.1713C64.5081 41.1224 64.4806 41.0742 64.4533 41.026C64.4178 40.963 64.3823 40.8999 64.345 40.838C64.3251 40.8052 64.304 40.7731 64.2837 40.7406C64.0561 40.3761 63.7964 40.0305 63.5058 39.708C63.4975 39.6988 63.4894 39.6891 63.4811 39.6799C63.4187 39.6114 63.3542 39.5449 63.2891 39.4786C63.2661 39.4553 63.2436 39.4316 63.2203 39.4085C63.1614 39.35 63.1009 39.293 63.0398 39.2364C63.0076 39.2066 62.9756 39.1769 62.9428 39.1475C62.9151 39.1227 62.8889 39.0967 62.8608 39.0724C62.8503 39.0625 62.8395 39.053 62.8286 39.0435C62.8126 39.03 62.7967 39.0167 62.7856 39.008C62.7287 38.9599 62.6714 38.9125 62.6173 38.8697L62.5341 38.8045C62.4812 38.7639 62.4281 38.7238 62.3755 38.6853C62.3444 38.6625 62.3128 38.6399 62.2775 38.6147C62.228 38.5797 62.1778 38.5455 62.1289 38.5128C62.0919 38.4878 62.0545 38.4631 62.0164 38.4385C61.9708 38.4091 61.9247 38.3805 61.8781 38.352L61.8622 38.3422C61.8589 38.3402 61.8551 38.338 61.8517 38.336C61.8498 38.3349 61.8481 38.3338 61.8462 38.3327C61.8141 38.313 61.7822 38.2936 61.7469 38.2727C61.7137 38.2533 61.6805 38.2347 61.647 38.2161L61.6189 38.2003C61.5987 38.1889 61.5795 38.1788 61.5595 38.1677C61.5489 38.1617 61.5383 38.1558 61.5275 38.15C61.5108 38.1408 61.4931 38.1308 61.477 38.1222C61.4551 38.1106 61.4331 38.0994 61.4109 38.0881L61.3923 38.0786C61.3742 38.0692 61.3555 38.0616 61.3373 38.0524C61.2467 38.0067 61.155 37.963 61.0625 37.921C61.0275 37.905 60.9928 37.8888 60.9576 37.8735C60.863 37.8324 60.767 37.7936 60.6703 37.7564C60.6375 37.7438 60.6051 37.7299 60.5722 37.7177C60.4531 37.6738 60.3325 37.6328 60.2105 37.5949C60.1453 37.5745 60.0794 37.5574 60.0137 37.5389C59.9534 37.522 59.8934 37.5047 59.8325 37.4892C59.76 37.471 59.687 37.4547 59.6141 37.4386C59.5575 37.4261 59.5008 37.4139 59.4437 37.4028C59.3711 37.3886 59.2983 37.3756 59.2251 37.3638C59.1634 37.3536 59.1014 37.3447 59.0392 37.3361C58.9708 37.3267 58.9023 37.3174 58.8336 37.3099C58.758 37.3016 58.6817 37.2956 58.6053 37.2897C58.5486 37.2853 58.4922 37.2799 58.4351 37.2767C58.3072 37.2697 58.1783 37.2658 58.0487 37.2655C58.0419 37.2655 58.035 37.2649 58.0281 37.2649C53.9612 37.2649 50.6526 40.5735 50.6526 44.6403V45.2138ZM58.0281 52.6628C55.2536 52.6628 52.9964 50.4056 52.9964 47.6313V46.8206C53.5886 46.9488 54.1944 47.0142 54.81 47.0142C56.7783 47.0142 58.6801 46.332 60.1956 45.11C60.9906 45.9049 61.9747 46.478 63.0597 46.7772V47.6313C63.0597 50.4056 60.8025 52.6628 58.0281 52.6628ZM58.305 39.6167C58.345 39.6189 58.3844 39.6227 58.4241 39.6258C58.4751 39.6297 58.5261 39.6338 58.5769 39.6392C58.6244 39.6444 58.6716 39.6508 58.7187 39.6574C58.7605 39.6631 58.802 39.6691 58.8436 39.6758C58.8941 39.6841 58.9444 39.693 58.9944 39.7028C59.0325 39.7103 59.0705 39.7185 59.1083 39.7267C59.1587 39.7378 59.2091 39.7491 59.2589 39.7616C59.2995 39.7719 59.3397 39.7835 59.3798 39.7947C59.4253 39.8074 59.4711 39.8196 59.5159 39.8335C59.5989 39.8592 59.6814 39.887 59.7631 39.9172C59.7823 39.9242 59.8009 39.9324 59.82 39.9397C59.8898 39.9666 59.9594 39.9944 60.0281 40.0244C60.0476 40.0328 60.0669 40.0419 60.0861 40.0506C60.1555 40.082 60.2245 40.1147 60.293 40.1494C60.3323 40.1694 60.372 40.1889 60.4108 40.2099C60.4226 40.2164 60.4362 40.2239 60.4498 40.2314C60.5048 40.2617 60.5592 40.293 60.6128 40.3253C60.6211 40.3303 60.6294 40.3353 60.6376 40.3403L60.6545 40.3506C60.6561 40.3516 60.6576 40.3527 60.6592 40.3536C60.7142 40.3874 60.7684 40.4222 60.8219 40.458C60.8228 40.4586 60.8237 40.4592 60.8248 40.4599C60.8391 40.4694 60.8519 40.4785 60.8658 40.4878C60.9162 40.5224 60.9661 40.5578 61.0153 40.5942C61.0311 40.606 61.0478 40.6186 61.0642 40.631C61.1109 40.6664 61.157 40.7027 61.2025 40.7397C61.2172 40.7517 61.2319 40.7638 61.2464 40.7758C61.283 40.8063 61.3186 40.8377 61.3542 40.8692C61.3856 40.8969 61.4167 40.9249 61.4473 40.9531C61.4787 40.9824 61.5098 41.012 61.5405 41.0419C61.5675 41.0681 61.5941 41.0947 61.6205 41.1216C61.6526 41.1544 61.6844 41.1877 61.7156 41.2214C61.7392 41.2469 61.7625 41.2725 61.7855 41.2983C61.8173 41.3341 61.8487 41.3702 61.8795 41.4069C61.9009 41.4325 61.922 41.4583 61.943 41.4842C61.9733 41.5216 62.003 41.5594 62.0322 41.5977C62.0528 41.6249 62.073 41.6522 62.0931 41.6797C62.1206 41.7174 62.1478 41.7553 62.1742 41.7938C62.195 41.8239 62.2153 41.8545 62.2355 41.8852C62.2594 41.9216 62.283 41.958 62.3059 41.995C62.3275 42.0299 62.3483 42.065 62.3691 42.1002C62.3887 42.1338 62.4084 42.1675 62.4275 42.2017C62.45 42.2422 62.4716 42.283 62.4928 42.3241C62.5084 42.3539 62.5239 42.3838 62.5389 42.4139C62.5619 42.4603 62.5837 42.5072 62.6053 42.5542C62.6172 42.5802 62.6292 42.6061 62.6406 42.6324C62.6631 42.6841 62.6845 42.7363 62.7053 42.7886C62.7144 42.8114 62.7236 42.8341 62.7323 42.8569C62.7534 42.9127 62.7733 42.9689 62.7925 43.0253C62.7995 43.0461 62.8069 43.0667 62.8136 43.0877C62.8323 43.1453 62.8497 43.2036 62.8664 43.2619C62.8725 43.283 62.8787 43.3041 62.8844 43.3253C62.9 43.3827 62.9141 43.4405 62.9275 43.4985C62.933 43.5219 62.9387 43.5453 62.9437 43.5689C62.9558 43.6239 62.9664 43.6794 62.9766 43.7349C62.9816 43.7627 62.9869 43.7905 62.9916 43.8185C63 43.8694 63.0072 43.9206 63.0141 43.9719C63.0186 44.0056 63.0231 44.0392 63.027 44.0731C63.0322 44.1192 63.0364 44.1656 63.0403 44.212C63.0423 44.236 63.0441 44.26 63.0458 44.2839C62.3387 43.9567 61.7295 43.4328 61.2909 42.7571C61.0926 42.4516 60.7637 42.2556 60.4008 42.2267C60.0378 42.1977 59.6819 42.3394 59.438 42.6099C58.2566 43.9189 56.57 44.6697 54.8101 44.6697C54.1914 44.6697 53.5862 44.5802 53.0025 44.4027C53.0026 44.3988 53.0025 44.395 53.0028 44.3911C53.0045 44.3567 53.0078 44.3228 53.0102 44.2888C53.0136 44.2389 53.0167 44.1889 53.0216 44.1394C53.025 44.1039 53.03 44.0689 53.0344 44.0338C53.0402 43.9861 53.0455 43.9383 53.0525 43.891C53.0578 43.8553 53.0645 43.8202 53.0706 43.7849C53.0786 43.7386 53.0862 43.6922 53.0955 43.6464C53.1025 43.611 53.1109 43.5761 53.1189 43.541C53.1289 43.4958 53.1387 43.4506 53.1501 43.406C53.1589 43.3711 53.1691 43.3366 53.1786 43.302C53.1908 43.258 53.2028 43.2138 53.2161 43.17C53.2267 43.1355 53.2383 43.1014 53.2495 43.0672C53.2637 43.0244 53.2777 42.9814 53.293 42.9391C53.3052 42.905 53.3184 42.8714 53.3314 42.8377C53.3475 42.796 53.3636 42.7541 53.3806 42.713C53.3945 42.6795 53.4092 42.6467 53.4237 42.6138C53.4417 42.5731 53.4597 42.5325 53.4787 42.4924C53.4942 42.4599 53.5103 42.4277 53.5264 42.3955C53.5462 42.3558 53.5662 42.3163 53.587 42.2772C53.6039 42.2456 53.6214 42.2144 53.6391 42.1831C53.6608 42.1445 53.6827 42.1061 53.7052 42.0683C53.7236 42.0375 53.7425 42.0072 53.7614 41.9769C53.7848 41.9395 53.8084 41.9024 53.8328 41.8656C53.8525 41.836 53.8726 41.8066 53.893 41.7774C53.9181 41.741 53.9437 41.7049 53.9698 41.6692C53.9908 41.6408 54.012 41.6127 54.0336 41.5845C54.0606 41.5494 54.088 41.5145 54.1158 41.48C54.138 41.4527 54.1605 41.4255 54.1833 41.3985C54.2119 41.3647 54.2408 41.3311 54.2703 41.2981C54.2937 41.2717 54.3175 41.2456 54.3416 41.2199C54.3717 41.1874 54.4023 41.1553 54.4333 41.1236C54.4578 41.0985 54.4825 41.0736 54.5076 41.0491C54.5394 41.018 54.5717 40.9874 54.6042 40.957C54.6298 40.9333 54.6555 40.9095 54.6816 40.8863C54.715 40.8564 54.7489 40.8272 54.783 40.7983C54.8095 40.7758 54.8361 40.7535 54.8631 40.7316C54.8978 40.7033 54.9331 40.6758 54.9687 40.6485C54.9964 40.6272 55.0241 40.606 55.0522 40.5853C55.0883 40.5588 55.1251 40.5328 55.162 40.5072C55.1905 40.4874 55.2189 40.4677 55.2476 40.4485C55.2853 40.4233 55.3237 40.3991 55.3622 40.3749C55.3914 40.3566 55.4205 40.3381 55.4501 40.3205C55.4892 40.297 55.5289 40.2747 55.5686 40.2522C55.5986 40.2353 55.6286 40.2181 55.6591 40.2019C55.6994 40.1803 55.7405 40.1597 55.7814 40.1391C55.8122 40.1236 55.8426 40.108 55.8737 40.0933C55.9156 40.0735 55.9581 40.0547 56.0006 40.0358C56.0317 40.022 56.0628 40.0078 56.0942 39.9947C56.1376 39.9766 56.1817 39.9597 56.2256 39.9428C56.257 39.9306 56.2883 39.9181 56.32 39.9067C56.3651 39.8905 56.4108 39.8755 56.4566 39.8605C56.488 39.8502 56.5192 39.8392 56.5509 39.8294C56.5978 39.815 56.6453 39.802 56.6926 39.7891C56.7241 39.7805 56.7551 39.7711 56.7867 39.7631C56.8356 39.7506 56.8853 39.7399 56.9348 39.7289C56.9656 39.722 56.9959 39.7145 57.0269 39.7083C57.0789 39.6977 57.1316 39.6891 57.1842 39.6802C57.2133 39.6753 57.242 39.6696 57.2711 39.665C57.3281 39.6564 57.3858 39.6497 57.4434 39.643C57.4687 39.64 57.4939 39.6361 57.5194 39.6336C57.5875 39.6267 57.6561 39.622 57.7248 39.618C57.7403 39.617 57.7555 39.6153 57.7709 39.6146C57.8559 39.6103 57.9414 39.608 58.0275 39.608C58.0345 39.608 58.0414 39.6085 58.0484 39.6085C58.1347 39.6097 58.2201 39.6122 58.305 39.6167Z" fill="#0F2350"/>
<path d="M42.9845 58.5797H40.8864H39.1136H37.0155C32.2753 58.5797 28.4189 62.4361 28.4189 67.1761V76.3195C28.4189 76.9667 28.9434 77.4914 29.5908 77.4914H50.4089C51.0562 77.4914 51.5808 76.9667 51.5808 76.3195V67.1761C51.5809 62.4361 47.7247 58.5797 42.9845 58.5797ZM40.0097 60.9234L42.0192 67.7538L40 69.8219L37.9808 67.7539L39.9903 60.9236H40.0097V60.9234ZM49.2372 75.1477H30.7628V67.1761C30.7628 63.7284 33.5678 60.9234 37.0156 60.9234H37.5473L35.5388 67.7506C35.4191 68.1572 35.5284 68.5967 35.8245 68.9L39.1616 72.3178C39.382 72.5438 39.6844 72.6711 40 72.6711C40.3156 72.6711 40.618 72.5438 40.8384 72.3178L44.1755 68.9C44.4717 68.5967 44.5809 68.1572 44.4612 67.7506L42.4527 60.9234H42.9844C46.432 60.9234 49.2372 63.7284 49.2372 67.1761V75.1477Z" fill="#0F2350"/>
<path d="M30.353 43.6374V44.4208V47.7235C30.353 53.0428 34.6806 57.3706 40 57.3706C45.3194 57.3706 49.647 53.043 49.647 47.7235V45.2372V43.6374C49.647 43.4653 49.6422 43.2946 49.6331 43.1247C49.6311 43.0864 49.6269 43.0486 49.6244 43.0105C49.6158 42.8777 49.6061 42.7452 49.5922 42.6138C49.588 42.5736 49.5817 42.5341 49.5769 42.4941C49.5616 42.3647 49.5448 42.2358 49.5245 42.108C49.5181 42.0678 49.51 42.0283 49.5031 41.9883C49.4811 41.8614 49.4578 41.735 49.4308 41.6097C49.4219 41.5685 49.4117 41.5277 49.4023 41.4867C49.3744 41.3642 49.3448 41.2424 49.3122 41.1217C49.3001 41.0775 49.2872 41.0336 49.2745 40.9896C49.2416 40.8742 49.207 40.7597 49.17 40.6461C49.1539 40.5971 49.137 40.5481 49.1203 40.4994C49.0837 40.3935 49.0456 40.2883 49.0056 40.1841C48.9845 40.1291 48.9628 40.0742 48.9406 40.0197C48.902 39.9249 48.862 39.831 48.8206 39.7375C48.7933 39.6756 48.7656 39.6139 48.7369 39.5527C48.6983 39.4705 48.658 39.3892 48.6172 39.3083C48.5822 39.2388 48.5473 39.1692 48.5106 39.1005C48.4745 39.033 48.4366 38.9666 48.3989 38.9C48.3544 38.8211 48.31 38.7419 48.2631 38.6642C48.2348 38.6174 48.2047 38.5716 48.1756 38.5253C47.8839 38.0596 47.5519 37.6175 47.1812 37.2042C47.1634 37.1844 47.1464 37.1639 47.1284 37.1442C47.0502 37.0585 46.9691 36.9749 46.8875 36.8917C46.8541 36.8575 46.8209 36.823 46.7869 36.7892C46.7119 36.715 46.635 36.6424 46.5573 36.5705C46.513 36.5294 46.4686 36.4883 46.4234 36.448C46.3869 36.4153 46.3522 36.381 46.315 36.3488C46.3022 36.3367 46.2892 36.3252 46.2758 36.3136C46.2592 36.2994 46.2422 36.2855 46.2225 36.2697C46.1489 36.2077 46.0748 36.1464 45.9984 36.0856C45.9641 36.0585 45.9297 36.0317 45.8944 36.0044C45.8541 35.9733 45.8137 35.9436 45.7733 35.9133C45.7702 35.911 45.767 35.9086 45.7639 35.9063C45.7375 35.8866 45.7111 35.8658 45.6847 35.8467C45.6433 35.8166 45.602 35.7867 45.558 35.7556C45.5028 35.7167 45.447 35.6788 45.3912 35.6411C45.3905 35.6406 45.3898 35.6402 45.3891 35.6396C45.3802 35.6336 45.3714 35.6274 45.3625 35.6213C45.3141 35.5889 45.2658 35.5566 45.2159 35.5244C45.1567 35.4863 45.0972 35.4494 45.0352 35.4113L45.0087 35.395C45.0072 35.3941 45.0055 35.393 45.0037 35.3921C44.9995 35.3894 44.9953 35.3869 44.9909 35.3844C44.9495 35.3591 44.9083 35.3338 44.8639 35.3077C44.8192 35.2816 44.7742 35.2564 44.7292 35.2313L44.6937 35.2114C44.6708 35.1986 44.6473 35.186 44.6242 35.1731C44.6075 35.1639 44.5908 35.1546 44.5739 35.1455C44.5514 35.1331 44.5294 35.1205 44.5064 35.1085C44.4806 35.0947 44.4544 35.0814 44.4281 35.0683L44.3997 35.0539C44.3773 35.0425 44.3545 35.033 44.3322 35.0217C44.2108 34.9605 44.088 34.9019 43.9639 34.8458C43.9205 34.8261 43.877 34.8058 43.8334 34.7867C43.7066 34.7316 43.578 34.6797 43.4484 34.6299C43.4084 34.6144 43.3687 34.5974 43.3286 34.5825C43.1719 34.5247 43.0131 34.4708 42.8527 34.421C42.7702 34.3953 42.6867 34.3735 42.6036 34.35C42.5219 34.3271 42.4405 34.3036 42.358 34.2827C42.265 34.2592 42.1712 34.2385 42.0775 34.2178C42.0016 34.2011 41.9255 34.1847 41.8487 34.1697C41.7555 34.1516 41.6619 34.1349 41.5678 34.1194C41.4848 34.1058 41.4014 34.0938 41.3178 34.0824C41.2305 34.0705 41.1433 34.0585 41.0553 34.0489C40.9531 34.0377 40.8502 34.0297 40.7469 34.0217C40.6758 34.0163 40.605 34.0094 40.5334 34.0055C40.3566 33.9958 40.1786 33.99 39.9992 33.99C34.6806 33.9903 30.353 38.318 30.353 43.6374ZM40 55.0269C35.973 55.0269 32.6967 51.7506 32.6967 47.7235V46.072C33.64 46.3239 34.6123 46.4513 35.6036 46.4513C38.327 46.4513 40.9533 45.4592 42.9944 43.692C44.1447 44.9528 45.6412 45.8321 47.3034 46.2227V47.7233C47.3033 51.7505 44.027 55.0269 40 55.0269ZM40.4045 36.3458C40.4584 36.3488 40.5119 36.3539 40.5656 36.3581C40.6437 36.3641 40.7217 36.3703 40.7992 36.3788C40.8658 36.3861 40.9317 36.395 40.9977 36.4041C41.0611 36.4127 41.1245 36.4219 41.1877 36.4322C41.2583 36.4438 41.3286 36.4563 41.3986 36.47C41.4575 36.4814 41.5161 36.4941 41.5747 36.5071C41.6445 36.5225 41.7144 36.538 41.7834 36.5553C41.8486 36.5717 41.9134 36.5903 41.9781 36.6086C42.0378 36.6255 42.098 36.6413 42.157 36.6596C42.2798 36.6977 42.4019 36.7388 42.5228 36.7836C42.545 36.7917 42.5666 36.8013 42.5887 36.8097C42.6959 36.8506 42.8025 36.8936 42.9081 36.9399C42.9336 36.951 42.9587 36.9628 42.9841 36.9742C43.0873 37.0208 43.19 37.0697 43.2919 37.1213C43.3458 37.1486 43.4002 37.1753 43.4533 37.2041C43.4756 37.2163 43.498 37.2286 43.5202 37.241C43.6 37.285 43.6791 37.3303 43.757 37.3774C43.7664 37.3831 43.7759 37.3888 43.7853 37.3944L43.8112 37.4103C43.812 37.4108 43.8128 37.4113 43.8136 37.4117C43.8972 37.4631 43.9798 37.516 44.0612 37.5706C44.0794 37.5828 44.0966 37.5949 44.1145 37.6072C44.1911 37.6596 44.2667 37.7133 44.3411 37.7685C44.3598 37.7824 44.3783 37.7963 44.3967 37.8102C44.4708 37.8663 44.5437 37.9235 44.6156 37.9822C44.6322 37.9958 44.6487 38.0092 44.6652 38.023C44.7195 38.0683 44.7725 38.1152 44.8256 38.1621C44.8764 38.2069 44.9266 38.2522 44.9759 38.2981C45.0206 38.3399 45.065 38.3819 45.1087 38.4247C45.1525 38.4675 45.1953 38.5113 45.2378 38.555C45.2833 38.6017 45.3286 38.6486 45.3728 38.6966C45.4112 38.7383 45.4483 38.781 45.4856 38.8235C45.5306 38.8746 45.5758 38.9253 45.6194 38.9777C45.6537 39.0191 45.6864 39.0616 45.7197 39.1036C45.7631 39.1583 45.8075 39.2125 45.8494 39.2685C45.8889 39.3211 45.9259 39.3755 45.9639 39.4291C46.0233 39.513 46.0809 39.5981 46.1369 39.6847C46.1773 39.7474 46.2183 39.8097 46.2567 39.8736C46.2816 39.9147 46.3047 39.957 46.3287 39.9986C46.368 40.0667 46.4072 40.1349 46.4442 40.2042C46.4652 40.2433 46.4847 40.283 46.5048 40.3224C46.5428 40.3966 46.5802 40.4711 46.6155 40.5466C46.6325 40.5828 46.6487 40.6197 46.6652 40.6563C46.7012 40.7369 46.7364 40.818 46.7695 40.8999C46.7831 40.9335 46.7964 40.9672 46.8095 41.0011C46.8431 41.0875 46.875 41.1746 46.9052 41.2622C46.9159 41.2935 46.9267 41.3249 46.937 41.3563C46.9672 41.4475 46.9952 41.5396 47.0217 41.6322C47.0302 41.6617 47.0389 41.6911 47.0469 41.7208C47.0728 41.8158 47.0962 41.9117 47.1183 42.0078C47.1248 42.0364 47.1319 42.0649 47.1381 42.0936C47.1592 42.1906 47.1773 42.2886 47.1944 42.3867C47.1994 42.4158 47.2053 42.4446 47.21 42.4738C47.2258 42.5716 47.2384 42.6702 47.2503 42.7688C47.2539 42.7989 47.2586 42.8288 47.2619 42.8591C47.2727 42.9592 47.28 43.0599 47.2866 43.1606C47.2884 43.1897 47.2917 43.2183 47.2931 43.2475C47.3 43.3769 47.3037 43.5067 47.3037 43.6371V43.79C45.9984 43.3539 44.8687 42.4858 44.0981 41.2985C43.8998 40.993 43.5709 40.7971 43.208 40.7681C42.8459 40.7397 42.4892 40.8808 42.2452 41.1513C40.55 43.0299 38.1294 44.1072 35.6039 44.1072C34.6052 44.1072 33.6306 43.9445 32.6975 43.6227C32.6977 43.5599 32.7005 43.4977 32.7022 43.4353C32.7037 43.3752 32.7041 43.3147 32.707 43.2549C32.7103 43.1927 32.7164 43.1313 32.7212 43.0696C32.7261 43.0078 32.7294 42.9458 32.7358 42.8846C32.7419 42.8247 32.7509 42.7658 32.7584 42.7066C32.7664 42.6442 32.7731 42.5816 32.7827 42.5197C32.7914 42.4628 32.8028 42.4071 32.813 42.3506C32.8244 42.2872 32.8344 42.2233 32.8473 42.1605C32.8584 42.1072 32.8719 42.0547 32.8841 42.0019C32.8989 41.9371 32.9128 41.8719 32.9294 41.8077C32.9423 41.7575 32.9578 41.7085 32.9717 41.6588C32.9903 41.5928 33.0078 41.5266 33.0283 41.4614C33.0427 41.4153 33.0594 41.3702 33.0747 41.3244C33.0973 41.2569 33.1191 41.1889 33.1436 41.1224C33.1595 41.0792 33.1775 41.0371 33.1942 40.9942C33.2206 40.9263 33.2464 40.858 33.2748 40.7911C33.292 40.7508 33.3111 40.7116 33.3289 40.6716C33.3594 40.6035 33.3891 40.535 33.4214 40.468C33.4395 40.4306 33.4594 40.3944 33.4781 40.3574C33.5127 40.2891 33.5466 40.2203 33.5831 40.1533C33.6017 40.1192 33.622 40.0863 33.6412 40.0525C33.6802 39.9839 33.7186 39.915 33.7595 39.8477C33.7781 39.8172 33.7983 39.7878 33.8173 39.7577C33.8609 39.6885 33.9041 39.6192 33.9498 39.5516C33.9695 39.5225 33.9906 39.4947 34.0108 39.466C34.0578 39.3988 34.1045 39.3313 34.1536 39.2656C34.1747 39.2375 34.1973 39.2105 34.2187 39.1827C34.2687 39.1178 34.3186 39.0528 34.3708 38.9897C34.3903 38.9663 34.4109 38.9438 34.4308 38.9206C34.4866 38.8547 34.5425 38.7888 34.6006 38.725C34.6206 38.7031 34.6419 38.6824 34.662 38.6606C34.7214 38.5969 34.7809 38.5333 34.8425 38.4717C34.8641 38.4502 34.8869 38.4297 34.9089 38.4085C34.9706 38.3483 35.0325 38.2881 35.0962 38.2302C35.1189 38.2097 35.1425 38.1905 35.1655 38.1703C35.23 38.1131 35.2947 38.056 35.3612 38.001C35.3864 37.9802 35.413 37.9608 35.4384 37.9403C35.5041 37.8877 35.5697 37.8349 35.6372 37.7844C35.6627 37.7653 35.6892 37.7477 35.7152 37.7289C35.7841 37.6788 35.853 37.6286 35.9236 37.5808C35.9492 37.5635 35.9758 37.5477 36.0017 37.5308C36.0737 37.4835 36.1458 37.436 36.2197 37.3911C36.2495 37.373 36.2805 37.3566 36.3106 37.3388C36.3817 37.2969 36.4528 37.2547 36.5255 37.2153C36.5552 37.1992 36.5858 37.1847 36.6156 37.1691C36.69 37.13 36.7642 37.0906 36.84 37.0541C36.8731 37.0381 36.9073 37.0239 36.9409 37.0085C37.0147 36.9742 37.0881 36.9397 37.163 36.908C37.202 36.8914 37.2422 36.8771 37.2817 36.8611C37.3523 36.8327 37.4227 36.8035 37.4944 36.7772C37.533 36.763 37.5725 36.751 37.6116 36.7375C37.6852 36.7119 37.7586 36.6856 37.8333 36.6624C37.8789 36.6481 37.9255 36.6364 37.9714 36.623C38.0405 36.603 38.1092 36.5819 38.1792 36.5639C38.2308 36.5506 38.2834 36.54 38.3353 36.5278C38.4008 36.5125 38.4658 36.496 38.532 36.4824C38.5836 36.4717 38.6361 36.4639 38.688 36.4544C38.7556 36.4421 38.823 36.4285 38.8912 36.418C38.9453 36.4097 39.0003 36.4042 39.0548 36.3972C39.1219 36.3885 39.1884 36.3785 39.2561 36.3716C39.3219 36.3649 39.3884 36.3614 39.4547 36.3564C39.5119 36.3522 39.5687 36.3463 39.6262 36.3433C39.7505 36.3371 39.8755 36.3338 40.0012 36.3338C40.1356 36.3341 40.2703 36.3386 40.4045 36.3458Z" fill="#0F2350"/>
</svg>
