<svg width="35" height="35" viewBox="0 0 35 35" fill="none" xmlns="http://www.w3.org/2000/svg">
<path d="M17.5 0C7.85044 0 0 7.85054 0 17.5001C0 27.1497 7.85044 35.0001 17.5 35.0001C27.1496 35.0001 35 27.1497 35 17.5001C35 7.85044 27.1496 0 17.5 0ZM17.5 33.4747C8.69148 33.4747 1.52528 26.3085 1.52528 17.5C1.52528 8.69148 8.69148 1.52518 17.5 1.52518C26.3085 1.52518 33.4747 8.69148 33.4747 17.5C33.4747 26.3085 26.3085 33.4747 17.5 33.4747Z" fill="#CFCFCF"/>
<path d="M17.5 5.57935C17.0788 5.57935 16.7373 5.92081 16.7373 6.34199V16.7374H9.87684C9.45566 16.7374 9.1142 17.0789 9.1142 17.5001C9.1142 17.9213 9.45566 18.2627 9.87684 18.2627H17.5C17.9212 18.2627 18.2626 17.9213 18.2626 17.5001V6.34199C18.2626 5.92081 17.9212 5.57935 17.5 5.57935Z" fill="#ECECEC"/>
</svg>
