<svg width="15" height="13" viewBox="0 0 15 13" fill="none" xmlns="http://www.w3.org/2000/svg">
<path d="M14.3643 2.31402C14.4055 2.2567 14.3447 2.18268 14.2788 2.20818C13.8105 2.3894 13.3211 2.51166 12.8218 2.57192C13.3777 2.24038 13.8067 1.73569 14.0445 1.13818C14.0687 1.07731 14.0022 1.02296 13.9447 1.05462C13.4281 1.33947 12.8709 1.54458 12.2921 1.66271C12.2679 1.66766 12.2429 1.65942 12.2259 1.6415C11.7916 1.18395 11.2198 0.879298 10.5965 0.774022C9.96016 0.666534 9.30604 0.772962 8.73677 1.07661C8.1675 1.38027 7.71529 1.86397 7.45105 2.45185C7.1998 3.01082 7.13201 3.63392 7.25593 4.23233C7.26554 4.27876 7.22914 4.32259 7.18174 4.31965C6.05561 4.24983 4.95533 3.95079 3.94866 3.44055C2.94456 2.93161 2.0554 2.22359 1.33533 1.36016C1.30337 1.32184 1.24281 1.3268 1.21952 1.37092C0.995462 1.79539 0.87815 2.26851 0.878468 2.74936C0.877559 3.228 0.995213 3.69944 1.22096 4.1217C1.4467 4.54396 1.77352 4.90394 2.17233 5.16959C1.74939 5.15811 1.3347 5.05372 0.957557 4.86446C0.908953 4.84006 0.850653 4.87479 0.853181 4.92904C0.882591 5.56018 1.11467 6.19379 1.51638 6.67991C1.94387 7.19723 2.53721 7.55125 3.19605 7.6821C2.94244 7.75916 2.67913 7.79978 2.41404 7.80276C2.26977 7.80108 2.12578 7.79045 1.9829 7.77095C1.92992 7.76371 1.88667 7.81395 1.90521 7.86402C2.10172 8.39455 2.44888 8.85748 2.90534 9.1954C3.39335 9.55667 3.98202 9.75709 4.58944 9.76876C3.56374 10.5745 2.29737 11.0143 0.992215 11.0179C0.858105 11.0184 0.724056 11.014 0.590322 11.0049C0.514959 10.9998 0.480298 11.1 0.545258 11.1385C1.81692 11.8919 3.2704 12.2902 4.75295 12.2884C5.84754 12.2997 6.93343 12.0932 7.94718 11.6809C8.96092 11.2686 9.88222 10.6587 10.6572 9.88693C11.4323 9.11516 12.0455 8.19695 12.4611 7.18592C12.8767 6.1749 13.0863 5.09133 13.0778 3.99851V3.65795C13.0778 3.63555 13.0884 3.61447 13.1063 3.60097C13.5885 3.23748 14.0126 2.80351 14.3643 2.31402Z" fill="#1DADEA"/>
</svg>
