<svg width="25" height="25" viewBox="0 0 25 25" fill="none" xmlns="http://www.w3.org/2000/svg">
<rect width="25" height="25" rx="12.5" fill="#1DADEA"/>
<path d="M18.7379 8.71673C18.775 8.66505 18.7202 8.59833 18.6608 8.62131C18.2386 8.78467 17.7975 8.89489 17.3474 8.9492C17.8485 8.65034 18.2352 8.19539 18.4496 7.65677C18.4714 7.6019 18.4114 7.5529 18.3597 7.58145C17.8939 7.83822 17.3917 8.02312 16.8699 8.12961C16.8481 8.13407 16.8256 8.12664 16.8102 8.11049C16.4187 7.69803 15.9033 7.42341 15.3415 7.32851C14.7678 7.23161 14.1781 7.32755 13.665 7.60127C13.1518 7.875 12.7442 8.31103 12.506 8.84097C12.2795 9.34485 12.2184 9.90654 12.3301 10.446C12.3388 10.4878 12.3059 10.5273 12.2632 10.5247C11.2481 10.4617 10.2562 10.1922 9.34878 9.73223C8.44364 9.27345 7.64211 8.63521 6.99302 7.85688C6.96421 7.82233 6.90961 7.82681 6.88862 7.86657C6.68664 8.24921 6.58089 8.6757 6.58118 9.10915C6.58036 9.54062 6.68642 9.9656 6.88991 10.3462C7.09341 10.7269 7.38802 11.0514 7.74752 11.2909C7.36627 11.2805 6.99244 11.1864 6.65247 11.0158C6.60866 10.9938 6.55611 11.0251 6.55839 11.074C6.5849 11.6429 6.7941 12.2141 7.15622 12.6523C7.54158 13.1187 8.07644 13.4378 8.67035 13.5557C8.44173 13.6252 8.20437 13.6618 7.96541 13.6645C7.83536 13.663 7.70556 13.6534 7.57676 13.6358C7.52901 13.6293 7.49001 13.6746 7.50673 13.7197C7.68387 14.198 7.99681 14.6153 8.40829 14.9199C8.8482 15.2456 9.37885 15.4262 9.92641 15.4367C9.00179 16.1631 7.86024 16.5595 6.68372 16.5628C6.56282 16.5632 6.44199 16.5593 6.32143 16.5511C6.2535 16.5464 6.22225 16.6368 6.28081 16.6715C7.42714 17.3507 8.73737 17.7096 10.0738 17.708C11.0605 17.7182 12.0394 17.5321 12.9532 17.1604C13.867 16.7887 14.6975 16.239 15.3962 15.5433C16.0948 14.8476 16.6476 14.0198 17.0222 13.1085C17.3969 12.1971 17.5859 11.2203 17.5781 10.2352V9.9282C17.5781 9.908 17.5877 9.88901 17.6039 9.87683C18.0385 9.54917 18.4208 9.15797 18.7379 8.71673Z" fill="white"/>
</svg>
