<svg width="14" height="15" viewBox="0 0 14 15" fill="none" xmlns="http://www.w3.org/2000/svg">
<circle cx="7" cy="7" r="6" fill="white"/>
<path fill-rule="evenodd" clip-rule="evenodd" d="M0.0696776 14.089C0.0127116 14.2966 0.201042 14.4882 0.408562 14.4338L3.61647 13.5926C4.62909 14.1432 5.76915 14.4357 6.92991 14.4357H6.93334C10.753 14.4357 13.8667 11.328 13.8667 7.50784C13.8667 5.65627 13.1467 3.91479 11.838 2.60696C10.5292 1.29918 8.78977 0.576447 6.93328 0.576447C3.11366 0.576447 4.41627e-07 3.6842 4.41627e-07 7.50441C-0.000433609 8.71971 0.319093 9.91374 0.926504 10.9666L0.0696776 14.089ZM4.73587 4.19014C4.86326 4.19356 5.00449 4.20048 5.13886 4.49991C5.22796 4.69925 5.37806 5.06622 5.50033 5.36516C5.59548 5.59777 5.67377 5.78919 5.69336 5.82837C5.73813 5.91784 5.76569 6.02108 5.70714 6.14152C5.70024 6.15572 5.69372 6.16931 5.68744 6.18239C5.64047 6.28025 5.60705 6.34989 5.52806 6.44095C5.49559 6.47838 5.46175 6.51942 5.42805 6.56031C5.36877 6.63222 5.30987 6.70368 5.25939 6.75416C5.16985 6.84357 5.07682 6.94001 5.18014 7.11895C5.28352 7.29789 5.64516 7.88642 6.17903 8.36137C6.75298 8.87435 7.25207 9.09053 7.50435 9.19981C7.55333 9.22103 7.59301 9.23822 7.62213 9.25276C7.80127 9.34223 7.90802 9.32846 8.01134 9.20803C8.11471 9.08753 8.45909 8.68486 8.57968 8.50592C8.69678 8.32698 8.81731 8.35452 8.98267 8.41645C9.14797 8.47838 10.0297 8.91202 10.2088 9.00149C10.2442 9.01918 10.2773 9.03512 10.308 9.0499C10.4326 9.10989 10.5173 9.15067 10.5532 9.21146C10.598 9.28716 10.598 9.64509 10.4499 10.065C10.2984 10.4848 9.56816 10.8875 9.23751 10.9185C9.2062 10.9214 9.17505 10.9252 9.14298 10.9291C8.83997 10.9659 8.4553 11.0126 7.08483 10.4711C5.39613 9.80439 4.2814 8.15031 4.05603 7.81589C4.03824 7.78949 4.02599 7.77132 4.01944 7.7625L4.01562 7.75738C3.91309 7.61964 3.28579 6.77698 3.28579 5.90756C3.28579 5.07574 3.69396 4.64267 3.88013 4.44514C3.89193 4.43262 3.90283 4.42105 3.91269 4.41038C4.07798 4.23144 4.2709 4.18671 4.39143 4.18671C4.51202 4.18671 4.63255 4.18671 4.73587 4.19014Z" fill="url(#paint0_linear)"/>
<defs>
<linearGradient id="paint0_linear" x1="6.93334" y1="0.576447" x2="6.93334" y2="14.4431" gradientUnits="userSpaceOnUse">
<stop stop-color="#60D16B"/>
<stop offset="1" stop-color="#2FB143"/>
</linearGradient>
</defs>
</svg>
