<svg width="25" height="25" viewBox="0 0 25 25" fill="none" xmlns="http://www.w3.org/2000/svg">
<rect width="25" height="25" rx="12.5" fill="#4DC55C"/>
<path fill-rule="evenodd" clip-rule="evenodd" d="M6.31281 18.4308C6.26146 18.6179 6.43123 18.7906 6.61829 18.7416L9.51004 17.9833C10.4229 18.4797 11.4506 18.7434 12.4969 18.7434H12.5C15.9432 18.7434 18.75 15.9419 18.75 12.4982C18.75 10.8292 18.101 9.25933 16.9212 8.08039C15.7414 6.9015 14.1735 6.25 12.4999 6.25C9.05678 6.25 6.25 9.05146 6.25 12.4952C6.24961 13.5907 6.53764 14.667 7.08519 15.6161L6.31281 18.4308ZM10.5191 9.50753C10.6339 9.51062 10.7613 9.51685 10.8824 9.78678C10.9627 9.96647 11.098 10.2973 11.2082 10.5667C11.294 10.7764 11.3646 10.949 11.3822 10.9843C11.4226 11.065 11.4474 11.158 11.3947 11.2666C11.3884 11.2794 11.3826 11.2916 11.3769 11.3034C11.3346 11.3916 11.3044 11.4544 11.2332 11.5365C11.204 11.5702 11.1735 11.6072 11.1431 11.6441C11.0896 11.7089 11.0365 11.7733 10.991 11.8188C10.9103 11.8994 10.8265 11.9864 10.9196 12.1477C11.0128 12.309 11.3388 12.8395 11.82 13.2677C12.3374 13.7301 12.7873 13.925 13.0147 14.0235C13.0589 14.0426 13.0947 14.0581 13.1209 14.0712C13.2824 14.1518 13.3786 14.1394 13.4718 14.0309C13.5649 13.9222 13.8754 13.5593 13.9841 13.398C14.0896 13.2367 14.1983 13.2615 14.3474 13.3173C14.4964 13.3731 15.2912 13.764 15.4526 13.8447C15.4845 13.8606 15.5144 13.875 15.542 13.8883C15.6544 13.9424 15.7307 13.9792 15.7631 14.034C15.8035 14.1022 15.8035 14.4249 15.67 14.8033C15.5334 15.1818 14.8751 15.5448 14.5771 15.5727C14.5489 15.5754 14.5208 15.5788 14.4919 15.5823C14.2187 15.6155 13.872 15.6576 12.6366 15.1694C11.1143 14.5685 10.1094 13.0774 9.90627 12.7759C9.89023 12.7521 9.87919 12.7358 9.87329 12.7278L9.86985 12.7232C9.77742 12.599 9.21195 11.8394 9.21195 11.0557C9.21195 10.3058 9.57989 9.91546 9.74771 9.7374C9.75834 9.72612 9.76818 9.71569 9.77706 9.70607C9.92607 9.54477 10.1 9.50444 10.2086 9.50444C10.3173 9.50444 10.426 9.50444 10.5191 9.50753Z" fill="white"/>
</svg>
