<svg width="42" height="38" fill="none" xmlns="http://www.w3.org/2000/svg"><path d="M8.84 35.163l11.918 1.8a3.334 3.334 0 002.17-.414l16.69-9.67c1.432-.831 1.823-2.747.833-4.086a2.72 2.72 0 00-3.32-.867l-9.654 4.405M15.04 27.99l7.646.228c1.364.04 2.492-1.07 2.492-2.453a2.448 2.448 0 00-1.849-2.385l-8.655-2.136a3.333 3.333 0 00-.798-.096h-5.1m-6.09 15.395h4.499c.932 0 1.687-.766 1.687-1.71V21.719c0-.945-.755-1.71-1.687-1.71H2.687c-.932 0-1.687.765-1.687 1.71v13.115c0 .944.755 1.71 1.687 1.71zM19.01 11.288h2.297m0 0V8.452m0 2.836v3.967m0-3.967h6.906m-6.906-2.836V1.297c0-.037.018-.056.035-.093v-.019c0-.11.072-.185.178-.185h4.788c1.247 0 2.243 1.057 2.243 2.336v2.78c0 1.298-1.014 2.336-2.242 2.336h-5.002zm0 0h-2.314" stroke="#0C121C"/></svg>