<svg width="42" height="46" fill="none" xmlns="http://www.w3.org/2000/svg"><path d="M17.185 1h3.766m19.373 9.627l-2.617-2.65m-2.617-2.65l2.617 2.65M24.717 1h-3.766m-.019 8.283L21 21.149m0-16.485h-.55C9.651 4.956 1 13.88 1 24.832 1 35.958 9.961 45 20.99 45 32.039 45 41 35.958 41 24.832c0-5.379-2.086-10.25-5.486-13.855l-.386-.4M20.999 4.665h.55c5.1.136 9.735 2.201 13.193 5.514l.386.4M20.999 4.664L20.951 1m14.177 9.578l2.579-2.601M21 21.149l-.55.059c-1.74.253-3.072 1.793-3.072 3.625 0 2.007 1.623 3.644 3.612 3.644a3.656 3.656 0 003.651-3.644c0-1.832-1.353-3.371-3.09-3.625l-.551-.06z" stroke="#0C121C"/></svg>