<svg width="40" height="38" fill="none" xmlns="http://www.w3.org/2000/svg"><path d="M17.183 31.084l-6.895 3.259c-.397.2-.844.601-.844 1.153v1.003c.05.35.249.501.645.501h19.248c.397 0 .645-.15.645-.501v-.953c0-.552-.447-.953-.844-1.203l-6.845-3.26m-5.11 0h5.11m-5.11 0l.347-.601V24.17m4.763 6.913l-.248-.602v-6.314m-5.16-4.667c-3.373-1.303-3.224-4.512-3.224-4.562V5.513M9.468 17.114a10.97 10.97 0 008.062 7.057m-8.062-7.057a11.156 11.156 0 01-.172-.52 3.79 3.79 0 01-.199-.803 16.029 16.029 0 01-.248-1.504v-.1c0-.251-.05-.502-.05-.752V3.457m.669 13.657l-.668-.07C.366 15.942 1.01 7.87 1.01 7.77V4.76c.1-.802.546-1.253 1.24-1.303H8.8m0 0V1.5a.5.5 0 01.496-.5H30.08a.5.5 0 01.496.501v1.956m0 0v10.078l-.1 1.654c-.049.251-.099.502-.148.702 0 .05-.05.1-.05.15l-.148.602c-.046.152-.094.302-.146.451m.592-13.637h7.144c.744.05 1.19.501 1.24 1.253v3.06c.05.1.348 3.61-1.934 6.267-1.439 1.755-3.622 2.758-6.4 3.009l-.64.049m0 0c-1.195 3.447-4.08 6.155-7.693 7.02l-.248.054m-4.515.003a10.35 10.35 0 002.233.244c.764 0 1.488-.082 2.282-.247" stroke="#000" stroke-linecap="round"/></svg>