<svg width="162" height="22" fill="none" xmlns="http://www.w3.org/2000/svg"><path d="M10.05 22H0C2.672 12.931 5.32 8.28 10.43.128h9.67l-3.92 8.475 8.154-.374c1.71-3.243 2.77-5.01 4.803-8.1h10.114L28.696 22H18.52l3.54-9.41c-6.987.108-9.589 2.214-12.01 9.41zm66.557 0L74.9.128h9.102l1.201 12.588L98.097.128h11.631L86.594 22h-9.987zm55.749-4.113l6.51-17.759h12.073v.437c-5.436 2.367-5.246 6.73-8.596 14.83-.443 1.07-.38 1.745 1.011 1.745H162L157.576 22h-21.112c-3.16-.125-4.93-2.056-4.108-4.113z" fill="#000"/><path fill-rule="evenodd" clip-rule="evenodd" d="M32.11 22h10.112c2.456-3.488 5.508-4.313 13.337-4.175L54.232 22h8.343L70.792.128C54.927-.93 46.904 4.407 32.109 22zm25.219-8.599h-7.712c4.762-5.258 7.222-6.96 11.251-7.914-1.587 3.122-2.351 4.854-3.54 7.914zM94.558 22h10.366c2.331-3.798 5.647-4.384 13.273-4.113L116.554 22h8.47c3.658-8.463 5.503-13.25 8.406-21.872-16.075-.42-18.363 1.817-36.709 19.757L94.559 22zm25.599-8.599h-7.775c5.272-5.55 7.892-7.737 11.188-7.852a887.17 887.17 0 00-3.413 7.852z" fill="#000"/></svg>