<svg width="21" height="7" fill="none" xmlns="http://www.w3.org/2000/svg"><path fill-rule="evenodd" clip-rule="evenodd" d="M19.765 2.279s.711.606 1.163 1.821c.32.86-.528 2.276-.528 2.276s-.38.59-2.397.622a3.485 3.485 0 01-2.171-.653c-.541-.43-.541-2.406-.541-2.406a4.862 4.862 0 00-2.415-.856 40.803 40.803 0 00-3.145-.077c-.633.019-1.398-.014-2.205.136-1.587.296-1.759.56-1.759.56s-.22 2.299-.667 2.637c-.34.256-.982.471-2.02.547-.77.057-1.304.056-1.87-.08a2.565 2.565 0 01-.568-.202S.022 6.134 0 4.499c-.02-1.626 1.419-2.52 1.419-2.52S2.214 1.438 3.88.886A19.044 19.044 0 019.68 0c1.867.028 4.522.256 6.118.647 2.006.49 3.967 1.632 3.967 1.632z" fill="#D62424"/></svg>