<svg width="13" height="14" fill="none" xmlns="http://www.w3.org/2000/svg"><path opacity=".5" fill-rule="evenodd" clip-rule="evenodd" d="M1.36 2.572A5.975 5.975 0 013.513.682a6.074 6.074 0 015.598 0 5.975 5.975 0 012.154 1.89 6.38 6.38 0 011.117 2.843 6.34 6.34 0 01-.337 3.03 5.108 5.108 0 01-.889 1.474C9.794 11.5 8.332 12.6 6.302 14 4.27 12.6 2.83 11.5 1.469 9.92a5.11 5.11 0 01-.89-1.475 6.341 6.341 0 01.781-5.873zm4.285.155c-.631.12-1.21.41-1.664.835a2.968 2.968 0 00-.885 1.552 2.83 2.83 0 00.19 1.747A3.092 3.092 0 004.49 8.217a3.444 3.444 0 001.81.509c.644 0 1.302-.177 1.838-.509A3.092 3.092 0 009.34 6.861a2.83 2.83 0 00.19-1.747 2.968 2.968 0 00-.885-1.552 3.345 3.345 0 00-1.664-.835 3.809 3.809 0 00-.681-.061c-.219 0-.438.02-.654.061z" fill="#000"/></svg>