<svg width="35" height="30" fill="none" version="1.1" id="svg4" xmlns="http://www.w3.org/2000/svg"><path d="M12.392 26.379l-.5-.001m.5 0h-.5v0m0 0V11.23h4.884c.026 0 .107-.025.168-.15.06-.127.029-.207.012-.228l-.003-.004v0L8.916.594 8.913.589h0A.247.247 0 008.7.502a.24.24 0 00-.131.085l-.006.007h0L.526 10.848l-.003.004c-.017.021-.048.101.012.227.061.127.142.151.168.151h4.883v15.149c0 .108.125.232.23.232.506 0 1.012-.003 1.52-.004a312.06 312.06 0 014.327.004c.104-.001.23-.124.23-.233zM23.121 3.673h0v-.009c-.002-.089.073-.19.157-.223l1.24.003c1.47.005 3.072.01 4.68-.003.105 0 .23.124.23.232v15.149h4.874c.03.002.106.03.162.147.056.115.034.193.016.22l-8.026 10.243h-.001c-.024.03-.084.068-.179.068-.094 0-.154-.037-.179-.067v-.001L18.067 19.19c-.018-.028-.04-.106.016-.221.057-.116.132-.145.163-.147h4.874v-.5z" stroke="#fff" id="path2"/></svg>