<svg width="30" height="38" fill="none" xmlns="http://www.w3.org/2000/svg"><path d="M1.07 4.898a.6.6 0 01.155-.748l3.792-3.016a.595.595 0 01.905.186M1.07 4.898l4.325 8.188M1.069 4.898l4.875 9.3m4.659-4.103L5.923 1.32m0 0l5.262 9.846M24.109 1.32a.6.6 0 01.91-.182l3.761 3.074a.6.6 0 01.15.744M24.11 1.32l-4.681 8.775m4.68-8.775l-5.263 9.846m5.79 1.919l4.294-8.129m0 0L24.087 14.2M12.78 19.303H15m2.218 0H15m2.22 9H15m-2.188 0H15m0-9v9m-3.815-17.137a13.24 13.24 0 013.83-.562c1.332 0 2.618.197 3.831.563m-7.661 0a13.237 13.237 0 00-5.241 3.032m0 0a13.148 13.148 0 00-4.16 9.603C1.784 31.085 7.714 37 15.015 37s13.232-5.915 13.232-13.198c0-3.782-1.6-7.195-4.16-9.603m-5.24-3.033c1.982.6 3.77 1.65 5.24 3.033M8.112 1l2.88 5.4h8.045l2.88-5.4H8.113zm6.903 13.2c5.308 0 9.621 4.309 9.621 9.603 0 5.295-4.313 9.598-9.62 9.598-5.308 0-9.627-4.303-9.627-9.598 0-5.294 4.318-9.603 9.627-9.603z" stroke="#000"/></svg>