<svg width="32" height="32" fill="none" xmlns="http://www.w3.org/2000/svg"><path d="M18.01 4.444c-.181-.522-.434-1.022-.785-1.444m4.27 2.606a4.654 4.654 0 00-.314-1.601m3.266 3.83c.15-.532.218-1.08.188-1.632m1.916 4.647c.311-.452.55-.975.69-1.507m.377 5.024a4.83 4.83 0 001.13-1.225m-1.192 4.868A4.583 4.583 0 0029 17.225m-2.606 4.27a4.635 4.635 0 001.601-.314m-3.83 3.266c.532.15 1.08.218 1.632.188m-4.647 1.916c.452.311.975.55 1.507.69m-5.024.377c.343.442.762.84 1.225 1.13m-4.868-1.192c.181.523.434 1.021.785 1.444m-4.27-2.606c.009.551.114 1.078.314 1.601m-3.266-3.83a4.985 4.985 0 00-.188 1.632M5.449 21.15c-.311.452-.55.975-.69 1.507m-.377-5.024a4.83 4.83 0 00-1.13 1.225m1.192-4.868A4.584 4.584 0 003 14.775m2.606-4.27a4.654 4.654 0 00-1.601.314m3.83-3.266a4.985 4.985 0 00-1.632-.188m4.647-1.916a4.888 4.888 0 00-1.507-.69m5.024-.377a4.844 4.844 0 00-1.225-1.13M16 6.956a9.044 9.044 0 10.001 18.088A9.044 9.044 0 0016 6.957zM16 1C7.718 1 1 7.718 1 16s6.718 15 15 15 15-6.718 15-15S24.282 1 16 1z" stroke="#fff" stroke-linecap="round"/></svg>